<svg width="30" height="30" viewBox="0 0 30 30" fill="none" xmlns="http://www.w3.org/2000/svg">
<path d="M22.3677 15.9495V9.27727C22.3677 6.52477 19.5234 6.43945 19.5234 6.43945H10.3706C7.9054 6.43945 7.65134 8.49633 7.63306 9.1432V16.0624C7.63306 17.7218 8.58977 18.6659 8.86915 18.9073L14.0109 23.1954C14.0137 23.1982 15.0027 24.0176 15.9895 23.1949C15.9909 23.1949 15.9909 23.194 15.9909 23.194L20.7126 19.2555C22.2717 17.9566 22.3649 16.2673 22.3677 15.9495Z" fill="url(#paint0_linear_196_1581)"/>
<path d="M28.9922 2.0014L28.5605 1.56921C28.2643 1.28468 26.776 -0.00297785 25.2413 1.53124L22.598 4.17499C22.598 4.17499 21.9544 4.94187 22.8408 5.93327C22.8596 5.95437 22.8694 5.97124 22.8854 5.9914C23.3546 6.48546 23.7052 7.19562 23.7052 8.23905V10.2322C23.7052 10.2322 23.8908 11.322 24.9816 10.2322L25.239 9.97483L29.1165 6.09733C29.116 6.0964 31.1325 4.10093 28.9922 2.0014Z" fill="url(#paint1_linear_196_1581)"/>
<path d="M5.12537 10.3378C5.1413 10.3523 6.2963 11.3953 6.2963 9.91167V8.08073C6.30943 7.61339 6.43693 6.52964 7.19208 5.75433L7.1874 5.75058C7.1874 5.75058 7.2099 5.72995 7.24224 5.69573L7.24318 5.69433C7.43161 5.49558 7.99833 4.77136 7.1874 3.96089V3.96042L4.75927 1.53136C3.22412 -0.00286156 1.73583 1.28433 1.44052 1.56933L1.00833 2.00151C-1.13245 4.10105 0.883646 6.09651 0.883646 6.09651L4.76208 9.97401L5.12537 10.3378Z" fill="url(#paint2_linear_196_1581)"/>
<path d="M9.7697 21.2957L9.59767 21.1522C9.45845 21.0393 8.3808 20.2466 6.98298 21.5451L3.61455 24.914C3.42236 25.109 2.67283 25.918 2.34423 26.9432L1.8183 28.5894C1.55392 29.4154 2.40423 29.1754 2.40423 29.1754H2.40517L3.94408 28.6822C5.07423 28.3208 6.09611 27.3622 6.09611 27.3622L9.65673 23.8021C11.0091 22.4502 9.93048 21.434 9.7697 21.2957Z" fill="url(#paint3_linear_196_1581)"/>
<path d="M27.6564 26.9435C27.3269 25.9179 26.5774 25.1093 26.3852 24.9143L23.1503 21.6795C21.8758 20.4045 20.927 20.7762 20.522 21.0532L20.2727 21.2609L20.2722 21.2618L20.2502 21.2805C20.0814 21.424 18.9972 22.4482 20.5028 23.9613L23.9041 27.363C23.9041 27.363 24.9274 28.3216 26.0566 28.683L27.5955 29.1762H27.5964C27.5964 29.1762 28.4458 29.4162 28.1819 28.5902L27.6564 26.9435Z" fill="url(#paint4_linear_196_1581)"/>
<defs>
<linearGradient id="paint0_linear_196_1581" x1="15.0004" y1="6.43945" x2="15.0004" y2="23.5613" gradientUnits="userSpaceOnUse">
<stop stop-color="#DB121B"/>
<stop offset="1" stop-color="#7B090E"/>
</linearGradient>
<linearGradient id="paint1_linear_196_1581" x1="26.1745" y1="0.792969" x2="26.1745" y2="10.7166" gradientUnits="userSpaceOnUse">
<stop stop-color="#DB121B"/>
<stop offset="1" stop-color="#7B090E"/>
</linearGradient>
<linearGradient id="paint2_linear_196_1581" x1="3.81759" y1="0.792969" x2="3.81759" y2="10.7074" gradientUnits="userSpaceOnUse">
<stop stop-color="#DB121B"/>
<stop offset="1" stop-color="#7B090E"/>
</linearGradient>
<linearGradient id="paint3_linear_196_1581" x1="6.04825" y1="20.8096" x2="6.04825" y2="29.2078" gradientUnits="userSpaceOnUse">
<stop stop-color="#DB121B"/>
<stop offset="1" stop-color="#7B090E"/>
</linearGradient>
<linearGradient id="paint4_linear_196_1581" x1="23.9738" y1="20.7803" x2="23.9738" y2="29.2086" gradientUnits="userSpaceOnUse">
<stop stop-color="#DB121B"/>
<stop offset="1" stop-color="#7B090E"/>
</linearGradient>
</defs>
</svg>
