<svg width="18" height="18" viewBox="0 0 18 18" fill="none" xmlns="http://www.w3.org/2000/svg">
<path d="M14.7825 13.7177L13.74 12.6752C14.4283 11.7883 14.854 10.7261 14.9687 9.60926C15.0833 8.49245 14.8823 7.36588 14.3885 6.35763C13.8947 5.34937 13.128 4.49988 12.1754 3.90572C11.2228 3.31156 10.1227 2.99658 9.00002 2.99658C7.87734 2.99658 6.77718 3.31156 5.82462 3.90572C4.87206 4.49988 4.1053 5.34937 3.61152 6.35763C3.11773 7.36588 2.91674 8.49245 3.03138 9.60926C3.14602 10.7261 3.57169 11.7883 4.26002 12.6752L3.21752 13.7177C3.14722 13.7874 3.09142 13.8704 3.05335 13.9618C3.01527 14.0532 2.99567 14.1512 2.99567 14.2502C2.99567 14.3492 3.01527 14.4473 3.05335 14.5387C3.09142 14.63 3.14722 14.713 3.21752 14.7827C3.28724 14.853 3.37019 14.9088 3.46158 14.9469C3.55298 14.985 3.65101 15.0046 3.75002 15.0046C3.84902 15.0046 3.94705 14.985 4.03845 14.9469C4.12984 14.9088 4.21279 14.853 4.28252 14.7827L5.32502 13.7402C6.37674 14.5552 7.66951 14.9974 9.00002 14.9974C10.3305 14.9974 11.6233 14.5552 12.675 13.7402L13.7175 14.7827C13.7872 14.853 13.8702 14.9088 13.9616 14.9469C14.053 14.985 14.151 15.0046 14.25 15.0046C14.349 15.0046 14.4471 14.985 14.5384 14.9469C14.6298 14.9088 14.7128 14.853 14.7825 14.7827C14.8528 14.713 14.9086 14.63 14.9467 14.5387C14.9848 14.4473 15.0044 14.3492 15.0044 14.2502C15.0044 14.1512 14.9848 14.0532 14.9467 13.9618C14.9086 13.8704 14.8528 13.7874 14.7825 13.7177V13.7177ZM11.25 9.75022H9.00002C8.8011 9.75022 8.61034 9.67121 8.46969 9.53055C8.32903 9.3899 8.25002 9.19914 8.25002 9.00022V6.75022C8.25002 6.55131 8.32903 6.36055 8.46969 6.21989C8.61034 6.07924 8.8011 6.00022 9.00002 6.00022C9.19893 6.00022 9.38969 6.07924 9.53035 6.21989C9.671 6.36055 9.75002 6.55131 9.75002 6.75022V8.25022H11.25C11.4489 8.25022 11.6397 8.32924 11.7803 8.46989C11.921 8.61055 12 8.80131 12 9.00022C12 9.19914 11.921 9.3899 11.7803 9.53055C11.6397 9.67121 11.4489 9.75022 11.25 9.75022Z" fill="white"/>
<path d="M3.00002 4.50014C2.90131 4.50071 2.80346 4.48179 2.71209 4.44447C2.62071 4.40714 2.5376 4.35215 2.46752 4.28264C2.39722 4.21292 2.34142 4.12997 2.30335 4.03857C2.26527 3.94718 2.24567 3.84915 2.24567 3.75014C2.24567 3.65113 2.26527 3.5531 2.30335 3.46171C2.34142 3.37031 2.39722 3.28736 2.46752 3.21764L3.21752 2.46764C3.28744 2.39771 3.37046 2.34224 3.46183 2.30439C3.55319 2.26655 3.65112 2.24707 3.75002 2.24707C3.84891 2.24707 3.94684 2.26655 4.0382 2.30439C4.12957 2.34224 4.21259 2.39771 4.28252 2.46764C4.35244 2.53757 4.40791 2.62059 4.44576 2.71195C4.48361 2.80332 4.50308 2.90124 4.50308 3.00014C4.50308 3.09903 4.48361 3.19696 4.44576 3.28833C4.40791 3.37969 4.35244 3.46271 4.28252 3.53264L3.53252 4.28264C3.46244 4.35215 3.37932 4.40714 3.28795 4.44447C3.19657 4.48179 3.09872 4.50071 3.00002 4.50014Z" fill="white"/>
<path d="M15 4.50014C14.9013 4.50071 14.8034 4.48179 14.7121 4.44447C14.6207 4.40714 14.5376 4.35215 14.4675 4.28264L13.7175 3.53264C13.5763 3.39141 13.4969 3.19987 13.4969 3.00014C13.4969 2.80041 13.5763 2.60887 13.7175 2.46764C13.8587 2.32641 14.0503 2.24707 14.25 2.24707C14.4497 2.24707 14.6413 2.32641 14.7825 2.46764L15.5325 3.21764C15.6028 3.28736 15.6586 3.37031 15.6967 3.46171C15.7347 3.5531 15.7543 3.65113 15.7543 3.75014C15.7543 3.84915 15.7347 3.94718 15.6967 4.03857C15.6586 4.12997 15.6028 4.21292 15.5325 4.28264C15.4624 4.35215 15.3793 4.40714 15.2879 4.44447C15.1965 4.48179 15.0987 4.50071 15 4.50014Z" fill="white"/>
</svg>
