<?xml version="1.0" encoding="utf-8"?>
<!-- Generator: Adobe Illustrator 25.2.0, SVG Export Plug-In . SVG Version: 6.00 Build 0)  -->
<svg version="1.1" id="Layer_1" xmlns="http://www.w3.org/2000/svg" xmlns:xlink="http://www.w3.org/1999/xlink" x="0px" y="0px"
	 viewBox="0 0 1080 1080" style="enable-background:new 0 0 1080 1080;" xml:space="preserve">
<style type="text/css">
	.st0{fill:#FFFFFF;}
</style>
<g>
	<g>
		<path class="st0" d="M192.4,110.5h69.5V357h177V110.5h69.5v316h-316V110.5z"/>
		<path class="st0" d="M571.6,112.4l247.1,181.4V112.4h68.9v316L640.5,249.6v177h-68.9V112.4z"/>
	</g>
	<g>
		<path class="st0" d="M192.4,730.1h120.7v-177H192.4v-69.5h316v69.5H382.6v177h122L471,799.6H192.4V730.1z"/>
		<path class="st0" d="M609.5,799.6l-34.4-69.5l-3.5-246.5h316v316H609.5z M641.1,730.1h127.7L705,666.3l49.3-49.3l63.8,63.8V553.1
			h-177V730.1z"/>
	</g>
	<polygon class="st0" points="649.3,843.8 574.6,828.1 540,758 505.7,827.6 428.9,838.7 484.5,892.8 471.4,969.3 540,933.2 
		609.1,969.5 595.6,896.1 	"/>
</g>
</svg>
