<svg width="21" height="23" viewBox="0 0 21 23" fill="none" xmlns="http://www.w3.org/2000/svg">
<path d="M19.7125 5.2875L19.7313 5.26875L15.075 0.625L13.75 1.95L16.3875 4.5875C15.2125 5.0375 14.375 6.16875 14.375 7.5C14.375 9.225 15.775 10.625 17.5 10.625C17.9438 10.625 18.3687 10.5312 18.75 10.3625V19.375C18.75 20.0625 18.1875 20.625 17.5 20.625C16.8125 20.625 16.25 20.0625 16.25 19.375V13.75C16.25 12.3687 15.1313 11.25 13.75 11.25H12.5V2.5C12.5 1.11875 11.3813 0 10 0H2.5C1.11875 0 0 1.11875 0 2.5V22.5H12.5V13.125H14.375V19.375C14.375 21.1 15.775 22.5 17.5 22.5C19.225 22.5 20.625 21.1 20.625 19.375V7.5C20.625 6.6375 20.275 5.85625 19.7125 5.2875ZM10 8.75H2.5V2.5H10V8.75ZM17.5 8.75C16.8125 8.75 16.25 8.1875 16.25 7.5C16.25 6.8125 16.8125 6.25 17.5 6.25C18.1875 6.25 18.75 6.8125 18.75 7.5C18.75 8.1875 18.1875 8.75 17.5 8.75Z" fill="white"/>
</svg>
