<svg width="10" height="26" viewBox="0 0 10 26" fill="none" xmlns="http://www.w3.org/2000/svg">
<g clip-path="url(#clip0_43_418)">
<path d="M9.00194 8C9.00556 7.88411 9.00438 7.76742 9.00438 7.64998C9.00438 3.97732 7.21352 1 5.00438 1C2.79523 1 1.00438 3.97732 1.00438 7.64998C1.00438 7.76742 0.996443 8.5 1.00194 8H9.00194Z" fill="white" fill-opacity="0.6"/>
<path d="M9.93823 23.3104H0.184525V13.4989C0.184525 12.5695 0.247449 11.641 0.372856 10.7188L0.61881 8.91001C0.649306 8.68571 0.856807 8.51732 1.10271 8.51732H9.01994C9.26589 8.51732 9.47334 8.68566 9.50384 8.91001L9.74979 10.7188C9.8752 11.6411 9.93812 12.5696 9.93812 13.4989V23.3104H9.93823Z" fill="white" fill-opacity="0.68"/>
<path d="M9.45053 26H0.672232C0.40291 26 0.184525 25.7993 0.184525 25.5517C0.184525 25.3042 0.40291 25.1034 0.672232 25.1034H9.45058C9.71991 25.1034 9.93829 25.3042 9.93829 25.5517C9.93824 25.7993 9.71985 26 9.45053 26Z" fill="white" fill-opacity="0.44"/>
<path d="M8.96257 24.2069H1.15965V25.1035H8.96257V24.2069Z" fill="white" fill-opacity="0.44"/>
<path d="M5.06138 23.3103H0.184525L1.15988 24.2069H5.06138H8.96287L9.93823 23.3103H5.06138Z" fill="white" fill-opacity="0.44"/>
<path d="M1.5 8C1.48586 8.29478 1.15921 8.2143 1.15921 8.51721H8.96213C8.96213 8.2143 8.51414 8.29478 8.5 8H1.5Z" fill="white" fill-opacity="0.44"/>
</g>
<defs>
<clipPath id="clip0_43_418">
<rect width="10" height="26" fill="white"/>
</clipPath>
</defs>
</svg>
