<svg width="17" height="17" viewBox="0 0 17 17" fill="none" xmlns="http://www.w3.org/2000/svg">
<path d="M3.40002 3.36262C3.40002 2.43187 4.16077 1.64392 5.12552 1.70342C8.90547 1.93632 12.2205 3.20792 14.8172 5.68737C15.5542 6.39032 15.4088 7.53867 14.6447 8.12517L14.4373 8.28497L14.0998 7.91012L14.0939 7.90417C11.5983 5.34142 7.98152 3.83692 4.14037 3.83692H3.40002V3.36262ZM3.40002 4.68607V14.025C3.40002 15.0722 4.59512 15.6723 5.43577 15.0459L6.80257 14.0276V14.0293C6.80257 14.2547 6.89213 14.4709 7.05153 14.6303C7.21094 14.7897 7.42714 14.8793 7.65257 14.8793C7.87801 14.8793 8.09421 14.7897 8.25362 14.6303C8.41302 14.4709 8.50257 14.2547 8.50257 14.0293V12.3276C8.50344 12.2198 8.54521 12.1164 8.61945 12.0382C8.69369 11.9601 8.79484 11.9131 8.90243 11.9067C9.01002 11.9003 9.11601 11.9351 9.19896 12.0039C9.2819 12.0727 9.3356 12.1705 9.34917 12.2774V12.7534C9.34917 12.9789 9.43873 13.1951 9.59813 13.3545C9.75754 13.5139 9.97374 13.6034 10.1992 13.6034C10.4246 13.6034 10.6408 13.5139 10.8002 13.3545C10.9596 13.1951 11.0492 12.9789 11.0492 12.7534V10.8511C11.7504 10.3369 12.8223 9.52172 13.7607 8.80432L13.4793 8.49067C11.1512 6.10387 7.76052 4.68607 4.13952 4.68607H3.40002ZM7.01082 7.01677C7.01077 7.10021 6.99428 7.18282 6.9623 7.25989C6.93031 7.33695 6.88347 7.40696 6.82443 7.46592C6.76539 7.52489 6.69531 7.57164 6.6182 7.60352C6.5411 7.6354 6.45846 7.65178 6.37502 7.65172C6.29159 7.65167 6.20898 7.63518 6.13191 7.60319C6.05484 7.57121 5.98483 7.52436 5.92587 7.46532C5.86691 7.40628 5.82016 7.33621 5.78828 7.2591C5.7564 7.18199 5.74002 7.09936 5.74007 7.01592C5.74007 6.84741 5.80702 6.6858 5.92617 6.56664C6.04533 6.44749 6.20694 6.38055 6.37545 6.38055C6.54396 6.38055 6.70557 6.44749 6.82473 6.56664C6.94388 6.6858 7.01082 6.84741 7.01082 7.01592V7.01677ZM9.53957 8.71677C9.53957 8.88528 9.47263 9.04689 9.35348 9.16605C9.23432 9.2852 9.07271 9.35215 8.9042 9.35215C8.73569 9.35215 8.57408 9.2852 8.45492 9.16605C8.33577 9.04689 8.26882 8.88528 8.26882 8.71677C8.26882 8.54826 8.33577 8.38665 8.45492 8.26749C8.57408 8.14834 8.73569 8.0814 8.9042 8.0814C9.07271 8.0814 9.23432 8.14834 9.35348 8.26749C9.47263 8.38665 9.53957 8.54826 9.53957 8.71677ZM7.01762 10.8435C7.01762 11.0129 6.95033 11.1754 6.83053 11.2952C6.71074 11.4149 6.54826 11.4822 6.37885 11.4822C6.20944 11.4822 6.04696 11.4149 5.92717 11.2952C5.80737 11.1754 5.74007 11.0129 5.74007 10.8435C5.74007 10.6741 5.80737 10.5116 5.92717 10.3918C6.04696 10.272 6.20944 10.2047 6.37885 10.2047C6.54826 10.2047 6.71074 10.272 6.83053 10.3918C6.95033 10.5116 7.01762 10.6741 7.01762 10.8435Z" fill="white"/>
</svg>
