<svg width="26" height="26" viewBox="0 0 26 26" fill="none" xmlns="http://www.w3.org/2000/svg">
<path d="M19.5 17.3507C20.8488 17.9238 21.6667 18.6756 21.6667 19.5C21.6667 21.2951 17.7862 22.75 13 22.75C8.21387 22.75 4.33337 21.2951 4.33337 19.5C4.33337 18.6767 5.15129 17.9227 6.50004 17.3507" stroke="white" stroke-width="2" stroke-linecap="round" stroke-linejoin="round"/>
<path fill-rule="evenodd" clip-rule="evenodd" d="M12.2005 19.1479L13 18.4167L12.2005 19.1479ZM13.7995 19.1479L13.8049 19.1425L13.8179 19.1274L13.8667 19.0732L14.0465 18.8717C14.9467 17.8465 15.7956 16.7774 16.5902 15.6683C17.2857 14.6933 17.9985 13.5883 18.5413 12.4909C19.0721 11.4184 19.5 10.2386 19.5 9.14769C19.5 5.27694 16.6638 2.16669 13 2.16669C9.33617 2.16669 6.5 5.27585 6.5 9.14769C6.5 10.2386 6.92792 11.4184 7.45875 12.4909C8.0015 13.5883 8.71542 14.6933 9.40875 15.6683C10.2564 16.8504 11.1659 17.987 12.1333 19.0732L12.1821 19.1274L12.1951 19.1425L12.2005 19.1479C12.302 19.2589 12.4255 19.3476 12.5632 19.4083C12.7008 19.4689 12.8496 19.5002 13 19.5002C13.1504 19.5002 13.2992 19.4689 13.4368 19.4083C13.5745 19.3476 13.698 19.2589 13.7995 19.1479ZM13 18.4167L13.7995 19.1469L13 18.4167ZM13 6.50002C12.4254 6.50002 11.8743 6.72829 11.4679 7.13462C11.0616 7.54095 10.8333 8.09205 10.8333 8.66669C10.8333 9.24132 11.0616 9.79242 11.4679 10.1988C11.8743 10.6051 12.4254 10.8334 13 10.8334C13.5746 10.8334 14.1257 10.6051 14.5321 10.1988C14.9384 9.79242 15.1667 9.24132 15.1667 8.66669C15.1667 8.09205 14.9384 7.54095 14.5321 7.13462C14.1257 6.72829 13.5746 6.50002 13 6.50002Z" fill="white"/>
</svg>
