<svg width="285" height="142" viewBox="0 0 285 142" fill="none" xmlns="http://www.w3.org/2000/svg">
<g clip-path="url(#clip0_5_1168)">
<path d="M259.213 65L242.311 91.4119C250.942 107.848 255.359 126.169 255.169 144.732C254.978 163.295 250.185 181.521 241.219 197.776L46.8377 201.421C34.4011 180.751 28.9561 156.624 31.3097 132.617C33.6634 108.61 43.6905 85.9999 59.9044 68.1394C76.1184 50.2788 97.6562 38.1184 121.325 33.461C144.993 28.8035 169.533 31.8969 191.305 42.2826L217.065 24.403C189.094 7.0105 155.895 0.0155145 123.284 4.6437C90.6739 9.27188 60.732 25.228 38.7052 49.7164C16.6783 74.2047 3.97133 105.663 2.81069 138.58C1.65005 171.497 12.1098 203.772 32.3572 229.751L256.751 225.544C273.523 202.239 282.738 174.348 283.153 145.638C283.568 116.929 275.163 88.7832 259.073 65.0026L259.213 65Z" fill="white" fill-opacity="0.12"/>
<path d="M123.573 163.646C126.227 166.205 129.359 168.216 132.79 169.563C136.222 170.911 139.886 171.569 143.572 171.5C147.258 171.431 150.894 170.636 154.273 169.16C157.652 167.685 160.706 165.558 163.262 162.901L240.409 42.3442L122.829 123.956C120.269 126.61 118.259 129.742 116.911 133.174C115.563 136.605 114.905 140.269 114.974 143.955C115.043 147.641 115.838 151.277 117.314 154.656C118.789 158.035 120.916 161.089 123.573 163.646Z" fill="white" fill-opacity="0.12"/>
</g>
<defs>
<clipPath id="clip0_5_1168">
<rect width="284.6" height="229.628" fill="white" transform="translate(0.118774 0.648926)"/>
</clipPath>
</defs>
</svg>
