<svg width="31" height="31" viewBox="0 0 31 31" fill="none" xmlns="http://www.w3.org/2000/svg">
<path d="M25.8333 11.625C25.8333 9.22704 24.8807 6.92726 23.1851 5.23162C21.4895 3.53598 19.1897 2.58337 16.7917 2.58337H14.2083C11.8103 2.58337 9.51056 3.53598 7.81491 5.23162C6.11927 6.92726 5.16667 9.22704 5.16667 11.625V12.9167C5.16667 13.6635 5.93091 13.8142 5.93091 14.2084C5.93091 14.6026 5.16667 15.1058 5.16667 15.5V16.7917C5.16667 17.4768 5.43884 18.1339 5.92331 18.6184C6.40778 19.1029 7.06486 19.375 7.75001 19.375H11.625V21.9584C11.625 22.3009 11.7611 22.6295 12.0033 22.8717C12.2456 23.114 12.5741 23.25 12.9167 23.25H13.5625V21.9584H14.8542V23.25H16.1458V21.9584H17.4375V23.25H18.0833C18.4259 23.25 18.7544 23.114 18.9967 22.8717C19.2389 22.6295 19.375 22.3009 19.375 21.9584V19.375H23.25C23.9351 19.375 24.5922 19.1029 25.0767 18.6184C25.5612 18.1339 25.8333 17.4768 25.8333 16.7917V15.5C25.8333 14.9148 25.0691 14.6026 25.0691 14.2084C25.0691 13.8142 25.8333 13.5827 25.8333 12.9167V11.625ZM13.2855 14.3124C12.6559 17.051 11.6502 16.5839 10.3241 16.5395C8.91695 16.4913 7.97571 16.3576 7.68078 15.7319C6.95824 14.879 7.07067 10.9636 10.5468 12.4237C12.1207 13.0847 13.4809 13.6087 13.2855 14.3124ZM16.3637 19.8021C15.6865 19.8021 15.8485 19.0164 15.5 19.0225C15.1339 19.0294 15.2454 19.8021 14.5882 19.8021C14.481 19.8038 14.375 19.7805 14.2784 19.7341C14.1818 19.6877 14.0973 19.6195 14.0316 19.5348C13.9659 19.4501 13.9208 19.3513 13.8999 19.2462C13.8789 19.1411 13.8827 19.0326 13.911 18.9292C14.1528 18.251 14.4801 17.6063 14.8848 17.0108C14.9465 16.9093 15.0333 16.8254 15.1368 16.7672C15.2404 16.7089 15.3572 16.6783 15.476 16.6783C15.5948 16.6783 15.7116 16.7089 15.8151 16.7672C15.9187 16.8254 16.0055 16.9093 16.0672 17.0108C16.4724 17.6062 16.7999 18.2508 17.0417 18.9292C17.0698 19.0327 17.0734 19.1412 17.0524 19.2463C17.0313 19.3514 16.9862 19.4501 16.9204 19.5348C16.8547 19.6194 16.7701 19.6876 16.6735 19.734C16.5769 19.7804 16.4708 19.8037 16.3637 19.8021ZM23.2809 15.7319C22.986 16.3576 22.0448 16.4913 20.6376 16.5395C19.3115 16.5839 18.3059 17.051 17.6763 14.3124C17.4809 13.6087 18.841 13.0847 20.415 12.4237C23.8911 10.9636 24.0034 14.879 23.2809 15.7319V15.7319Z" fill="white"/>
<path d="M21.3125 22.7117C21.3125 23.3969 21.0403 24.054 20.5559 24.5384C20.0714 25.0229 19.4143 25.2951 18.7292 25.2951H17.4375V26.4791H16.1458V25.2951H14.8542V26.4791H13.5625V25.2951H12.2708C11.5857 25.2951 10.9286 25.0229 10.4441 24.5384C9.95967 24.054 9.6875 23.3969 9.6875 22.7117V20.6666H7.75V24.1873C7.75001 24.5968 7.84737 25.0004 8.03405 25.3649C8.22073 25.7293 8.49138 26.0442 8.82369 26.2835L12.9167 29.231L13.6917 28.8435C14.2531 28.5628 14.8723 28.4166 15.5 28.4166C16.1277 28.4166 16.7469 28.5628 17.3083 28.8435L18.0833 29.231L22.1763 26.2835C22.5086 26.0442 22.7793 25.7293 22.966 25.3649C23.1526 25.0004 23.25 24.5968 23.25 24.1873V20.6666H21.3125V22.7117Z" fill="white"/>
</svg>
