<svg viewBox="0 0 180 76" fill="none" xmlns="http://www.w3.org/2000/svg">
<path d="M-3.5 12.0002C12 14.0002 26 21.0002 61 19.0002C80.3791 17.8929 108.5 11.9998 129.5 4.5001C165.5 -4.0002 184.5 2.99995 184.5 2.99995C184.5 2.99995 184.5 -16.9999 184.5 69.5H-3.5V12.0002Z" fill="#99EE84" fill-opacity="0.2"/>
<path d="M-3.5 33.4999C1.16667 25.9999 11.8246 15.5233 44 20.9999C67.5 24.9999 96 30.4998 132 24.9999C163.5 17.4999 184.5 15.0002 184.5 15.0002C184.5 15.0002 184.5 -3.00008 184.5 83.4998H-3.5V33.4999Z" fill="url(#paint0_linear_103_13)"/>
<defs>
<linearGradient id="paint0_linear_103_13" x1="90.5" y1="-3.00024" x2="90.5" y2="83.4997" gradientUnits="userSpaceOnUse">
<stop stop-color="#99EE84"/>
<stop offset="1" stop-color="#5DEA39"/>
</linearGradient>
</defs>
</svg>
