<svg xmlns="http://www.w3.org/2000/svg" width="40" height="40" fill="none" viewBox="0 0 40 40">
  <path fill="#fff" d="M25.5 3.625c-.375-.25-.875-.125-1.25.125L12.125 12.5H3.75c-.75 0-1.25.5-1.25 1.25v12.5c0 .75.5 1.25 1.25 1.25h8.375l12.125 8.875c.25.125.5.25.75.25s.375 0 .625-.125c.375-.25.625-.625.625-1.125V4.75c0-.5-.25-1-.75-1.125Zm8.375 8c-.5-.5-1.25-.5-1.75 0s-.5 1.25 0 1.75A8.99 8.99 0 0 1 35 20c0 2.5-1 4.875-2.875 6.625-.5.5-.5 1.25 0 1.75.25.25.625.375.875.375s.625-.125.875-.375C36.25 26.125 37.5 23.25 37.5 20s-1.25-6.125-3.625-8.375Z"/>
  <path fill="#fff" d="M30.875 15.875c-.5-.5-1.25-.5-1.75.125-.5.5-.375 1.25.125 1.75.625.625 1 1.5 1 2.375s-.375 1.75-1 2.375c-.5.5-.5 1.25-.125 1.75.25.25.625.375.875.375s.625-.125.875-.375c1.25-1.125 1.875-2.625 1.875-4.125s-.75-3.25-1.875-4.25Z"/>
</svg>