<svg xmlns="http://www.w3.org/2000/svg" width="32" height="32" fill="none" viewBox="0 0 32 32">
  <path fill="#fff" d="M24.387 10.215h-2.192A6.699 6.699 0 0 0 15.958 6a6.699 6.699 0 0 0-6.238 4.215H7.53C6.096 10.215 5 11.31 5 12.743v.506c0 2.95 2.444 5.395 5.395 5.395h11.21c2.95 0 5.395-2.445 5.395-5.395v-.506c-.084-1.433-1.18-2.528-2.613-2.528Zm-8.43-2.53c1.855 0 3.457 1.012 4.384 2.53h-8.766c.927-1.518 2.528-2.53 4.383-2.53Z"/>
  <path fill="#fff" d="M21.858 20.33v1.685c0 .506-.337.843-.843.843-.505 0-.843-.337-.843-.843V20.33h-8.429v1.686c0 .506-.337.843-.843.843-.505 0-.843-.337-.843-.843V20.33C8.034 20.245 6.264 19.319 5 17.886v5.816c0 1.433 1.096 2.529 2.529 2.529h16.858c1.433 0 2.529-1.096 2.529-2.529v-5.816c-1.265 1.433-3.035 2.36-5.058 2.444Z"/>
</svg>