<svg xmlns="http://www.w3.org/2000/svg"  fill="none" viewBox="0 0 25 19">
  <path fill="#fff" d="M24.413 5.542H21.49l-.812-2.059C19.843 1.367 17.85 0 15.6 0H9.4C7.15 0 5.156 1.367 4.321 3.483l-.813 2.059H.586a.592.592 0 0 0-.568.737L.31 7.467c.065.264.3.45.568.45h.98A3.162 3.162 0 0 0 .78 10.292v2.375c0 .797.3 1.517.781 2.074v2.676c0 .874.7 1.583 1.563 1.583h1.562c.863 0 1.563-.709 1.563-1.583v-1.584h12.5v1.584c0 .874.7 1.583 1.562 1.583h1.563c.863 0 1.562-.709 1.562-1.583V14.74c.48-.556.782-1.276.782-2.074v-2.375c0-.951-.423-1.795-1.078-2.375h.98a.587.587 0 0 0 .568-.45l.293-1.188a.592.592 0 0 0-.569-.737Zm-17.19-.883a2.344 2.344 0 0 1 2.176-1.492H15.6c.959 0 1.82.59 2.177 1.492l.973 2.466H6.25l.973-2.466Zm-2.536 7.998c-.937 0-1.562-.632-1.562-1.579S3.75 9.5 4.687 9.5c.938 0 2.344 1.42 2.344 2.368 0 .947-1.406.789-2.344.789Zm15.625 0c-.937 0-2.343.158-2.343-.79 0-.947 1.406-2.367 2.343-2.367.938 0 1.563.631 1.563 1.578 0 .947-.625 1.579-1.563 1.579Z"/>
</svg>