<svg xmlns="http://www.w3.org/2000/svg" width="27" height="16" fill="none" viewBox="0 0 27 16">
  <path fill="#fff" d="M26.731 4.552a1.216 1.216 0 0 0-.147-.01c-.36-.02-1.105-.054-1.514-1.277l-.005-.004-.284-.408A2.255 2.255 0 0 0 24.7 2.6v-.005l.016.024s-.016-.044-.021-.12a.47.47 0 0 1 .103-.257c.229-.274.283-.493.278-.647a.437.437 0 0 0-.458-.467c-.005 0-.011-.005-.017-.005a.324.324 0 0 0-.141.03 2.58 2.58 0 0 1-.62.169 6.223 6.223 0 0 0-.17-.179l-.436-.597h-.114c-.011-.014-.022-.024-.022-.024l-.016-.02h-.866c-.082-.15-.159-.308-.186-.358-.054-.104-.354-.075-.44 0-.04.04-.115.199-.186.358H15.33c-.104 0-.29 0-.29.179v.054H2.872C2.865.527 2.844.397 2.664.397h-.272L2.174 0c-.594 0-.937.288-1.046.397h-.044a.115.115 0 0 0-.087.04c-.06.05-.093.164-.12.298H.294c-.19 0-.294.418-.294.83 0 .408.103.826.294.826h.55v1.014h.05v.61c0 .25 0 .503.163.652.081.074.201.115.36.115h1.492c.01.148.044.248.098.303.005.005.01.005.016.01h.005l.017.014h.005c.022.01.044.02.072.02h5.774c.43.01 1.15.11 1.705.567.25.204.446.467.582.775.246.517.23.925.213 1.318-.005.044-.005.089-.005.134-.016.462.033.566.6.73l.173.055c.643.19 1.836.537 2.506.537h.855c.202 0 .523-.074.861-.154.355-.085.72-.169.954-.169.114 0 .217.01.316.03.49.09.811.427.948 1.004.048.198.13.462.223.76.343 1.109.86 2.779.594 4.026-.039.15-.017.274.07.373a.514.514 0 0 0 .153.12v.378c0 .178.147.387.866.387.725 0 3.88-.179 4.146-.179.202 0 .174-.273.153-.397h.092c.033.134.148.462.567.462.42 0 .572-.328.615-.468h.131v-.104c.038.005.087.01.136.01.196 0 .262-.074.284-.14 0-.014.43-1.465-.164-2.733-.555-1.183-1.476-3.559-1.89-4.891-.201-.636-.125-1.228.218-1.655.31-.393.817-.622 1.427-.646.66.015.762-.244.774-.353a.342.342 0 0 0-.268-.354Zm-2.413-2.947c.01-.09.098-.164.202-.164.109 0 .201.085.201.19 0 .094-.076.168-.18.183-.12-.015-.212-.1-.223-.209Zm.496 0c-.01-.129-.125-.238-.272-.248h.027c.136 0 .25.099.25.228 0 .005-.005.015-.005.02Zm-12.922 5.19V6.71c0-.492.485-.85.899-1.004.202-.08.408-.12.594-.12h1.705c.104.324.474 1.884-1.319 2.471 0 0-.348.159.197.13.545-.035 1.58-.86 1.557-1.328l.213-.134.087-.845s.316-.179.425-.293c.78.01 1.373.303 1.629.815.256.517.114 1.178-.365 1.68l-.076.07c-.48.442-1.313.685-2.343.685-.719 0-1.493-.124-2.07-.323-1.139-.403-1.133-1.074-1.133-1.72Zm12.018-5.4.006.01c0-.005-.006-.005-.006-.01Zm1.575 14.226a.237.237 0 0 1-.245-.199h.512c-.022.06-.087.2-.267.2Z"/>
</svg>