<svg width="23" height="30" viewBox="0 0 23 30" fill="none" xmlns="http://www.w3.org/2000/svg">
<path fill-rule="evenodd" clip-rule="evenodd" d="M0 15V30L10.2887 29.9844L20.5774 29.9688L20.923 29.8367C21.939 29.4483 22.6514 28.6725 22.9075 27.6753C22.9905 27.3524 23 26.0472 23 14.999C23 3.9509 22.9905 2.64569 22.9075 2.32274C22.6162 1.18867 21.6435 0.266936 20.5229 0.0630428C20.2844 0.0196276 17.0335 0 10.0882 0H0V15ZM12.901 4.36372C15.152 4.83432 17.0058 6.25548 18.0296 8.29546C18.5988 9.42947 18.8261 10.5042 18.7785 11.8352C18.7389 12.9399 18.5292 13.8019 18.0729 14.7366C17.0273 16.8782 15.1311 18.3253 12.7799 18.7761C12.0595 18.9142 10.8517 18.9028 10.1084 18.7507C7.1997 18.1558 4.97501 15.9582 4.34356 13.0561C4.19978 12.3951 4.17217 11.1039 4.28687 10.4022C4.80974 7.20381 7.39619 4.69294 10.5952 4.2783C11.1483 4.20658 12.3651 4.25164 12.901 4.36372ZM11.2047 6.19132C10.918 6.45128 10.5185 7.24723 10.3111 7.97169C10.1671 8.47504 9.9639 9.61327 9.89601 10.2972L9.8597 10.6634H11.5H13.1403L13.104 10.2972C13.0361 9.61327 12.8329 8.47504 12.6889 7.97169C12.4815 7.24723 12.082 6.45128 11.7953 6.19132C11.6648 6.07297 11.5319 5.97618 11.5 5.97618C11.4681 5.97618 11.3352 6.07297 11.2047 6.19132ZM8.39593 6.94074C7.21243 7.73763 6.36429 9.02256 6.04521 10.5023L6.01047 10.6634H7.06234C7.86489 10.6634 8.11421 10.646 8.11427 10.5901C8.11433 10.5499 8.15554 10.1616 8.20586 9.72734C8.33487 8.61489 8.47743 7.96695 8.85412 6.78179C8.90357 6.62623 8.82003 6.65518 8.39593 6.94074ZM14.1269 6.74171C14.1269 6.77605 14.1538 6.85456 14.1866 6.91614C14.2195 6.97777 14.3365 7.38134 14.4467 7.81297C14.6244 8.50844 14.7438 9.23724 14.8586 10.3265L14.8942 10.6634H15.9419H16.9895L16.9548 10.5023C16.6388 9.03709 15.8378 7.80952 14.6577 6.98234C14.2155 6.67234 14.1269 6.63215 14.1269 6.74171ZM6.01269 12.4703C6.01269 12.645 6.27205 13.481 6.43837 13.8422C6.73106 14.4781 7.00823 14.8837 7.51061 15.4114C7.91492 15.8362 8.79108 16.5071 8.85611 16.4418C8.87035 16.4275 8.80235 16.1664 8.70503 15.8615C8.43691 15.0213 8.2626 14.0777 8.14258 12.8166L8.10493 12.4211H7.05878C6.48343 12.4211 6.01269 12.4432 6.01269 12.4703ZM9.89823 12.8166C10.0677 14.6776 10.5346 16.191 11.1596 16.9056C11.3977 17.1776 11.6023 17.1776 11.8404 16.9056C12.4654 16.191 12.9323 14.6776 13.1018 12.8166L13.1378 12.4211H11.5H9.86221L9.89823 12.8166ZM14.8574 12.8166C14.7374 14.0777 14.5631 15.0213 14.295 15.8615C14.1977 16.1664 14.1296 16.4275 14.1439 16.4418C14.2089 16.5071 15.0851 15.8362 15.4894 15.4114C15.9918 14.8837 16.2689 14.4781 16.5616 13.8422C16.7279 13.481 16.9873 12.645 16.9873 12.4703C16.9873 12.4432 16.5166 12.4211 15.9412 12.4211H14.8951L14.8574 12.8166ZM17.6294 21.7369V22.6157H11.5H5.37056V21.7369V20.858H11.5H17.6294V21.7369ZM15.9949 25.2523V26.1311H11.5H7.00508V25.2523V24.3734H11.5H15.9949V25.2523Z" fill="#5CFF80"/>
</svg>
