<svg width="19" height="19" viewBox="0 0 19 19" fill="none" xmlns="http://www.w3.org/2000/svg">
<path fill-rule="evenodd" clip-rule="evenodd" d="M6.60323 0.0404243C4.95369 0.248947 3.39424 1.01562 2.21056 2.20001C-0.0289846 4.4409 -0.63324 7.83799 0.703375 10.6735C1.80787 13.0165 4.01056 14.6377 6.54016 14.9694C8.41715 15.2155 10.339 14.7331 11.8733 13.6308C12.0557 13.4997 12.218 13.3925 12.234 13.3925C12.25 13.3925 13.4911 14.6202 14.992 16.1207C17.8683 18.9962 17.8714 18.999 18.2035 19C18.3674 19.0005 18.688 18.8657 18.7861 18.7551C18.8932 18.6344 19 18.3584 19 18.2026C19 17.8709 18.9973 17.8678 16.1229 14.9891C14.6233 13.4873 13.3964 12.2472 13.3964 12.2332C13.3964 12.2193 13.5048 12.0546 13.6374 11.8672C14.5598 10.5632 15.0271 9.10852 15.029 7.53509C15.0315 5.49982 14.2512 3.61718 12.8122 2.18593C11.6789 1.05886 10.2801 0.344479 8.68201 0.0765648C8.17787 -0.0079734 7.13009 -0.0261736 6.60323 0.0404243ZM8.38504 1.63796C10.0778 1.91 11.5229 2.82561 12.4403 4.20746C13.1227 5.23521 13.4361 6.263 13.4402 7.48676C13.4422 8.07608 13.4002 8.43318 13.265 8.9735C12.7425 11.0628 11.0681 12.7383 8.97998 13.2611C8.43998 13.3964 8.0831 13.4385 7.49413 13.4365C6.27111 13.4323 5.24394 13.1187 4.2168 12.4359C2.5775 11.3463 1.59264 9.49952 1.59205 7.51421C1.59175 6.5155 1.79648 5.6787 2.26108 4.77928C3.01178 3.32605 4.34468 2.24428 5.95362 1.78245C6.632 1.58774 7.68367 1.52523 8.38504 1.63796Z" fill="white" fill-opacity="0.25"/>
</svg>
