<svg width="11" height="11" viewBox="0 0 11 11" fill="none" xmlns="http://www.w3.org/2000/svg">
<path d="M8.56119 8.99999C4.82888 9.00524 1.99607 6.13875 2 2.43881C2 2.19687 2.196 2 2.4375 2H3.5925C3.80907 2 3.99325 2.15925 4.02519 2.37362C4.10136 2.88771 4.25091 3.38821 4.46925 3.85981L4.51432 3.95694C4.54458 4.02229 4.5511 4.09617 4.53273 4.16581C4.51436 4.23546 4.47226 4.29651 4.41369 4.33844C4.05582 4.59393 3.91932 5.108 4.198 5.50875C4.54887 6.01333 4.98679 6.45139 5.49125 6.80243C5.89244 7.08068 6.4065 6.94418 6.66156 6.58675C6.70345 6.528 6.76455 6.48574 6.83429 6.46729C6.90404 6.44883 6.97804 6.45534 7.0435 6.48568L7.14019 6.53031C7.61181 6.74906 8.11231 6.89868 8.62638 6.97481C8.84075 7.00674 9 7.19093 9 7.40793V8.56249C9 8.61998 8.98867 8.67691 8.96666 8.73002C8.94464 8.78313 8.91238 8.83138 8.8717 8.87201C8.83103 8.91264 8.78275 8.94486 8.72962 8.96682C8.67649 8.98878 8.61955 9.00005 8.56206 8.99999H8.56119Z" fill="#B9FF61"/>
</svg>
