<svg width="25" height="25" viewBox="0 0 25 25" fill="none" xmlns="http://www.w3.org/2000/svg">
<path fill-rule="evenodd" clip-rule="evenodd" d="M5.18041 0.876502V1.50296L3.11381 1.51702L1.04721 1.53104L0.826287 1.66093C0.575975 1.80808 0.37879 2.0684 0.302169 2.35284C0.233185 2.60915 0.232364 5.92013 0.301202 6.4151C0.472476 7.64669 1.01066 8.74746 1.8577 9.59899C2.68226 10.4278 3.58987 10.9248 4.73745 11.1759C4.9591 11.2244 5.15068 11.2743 5.1632 11.2868C5.17567 11.2993 5.20685 11.5862 5.23247 11.9243C5.3396 13.3399 5.79236 14.6098 6.59788 15.7541C6.98272 16.3009 7.79288 17.1098 8.34678 17.5004C8.91634 17.902 9.76019 18.315 10.4375 18.5236C10.7367 18.6157 10.9814 18.7131 10.9814 18.74C10.9814 18.7669 10.795 19.3479 10.5673 20.0312L10.1532 21.2735L8.59593 21.288L7.03866 21.3026L6.79883 21.4261C6.39702 21.633 6.31464 21.7899 5.74542 23.4325C5.46035 24.2551 5.22749 24.9445 5.22793 24.9644C5.22899 25.0119 20.021 25.0119 20.0221 24.9644C20.0225 24.9445 19.7896 24.2551 19.5046 23.4325C18.9354 21.7899 18.853 21.633 18.4512 21.4261L18.2113 21.3026L16.6541 21.288L15.0968 21.2735L14.6827 20.0312C14.455 19.3479 14.2686 18.7669 14.2686 18.74C14.2686 18.7131 14.5134 18.6157 14.8125 18.5236C15.4898 18.315 16.3337 17.902 16.9032 17.5004C17.4571 17.1098 18.2673 16.3009 18.6521 15.7541C19.4576 14.6098 19.9104 13.3399 20.0175 11.9243C20.0432 11.5862 20.0743 11.2993 20.0868 11.2868C20.0993 11.2743 20.2909 11.2244 20.5125 11.1759C21.0778 11.0522 21.5636 10.8741 22.0439 10.6144C22.6029 10.3121 22.9214 10.0723 23.3923 9.59899C24.2393 8.74746 24.7775 7.64669 24.9488 6.4151C25.0176 5.92013 25.0168 2.60915 24.9478 2.35284C24.8712 2.0684 24.674 1.80808 24.4237 1.66093L24.2028 1.53104L22.1362 1.51702L20.0696 1.50296V0.876502V0.25H12.625H5.18041V0.876502ZM5.18041 6.37038V8.76854L5.04747 8.73596C4.79319 8.67369 4.23581 8.3647 3.9243 8.11337C3.42484 7.7103 3.06735 7.17908 2.84551 6.51018C2.76391 6.26408 2.74603 6.04983 2.72766 5.0962L2.70595 3.97227H3.94315H5.18041V6.37038ZM22.5242 5.0962C22.5055 6.15517 22.4969 6.24247 22.3759 6.60687C22.0919 7.46183 21.5148 8.15446 20.7894 8.51088C20.5663 8.62047 20.3131 8.72363 20.2267 8.74011L20.0696 8.77013V6.3712V3.97227H21.3068H22.5441L22.5242 5.0962ZM12.8171 5.62796C12.9032 5.82069 13.1478 6.36419 13.3606 6.83571L13.7475 7.693L15.0265 7.70585L16.3055 7.71871L15.4079 8.91453C14.9142 9.57221 14.5103 10.1439 14.5103 10.185C14.5103 10.226 14.6417 10.7838 14.8023 11.4245C14.9628 12.0651 15.088 12.5944 15.0803 12.6005C15.0725 12.6067 14.5169 12.3086 13.8456 11.938L12.625 11.2643L11.4044 11.938C10.7331 12.3086 10.1775 12.6067 10.1697 12.6005C10.162 12.5944 10.2872 12.0651 10.4477 11.4245C10.6083 10.7838 10.7397 10.226 10.7397 10.185C10.7397 10.1439 10.3358 9.57221 9.84212 8.91453L8.94452 7.71871L10.2235 7.70585L11.5025 7.693L11.8894 6.83571C12.1022 6.36419 12.3468 5.82069 12.4329 5.62796C12.5191 5.43522 12.6055 5.27748 12.625 5.27748C12.6445 5.27748 12.7309 5.43522 12.8171 5.62796Z" fill="white"/>
</svg>
