<svg width="28" height="19" viewBox="0 0 28 19" fill="none" xmlns="http://www.w3.org/2000/svg">
<path fill-rule="evenodd" clip-rule="evenodd" d="M1.88992 0.0830232C1.42957 0.204299 1.08497 0.411396 0.73785 0.775455C0.380342 1.15045 0.16422 1.56338 0.06466 2.06178C-0.0222156 2.49658 -0.0212315 16.5074 0.0656988 16.9351C0.266732 17.9239 1.02166 18.7187 1.96094 18.9303C2.37017 19.0226 25.6233 19.0235 26.0391 18.9314C26.9669 18.7257 27.7417 17.9101 27.9356 16.9351C28.0223 16.4996 28.021 2.48823 27.9343 2.06178C27.7328 1.07039 26.9756 0.272737 26.0391 0.0654102C25.597 -0.0324972 2.26378 -0.0154598 1.88992 0.0830232ZM9.86695 3.56844C10.4845 3.73478 10.904 3.99028 11.3776 4.48886C11.8511 4.98743 12.0938 5.42902 12.2518 6.0792C12.4927 7.07088 12.2782 8.18165 11.69 8.98805L11.4955 9.25472L11.6386 9.32333C12.0012 9.49727 12.7131 10.0448 13.0833 10.4346C14.0678 11.4711 14.6584 12.8351 14.7468 14.277C14.777 14.7687 14.7681 14.8505 14.6604 15.0728C14.573 15.253 14.4779 15.3504 14.3112 15.43C14.0913 15.5351 13.8789 15.5396 9.08304 15.5408C4.11113 15.5421 4.08275 15.5415 3.84623 15.4209C3.47074 15.2295 3.37014 14.9652 3.41087 14.277C3.49556 12.8449 4.09571 11.46 5.07343 10.4407C5.44832 10.0498 6.1775 9.48616 6.51822 9.32385L6.66332 9.25472L6.46885 8.98805C6.06066 8.42841 5.802 7.61096 5.79998 6.87432C5.79877 6.4203 5.9687 5.7281 6.19171 5.27856C6.4209 4.81671 7.08408 4.11991 7.53229 3.87016C8.25256 3.4688 9.09327 3.36013 9.86695 3.56844ZM24.2253 3.57062C24.4679 3.70094 24.6613 4.03253 24.6613 4.31814C24.6613 4.60374 24.4679 4.93534 24.2253 5.06565C24.0158 5.17812 23.9093 5.18152 20.5608 5.18152C17.2122 5.18152 17.1058 5.17812 16.8963 5.06565C16.3389 4.76629 16.3273 3.94078 16.8754 3.59146L17.089 3.45533L20.5493 3.45504C23.9097 3.45476 24.0158 3.4581 24.2253 3.57062ZM8.55085 5.28455C7.17927 5.80068 7.05932 7.77391 8.35873 8.44568C8.8012 8.67441 9.35767 8.67441 9.80014 8.44568C10.3866 8.14246 10.69 7.61827 10.69 6.90828C10.69 6.41794 10.5765 6.08997 10.2864 5.74208C9.89439 5.27212 9.12383 5.06893 8.55085 5.28455ZM24.2253 7.02415C24.4679 7.15446 24.6613 7.48606 24.6613 7.77166C24.6613 8.05727 24.4679 8.38886 24.2253 8.51918C24.0158 8.63171 23.9093 8.63504 20.5567 8.63504H17.1039L16.8858 8.506C16.3356 8.18044 16.33 7.39258 16.8754 7.04498L17.089 6.90886L20.5493 6.90857C23.9097 6.90828 24.0158 6.91162 24.2253 7.02415ZM24.2253 10.4777C24.4679 10.608 24.6613 10.9396 24.6613 11.2252C24.6613 11.5108 24.4679 11.8424 24.2253 11.9727C24.0158 12.0852 23.9093 12.0886 20.5567 12.0886H17.1039L16.8858 11.9595C16.3356 11.634 16.33 10.8461 16.8754 10.4985L17.089 10.3624L20.5493 10.3621C23.9097 10.3618 24.0158 10.3651 24.2253 10.4777ZM8.21631 10.5065C6.93997 10.8144 5.85039 11.7762 5.34461 13.0413C5.26932 13.2297 5.19037 13.4809 5.16927 13.5995L5.13078 13.8153H9.07943H13.0281L12.9896 13.5995C12.8777 12.9716 12.3909 12.1217 11.8235 11.5637C11.3583 11.1061 10.966 10.8585 10.3512 10.6343C9.94119 10.4848 9.77766 10.4571 9.21612 10.4416C8.78223 10.4297 8.44364 10.4517 8.21631 10.5065ZM20.9449 13.9312C21.1875 14.0615 21.3809 14.3931 21.3809 14.6787C21.3809 14.9643 21.1875 15.2959 20.9449 15.4262C20.7415 15.5355 20.6253 15.5421 18.9165 15.5421C17.14 15.5421 17.0996 15.5395 16.8858 15.413C16.3356 15.0875 16.33 14.2996 16.8754 13.952C17.0887 13.8161 17.0923 13.8159 18.9091 13.8156C20.6256 13.8153 20.7414 13.8219 20.9449 13.9312Z" fill="#5CFF80"/>
</svg>
