<svg width="21" height="21" viewBox="0 0 21 21" fill="none" xmlns="http://www.w3.org/2000/svg">
<path fill-rule="evenodd" clip-rule="evenodd" d="M4.43022 0.0439098C3.73089 0.312627 2.42661 1.59739 1.21379 3.21227C0.7332 3.8522 0.356492 4.43427 0.158621 4.84275L0 5.17012L0.0506711 5.60926C0.452408 9.09255 3.35003 13.6423 7.23674 16.8927C9.97753 19.1848 12.9367 20.667 15.374 20.9684C15.7756 21.0181 15.7993 21.0161 16.0526 20.9123C17.0869 20.4887 19.5277 18.5253 20.4513 17.3738C21.0378 16.6426 21.124 16.291 20.8523 15.7384C20.6674 15.3625 20.4717 15.1903 19.4328 14.49C17.3152 13.0623 15.8015 12.2893 15.126 12.2904C14.6219 12.2913 14.3362 12.5 13.515 13.4675C13.2264 13.8076 12.9647 14.0858 12.9336 14.0858C12.8343 14.0858 12.1286 13.7982 11.7033 13.5844C10.2011 12.8292 8.94276 11.7152 8.01484 10.319C7.67055 9.80089 7.17719 8.83316 7.01909 8.36568L6.91398 8.05487L7.08569 7.90161C7.18012 7.8173 7.46437 7.57131 7.71728 7.35498C8.49897 6.68658 8.68279 6.42746 8.71509 5.94885C8.72887 5.74412 8.70835 5.59555 8.63466 5.36604C8.50002 4.94695 8.02591 3.98732 7.5868 3.24517C7.08853 2.40301 6.01052 0.78506 5.76719 0.51411C5.41004 0.116487 4.7998 -0.0981357 4.43022 0.0439098Z" fill="#5CFF80"/>
</svg>
