<svg width="26" height="34" viewBox="0 0 26 34" fill="none" xmlns="http://www.w3.org/2000/svg">
<path fill-rule="evenodd" clip-rule="evenodd" d="M6.58048 0.193842L6.36262 0.387615V1.99225V3.59689L6.58048 3.79066L6.79835 3.98444H12.971C19.6754 3.98444 19.4183 3.99858 19.591 3.62106C19.7016 3.37941 19.7016 0.605095 19.591 0.363443C19.4183 -0.0140757 19.6754 6.87355e-05 12.971 6.87355e-05H6.79835L6.58048 0.193842ZM2.26712 2.09737C1.29072 2.35868 0.553869 3.0422 0.168634 4.0438L0.0254136 4.41608L0.00533472 17.7969C-0.00940761 27.6466 0.00546797 31.2829 0.0617023 31.5762C0.285172 32.7415 1.21267 33.6815 2.38012 33.926C2.6312 33.9786 5.71402 34 13.0226 34C22.0513 34 23.3597 33.9875 23.7042 33.8982C24.705 33.6387 25.4406 32.9645 25.8314 31.9484L25.9746 31.5762L25.9947 18.1953C26.0094 8.34566 25.9945 4.70939 25.9383 4.41608C25.8226 3.81278 25.5647 3.33445 25.1122 2.88395C24.4288 2.20369 23.8021 1.99225 22.4692 1.99225H21.672V2.85766C21.672 3.55665 21.6455 3.80135 21.5341 4.13046C21.2785 4.8859 20.8278 5.38182 20.0741 5.73736L19.6374 5.94342L13.1674 5.96161C6.83811 5.97941 6.68768 5.97688 6.25342 5.8456C5.46607 5.60753 4.79012 4.9701 4.51816 4.20929C4.41229 3.91325 4.37007 3.59689 4.34392 2.90534L4.30936 1.99225L3.46818 1.99664C2.9568 1.99929 2.48592 2.0388 2.26712 2.09737ZM10.2323 10.0566C10.6121 10.2145 10.8495 10.6952 10.7676 11.1402C10.7283 11.3535 10.4791 11.6314 9.00916 13.1008C7.17918 14.9302 7.07378 15.0078 6.55246 14.911C6.3394 14.8714 6.15269 14.7207 5.45126 14.0225C4.7499 13.3243 4.59854 13.1384 4.55878 12.9263C4.41936 12.1823 5.12946 11.5241 5.82502 11.7527C5.9561 11.7957 6.2304 11.983 6.43466 12.1688L6.80595 12.5066L8.01849 11.308C8.68537 10.6489 9.29107 10.077 9.36445 10.0373C9.5531 9.93509 9.96215 9.94425 10.2323 10.0566ZM20.9833 12.1262C21.5611 12.5549 21.5611 13.3436 20.9833 13.7724C20.7978 13.9102 20.7401 13.9124 16.9595 13.9303L13.1239 13.9485L12.8618 13.8019C12.5859 13.6475 12.3329 13.2397 12.3329 12.9493C12.3329 12.6683 12.5853 12.2533 12.8494 12.1L13.1001 11.9544L16.9475 11.9704C20.7421 11.9862 20.7977 11.9883 20.9833 12.1262ZM10.2758 17.2404C10.5165 17.3611 10.7197 17.6316 10.77 17.898C10.8633 18.3932 10.8076 18.4691 9.07314 20.2095C8.16938 21.1164 7.33988 21.9055 7.22988 21.9629C6.92229 22.1236 6.4987 22.0898 6.19525 21.8805C6.05309 21.7824 5.65232 21.4103 5.30464 21.0537C4.62142 20.3527 4.47293 20.07 4.55611 19.6285C4.61468 19.3177 4.98531 18.9461 5.2943 18.8884C5.72249 18.8085 5.98719 18.9083 6.40911 19.3089L6.80222 19.6822L8.05712 18.4343C9.01957 17.4772 9.36471 17.1744 9.53835 17.1348C9.79197 17.0771 10.013 17.1087 10.2758 17.2404ZM20.9833 18.7668C21.5611 19.1956 21.5611 19.9842 20.9833 20.413C20.7978 20.5508 20.7401 20.553 16.9595 20.571L13.1239 20.5892L12.8618 20.4425C12.5859 20.2881 12.3329 19.8803 12.3329 19.5899C12.3329 19.3089 12.5853 18.8939 12.8494 18.7406L13.1001 18.595L16.9475 18.611C20.7421 18.6268 20.7977 18.6289 20.9833 18.7668ZM10.2758 23.881C10.5165 24.0017 10.7197 24.2722 10.77 24.5387C10.8633 25.0338 10.8076 25.1097 9.07314 26.8501C8.16938 27.757 7.33988 28.5461 7.22988 28.6035C6.92229 28.7642 6.4987 28.7304 6.19525 28.5211C6.05309 28.423 5.65232 28.0509 5.30464 27.6943C4.62142 26.9934 4.47293 26.7106 4.55611 26.2691C4.61468 25.9583 4.98531 25.5867 5.2943 25.529C5.72249 25.4491 5.98719 25.5489 6.40911 25.9495L6.80222 26.3228L8.05712 25.0749C9.01957 24.1178 9.36471 23.815 9.53835 23.7755C9.79197 23.7177 10.013 23.7494 10.2758 23.881ZM20.9379 25.375C21.2206 25.5332 21.4718 25.9224 21.4718 26.2019C21.4718 26.5278 21.2162 26.9526 20.9338 27.096C20.6871 27.2213 20.5236 27.2266 16.8974 27.2266C13.1356 27.2266 13.117 27.2259 12.859 27.0815C12.5859 26.9287 12.3329 26.5195 12.3329 26.2305C12.3329 25.949 12.5852 25.5345 12.8494 25.3821C13.0988 25.2382 13.1191 25.2374 16.8933 25.2359C20.6347 25.2344 20.69 25.2363 20.9379 25.375Z" fill="#00FF38"/>
</svg>
