<svg xmlns="http://www.w3.org/2000/svg" width="44" height="32" fill="none" viewBox="0 0 44 32">
  <path fill="#fff" d="M7.05 20.457a1.45 1.45 0 0 0 .678.885l2.785 1.61v3.207a1.459 1.459 0 0 0 1.458 1.458h3.207l1.61 2.786a1.474 1.474 0 0 0 1.263.729c.254 0 .506-.067.73-.197l2.783-1.608 2.786 1.61a1.46 1.46 0 0 0 1.992-.533l1.608-2.785h3.207a1.458 1.458 0 0 0 1.459-1.459v-3.206l2.785-1.61a1.46 1.46 0 0 0 .532-1.994l-1.608-2.784 1.61-2.782a1.459 1.459 0 0 0-.532-1.992l-2.786-1.61V6.973a1.458 1.458 0 0 0-1.458-1.458h-3.207L26.343 2.73a1.47 1.47 0 0 0-1.453-.718c-.19.025-.373.088-.539.184l-2.787 1.609-2.784-1.61a1.458 1.458 0 0 0-1.992.532l-1.61 2.785h-3.207a1.458 1.458 0 0 0-1.458 1.459v3.207l-2.785 1.61a1.462 1.462 0 0 0-.533 1.995l1.61 2.782-1.61 2.783a1.471 1.471 0 0 0-.145 1.108Zm14.514-2.433c-5.075 0-5.833-2.74-5.833-4.375 0-1.876 1.5-3.766 4.375-4.25V7.833h2.917V9.45c2.528.598 3.5 2.702 3.5 4.198h-1.459l-1.458.027c-.02-.554-.314-1.485-2.042-1.485-1.894 0-2.916.751-2.916 1.458 0 .546 0 1.459 2.916 1.459 5.075 0 5.834 2.74 5.834 4.375 0 1.877-1.5 3.767-4.375 4.25v1.583h-2.917V23.74c-3.411-.535-4.375-2.92-4.375-4.258h2.917c.016.208.232 1.458 2.916 1.458 2.013 0 2.917-.853 2.917-1.458 0-.474 0-1.459-2.917-1.459Z"/>
</svg>
