<svg xmlns="http://www.w3.org/2000/svg" width="44" height="32" fill="none" viewBox="0 0 44 32">
  <path fill="#fff" d="M11.702 8.865 9.065 4.501l1.758-1.745 4.395 2.618V7.12l4.52 4.488v.374l-1.632 1.496-4.646-4.613h-1.758Zm18.836 10.598h-1.004c-.88 0-1.633-.125-2.386-.25l-2.637 2.993 5.902 6.608c1.381 1.496 3.767 1.62 5.149.124 1.507-1.496 1.38-3.74-.126-5.111l-4.898-4.364Zm4.27-4.738c2.01-1.995 2.637-4.987 1.884-7.605-.126-.5-.754-.624-1.005-.25l-4.395 4.364-3.516-3.491 4.395-4.364c.377-.374.251-.872-.251-.997-2.637-.873-5.651-.25-7.66 1.87-2.26 2.244-2.763 5.735-1.507 8.478L10.195 23.826c-1.507 1.372-1.633 3.74-.126 5.112 1.507 1.496 3.768 1.372 5.149-.124l11.176-12.468c2.763 1.247 6.154.748 8.414-1.621Z"/>
</svg>