<svg xmlns="http://www.w3.org/2000/svg" width="44" height="32" fill="none" viewBox="0 0 44 32">
  <g clip-path="url(#a)">
    <path fill="#fff" d="M37.274 25.037c-1.955 0-3.537 1.557-3.537 3.482 0 1.924 1.582 3.481 3.537 3.481 1.955 0 3.537-1.557 3.537-3.481 0-1.925-1.582-3.482-3.537-3.482Zm0 4.815c-.742 0-1.355-.602-1.355-1.333s.613-1.334 1.355-1.334c.743 0 1.355.603 1.355 1.334 0 .73-.612 1.333-1.355 1.333Zm6.42-4.616h-.765v-3.163c0-1.114-.844-2.109-1.99-2.109h-3.672c-.077 0-.168-.01-.22-.06l-5.722-5.483c-.258-.253-.57-.469-.944-.481H26.25v13.857h6.12c.142 0 .236-.138.261-.264.386-2.178 2.315-3.836 4.643-3.836s4.257 1.658 4.643 3.836c.025.139.105.264.247.264h.459c.733 0 1.377-.619 1.377-1.328v-.937c0-.139-.151-.296-.306-.296Zm-9.334-5.272h-6.274c-.154 0-.306-.15-.306-.301v-3.916c0-.152.152-.301.306-.301h1.99c.077 0 .233.114.297.165l4.141 3.9c.155.19.09.453-.154.453Zm-19.35 5.071c-1.955 0-3.537 1.557-3.537 3.481 0 1.925 1.582 3.482 3.537 3.482 1.955 0 3.537-1.557 3.537-3.482 0-1.924-1.582-3.481-3.537-3.481Zm0 4.815c-.743 0-1.355-.603-1.355-1.334 0-.73.612-1.333 1.355-1.333s1.355.602 1.355 1.333-.612 1.334-1.355 1.334Zm10.17-11.285v9.232h-5.244c-.141-.037-.257-.125-.283-.265-.386-2.177-2.315-3.687-4.643-3.687s-4.257 1.51-4.642 3.687c-.026.127-.142.228-.283.265h-3.42c-.686-.037-1.225-.584-1.225-1.259v-4.164h11.668a3.664 3.664 0 0 1-.118-4.677C13.091 12.894 7.58 6.27 6.005 4.024l-.923 5.808.945.121-.577 4.359-.692-.09-.048.297c1.264.537 2.11 1.758 2.11 3.136 0 .177-.014.356-.042.536-.272 1.693-1.75 2.9-3.44 2.9A3.477 3.477 0 0 1 0 18.665l1.657-.5a1.747 1.747 0 0 0 1.681 1.222c.846 0 1.597-.608 1.73-1.46a1.737 1.737 0 0 0-1.462-1.974.861.861 0 0 1-.566-.339.843.843 0 0 1-.155-.634l.155-.977-.533-.069.577-4.358.966.124 1.1-6.907a7.338 7.338 0 0 1-.197-.298C5.44 2.42 8.792 0 8.792 0 12.05 3.852 21.74 14.726 25.18 18.565Z"/>
  </g>
  <defs>
    <clipPath id="a">
      <path fill="#fff" d="M0 0h44v32H0z"/>
    </clipPath>
  </defs>
</svg>
