<svg width="29" height="29" viewBox="0 0 29 29" fill="none" xmlns="http://www.w3.org/2000/svg">
<g clip-path="url(#clip0_103_4621)">
<path d="M14.5 18.125C16.502 18.125 18.125 16.502 18.125 14.5C18.125 12.498 16.502 10.875 14.5 10.875C12.498 10.875 10.875 12.498 10.875 14.5C10.875 16.502 12.498 18.125 14.5 18.125Z" fill="white"/>
<path d="M23.5625 4.53125H5.4375C5.19715 4.53125 4.96664 4.62673 4.79668 4.79668C4.62673 4.96664 4.53125 5.19715 4.53125 5.4375V24.5956C4.53125 25.5234 4.8998 26.4131 5.55583 27.0692C6.21185 27.7252 7.10161 28.0938 8.02937 28.0938H20.9706C21.8984 28.0938 22.7881 27.7252 23.4442 27.0692C24.1002 26.4131 24.4688 25.5234 24.4688 24.5956V5.4375C24.4688 5.19715 24.3733 4.96664 24.2033 4.79668C24.0334 4.62673 23.8029 4.53125 23.5625 4.53125ZM14.5 19.9375C13.4246 19.9375 12.3733 19.6186 11.4791 19.0211C10.5849 18.4236 9.88796 17.5744 9.47641 16.5808C9.06485 15.5873 8.95717 14.494 9.16698 13.4392C9.37679 12.3844 9.89466 11.4156 10.6551 10.6551C11.4156 9.89466 12.3844 9.37679 13.4392 9.16698C14.494 8.95717 15.5873 9.06485 16.5808 9.47641C17.5744 9.88796 18.4236 10.5849 19.0211 11.4791C19.6186 12.3733 19.9375 13.4246 19.9375 14.5C19.9375 15.9421 19.3646 17.3252 18.3449 18.3449C17.3252 19.3646 15.9421 19.9375 14.5 19.9375Z" fill="white"/>
<path d="M25.375 0.90625H3.625C2.90394 0.90625 2.21242 1.19269 1.70255 1.70255C1.19269 2.21242 0.90625 2.90394 0.90625 3.625V9.0625C0.907826 9.62342 1.08286 10.1701 1.40735 10.6277C1.73184 11.0852 2.18991 11.4312 2.71875 11.6181V5.4375C2.71875 4.71644 3.00519 4.02492 3.51505 3.51505C4.02492 3.00519 4.71644 2.71875 5.4375 2.71875H23.5625C24.2836 2.71875 24.9751 3.00519 25.4849 3.51505C25.9948 4.02492 26.2812 4.71644 26.2812 5.4375V11.6181C26.8101 11.4312 27.2682 11.0852 27.5926 10.6277C27.9171 10.1701 28.0922 9.62342 28.0938 9.0625V3.625C28.0938 2.90394 27.8073 2.21242 27.2974 1.70255C26.7876 1.19269 26.0961 0.90625 25.375 0.90625Z" fill="white"/>
</g>
<defs>
<clipPath id="clip0_103_4621">
<rect width="29" height="29" fill="white"/>
</clipPath>
</defs>
</svg>
