<svg width="16" height="16" viewBox="0 0 16 16" fill="none" xmlns="http://www.w3.org/2000/svg">
<g clip-path="url(#clip0_245_13)">
<path d="M3.78065 2.83779C6.39931 0.691794 10.2693 0.841128 12.714 3.28579C15.3173 5.88913 15.3173 10.1105 12.714 12.7138C10.1106 15.3171 5.88931 15.3171 3.28598 12.7138C2.48707 11.916 1.90403 10.9282 1.59162 9.84321C1.27921 8.75822 1.24767 7.61164 1.49998 6.51113L1.55131 6.30246L2.84065 6.64246C2.52101 7.8573 2.64044 9.14598 3.1779 10.2814C3.71535 11.4168 4.63634 12.326 5.77853 12.8489C6.92073 13.3718 8.21084 13.4747 9.42148 13.1395C10.6321 12.8043 11.6856 12.0526 12.3963 11.0167C13.1069 9.9809 13.4291 8.72745 13.3061 7.4773C13.1831 6.22715 12.6228 5.06054 11.7239 4.18306C10.825 3.30559 9.64519 2.77357 8.39243 2.68077C7.13968 2.58797 5.89437 2.94035 4.87598 3.67579L4.72865 3.78646L5.40665 4.46446L2.34265 5.17113L3.04931 2.10713L3.77998 2.83779H3.78065ZM8.66665 3.99979V5.33313H10.3333V6.66646H6.66665C6.58335 6.66631 6.50301 6.69735 6.44146 6.75347C6.3799 6.80959 6.34159 6.88672 6.33406 6.96968C6.32654 7.05263 6.35034 7.1354 6.40079 7.20168C6.45124 7.26796 6.52468 7.31295 6.60665 7.32779L6.66665 7.33313H9.33331C9.77534 7.33313 10.1993 7.50872 10.5118 7.82128C10.8244 8.13384 11 8.55777 11 8.99979C11 9.44182 10.8244 9.86575 10.5118 10.1783C10.1993 10.4909 9.77534 10.6665 9.33331 10.6665H8.66665V11.9998H7.33331V10.6665H5.66665V9.33313H9.33331C9.41661 9.33328 9.49695 9.30224 9.5585 9.24612C9.62006 9.19 9.65837 9.11287 9.6659 9.02991C9.67342 8.94696 9.64962 8.86419 9.59917 8.79791C9.54872 8.73163 9.47528 8.68664 9.39331 8.67179L9.33331 8.66646H6.66665C6.22462 8.66646 5.80069 8.49087 5.48813 8.17831C5.17557 7.86575 4.99998 7.44182 4.99998 6.99979C4.99998 6.55777 5.17557 6.13384 5.48813 5.82128C5.80069 5.50872 6.22462 5.33313 6.66665 5.33313H7.33331V3.99979H8.66665Z" fill="white"/>
</g>
<defs>
<clipPath id="clip0_245_13">
<rect width="16" height="16" fill="white"/>
</clipPath>
</defs>
</svg>
