<svg xmlns="http://www.w3.org/2000/svg" width="36" height="36" fill="none" viewBox="0 0 36 36">
  <g opacity=".1">
    <path fill="#fff" d="M35.373 16.343h-.61c-.607-4.793-5.143-4.797-6.705-4.797-.394 0-.78.01-1.143.02-.31.008-.602.016-.871.016-.813 0-1.547.034-2.218.098a18.284 18.284 0 0 0-11.863 0 23.21 23.21 0 0 0-2.218-.098c-.269 0-.562-.008-.87-.016-.364-.01-.749-.02-1.143-.02-1.563 0-6.099.004-6.705 4.797H.625a.626.626 0 0 0 0 1.25h.329c-.04 2.576 1.155 7.261 6.053 7.679.098.014.307.037.602.037 1.161 0 4.193-.366 7.292-3.743.215-.217 1.573-1.674 2.181-3.972h1.623c.61 2.298 1.966 3.755 2.182 3.972 3.098 3.378 6.13 3.743 7.29 3.743.298 0 .505-.023.604-.037 4.897-.418 6.094-5.104 6.052-7.678h.54a.625.625 0 1 0 0-1.251Zm-16.105-2.948c-.672.746-.94 1.68-.82 2.86.003.03.011.057.015.088h-1.14c.003-.031.011-.057.014-.089.121-1.178-.146-2.113-.82-2.859-.458-.508-1.102-.897-1.931-1.19 2.184-.43 4.43-.43 6.614 0-.83.293-1.473.683-1.932 1.19Z"/>
    <path fill="#fff" d="M19.468 16.15c-.186-1.814.654-3.544 6.575-3.544 2.718 0 7.766-.776 7.766 4.853 0 0 .242 6.359-5.144 6.795 0 0-3.398.582-7.037-3.396-.001 0-1.863-1.81-2.16-4.709Zm-3.149 0c.186-1.814-.654-3.544-6.576-3.544-2.717 0-7.764-.776-7.764 4.853 0 0-.243 6.359 5.144 6.795 0 0 3.396.582 7.037-3.396 0 0 1.86-1.81 2.159-4.709Z"/>
    <path fill="#fff" d="m7.524 12.566-5.527 5.528c-.023-.39-.016-.638-.016-.638 0-.247.008-.48.03-.698l4.11-4.102a12.97 12.97 0 0 1 1.403-.09Zm3.494.068-8.361 8.363a7.744 7.744 0 0 1-.473-1.515l6.885-6.885c.24 0 .465.007.675.007.458.001.878.008 1.274.03Zm14.31-.023-5.421 5.423a6.61 6.61 0 0 1-.3-1.028l4.312-4.313c.427-.036.9-.067 1.41-.082Zm3.578-.022-7.74 7.732a8.157 8.157 0 0 1-.772-1.2l6.533-6.532c.614-.015 1.29-.038 1.98 0Z"/>
  </g>
</svg>

