<svg xmlns="http://www.w3.org/2000/svg" width="31" height="31" fill="none" viewBox="0 0 31 31">
  <g opacity=".1">
    <path fill="#fff" d="M24.864 6.31a34.105 34.105 0 0 0-5.896 3.857 3.6 3.6 0 0 1-3.598.528 3.5 3.5 0 0 1-1.141-.759 3.602 3.602 0 0 1 .447-5.412C19.613.77 23.916-.984 25.46.56a2.983 2.983 0 0 1 .898 2.668c-.161.895-.939 1.937-1.495 3.082ZM10.167 18.968a34.105 34.105 0 0 0-3.857 5.895c-1.145.557-2.187 1.335-3.082 1.496a2.985 2.985 0 0 1-2.668-.898c-1.544-1.544.21-5.848 3.964-10.786a3.671 3.671 0 0 1 2.932-1.468 3.482 3.482 0 0 1 2.48 1.022 3.566 3.566 0 0 1 .231 4.739Z"/>
    <path fill="#fff" d="m25.26.36 5.15 5.15c2.134 2.135-1.708 9.437-8.585 16.315-6.878 6.877-14.18 10.72-16.314 8.586L.359 25.259c.988.987 3.091.696 5.749-.597 3.07-1.49 6.877-4.303 10.565-7.99 3.687-3.685 6.5-7.495 7.989-10.564 1.293-2.658 1.584-4.761.597-5.749Z"/>
    <path fill="#fff" d="M19.974 18.451h-1.05a.472.472 0 0 0-.473.473v1.05c0 .26.212.472.473.472h1.05c.26 0 .472-.211.472-.472v-1.05a.472.472 0 0 0-.472-.473Zm-5.152 4.294h-1.05a.472.472 0 0 0-.472.472v1.05c0 .26.211.472.472.472h1.05c.26 0 .472-.211.472-.472v-1.05a.472.472 0 0 0-.472-.472ZM9.67 26.18H8.62a.472.472 0 0 0-.472.471v1.05c0 .261.212.473.473.473h1.05c.26 0 .472-.212.472-.472v-1.05a.472.472 0 0 0-.472-.473ZM24.266 13.3h-1.05a.472.472 0 0 0-.472.472v1.05c0 .26.211.472.472.472h1.05a.472.472 0 0 0 .473-.472v-1.05a.472.472 0 0 0-.473-.472ZM27.7 8.149h-1.05a.472.472 0 0 0-.471.472v1.05c0 .26.211.472.472.472h1.05c.26 0 .472-.211.472-.472V8.62a.472.472 0 0 0-.472-.472Z"/>
  </g>
</svg>

