<svg xmlns="http://www.w3.org/2000/svg" width="32" height="32" fill="none" viewBox="0 0 32 32">
  <g clip-path="url(#a)" opacity=".1">
    <path fill="#fff" d="M20.497 4.375A4.504 4.504 0 0 0 16 0a4.504 4.504 0 0 0-4.497 4.375C7.196 6.083 4 10.418 4 15.5V29c0 1.654 1.346 3 3 3h18c1.654 0 3-1.346 3-3V15.5c0-5.07-3.185-9.413-7.503-11.125ZM16 2c1.113 0 2.057.73 2.38 1.737a12.053 12.053 0 0 0-4.76 0A2.504 2.504 0 0 1 16 2Zm8 23.5c0 1.654-1.346 3-3 3H11c-1.654 0-3-1.346-3-3V22c0-1.654 1.346-3 3-3h10c1.654 0 3 1.346 3 3v3.5Zm-.5-9a1 1 0 0 1-1-1c0-3.584-2.916-6.5-6.5-6.5a6.507 6.507 0 0 0-6.5 6.5 1 1 0 1 1-2 0C7.5 10.813 11.313 7 16 7c4.687 0 8.5 3.813 8.5 8.5a1 1 0 0 1-1 1Z"/>
    <path fill="#fff" d="M21 21H11c-.551 0-1 .449-1 1v3.5c0 .551.449 1 1 1h10c.551 0 1-.449 1-1V22c0-.551-.449-1-1-1Zm10-4h-.688a.312.312 0 0 0-.312.313v10.5c0 .277.335.42.53.224A4.986 4.986 0 0 0 32 24.5V18a1 1 0 0 0-1-1ZM0 18v6.5c0 1.38.562 2.631 1.47 3.537.195.196.53.053.53-.223V17.312A.313.313 0 0 0 1.687 17H1a1 1 0 0 0-1 1Z"/>
  </g>
  <defs>
    <clipPath id="a">
      <path fill="#fff" d="M0 0h32v32H0z"/>
    </clipPath>
  </defs>
</svg>
