<svg xmlns="http://www.w3.org/2000/svg" width="20" height="35" fill="none" viewBox="0 0 20 35">
  <path fill="#fff" fill-opacity=".1" fill-rule="evenodd" d="M5.058.166C4.47.445 4.42.57 3.748 3.372c-.326 1.361-.593 2.513-.593 2.56 0 .067 1.413.085 6.847.085 3.767 0 6.865-.016 6.885-.037.02-.02-.244-1.175-.587-2.566C15.602.578 15.56.472 14.981.18L14.627 0h-4.61l-4.61.001-.349.165Zm-1.89 7.288C1.992 7.769.988 8.603.432 9.726c-.456.923-.445.726-.424 7.983l.019 6.53.15.445c.434 1.292 1.383 2.277 2.692 2.795l.453.18h13.383l.453-.18c1.329-.526 2.29-1.535 2.693-2.83l.149-.478V10.838l-.148-.479c-.4-1.291-1.485-2.407-2.777-2.856l-.438-.153-6.489-.014c-6.214-.013-6.51-.008-6.98.118Zm3.065 8.72a1.44 1.44 0 0 1 .4 2.4c-.656.587-1.62.453-2.121-.294-.232-.346-.284-.982-.111-1.353.337-.722 1.133-1.05 1.832-.752Zm4.304 0a1.44 1.44 0 0 1 .4 2.4c-.656.587-1.62.453-2.121-.294-.232-.346-.284-.982-.111-1.353.337-.722 1.133-1.05 1.832-.752Zm4.304 0a1.44 1.44 0 0 1 .4 2.4c-.656.587-1.62.453-2.121-.294-.232-.346-.284-.982-.111-1.353.337-.722 1.133-1.05 1.832-.752ZM3.135 29.044c-.014.028.249 1.18.585 2.559.671 2.754.747 2.945 1.283 3.23.265.14.353.143 4.91.162 4.017.016 4.676.005 4.909-.085.281-.109.57-.347.739-.608.082-.127 1.312-5.045 1.312-5.246 0-.076-13.698-.089-13.738-.012Z" clip-rule="evenodd"/>
</svg>
