<svg xmlns="http://www.w3.org/2000/svg" width="27" height="37" fill="none" viewBox="0 0 27 37">
  <path fill="#fff" fill-opacity=".1" fill-rule="evenodd" d="M8.29.15c-.34.13-.658.423-2.723 2.508C-.057 8.337 0 8.278 0 8.477c0 .138.239.466.876 1.206.482.56.948 1.044 1.035 1.076a.523.523 0 0 0 .315 0c.086-.032 1.295-.876 2.685-1.875C7.257 7.2 7.441 7.081 7.462 7.25c.012.1-.111 1.598-.275 3.33-.31 3.285-.31 3.345-.005 3.508.192.103 12.444.103 12.636 0 .306-.163.306-.223-.005-3.509-.163-1.731-.287-3.23-.275-3.329.02-.168.204-.05 2.55 1.635 1.391 1 2.6 1.843 2.686 1.875a.523.523 0 0 0 .315 0c.087-.032.553-.516 1.035-1.076.637-.74.876-1.068.876-1.206 0-.2.057-.14-5.567-5.819-2.8-2.828-2.56-2.678-4.22-2.646l-1.062.02-.056.392c-.078.537-.314.986-.744 1.414-.432.43-.867.656-1.434.745-.858.134-1.646-.125-2.268-.745-.43-.428-.666-.877-.743-1.414l-.057-.392L9.761.016C8.815.003 8.623.02 8.29.15Zm-.16 15.634c-.127.135-.182.306-.226.705-.035.321.044 4.354.203 10.355.208 7.858.28 9.862.36 9.992.099.161.117.163 1.754.163 1.208 0 1.687-.024 1.777-.09.109-.08.195-1.05.706-7.932.32-4.313.597-7.885.615-7.938.053-.148.358-.071.38.096.011.08.28 3.64.598 7.914.508 6.84.593 7.78.702 7.86.091.066.566.09 1.771.09 1.437 0 1.66-.015 1.745-.118.08-.095.155-2.04.376-9.667.302-10.4.3-11.087-.02-11.426l-.171-.182H8.3l-.169.178Z" clip-rule="evenodd"/>
</svg>

