<svg xmlns="http://www.w3.org/2000/svg" width="26" height="36" fill="none" viewBox="0 0 26 36">
  <g opacity=".1">
    <path fill="#fff" d="M8.722 0s3.48 3.286 7.64 0l.84 6.338-.84 6.946h-7.64l-.888-7.09L8.722 0Z"/>
    <path fill="#fff" d="M14.778.97v12.314h1.583l.84-6.946L16.362 0a7.375 7.375 0 0 1-1.583.97Z"/>
    <path fill="#fff" d="M25.083 16.31v17.994c0 .936-.76 1.696-1.697 1.696H1.696C.76 36 0 35.24 0 34.304V16.31c0-.385.131-.759.372-1.06l.608-.76a13.038 13.038 0 0 0 2.858-8.147V1.02C3.838.456 4.294 0 4.857 0h3.865v7.098a3.8 3.8 0 0 0 1.119 2.7 3.82 3.82 0 0 0 6.52-2.701V0h3.865c.563 0 1.02.456 1.02 1.02v5.323c0 2.961 1.007 5.834 2.857 8.146l.608.761c.24.301.372.675.372 1.06Z"/>
    <path fill="#fff" d="M10.959 10.917c.27 0 .536-.028.791-.082a3.82 3.82 0 0 1-3.028-3.737V0H7.14v7.098a3.82 3.82 0 0 0 3.82 3.82Zm13.752 4.333-.608-.76a13.038 13.038 0 0 1-2.858-8.147V1.02A1.02 1.02 0 0 0 20.225 0h-1.582c.563 0 1.019.456 1.019 1.019v5.324c0 2.961 1.008 6.486 2.858 8.798l.608.76c.24.302.372.675.372 1.06v17.342c0 .937-.76 1.697-1.697 1.697h1.583c.937 0 1.697-.76 1.697-1.696V16.31c0-.385-.131-.759-.372-1.06Z"/>
    <path fill="#fff" d="M25.082 18.921v1.087h-.812c-.97 0-1.76-.789-1.76-1.76v-1.632l-.416-.52a15.671 15.671 0 0 1-3.42-9.753V0h1.086v6.343c0 3.286 1.13 6.508 3.183 9.074l.536.67a.544.544 0 0 1 .118.339v1.822c0 .372.302.673.673.673h.812ZM6.409 0v6.343a15.67 15.67 0 0 1-3.42 9.753l-.418.52v1.632c0 .971-.79 1.76-1.759 1.76H0V18.92h.812c.37 0 .673-.301.673-.673v-1.822c0-.123.042-.243.119-.339l.536-.67a14.576 14.576 0 0 0 3.182-9.074V0H6.41Zm7.344 4.44H11.33a.543.543 0 1 1 0-1.087h2.424a.543.543 0 1 1 0 1.086Z"/>
  </g>
</svg>
