<svg xmlns="http://www.w3.org/2000/svg" width="34" height="36" fill="none" viewBox="0 0 34 36">
  <g opacity=".1">
    <path fill="#fff" d="m26.992 9.743 2.177-4.907A2.893 2.893 0 0 0 23.88 2.49l-1.445 3.256a4.282 4.282 0 0 1-3.913 2.546h-3.817a4.282 4.282 0 0 1-3.914-2.546L9.346 2.49a2.893 2.893 0 0 0-5.289 2.346l2.177 4.907a6.246 6.246 0 0 1-.903 6.522L2.562 19.6a3.693 3.693 0 0 0-.852 2.359v10.893A3.148 3.148 0 0 0 4.858 36h23.51a3.148 3.148 0 0 0 3.148-3.148V21.959a3.7 3.7 0 0 0-.852-2.36l-2.769-3.334a6.246 6.246 0 0 1-.903-6.522Z"/>
    <path fill="#fff" d="m30.664 19.6-2.769-3.335a6.246 6.246 0 0 1-.903-6.522l2.177-4.907a2.893 2.893 0 0 0-3.954-3.752 2.893 2.893 0 0 1 1.334 3.752l-2.177 4.907a6.246 6.246 0 0 0 .904 6.522l2.768 3.335c.55.663.852 1.497.852 2.359v10.893A3.148 3.148 0 0 1 25.748 36h2.62a3.148 3.148 0 0 0 3.148-3.148V21.959a3.7 3.7 0 0 0-.852-2.36Z"/>
    <path fill="#fff" d="m24.323.875-1.291 2.91a3.124 3.124 0 0 0 5.711 2.533l1.296-2.92a1.47 1.47 0 0 0-.753-1.943L26.258.125a1.47 1.47 0 0 0-1.935.75Zm-15.42 0 1.291 2.91a3.124 3.124 0 1 1-5.711 2.533l-1.296-2.92a1.47 1.47 0 0 1 .753-1.943L6.968.125a1.47 1.47 0 0 1 1.935.75Zm20.448 20.748v2c0 .287.234.52.521.52h2.834a.521.521 0 0 0 .52-.52v-2a.521.521 0 0 0-.52-.521h-2.834a.521.521 0 0 0-.52.52ZM0 21.623v2c0 .287.233.52.521.52h2.833a.521.521 0 0 0 .521-.52v-2a.521.521 0 0 0-.52-.521H.52a.521.521 0 0 0-.521.52Zm29.351 6.607v1.999c0 .287.234.52.521.52h2.834a.521.521 0 0 0 .52-.52v-2a.521.521 0 0 0-.52-.52h-2.834a.521.521 0 0 0-.52.52ZM0 28.23v1.999c0 .287.233.52.521.52h2.833a.521.521 0 0 0 .521-.52v-2a.521.521 0 0 0-.52-.52H.52a.521.521 0 0 0-.521.52Zm24.162-4.087H9.064a.44.44 0 0 1-.44-.44v-2.162a.44.44 0 0 1 .44-.44h15.098a.44.44 0 0 1 .44.44v2.163a.44.44 0 0 1-.44.44Zm0 6.607H9.064a.44.44 0 0 1-.44-.44v-2.163a.44.44 0 0 1 .44-.439h15.098a.44.44 0 0 1 .44.44v2.162a.44.44 0 0 1-.44.44Zm-7.549-13.46c-.153 0-.306-.027-.451-.08l-4.92-1.817a1.304 1.304 0 0 1 .902-2.446l4.47 1.65 4.468-1.65a1.304 1.304 0 1 1 .903 2.447l-4.92 1.815c-.146.054-.299.08-.452.08Z"/>
  </g>
</svg>
