<svg xmlns="http://www.w3.org/2000/svg" width="36" height="36" fill="none" viewBox="0 0 36 36">
  <g clip-path="url(#a)" opacity=".1">
    <path fill="#fff" d="M35.186 17.044a1.05 1.05 0 0 0-1.185.558c-1.095 2.207-3.477 3.632-5.96 3.632h-5.822c-.755 0-1.5.168-2.21.496a5.21 5.21 0 0 0-2.008 1.618 5.09 5.09 0 0 0-1.983-1.594c-.663-.345-1.416-.52-2.237-.52H7.96c-2.484 0-4.866-1.425-5.96-3.632a1.054 1.054 0 0 0-2 .469v8.437C0 31.742 4.328 36 9.563 36c4.598 0 7.19-2.045 8.437-3.468C19.246 33.955 21.839 36 26.438 36 31.672 36 36 31.742 36 26.508V18.07c0-.49-.337-.915-.814-1.026ZM9.563 31.78a5.28 5.28 0 0 1-5.274-5.273c0-.583.472-1.055 1.055-1.055h8.437c.583 0 1.055.472 1.055 1.055a5.28 5.28 0 0 1-5.274 5.273Zm16.874 0a5.28 5.28 0 0 1-5.273-5.273c0-.583.472-1.055 1.055-1.055h8.437c.583 0 1.055.472 1.055 1.055a5.28 5.28 0 0 1-5.273 5.273Z"/>
    <path fill="#fff" d="M34.945 7.805a15.97 15.97 0 0 0-10.056 3.583l-.022.018c.132 1.98-.05 4.466-.561 7.719h2.167l.52-.773a9.533 9.533 0 0 1 4.804-3.706C34.27 13.806 36 11.48 36 8.859c0-.583-.472-1.054-1.055-1.054Zm-18.01 12.048c.371.17.727.373 1.064.605a7.29 7.29 0 0 1 1.132-.646 7.34 7.34 0 0 1 3.038-.686c.587-3.631.758-6.292.536-8.225-.284-2.473-1.186-3.517-1.983-4.437-.897-1.037-1.671-1.933-1.671-5.41a1.055 1.055 0 0 0-2.11 0c0 3.468-.773 4.346-1.67 5.363-.801.91-1.71 1.942-1.995 4.423-.223 1.94-.05 4.62.546 8.286 1.124.005 2.171.25 3.113.727ZM1.055 7.805a15.97 15.97 0 0 1 10.056 3.583l.022.018c-.132 1.98.05 4.466.561 7.719H9.527l-.52-.773a9.533 9.533 0 0 0-4.804-3.706C1.73 13.806 0 11.48 0 8.859c0-.583.472-1.054 1.055-1.054Z"/>
  </g>
  <defs>
    <clipPath id="a">
      <path fill="#fff" d="M0 0h36v36H0z"/>
    </clipPath>
  </defs>
</svg>
