<svg xmlns="http://www.w3.org/2000/svg" width="36" height="20" fill="none" viewBox="0 0 36 20">
  <g opacity=".1">
    <path fill="#fff" d="M16.321 2.865 12.746.182a.911.911 0 0 0-1.107.01 2.896 2.896 0 0 0-1.047 2.903l.25 1.137"/>
    <path fill="#fff" d="M36 13.975v-.038a3.747 3.747 0 0 0-2.96-3.665l-3.989-.854a27.416 27.416 0 0 1-12.73-6.553c-.86-.176-2.126-.288-3.348.286-1.68.788-1.565 2.066-3.286 3.117-1.353.826-3.773 1.472-5.248.49-.675-.448-1.184-1.26-2.673-1.938a7.67 7.67 0 0 0-.693-.276l-.092.041-.57 2.097A11.744 11.744 0 0 0 0 9.762v4.213l.473 2.54h34.873l.654-2.54Z"/>
    <path fill="#fff" d="M32.272 10.823a2.443 2.443 0 0 1-2.013 2.406l-2.17.387a2.443 2.443 0 0 0-2.013 2.406v.26l9.282.189.642-2.496v-.038a3.747 3.747 0 0 0-2.96-3.665l-.737-.157-.03.004v.704Zm-18.621 3.152v-.01a11.874 11.874 0 0 0-4.613-8.279l-.139-.105-.002-.001A5.58 5.58 0 0 1 2.96 4.509l-.483-.561a.817.817 0 0 0-1.408.32L.41 6.682A11.744 11.744 0 0 0 0 9.762v5.079l13.651-.866Z"/>
    <path fill="#fff" d="M5.16 9.763c0-1.04.139-2.077.412-3.08l.208-.766A5.551 5.551 0 0 1 2.96 4.51l-.484-.561a.817.817 0 0 0-1.408.32L.41 6.682A11.744 11.744 0 0 0 0 9.762v5.079l5.16-.327V9.762Z"/>
    <path fill="#fff" d="M30.914 19.056H3.149A3.15 3.15 0 0 1 0 15.904v-1.929h13.651c.696 0 1.26.565 1.26 1.26 0 .704.575 1.021 1.278 1.01h16.298a2.407 2.407 0 0 0 2.19-1.495.942.942 0 0 1 .587-.541l.736-.234-.098 1.734a5.393 5.393 0 0 1-4.988 3.347Z"/>
    <path fill="#fff" d="M5.218 15.904v-1.929H0v1.93a3.15 3.15 0 0 0 3.149 3.151h5.218a3.15 3.15 0 0 1-3.149-3.152Z"/>
    <path fill="#fff" d="M8.362 16.11H.007a3.15 3.15 0 0 0 3.142 2.946h8.156a2.944 2.944 0 0 0-2.943-2.946Z"/>
    <path fill="#fff" d="M5.229 16.11H.011a3.15 3.15 0 0 0 3.141 2.946H8.37a3.15 3.15 0 0 1-3.14-2.946Zm15.125-7.02c.594.286 1.108.519 1.554.709a3.44 3.44 0 0 0 4.168-1.197 27.418 27.418 0 0 1-9.755-5.737 2.956 2.956 0 0 0-4.27.072l-.205.22c1.83 1.503 5.768 4.617 8.508 5.934Z"/>
    <path fill="#fff" d="m2.476 5.555.602.517A6.445 6.445 0 0 0 6.99 7.275a6.446 6.446 0 0 0 3.852-1.436l1.113-1.192a3.107 3.107 0 0 1 4.366-.175c1.432 1.305 3.051 1.755 4.782 1.889a27.427 27.427 0 0 1-4.782-3.496 3.107 3.107 0 0 0-4.366.175l-1.113 1.192a5.58 5.58 0 0 1-7.883.277l-.483-.561a.817.817 0 0 0-1.408.32l-.087.317c.631.298 1.285.726 1.495.97Z"/>
    <path fill="#fff" d="M17.647 3.495a.56.56 0 0 0-.576-.5c-.076.002-.152.007-.228.011l-1.153.055-.478.023c-.119.005-.234.007-.345.06a.558.558 0 0 0-.267.718.56.56 0 0 0 .548.33c.334-.013.669-.031 1.003-.047.136-.007.282-.03.418-.02.033.002.02-.008.03.016.02.042.012.118.016.163.032.344.064.688.098 1.033a.566.566 0 0 0 .373.497.557.557 0 0 0 .699-.339c.044-.124.028-.247.016-.374a811.127 811.127 0 0 0-.148-1.56l-.006-.066Zm4.508 4.64-.326-1.672a.65.65 0 0 0-.165-.356.567.567 0 0 0-.51-.149c-.282.05-.564.11-.845.164-.262.05-.524.097-.785.152a.56.56 0 0 0-.446.487.558.558 0 0 0 .428.595c.136.03.268-.005.401-.03l.541-.106.245-.047c.03-.006.104-.036.134-.026.033.01.043.167.05.205l.188.958c.037.194.146.36.334.44a.557.557 0 0 0 .697-.242.555.555 0 0 0 .059-.373Z"/>
  </g>
</svg>
