<?xml version="1.0" encoding="iso-8859-1"?>
<!-- Generator: Adobe Illustrator 29.1.0, SVG Export Plug-In . SVG Version: 9.03 Build 55587)  -->
<svg version="1.1" id="Ebene_1" xmlns="http://www.w3.org/2000/svg" xmlns:xlink="http://www.w3.org/1999/xlink" x="0px" y="0px"
	 viewBox="0 0 264 264" enable-background="new 0 0 264 264" xml:space="preserve">
<g>
	<path fill="#301934" d="M214.5,148.5v-66C214.5,36.937,177.563,0,132,0S49.5,36.937,49.5,82.5v66c0,18.865,7,36.24,17,50.138V231
		h-6.667c-5.522,0-10.333,4.477-10.333,10v13c0,5.523,4.811,10,10.333,10h145c5.523,0,9.667-4.477,9.667-10v-13
		c0-5.523-4.145-10-9.667-10H198.5v-33.688C208.5,183.643,214.5,166.769,214.5,148.5z M148.5,99h50v33h-50V99z M66.5,99h50v33h-50
		V99z"/>
</g>
</svg>
