<?xml version="1.0" encoding="iso-8859-1"?>
<!-- Generator: Adobe Illustrator 29.1.0, SVG Export Plug-In . SVG Version: 9.03 Build 55587)  -->
<svg version="1.1" id="Solid" xmlns="http://www.w3.org/2000/svg" xmlns:xlink="http://www.w3.org/1999/xlink" x="0px" y="0px"
	 viewBox="0 0 512 512" enable-background="new 0 0 512 512" xml:space="preserve">
<path fill="#301934" d="M296,448h16v32h-16V448z"/>
<path fill="#301934" d="M328,448h16v32h-16V448z"/>
<path fill="#301934" d="M264,448h16v32h-16V448z"/>
<path fill="#301934" d="M136,448h16v32h-16V448z"/>
<path fill="#301934" d="M232,448h16v32h-16V448z"/>
<path fill="#301934" d="M360,448h16v32h-16V448z"/>
<path fill="#301934" d="M200,448h16v32h-16V448z"/>
<path fill="#301934" d="M168,448h16v32h-16V448z"/>
<path fill="#301934" d="M256,296c-8.221-0.004-16.042,3.547-21.45,9.738C217.429,325.353,208,342.022,208,352.677
	c0,13.737,4.976,32,48,32s48-18.263,48-32c0-10.655-9.429-27.324-26.55-46.939C272.042,299.547,264.221,295.996,256,296z"/>
<path fill="#301934" d="M436.934,225.535c-7-61.164-25.219-108.788-54.166-141.548C352.287,49.491,309.636,32,256,32
	s-96.287,17.491-126.768,51.987c-28.947,32.76-47.17,80.384-54.166,141.548c-6.246,54.615-1.229,103.21,0.457,116.8
	c6.172,49.745,45.882,82.642,55.1,89.663h250.744c9.219-7.054,48.96-40.1,55.11-89.663
	C438.163,328.745,443.18,280.15,436.934,225.535L436.934,225.535z M154.1,268.658c-37.636-13.332-57.378-54.613-44.133-92.279
	c1.47-4.166,6.04-6.352,10.206-4.882L241.5,214.318c4.166,1.471,6.352,6.04,4.881,10.207c0,0,0,0,0,0
	c-13.283,37.664-54.584,57.428-92.247,44.145C154.122,268.666,154.111,268.662,154.1,268.658z M256,400.677c-52.9,0-64-26.1-64-48
	c0-14.946,10.26-34.278,30.5-57.46c16.168-18.504,44.275-20.397,62.779-4.229c1.503,1.313,2.916,2.726,4.229,4.229
	C309.74,318.4,320,337.731,320,352.677C320,374.574,308.9,400.677,256,400.677z M357.9,268.658
	c-37.657,13.301-78.967-6.444-92.268-44.102c-0.004-0.01-0.007-0.021-0.011-0.031c-1.471-4.166,0.714-8.736,4.881-10.207
	c0,0,0,0,0,0L391.823,171.5c4.166-1.47,8.736,0.716,10.206,4.882C415.273,214.046,395.533,255.324,357.9,268.658L357.9,268.658z"/>
<path fill="#301934" d="M283.9,226.555c14.417,27.571,48.455,38.235,76.026,23.819c22.165-11.59,34.034-36.407,29.144-60.937
	L283.9,226.555z"/>
<path fill="#301934" d="M159.43,253.57c26.422,9.289,55.659-2.213,68.67-27.015l-105.17-37.118
	C117.491,216.911,133.031,244.216,159.43,253.57z"/>
</svg>
