<?xml version="1.0" encoding="iso-8859-1"?>
<!-- Generator: Adobe Illustrator 29.1.0, SVG Export Plug-In . SVG Version: 9.03 Build 55587)  -->
<svg version="1.1" id="Layer_1" xmlns="http://www.w3.org/2000/svg" xmlns:xlink="http://www.w3.org/1999/xlink" x="0px" y="0px"
	 viewBox="0 0 512 512" enable-background="new 0 0 512 512" xml:space="preserve">
<g>
	<path fill="#301934" d="M159.6,281.167c13.877,0,25.167-11.29,25.167-25.167s-11.29-25.167-25.167-25.167
		s-25.166,11.29-25.166,25.167C134.434,269.877,145.723,281.167,159.6,281.167z"/>
	<path fill="#301934" d="M159.6,311.167c-21.938,0-40.572,14.412-46.933,34.267h93.865
		C200.172,325.579,181.537,311.167,159.6,311.167z"/>
	<path fill="#301934" d="M464.866,72.3H47.134C20.797,72.3,0,93.69,0,119.434v273.133C0,418.903,21.39,439.7,47.134,439.7h417.732
		c26.337,0,47.134-21.39,47.134-47.134V119.434C512,93.096,490.61,72.3,464.866,72.3L464.866,72.3z M223.866,375.434H95.333
		c-8.284,0-15-6.716-15-15c0-28.655,15.284-53.805,38.127-67.731c-8.715-9.759-14.026-22.62-14.026-36.702
		c0-30.419,24.747-55.167,55.166-55.167s55.167,24.748,55.167,55.167c0,14.083-5.311,26.944-14.027,36.703
		c22.843,13.926,38.127,39.077,38.127,67.731C238.866,368.718,232.15,375.434,223.866,375.434L223.866,375.434z M384.533,375.434
		H304.2c-8.284,0-15-6.716-15-15s6.716-15,15-15h80.333c8.284,0,15,6.716,15,15S392.817,375.434,384.533,375.434z M416.667,311.167
		H304.2c-8.284,0-15-6.716-15-15s6.716-15,15-15h112.467c8.284,0,15,6.716,15,15S424.951,311.167,416.667,311.167z M416.667,246.9
		H304.2c-8.284,0-15-6.716-15-15s6.716-15,15-15h112.467c8.284,0,15,6.716,15,15S424.951,246.9,416.667,246.9z M416.667,166.566
		H95.333c-8.284,0-15-6.716-15-15s6.716-15,15-15h321.334c8.284,0,15,6.716,15,15S424.951,166.566,416.667,166.566z"/>
</g>
</svg>
