<?xml version="1.0" encoding="iso-8859-1"?>
<!-- Generator: Adobe Illustrator 29.1.0, SVG Export Plug-In . SVG Version: 9.03 Build 55587)  -->
<svg version="1.1" id="Ebene_1" xmlns="http://www.w3.org/2000/svg" xmlns:xlink="http://www.w3.org/1999/xlink" x="0px" y="0px"
	 viewBox="0 0 512 512" enable-background="new 0 0 512 512" xml:space="preserve">
<path fill="#301934" d="M267.605,203.52v25.742c0,8.176,1.633,15.035,4.855,20.379c4.445,7.375,11.742,11.602,20.027,11.602
	c8.117,0,16.184-3.953,23.973-11.742l85.023-85.023c18.668-18.668,18.668-49.043,0-67.711l-85.023-85.023
	C308.672,3.949,300.605,0,292.488,0c-12.387,0-24.883,9.891-24.883,31.98v23.379C146.895,62.488,46.965,155.125,32.113,276.41
	c-0.832,6.773,3.02,13.258,9.367,15.77c1.797,0.711,3.668,1.055,5.516,1.055c4.68,0,9.219-2.191,12.109-6.141
	c39.836-54.43,103.797-86.926,171.094-86.926C242.668,200.168,255.207,201.293,267.605,203.52z"/>
<path fill="#301934" d="M470.254,219.82c-6.348-2.516-13.59-0.422-17.625,5.09c-39.832,54.426-103.793,86.922-171.09,86.922
	c-12.469,0-25.008-1.125-37.406-3.352v-25.742c0-22.09-12.5-31.98-24.883-31.98c-8.117,0-16.184,3.953-23.977,11.746l-85.023,85.02
	c-18.664,18.668-18.664,49.043,0.004,67.715l85.02,85.02C203.066,508.051,211.133,512,219.25,512
	c12.383,0,24.883-9.891,24.883-31.98v-23.379c120.715-7.129,220.641-99.766,235.492-221.047
	C480.457,228.816,476.605,222.332,470.254,219.82z"/>
</svg>
