<?xml version="1.0" encoding="iso-8859-1"?>
<!-- Generator: Adobe Illustrator 29.1.0, SVG Export Plug-In . SVG Version: 9.03 Build 55587)  -->
<svg version="1.1" id="Capa_1" xmlns="http://www.w3.org/2000/svg" xmlns:xlink="http://www.w3.org/1999/xlink" x="0px" y="0px"
	 viewBox="0 0 512 512" enable-background="new 0 0 512 512" xml:space="preserve">
<g>
	<path fill="#301934" d="M403.974,419.79c4.142,0,7.5-3.358,7.5-7.5V12.5c0-6.893-5.607-12.5-12.5-12.5H113.026
		c-6.893,0-12.5,5.607-12.5,12.5v487.931c0,6.379,5.188,11.569,11.563,11.569h26.625c5.464,0,10.228-3.902,11.327-9.279
		c1.785-8.746,9.574-15.093,18.52-15.093s16.734,6.348,18.52,15.095c1.098,5.376,5.864,9.278,11.333,9.278h27.735
		c5.47,0,10.236-3.903,11.333-9.279c1.786-8.746,9.575-15.094,18.52-15.094c8.945,0,16.734,6.348,18.52,15.093
		c1.097,5.377,5.863,9.28,11.333,9.28h27.735c5.469,0,10.235-3.903,11.332-9.279c1.786-8.746,9.575-15.094,18.52-15.094
		s16.734,6.348,18.52,15.095c1.098,5.376,5.864,9.278,11.333,9.278h26.613c6.379,0,11.569-5.19,11.569-11.569V447.29
		c0-4.142-3.358-7.5-7.5-7.5s-7.5,3.358-7.5,7.5V497h-20.493c-4.178-14.278-17.442-24.373-32.542-24.373
		c-15.099,0-28.362,10.095-32.542,24.373h-22.355c-4.179-14.278-17.442-24.373-32.542-24.373c-15.099,0-28.362,10.095-32.542,24.373
		h-22.356c-4.178-14.278-17.442-24.373-32.542-24.373S140.199,482.722,136.021,497h-20.493V15h280.948v397.29
		C396.474,416.432,399.832,419.79,403.974,419.79L403.974,419.79z"/>
	<path fill="#301934" d="M196.453,429.967c4.142,0,7.5-3.358,7.5-7.5v-4.798c11.958-0.558,21.516-10.46,21.516-22.555
		c0-12.451-10.13-22.581-22.581-22.581h-12.87c-4.181,0-7.582-3.401-7.582-7.582c0-4.18,3.401-7.581,7.582-7.581h24.059
		c4.142,0,7.5-3.358,7.5-7.5s-3.358-7.5-7.5-7.5h-10.125v-4.774c0-4.142-3.358-7.5-7.5-7.5s-7.5,3.358-7.5,7.5v4.801
		c-11.959,0.558-21.516,10.46-21.516,22.554c0,12.452,10.13,22.582,22.582,22.582h12.87c4.18,0,7.581,3.401,7.581,7.581
		c0,4.181-3.401,7.582-7.581,7.582h-6.377c-0.02,0-0.038-0.003-0.058-0.003s-0.038,0.003-0.058,0.003h-17.566
		c-4.142,0-7.5,3.358-7.5,7.5s3.358,7.5,7.5,7.5h10.125v4.771C188.953,426.609,192.311,429.967,196.453,429.967L196.453,429.967z"/>
	<path fill="#301934" d="M286.655,417.696h50.408c4.142,0,7.5-3.358,7.5-7.5s-3.358-7.5-7.5-7.5h-50.408c-4.142,0-7.5,3.358-7.5,7.5
		S282.513,417.696,286.655,417.696z"/>
	<path fill="#301934" d="M142.452,284.25c-4.142,0-7.5,3.358-7.5,7.5s3.358,7.5,7.5,7.5h8.333c4.142,0,7.5-3.358,7.5-7.5
		s-3.358-7.5-7.5-7.5H142.452z"/>
	<path fill="#301934" d="M194.537,299.25c4.142,0,7.5-3.358,7.5-7.5s-3.358-7.5-7.5-7.5h-8.333c-4.142,0-7.5,3.358-7.5,7.5
		s3.358,7.5,7.5,7.5H194.537z"/>
	<path fill="#301934" d="M238.29,299.25c4.142,0,7.5-3.358,7.5-7.5s-3.358-7.5-7.5-7.5h-8.333c-4.142,0-7.5,3.358-7.5,7.5
		s3.358,7.5,7.5,7.5H238.29z"/>
	<path fill="#301934" d="M289.543,291.75c0-4.142-3.358-7.5-7.5-7.5h-8.333c-4.142,0-7.5,3.358-7.5,7.5s3.358,7.5,7.5,7.5h8.333
		C286.185,299.25,289.543,295.892,289.543,291.75z"/>
	<path fill="#301934" d="M325.795,299.25c4.142,0,7.5-3.358,7.5-7.5s-3.358-7.5-7.5-7.5h-8.333c-4.142,0-7.5,3.358-7.5,7.5
		s3.358,7.5,7.5,7.5H325.795z"/>
	<path fill="#301934" d="M361.216,299.25h8.333c4.142,0,7.5-3.358,7.5-7.5s-3.358-7.5-7.5-7.5h-8.333c-4.142,0-7.5,3.358-7.5,7.5
		S357.074,299.25,361.216,299.25z"/>
	<path fill="#301934" d="M256,30.035c-13.001,0-25.754,2.182-37.903,6.485c-3.905,1.383-5.949,5.669-4.566,9.574
		s5.672,5.948,9.574,4.566c10.537-3.732,21.604-5.625,32.895-5.625c54.313,0,98.5,44.187,98.5,98.5s-44.187,98.5-98.5,98.5
		s-98.5-44.187-98.5-98.5c0-30.194,13.569-58.306,37.228-77.128c3.241-2.579,3.778-7.297,1.2-10.539
		c-2.579-3.241-7.297-3.778-10.539-1.2c-27.256,21.684-42.889,54.075-42.889,88.866c0,62.584,50.916,113.5,113.5,113.5
		s113.5-50.916,113.5-113.5S318.584,30.035,256,30.035z"/>
	<path fill="#301934" d="M171.233,125.895l-0.004,0.018c-1.182,5.692-1.805,11.585-1.805,17.622
		c0,47.44,39.886,86.575,86.576,86.575c47.052,0,86.576-39.519,86.576-86.575c0-6.037-0.623-11.93-1.805-17.622l-0.004-0.018
		C332.598,86.588,297.695,56.959,256,56.959S179.402,86.588,171.233,125.895z M190.706,172.8
		c16.204,1.153,30.1,15.705,35.079,35.599C210.252,201.133,197.75,188.454,190.706,172.8z M242.036,213.733
		c-1.877-14.283-7.445-27.442-15.969-37.517c-10.092-11.927-23.387-18.496-37.436-18.496c-0.921,0-1.846,0.036-2.773,0.096
		c-0.939-4.617-1.434-9.392-1.434-14.281c0-3.76,0.295-7.452,0.857-11.057c21.031-8.808,45.384-13.456,70.719-13.456
		s49.688,4.648,70.719,13.456c0.562,3.605,0.857,7.297,0.857,11.057c0,4.889-0.496,9.665-1.434,14.281
		c-0.926-0.06-1.851-0.096-2.773-0.096c-14.048,0-27.343,6.568-37.436,18.496c-8.524,10.074-14.092,23.233-15.969,37.517
		c-4.519,0.897-9.186,1.378-13.964,1.378S246.554,214.63,242.036,213.733L242.036,213.733z M286.215,208.398
		c4.979-19.894,18.875-34.446,35.079-35.599C314.25,188.454,301.748,201.133,286.215,208.398z M256,71.959
		c29.107,0,54.194,17.474,65.368,42.474c-20.107-6.831-42.395-10.412-65.368-10.412s-45.261,3.581-65.368,10.412
		C201.806,89.434,226.893,71.959,256,71.959L256,71.959z"/>
	<path fill="#301934" d="M279.079,154.265c0-12.726-10.353-23.079-23.079-23.079s-23.079,10.353-23.079,23.079
		s10.353,23.079,23.079,23.079C268.726,177.344,279.079,166.99,279.079,154.265z M247.921,154.265c0-4.455,3.624-8.079,8.079-8.079
		c4.455,0,8.079,3.624,8.079,8.079s-3.624,8.079-8.079,8.079S247.921,158.719,247.921,154.265z"/>
</g>
</svg>
