<?xml version="1.0" encoding="iso-8859-1"?>
<!-- Generator: Adobe Illustrator 29.1.0, SVG Export Plug-In . SVG Version: 9.03 Build 55587)  -->
<svg version="1.1" id="Capa_1" xmlns="http://www.w3.org/2000/svg" xmlns:xlink="http://www.w3.org/1999/xlink" x="0px" y="0px"
	 viewBox="0 0 512 512" enable-background="new 0 0 512 512" xml:space="preserve">
<g>
	<path fill="#301934" d="M167.771,333.045c6.232-5.484,6.844-14.978,1.368-21.216l-0.827-0.95c-2.629-2.987-6.341-4.8-10.313-5.037
		c-0.331,0-0.663,0-1,0c-3.647-0.006-7.169,1.323-9.903,3.736l-20.151,17.69l-18.351,16.107c-6.214,5.491-6.822,14.97-1.361,21.209
		l0.842,0.964c5.488,6.229,14.982,6.841,21.223,1.368l14.106-12.378L167.771,333.045z"/>
	<path fill="#301934" d="M119.388,374.167c-0.418,0-0.827,0-1.245-0.036c-4.932-0.304-9.537-2.57-12.789-6.29l-0.85-0.971
		c-6.755-7.731-5.999-19.467,1.691-26.269l38.517-33.825c3.717-3.253,8.571-4.903,13.501-4.591c4.932,0.304,9.537,2.569,12.789,6.29
		l1.18,1.375c6.439,7.751,5.54,19.22-2.029,25.872l-38.503,33.825C128.266,372.535,123.903,374.179,119.388,374.167L119.388,374.167
		z M156.983,309.396c-2.776,0.014-5.451,1.038-7.528,2.879L110.952,346.1c-4.723,4.18-5.182,11.389-1.029,16.135l0.85,0.971
		c4.176,4.73,11.392,5.19,16.135,1.029l38.496-33.825c4.736-4.17,5.199-11.387,1.037-16.128l-0.842-0.971
		c-1.993-2.279-4.815-3.666-7.837-3.85L156.983,309.396z"/>
	<path fill="#301934" d="M221.812,370.641c-3.647-0.005-7.171,1.32-9.91,3.728l-19.871,17.445
		c-6.244,5.479-6.864,14.983-1.386,21.227c5.479,6.244,14.983,6.864,21.227,1.386l19.871-17.445
		c6.244-5.472,6.869-14.971,1.397-21.215C230.28,372.503,226.15,370.635,221.812,370.641L221.812,370.641z"/>
	<path fill="#301934" d="M201.97,421.752c-10.29,0.018-18.647-8.31-18.665-18.6c-0.009-5.378,2.306-10.5,6.351-14.044l19.878-17.445
		c7.837-6.488,19.375-5.737,26.304,1.713c6.791,7.739,6.025,19.518-1.713,26.311l-19.871,17.445
		C210.86,420.118,206.491,421.761,201.97,421.752L201.97,421.752z M221.819,374.254c-2.778-0.021-5.467,0.971-7.564,2.792
		l-19.878,17.445c-4.752,4.174-5.221,11.409-1.047,16.16c4.174,4.752,11.409,5.221,16.16,1.047l19.878-17.424
		c4.75-4.162,5.226-11.388,1.063-16.137c-2.176-2.482-5.319-3.904-8.619-3.898L221.819,374.254z"/>
	<path fill="#301934" d="M44.512,94.875L4.109,271.138l32.299,18.15l83.583-135.961L44.512,94.875z"/>
	<path fill="#301934" d="M37.66,294.117L0,272.959L42.252,88.578l82.49,63.871L37.66,294.117z M8.219,269.317l26.937,15.113
		l80.085-130.262l-68.484-52.997L8.219,269.317z"/>
	<path fill="#301934" d="M121.028,312.578c6.242-5.483,6.86-14.986,1.382-21.23l-0.259-0.295c-2.623-3.004-6.339-4.834-10.32-5.081
		c-0.331,0-0.663,0-1,0c-3.647-0.006-7.169,1.323-9.903,3.736l-24.131,21.13c-6.242,5.483-6.86,14.986-1.382,21.23
		c5.37,6.39,14.904,7.215,21.294,1.844c0.066-0.056,0.132-0.111,0.196-0.168l1.828-1.605l18.366-16.121L121.028,312.578z"/>
	<path fill="#301934" d="M87.146,341.062c-0.46,0-0.929,0-1.403-0.051c-5.027-0.387-9.699-2.743-12.997-6.556
		c-6.792-7.735-6.029-19.512,1.705-26.304L98.553,287c7.735-6.783,19.502-6.02,26.297,1.705c3.421,3.757,5.171,8.74,4.85,13.811
		c-0.304,4.935-2.572,9.544-6.297,12.796l-24.095,21.151C95.953,339.432,91.626,341.069,87.146,341.062L87.146,341.062z
		 M110.83,289.562c-2.776,0.011-5.453,1.035-7.528,2.879L79.2,313.592c-4.75,4.169-5.221,11.399-1.052,16.148l0.001,0.001
		c2.055,2.393,4.973,3.878,8.118,4.131c3.023,0.237,6.014-0.767,8.283-2.778l24.095-21.151c4.746-4.172,5.216-11.399,1.051-16.149
		c-2.021-2.439-4.951-3.944-8.11-4.167L110.83,289.562z"/>
	<path fill="#301934" d="M205.094,354.686c0.272-3.983-1.063-7.91-3.706-10.903l-0.215-0.245c-2.625-2.984-6.332-4.797-10.298-5.037
		c-0.331,0-0.67,0-1,0c-3.647-0.006-7.169,1.322-9.903,3.736l-2.361,2.073l-24.383,21.403l-6.477,5.657
		c-6.254,5.66-6.736,15.317-1.077,21.57c2.64,2.918,6.306,4.705,10.232,4.986c3.984,0.277,7.913-1.058,10.903-3.706l33.199-29.139
		C203.028,362.437,204.862,358.693,205.094,354.686L205.094,354.686z"/>
	<path fill="#301934" d="M156.904,401.515c-0.411,0-0.813,0-1.223-0.036c-10.366-0.641-18.249-9.565-17.607-19.931
		c0.308-4.973,2.576-9.621,6.308-12.922l33.17-29.176c3.723-3.244,8.573-4.893,13.501-4.591c4.925,0.301,9.526,2.561,12.775,6.276
		c3.414,3.751,5.16,8.728,4.836,13.789c-0.312,4.922-2.573,9.517-6.283,12.767l-33.199,29.139
		C165.8,399.841,161.432,401.508,156.904,401.515L156.904,401.515z M179.934,346.956l-30.809,27.045
		c-4.752,4.168-5.235,11.394-1.079,16.156c2.022,2.405,4.933,3.888,8.068,4.11c3.041,0.215,6.04-0.804,8.32-2.828l33.199-29.139
		c4.749-4.163,5.225-11.388,1.061-16.138c-0.003-0.004-0.007-0.008-0.01-0.012c-2.016-2.419-4.933-3.906-8.075-4.117h-0.763
		c-2.779,0-5.459,1.025-7.528,2.879L179.934,346.956z"/>
	<path fill="#301934" d="M404.005,306.619l-117.121-95.436c-44.85,23.815-76.61,11.558-91.795,1.864
		c-7.915-5.165-10.145-15.77-4.98-23.685c1.604-2.459,3.816-4.464,6.419-5.821l39.035-20.733c-1.007-0.151-1.994-0.28-2.879-0.367
		c-35.227,5.565-70.802,8.629-106.462,9.169L57.984,282.596l15.214,11.594l17.884-15.703c12.417-10.9,31.319-9.671,42.219,2.745
		c0.001,0.001,0.002,0.003,0.004,0.004l0.259,0.295c3.579,4.104,5.959,9.113,6.88,14.48c5.423-3.7,11.931-5.473,18.482-5.037
		c7.923,0.494,15.32,4.137,20.539,10.118l0.842,0.964c5.247,5.949,7.898,13.748,7.362,21.662v0.043
		c1.37-0.14,2.747-0.185,4.124-0.137c7.923,0.495,15.319,4.138,20.539,10.118l-5.376,5.153l5.592-4.908
		c5.255,5.951,7.911,13.756,7.377,21.676c0,0.101-0.044,0.194-0.051,0.295c16.386-1.166,30.614,11.172,31.78,27.558
		c0.097,1.368,0.1,2.74,0.008,4.108c-0.369,5.147-2.076,10.108-4.951,14.393l32.09,18.517c7.035,3.99,15.969,1.623,20.107-5.326
		c3.925-6.632,2.011-15.173-4.369-19.496l-51.097-35.408c-0.044,0-0.065-0.079-0.101-0.108l-3.44-2.382
		c-3.338-2.398-4.1-7.047-1.701-10.385c2.339-3.256,6.837-4.073,10.172-1.849l72.069,49.924c6.648,4.608,15.772,2.954,20.379-3.694
		c0.003-0.004,0.006-0.008,0.009-0.012c4.523-6.61,2.922-15.623-3.598-20.273l-71.716-50.867c-0.044,0-0.058-0.079-0.101-0.108
		c-3.35-2.385-4.133-7.034-1.749-10.385c2.384-3.351,7.034-4.133,10.385-1.749l80.402,57.042c7.032,4.966,16.759,3.29,21.725-3.743
		c4.807-6.807,3.409-16.191-3.172-21.302l-86.513-62.338c-3.419-2.281-4.342-6.901-2.06-10.32c2.281-3.419,6.901-4.342,10.32-2.06
		c0.128,0.086,0.254,0.175,0.377,0.269l5.915,4.217h0.079l80.179,57.769c0.151,0.108,0.259,0.245,0.403,0.353l1.324,0.95
		c0.252,0.174,0.493,0.363,0.719,0.569l1.439,0.986c6.701,4.802,15.989,3.518,21.137-2.922c3.078-3.889,4.074-9.032,2.67-13.789
		C408.143,311.15,406.399,308.539,404.005,306.619L404.005,306.619z"/>
	<path fill="#301934" d="M286.093,426.099c-3.181,0.001-6.306-0.836-9.06-2.426l-35.43-20.432l2.159-3.166
		c7.998-12.066,4.7-28.33-7.366-36.328c-3.827-2.537-8.253-4.024-12.835-4.312c-0.893-0.043-1.788-0.019-2.678,0.072l-4.829,0.302
		l0.28-4.095c0.453-5.815-1.041-11.615-4.246-16.488l-2.699,2.375l-4.865-5.296l2.735-2.62c-4.352-3.836-9.856-6.115-15.645-6.477
		c-1.049-0.034-2.1-0.001-3.145,0.101l-3.865,0.288l-0.483-4.261v-0.152c0.377-6.86-1.948-13.595-6.477-18.762l-0.85-0.971
		c-8.664-9.945-23.392-11.848-34.3-4.434l-4.584,3.08l-0.964-5.441c-2.445-14.385-16.088-24.063-30.474-21.618
		c-4.811,0.818-9.302,2.953-12.974,6.166l-20.1,17.646L53.21,283.488l70.967-115.436l1.936-0.058
		c35.465-0.541,70.849-3.584,105.887-9.104l0.504-0.101l0.511,0.043c0.95,0.086,2.001,0.231,3.087,0.388l10.795,1.619
		l-48.679,25.851c-6.632,3.426-9.229,11.58-5.803,18.212c1.074,2.079,2.669,3.843,4.63,5.12
		c14.286,9.118,44.772,21.001,88.153-2.022l2.109-1.123l118.963,96.933c2.954,2.398,5.096,5.646,6.139,9.305
		c1.738,5.867,0.514,12.213-3.281,17.013c-6.356,7.944-17.818,9.525-26.089,3.598l-4.037-3.015l-85.958-61.892
		c-1.718-1.233-4.11-0.841-5.343,0.877c-0.004,0.005-0.007,0.01-0.011,0.016c-1.235,1.722-0.841,4.118,0.88,5.353
		c0.004,0.003,0.008,0.006,0.012,0.009l86.527,62.388c8.389,6.475,9.94,18.523,3.466,26.912c-6.266,8.12-17.811,9.874-26.207,3.984
		l-80.424-57.013c-0.835-0.592-1.87-0.827-2.879-0.654c-2.093,0.354-3.502,2.338-3.148,4.431c0.17,1.005,0.733,1.903,1.565,2.493
		l71.838,50.989c8.117,5.799,10.097,17.027,4.455,25.253c-5.729,8.289-17.093,10.363-25.381,4.634
		c-0.003-0.002-0.006-0.004-0.009-0.006l-72.054-49.931c-1.704-1.265-4.111-0.909-5.376,0.795c-1.265,1.704-0.909,4.111,0.795,5.376
		c0.07,0.052,0.141,0.1,0.213,0.148l54.652,37.898c8.311,5.69,10.435,17.039,4.745,25.35c-2.451,3.58-6.099,6.168-10.286,7.301
		C289.451,425.871,287.776,426.098,286.093,426.099L286.093,426.099z M251.678,400.73l28.952,16.711
		c5.398,2.92,12.14,0.913,15.061-4.484c2.636-4.871,1.283-10.938-3.172-14.227l-40.842-28.341c2.766,5.386,4.01,11.425,3.598,17.466
		C254.984,392.35,253.758,396.735,251.678,400.73L251.678,400.73z M244.18,340.688c2.238-0.004,4.422,0.677,6.261,1.95
		l72.054,49.924c5.018,3.469,11.899,2.215,15.372-2.8c3.414-4.984,2.21-11.783-2.706-15.293l-72.228-51.284
		c-4.78-3.785-5.586-10.729-1.801-15.509c3.626-4.578,10.19-5.54,14.978-2.195l80.424,57.042c5.43,3.79,12.904,2.46,16.694-2.97
		c3.638-5.213,2.575-12.36-2.423-16.289l-86.419-62.273c-4.959-3.545-6.104-10.439-2.558-15.398s10.439-6.104,15.398-2.558
		l6.002,4.253l81.899,59.079c0.368,0.265,0.719,0.553,1.051,0.864l1.015,0.663c5.126,3.714,12.265,2.766,16.243-2.159
		c2.363-2.977,3.131-6.918,2.058-10.564c-0.626-2.26-1.935-4.271-3.75-5.758l-115.3-93.946
		c-45.477,23.245-77.897,10.45-93.292,0.612c-9.596-6.226-12.329-19.052-6.103-28.649c1.949-3.005,4.645-5.453,7.823-7.105
		l22.066-11.717c-22.44,3.045-53.076,5.312-88.65,6.477L62.799,281.667l10.298,7.837l15.682-13.76
		c13.906-12.21,35.078-10.836,47.288,3.07c0.003,0.003,0.006,0.007,0.009,0.01c3.008,3.403,5.305,7.374,6.751,11.68
		c5.095-2.476,10.75-3.576,16.401-3.188c8.884,0.551,17.178,4.636,23.03,11.342l0.85,0.971c4.977,5.64,7.892,12.803,8.269,20.317
		h0.719c7.75,0.507,15.08,3.706,20.719,9.046l0.115-0.101l1.95,2.231l0.208,0.231l2.267,2.583l-0.101,0.101
		c3.862,5.298,6.068,11.622,6.34,18.172h0.439c3.196,0.208,6.347,0.873,9.356,1.971c-1.384-5.926,2.299-11.851,8.225-13.235
		c0.843-0.196,1.705-0.293,2.57-0.288L244.18,340.688z"/>
	<path fill="#301934" d="M467.48,92.197l-75.466,58.453l69.809,113.544c0.459,0.238,0.891,0.525,1.289,0.857
		c1.197,1.233,1.92,2.848,2.044,4.563l10.457,17.006l32.27-18.157L467.48,92.197z"/>
	<path fill="#301934" d="M474.331,291.448l-12.702-20.669l-0.079-0.835c-0.047-0.881-0.404-1.718-1.007-2.361l-1.382-0.82
		l-0.425-0.719l-71.5-116.265l82.504-63.878l42.259,184.381L474.331,291.448z M468.575,268.375l8.247,13.408l26.937-15.113
		L465.235,98.488l-68.477,53.026l67.65,110.032c0.446,0.267,0.859,0.586,1.231,0.95c1.578,1.601,2.613,3.658,2.958,5.88
		L468.575,268.375z"/>
	<path fill="#301934" d="M372.635,170.808c-14.639,6.027-30.95,6.619-45.987,1.67l-39.618-12.861
		c-5.475-1.736-11.417-1.218-16.509,1.439l-13.429,7.132c-0.144,0.072-0.266,0.159-0.418,0.224l-53.213,28.269
		c-0.758,0.363-1.251,1.118-1.281,1.957c-0.059,0.76,0.311,1.49,0.957,1.893c15.653,9.989,42.461,17.272,80.841-4.75
		c2.674-1.53,6.015-1.259,8.406,0.684l120.964,98.595c1.684,1.385,3.206,2.957,4.534,4.685l29.91-29.931l-63.742-103.676
		L372.635,170.808z"/>
	<path fill="#301934" d="M417.571,305.129l-2.505-3.174c-1.157-1.515-2.485-2.892-3.958-4.102l-120.992-98.567
		c-1.233-0.985-2.942-1.125-4.318-0.353c-39.95,22.944-68.038,15.199-84.569,4.663c-1.74-1.096-2.742-3.057-2.613-5.109
		c0.087-2.114,1.313-4.015,3.203-4.966l67.038-35.602c5.95-3.118,12.899-3.729,19.302-1.698l39.604,12.839
		c14.224,4.686,29.655,4.13,43.504-1.569l14.271-5.844l66.829,108.671L417.571,305.129z M287.662,191.218
		c2.543-0.005,5.01,0.864,6.988,2.461l120.971,98.595c0.852,0.687,1.662,1.425,2.426,2.209l25.188-25.188l-60.648-98.675
		l-8.579,3.512c-15.434,6.353-32.631,6.976-48.485,1.756l-39.582-12.854c-4.558-1.431-9.498-0.991-13.732,1.224L207.2,198.803
		c15.063,8.751,39.841,14.084,75.011-6.117C283.871,191.732,285.75,191.226,287.662,191.218L287.662,191.218z"/>
</g>
</svg>
