<?xml version="1.0" encoding="iso-8859-1"?>
<!-- Generator: Adobe Illustrator 29.1.0, SVG Export Plug-In . SVG Version: 9.03 Build 55587)  -->
<svg version="1.1" id="Capa_1" xmlns="http://www.w3.org/2000/svg" xmlns:xlink="http://www.w3.org/1999/xlink" x="0px" y="0px"
	 viewBox="0 0 512 512" enable-background="new 0 0 512 512" xml:space="preserve">
<g>
	<g>
		<path fill="#301934" d="M168.383,294.276l-65.257,65.257c-4.136,4.136-4.136,10.842,0,14.978l61.836,61.836
			c10.566,10.566,27.698,10.566,38.265,0l53.613-53.613L168.383,294.276z"/>
		<g>
			<path fill="#301934" d="M462.857,279.34c56.866-57.009,56.826-149.32-0.128-206.274C405.773,16.11,313.461,16.071,256.451,72.94
				C199.443,16.071,107.13,16.11,50.174,73.065C-6.78,130.02-6.82,222.331,50.045,279.34l199.32,199.326
				c3.913,3.913,10.259,3.913,14.172,0L462.857,279.34z"/>
			<g>
				<path fill="#301934" d="M269.539,348.856l-74.988,74.988l-88.456-88.456l74.988-74.988c17.767-17.767,46.578-17.767,64.346,0
					l24.111,24.111C287.307,302.278,287.307,331.089,269.539,348.856z"/>
				<path fill="#301934" d="M462.855,279.34L263.536,478.67c-3.908,3.908-10.262,3.908-14.17,0l-20.002-20.002l194.559-194.559
					c56.86-57.01,56.82-149.325-0.13-206.275c-9.48-9.48-19.942-17.387-31.065-23.71c25.654,5.963,49.995,18.94,69.998,38.942
					C519.685,130.016,519.725,222.331,462.855,279.34L462.855,279.34z"/>
			</g>
		</g>
		<g>
			<g>
				<path fill="#301934" d="M250.355,329.673l-88.545,88.545c-4.136,4.136-10.842,4.136-14.978,0l-61.836-61.836
					c-10.566-10.566-10.566-27.698,0-38.265l76.901-76.901c17.769-17.769,46.579-17.769,64.349,0l24.109,24.109
					C268.124,283.094,268.124,311.903,250.355,329.673L250.355,329.673z"/>
				<path fill="#301934" d="M185.174,349.92l-53.318,53.318l-43.525-43.525l53.318-53.318c4.136-4.136,10.842-4.136,14.978,0
					l28.547,28.547C189.31,339.079,189.31,345.784,185.174,349.92L185.174,349.92z"/>
				<path fill="#301934" d="M250.359,329.676l-21.716,21.716c17.667-17.787,17.637-46.508-0.1-64.255l-24.111-24.101
					c-17.767-17.777-46.578-17.777-64.356,0l21.816-21.826c17.777-17.767,46.588-17.767,64.356,0l24.111,24.111
					C268.126,283.098,268.126,311.898,250.359,329.676L250.359,329.676z"/>
			</g>
			<g>
				<path fill="#301934" d="M505.203,187.82c-4.111-0.535-7.888,2.363-8.426,6.48c-3.971,30.407-17.541,57.978-39.234,79.726
					l-199.32,199.325c-0.978,0.977-2.567,0.977-3.543,0l-68.687-68.689l69.676-69.676c20.672-20.672,20.672-54.305,0-74.977
					L231.56,235.9c-10.014-10.014-23.327-15.529-37.489-15.529s-27.475,5.515-37.489,15.529l-69.674,69.674l-31.541-31.542
					C1.526,220.057,1.581,132.288,55.489,78.38c20.827-20.827,47.172-34.256,76.189-38.835c4.101-0.647,6.9-4.495,6.252-8.595
					c-0.647-4.101-4.498-6.899-8.595-6.252C97.159,29.776,67.948,44.663,44.86,67.752c-59.761,59.761-59.822,157.06-0.128,216.903
					l31.79,31.791c-10.214,13.537-9.165,32.924,3.16,45.249l12.522,12.522c2.935,2.936,7.694,2.935,10.628,0
					c2.935-2.935,2.935-7.694,0-10.628l-3.873-3.873l48.005-48.004c0.784-0.784,1.698-0.901,2.174-0.901
					c0.475,0,1.39,0.117,2.174,0.901l28.546,28.546c1.2,1.199,1.2,3.151,0,4.349l-48.004,48.004l-3.565-3.565
					c-2.935-2.935-7.694-2.935-10.628,0c-2.935,2.935-2.935,7.694,0,10.628l41.986,41.987c6.74,6.74,15.594,10.11,24.447,10.11
					c7.335,0,14.667-2.321,20.801-6.948l39.156,39.157c3.419,3.419,7.91,5.129,12.401,5.129c4.491,0,8.982-1.71,12.401-5.129
					l199.326-199.333c24.057-24.117,39.099-54.685,43.504-88.401C512.219,192.13,509.319,188.357,505.203,187.82L505.203,187.82z
					 M190.488,355.235c7.059-7.06,7.059-18.547,0-25.607l-28.546-28.546c-3.42-3.42-7.967-5.303-12.803-5.303
					c-4.837,0-9.384,1.884-12.803,5.303l-47.848,47.848c-2.518-3.358-3.9-7.409-3.9-11.681c0-5.219,2.032-10.126,5.723-13.818
					l76.901-76.901c7.174-7.174,16.713-11.125,26.86-11.125c10.146,0,19.685,3.951,26.86,11.125l24.109,24.109
					c14.81,14.81,14.81,38.909,0,53.719l-88.545,88.545c-0.784,0.784-1.698,0.9-2.174,0.9c-0.475,0-1.39-0.117-2.174-0.901
					l-9.663-9.663L190.488,355.235z M170.277,431.032l-5.523-5.523c0.834-0.591,1.632-1.242,2.37-1.979l8.239-8.239l18.702,18.703
					C186.569,438.447,176.719,437.474,170.277,431.032L170.277,431.032z"/>
				<path fill="#301934" d="M165.836,38.4c32.137,2.887,62.434,17.044,85.307,39.861c2.934,2.927,7.682,2.927,10.616,0
					c53.976-53.842,141.746-53.79,195.655,0.119c22.27,22.27,35.964,50.542,39.603,81.759c0.446,3.828,3.695,6.647,7.456,6.647
					c0.291,0,0.584-0.017,0.88-0.051c4.123-0.481,7.076-4.213,6.595-8.336c-4.036-34.615-19.217-65.961-43.906-90.648
					C410.018,9.726,316.6,7.986,256.449,62.571c-24.647-22.334-56.07-36.159-89.268-39.141c-4.129-0.37-7.786,2.679-8.158,6.813
					C158.651,34.376,161.702,38.028,165.836,38.4L165.836,38.4z"/>
			</g>
		</g>
	</g>
</g>
</svg>
