<?xml version="1.0" encoding="iso-8859-1"?>
<!-- Generator: Adobe Illustrator 29.1.0, SVG Export Plug-In . SVG Version: 9.03 Build 55587)  -->
<svg version="1.1" id="Ebene_1" xmlns="http://www.w3.org/2000/svg" xmlns:xlink="http://www.w3.org/1999/xlink" x="0px" y="0px"
	 viewBox="0 0 464 464" enable-background="new 0 0 464 464" xml:space="preserve">
<path fill="#301934" d="M156.688,120H132c-6.617,0-12,5.383-12,12s5.383,12,12,12h52.078l-13.734-10.344L156.688,120z"/>
<path fill="#301934" d="M461.566,280.055c0-4.215-2.848-7.543-6.789-8.152L360,254.672V208h79.008
	c-8.359-12.879-21.945-22.129-38.168-24.719L255.375,160h-39.566c-0.848,23.586-5.465,46.641-13.762,68.734
	c41.227,11.41,74.129,42.875,87.465,83.266h173.031L461.566,280.055z"/>
<path fill="#301934" d="M103.031,43.711l78.227,78.227L210.664,144h25.266L117.016,31.344C106.559,21.449,92.887,16,78.496,16H0v16
	h74.742C85.434,32,95.48,36.16,103.031,43.711z"/>
<path fill="#301934" d="M376,241.328l72,13.086v-15.84c0-5.031-0.656-9.918-1.887-14.574H376V241.328z"/>
<path fill="#301934" d="M104,132c0-15.441,12.559-28,28-28h8.688L91.719,55.023C87.184,50.496,81.16,48,74.742,48H0v88h104.406
	C104.215,134.68,104,133.367,104,132z"/>
<path fill="#301934" d="M464,360l-0.977-32H293.664c1.488,7.785,2.336,15.793,2.336,24v8H464z"/>
<path fill="#301934" d="M168,224c6.184,0,12.223,0.594,18.176,1.441c8.168-21.008,12.754-42.961,13.633-65.441H132
	c-7.602,0-14.48-3.062-19.535-8H0v160h46.488C63.336,260.969,111.398,224,168,224z"/>
<path fill="#301934" d="M0,360h40v-8c0-8.207,0.848-16.215,2.336-24H0V360z"/>
<path fill="#301934" d="M260.441,145.176l0.68-0.465l30.414-20.816l9.039,27.129l17.809,2.848l-13.117-39.367l53.031-36.289
	C387.199,58.457,420.984,48,456,48V32c-38.246,0-75.16,11.414-106.734,33.016L248.559,133.93l11.152,10.566L260.441,145.176z"/>
<path fill="#301934" d="M168,328c-13.23,0-24,10.77-24,24s10.77,24,24,24s24-10.77,24-24S181.23,328,168,328z M176,360h-16v-16h16
	V360z"/>
<path fill="#301934" d="M168,256c-52.938,0-96,43.062-96,96s43.062,96,96,96s96-43.062,96-96S220.938,256,168,256z M168,392
	c-22.055,0-40-17.945-40-40s17.945-40,40-40s40,17.945,40,40S190.055,392,168,392z"/>
</svg>
