<?xml version="1.0" encoding="iso-8859-1"?>
<!-- Generator: Adobe Illustrator 29.1.0, SVG Export Plug-In . SVG Version: 9.03 Build 55587)  -->
<svg version="1.1" id="Ebene_1" xmlns="http://www.w3.org/2000/svg" xmlns:xlink="http://www.w3.org/1999/xlink" x="0px" y="0px"
	 viewBox="0 0 511 511" enable-background="new 0 0 511 511" xml:space="preserve">
<path fill="#301934" d="M503.554,225.882c-18.955-30.323-51.427-82.28-62.316-99.707c9.708-31.361,14.628-63.879,14.628-96.772
	V15.969c0-8.269-6.706-14.971-14.971-14.971c-8.269,0-14.971,6.702-14.971,14.971v13.435c0,32.043-5.138,63.692-15.267,94.074
	c-0.671,2-1.875,7.259,1.505,12.671c0,0,42.974,68.768,66.004,105.606c4.628,7.407,3.548,16.893-2.632,23.072l-29.193,29.193
	c-2.203,2.207-3.669,5.049-4.179,8.125l-15.665,93.859l-15.029,30.054c-1.945,3.887-1.579,6.043-1.579,16.094
	c0,21.93-17.844,39.774-39.774,39.774c-30.741,0-142.849,4.659-239.344-91.828c-5.844-5.844-15.325-5.844-21.17,0.004
	c-5.848,5.844-5.848,15.326,0,21.17c13.466,13.466,27.902,25.68,43.208,36.62l-14.756,44.269
	c-3.154,9.474,3.77,19.708,14.207,19.708c6.269,0,12.109-3.965,14.199-10.238l12.308-36.92
	c89.177,52.21,170.498,47.154,191.348,47.154c38.44,0,69.715-31.271,69.715-69.715v-5.86c15.552-31.111,15.322-30.09,15.832-33.146
	l15.244-91.345l25.801-25.801C512.801,269.902,515.62,245.184,503.554,225.882z"/>
<path fill="#301934" d="M126.152,288.568c0-8.265-6.702-14.971-14.971-14.971H97.087c-30.316,0-67.146-24.713-67.146-64.019
	c0-36.608,29.785-66.39,66.394-66.39c22.331,0,81.91,3.287,134.923-49.739l66.896-66.896c2.71-2.706,4.386-6.448,4.386-10.585
	c0-8.269-6.706-14.971-14.971-14.971c-4.136,0-7.883,1.68-10.593,4.39L210.081,72.28c-44.436,44.448-94.955,40.967-113.75,40.967
	C43.216,113.247,0,156.459,0,209.582c0,46.842,40.748,93.957,97.087,93.957h14.094C119.45,303.539,126.152,296.837,126.152,288.568z
	"/>
<path fill="#301934" d="M95.146,191.294c8.269,0,14.971-6.706,14.971-14.971c0-8.269-6.702-14.971-14.971-14.971
	c-25.938,0-47.041,21.103-47.041,47.041s21.103,47.041,47.041,47.041c8.269,0,14.971-6.702,14.971-14.971
	c0-8.269-6.702-14.971-14.971-14.971c-9.427,0-17.099-7.672-17.099-17.099C78.046,198.962,85.719,191.294,95.146,191.294z"/>
<path fill="#301934" d="M192.744,402.49c2.039,7.618,9.992,12.819,18.335,10.589c6.78-1.817,11.201-8.012,11.08-14.729l47.817,27.61
	c8.179,4.721,16.936,0.612,20.452-5.481c4.133-7.158,1.68-16.316-5.481-20.448l-47.817-27.61c5.875-3.251,9.025-10.175,7.209-16.955
	c-2.14-7.988-10.355-12.725-18.335-10.585l-30.975,8.3c-7.984,2.14-12.725,10.347-10.585,18.335L192.744,402.49z"/>
<path fill="#301934" d="M261.219,127.025c-5.848-5.848-15.325-5.848-21.17,0l-22.674,22.674c-5.844,5.848-5.844,15.325,0,21.17
	l22.674,22.678c5.848,5.848,15.325,5.848,21.17,0.004c4.967-4.963,5.7-12.542,2.234-18.292h55.22
	c8.269,0,14.971-6.706,14.971-14.971c0-8.269-6.702-14.971-14.971-14.971h-55.22C266.919,139.559,266.182,131.988,261.219,127.025z"
	/>
<path fill="#301934" d="M226.896,224.428c0-8.269-6.702-14.971-14.971-14.971h-32.07c-8.269,0-14.971,6.702-14.971,14.971v32.07
	c0,8.269,6.702,14.971,14.971,14.971c7.018,0,12.893-4.838,14.515-11.357l39.041,39.041c5.848,5.848,15.325,5.848,21.173,0
	c5.844-5.844,5.844-15.322,0-21.17l-39.045-39.045C222.058,237.321,226.896,231.446,226.896,224.428z"/>
</svg>
