<?xml version="1.0" encoding="iso-8859-1"?>
<!-- Generator: Adobe Illustrator 29.1.0, SVG Export Plug-In . SVG Version: 9.03 Build 55587)  -->
<svg version="1.1" id="Layer_3" xmlns="http://www.w3.org/2000/svg" xmlns:xlink="http://www.w3.org/1999/xlink" x="0px" y="0px"
	 viewBox="0 0 512 512" enable-background="new 0 0 512 512" xml:space="preserve">
<g>
	<path fill="#301934" d="M504,172.288C504,152.28,487.72,136,467.712,136c-9.688,0-18.808,3.776-25.656,10.632l-23.712,23.712
		L392,196.688V119.36c27.096-3.904,48-27.208,48-55.36c0-30.88-25.12-56-56-56H64C33.12,8,8,33.12,8,64v400c0,4.416,3.584,8,8,8h40
		v24c0,4.416,3.584,8,8,8h320c4.416,0,8-3.584,8-8V299.312l77.656-77.656l8.216-8.216c-4.144,20.64-14.248,39.616-29.464,54.84
		l-38.056,38.056l11.312,11.312l38.056-38.056c22.704-22.704,35.4-52.688,36.144-84.68C501.04,188.496,504,180.656,504,172.288
		L504,172.288z M453.368,157.944c3.832-3.832,8.928-5.944,14.344-5.944c11.184,0,20.288,9.104,20.288,20.288
		c0,5.416-2.112,10.512-5.944,14.344L464,204.688L435.312,176L453.368,157.944z M424,187.312l8.688,8.688L332,296.688L323.312,288
		L424,187.312z M233.736,398.424l16.456-32.92l24.304,24.304l-32.92,16.456L233.736,398.424z M259.312,352L312,299.312L340.688,328
		L288,380.688L259.312,352z M384,24c22.056,0,40,17.944,40,40s-17.944,40-40,40H103.12C113.52,93.824,120,79.664,120,64
		s-6.48-29.824-16.88-40H384z M72,103.192V80c0-4.408,3.592-8,8-8h23.192C100,87.648,87.648,100,72,103.192z M24,456V64
		c0-22.056,17.944-40,40-40c19.312,0,35.472,13.768,39.192,32H80c-13.232,0-24,10.768-24,24v376H24z M376,488H72V120h304v92.688
		L340.688,248H104v16h220.688l-16,16H104v16h188.688l-50.344,50.344c-0.624,0.624-1.032,1.368-1.408,2.12l-0.088-0.048l-24,48
		c-1.536,3.08-0.936,6.8,1.504,9.232l2.336,2.352l-18.344,18.344l11.312,11.312L232,419.312l2.344,2.344
		C235.88,423.192,237.928,424,240,424c1.208,0,2.44-0.28,3.576-0.84l48-24l-0.048-0.088c0.752-0.376,1.496-0.784,2.12-1.408l64-64
		L376,315.312L376,488z M352,316.688L343.312,308L444,207.312l8.688,8.688L352,316.688z"/>
	<path fill="#301934" d="M104,152h240v16H104V152z"/>
	<path fill="#301934" d="M104,184h240v16H104V184z"/>
	<path fill="#301934" d="M104,216h240v16H104V216z"/>
	<path fill="#301934" d="M104,408h88v16h-88V408z"/>
	<path fill="#301934" d="M104,440h240v16H104V440z"/>
</g>
</svg>
