<?xml version="1.0" encoding="iso-8859-1"?>
<!-- Generator: Adobe Illustrator 29.1.0, SVG Export Plug-In . SVG Version: 9.03 Build 55587)  -->
<svg version="1.1"
	 id="svg2" xmlns:rdf="http://www.w3.org/1999/02/22-rdf-syntax-ns#" xmlns:dc="http://purl.org/dc/elements/1.1/" xmlns:cc="http://creativecommons.org/ns#" xmlns:svg="http://www.w3.org/2000/svg"
	 xmlns="http://www.w3.org/2000/svg" xmlns:xlink="http://www.w3.org/1999/xlink" x="0px" y="0px" viewBox="0 0 1920 1080"
	 enable-background="new 0 0 1920 1080" xml:space="preserve">
<rect id="canvas" x="420" display="none" fill="none" width="1080" height="1080"/>
<path id="repair-car" fill="#301934" d="M1229.984,0c-71.382,0-132.99,38.785-166.336,96.429H612.855
	c-67.711,0-115.712,40.206-115.712,96.429s46.549,96.429,115.712,96.429h450.794c33.345,57.644,94.954,96.429,166.336,96.429
	c71.382,0,132.99-38.785,166.336-96.429h-127.765l-115.712-96.429l115.712-96.429h127.765C1362.975,38.785,1301.366,0,1229.984,0z
	 M612.855,154.286c21.302,0,38.571,17.269,38.571,38.571s-17.269,38.571-38.571,38.571s-38.571-17.269-38.571-38.571
	S591.553,154.286,612.855,154.286z M728.566,462.857l-77.141,231.429c-36.462,0-77.141,29.646-77.141,77.143v231.429h77.141
	c0,0,0,77.143,77.141,77.143s77.141-77.143,77.141-77.143h308.565c0,0,0,77.143,77.141,77.143s77.141-77.143,77.141-77.143h77.141
	V771.429c0-40.161-35.132-77.143-77.141-77.143l-77.141-231.429H728.566z M805.708,540h308.565l48.213,154.286H757.494L805.708,540z
	 M728.566,790.714c31.953,0,57.856,25.904,57.856,57.857s-25.903,57.857-57.856,57.857c-31.953,0-57.856-25.903-57.856-57.857
	S696.613,790.714,728.566,790.714z M1191.414,790.714c31.953,0,57.856,25.904,57.856,57.857s-25.903,57.857-57.856,57.857
	s-57.856-25.903-57.856-57.857S1159.461,790.714,1191.414,790.714z"/>
</svg>
