<?xml version="1.0" encoding="iso-8859-1"?>
<!-- Generator: Adobe Illustrator 29.1.0, SVG Export Plug-In . SVG Version: 9.03 Build 55587)  -->
<svg version="1.1" id="Ebene_1" xmlns="http://www.w3.org/2000/svg" xmlns:xlink="http://www.w3.org/1999/xlink" x="0px" y="0px"
	 viewBox="0 0 512 512" enable-background="new 0 0 512 512" xml:space="preserve">
<g id="car_store">
	<path fill="#301934" d="M436.4,374.56c-1.085-0.009-2.165,0.153-3.2,0.48l-28.32,8.32l-107.12,24.48v-0.16
		c-0.577,0.152-1.166,0.259-1.76,0.32h-71.92l-5.6,2l39.6,22h60.8l109.76-32.32c2.161-0.625,4.392-0.974,6.64-1.04l5.36-1.68
		c4.484-1.689,7.428-6.009,7.36-10.8C447.996,379.755,442.805,374.564,436.4,374.56z"/>
	<path fill="#301934" d="M496,248c0,22.091-17.909,40-40,40H56c-22.091,0-40-17.909-40-40c0-4.418,3.582-8,8-8h464
		C492.418,240,496,243.582,496,248z"/>
	<path fill="#301934" d="M452.24,112C435.955,96.611,414.406,88.026,392,88h-4.72l24,24H452.24z"/>
	<path fill="#301934" d="M316.4,334.56c-1.085-0.009-2.165,0.153-3.2,0.48l-47.44,13.92l15.84,3.2c1.54,0.31,2.958,1.06,4.08,2.16
		l7.2,7.2l33.52-9.84c0.999-1.672,1.55-3.573,1.6-5.52C327.996,339.755,322.805,334.564,316.4,334.56z"/>
	<path fill="#301934" d="M397.84,368.56c3.678-5.072,2.547-12.165-2.525-15.843c-2.007-1.455-4.436-2.213-6.915-2.157
		c-1.085-0.009-2.165,0.153-3.2,0.48l-81.36,23.92c0,0.4,0.16,0.72,0.16,1.04v14L397.84,368.56z"/>
	<path fill="#301934" d="M448,426.16c-0.009,4.884-3.081,9.236-7.68,10.88L318.64,480H201.28l-94.72-31.6
		c-0.831-0.25-1.692-0.384-2.56-0.4H80v24c-0.025,3.428-2.203,6.471-5.44,7.6l-48,16c-0.831,0.25-1.692,0.384-2.56,0.4
		c-1.673,0.024-3.306-0.511-4.64-1.52c-2.115-1.478-3.371-3.9-3.36-6.48V312c-0.011-2.58,1.245-5.002,3.36-6.48
		c2.081-1.508,4.759-1.925,7.2-1.12l48,16c3.237,1.129,5.415,4.172,5.44,7.6v29.44L113.52,344h45.68l116.88,23.36L288,379.28V392
		H184c-4.418,0.013-7.989,3.606-7.976,8.024c0.009,2.872,1.557,5.519,4.056,6.936l72,40c1.188,0.696,2.543,1.056,3.92,1.04h64
		c0.759,0.017,1.516-0.091,2.24-0.32l110.96-32.64c6.129-1.789,12.547,1.728,14.337,7.857
		C447.846,423.957,448.002,425.056,448,426.16z"/>
	<path fill="#301934" d="M264,96v-8h-32v16h24C260.418,104,264,100.418,264,96z"/>
	<path fill="#301934" d="M88.72,184c4.392-26.112,29.12-43.72,55.232-39.328c20.151,3.389,35.939,19.177,39.328,39.328H216V88H77.44
		l-14,34.96c-1.213,3.046-4.162,5.043-7.44,5.04H32v13.6L60.32,184H88.72z"/>
	<path fill="#301934" d="M402.32,125.68L364.72,88H280v8c-0.04,13.238-10.762,23.96-24,24h-24v64h104.72
		c4.392-26.112,29.12-43.72,55.232-39.328c20.151,3.389,35.939,19.177,39.328,39.328H480v-8c0.006-17.054-4.971-33.737-14.32-48H408
		C405.879,127.984,403.845,127.154,402.32,125.68z"/>
	<circle fill="#301934" cx="384" cy="192" r="32"/>
	<path fill="#301934" d="M372.56,72H75.44l20.24-13.36c4.56-3.04,10.08-6.48,16.32-10C145.966,28.45,184.505,17.219,224,16
		c39.495,1.219,78.034,12.45,112,32.64c6.24,3.52,11.76,6.96,16.32,10L372.56,72z"/>
	<path fill="#301934" d="M60.16,88H40c-4.418,0-8,3.582-8,8v16h18.56L60.16,88z"/>
	<circle fill="#301934" cx="136" cy="192" r="32"/>
</g>
</svg>
