<?xml version="1.0" encoding="iso-8859-1"?>
<!-- Generator: Adobe Illustrator 29.1.0, SVG Export Plug-In . SVG Version: 9.03 Build 55587)  -->
<svg version="1.1" id="Capa_1" xmlns="http://www.w3.org/2000/svg" xmlns:xlink="http://www.w3.org/1999/xlink" x="0px" y="0px"
	 viewBox="0 0 512 512" enable-background="new 0 0 512 512" xml:space="preserve">
<g>
	<path fill="#301934" d="M437.02,74.98C388.667,26.629,324.38,0,256,0S123.333,26.629,74.98,74.98C26.629,123.333,0,187.62,0,256
		s26.629,132.667,74.98,181.02C123.333,485.371,187.62,512,256,512s132.667-26.629,181.02-74.98C485.371,388.667,512,324.38,512,256
		S485.371,123.333,437.02,74.98L437.02,74.98z M426.413,426.413C380.894,471.932,320.374,497,256,497
		s-124.894-25.068-170.413-70.587S15,320.374,15,256S40.068,131.106,85.587,85.587S191.626,15,256,15s124.894,25.068,170.413,70.587
		S497,191.626,497,256S471.932,380.894,426.413,426.413z"/>
	<path fill="#301934" d="M144.161,71.23c-1.009-1.827-2.734-3.15-4.759-3.652c-2.024-0.503-4.169-0.139-5.915,1.005
		C69.979,110.18,32.064,180.242,32.064,256c0,59.815,23.293,116.051,65.589,158.346c42.295,42.296,98.531,65.589,158.346,65.589
		c32.54,0,63.993-6.882,93.486-20.455c1.894-0.872,3.34-2.492,3.99-4.473c0.65-1.98,0.447-4.143-0.561-5.967L144.161,71.23z
		 M147.894,224.452l14.19-28.381c1.454-2.909,4.378-4.716,7.631-4.716h23.682l18.287,33.097H147.894z M232.251,261.675l10.437,18.89
		h-15.16L232.251,261.675z M256,464.936c-115.208,0-208.936-93.728-208.936-208.936c0-67.981,32.727-131.049,87.952-170.304
		l50.092,90.659h-15.394c-8.972,0-17.037,4.985-21.047,13.008l-19.617,39.234c-1.163,2.325-1.039,5.086,0.328,7.297
		s3.781,3.557,6.38,3.557h22.459l-24.755,99.018c-1.77,7.079-0.209,14.438,4.281,20.189c4.491,5.751,11.251,9.05,18.549,9.05h43.595
		c3.441,0,6.441-2.342,7.276-5.681l6.011-24.045c1.005-4.019-1.438-8.09-5.457-9.095c-4.012-1.002-8.09,1.439-9.095,5.457
		l-4.591,18.364h-37.739c-2.646,0-5.097-1.196-6.726-3.282c-1.628-2.085-2.194-4.753-1.552-7.32l25.664-102.656h46.294l1.634,2.958
		l-14.967,59.87c-1.005,4.019,1.438,8.09,5.457,9.095c0.61,0.153,1.222,0.226,1.825,0.226c3.36,0,6.418-2.275,7.27-5.683
		l2.59-10.361c0.052,0.001,0.102,0.008,0.154,0.008h27.041l84.831,153.53C310.458,459.61,283.65,464.936,256,464.936L256,464.936z"
		/>
	<path fill="#301934" d="M414.346,97.654C372.051,55.358,315.815,32.064,256,32.064c-32.539,0-63.991,6.882-93.484,20.455
		c-1.894,0.872-3.34,2.492-3.99,4.473c-0.65,1.98-0.447,4.143,0.561,5.967l24.458,44.265c2.004,3.626,6.567,4.942,10.191,2.938
		c3.625-2.003,4.941-6.566,2.938-10.191l-20.479-37.064C201.543,52.39,228.351,47.064,256,47.064
		c115.208,0,208.936,93.728,208.936,208.936c0,67.98-32.726,131.048-87.951,170.303l-78.067-141.287
		c8.097-7.471,12.678-17.837,12.678-29.015v-16.548h56.629c8.556,0,15.516-6.96,15.516-15.516v-0.516h16.549
		c8.556,0,15.516-6.96,15.516-15.516v-16.032c0-8.556-6.96-15.516-15.516-15.516H238.879l-27.28-49.373
		c-2.002-3.625-6.565-4.94-10.191-2.938c-3.625,2.003-4.941,6.566-2.938,10.191L367.841,440.77c1.009,1.827,2.734,3.15,4.759,3.653
		c0.596,0.147,1.202,0.22,1.805,0.22c1.447,0,2.877-0.419,4.109-1.226C442.021,401.819,479.936,331.757,479.936,256
		C479.936,196.185,456.642,139.949,414.346,97.654L414.346,97.654z M296.597,256c0,5.643-1.886,10.952-5.292,15.236l-17.562-31.785
		h22.854V256z M400.807,191.871v16.032c0,0.285-0.231,0.516-0.516,0.516h-16.549v-17.064h16.549
		C400.575,191.355,400.807,191.586,400.807,191.871L400.807,191.871z M368.742,191.355v32.581c0,0.285-0.231,0.516-0.516,0.516
		H265.455l-18.287-33.097L368.742,191.355z"/>
</g>
</svg>
