<?xml version="1.0" encoding="iso-8859-1"?>
<!-- Generator: Adobe Illustrator 29.1.0, SVG Export Plug-In . SVG Version: 9.03 Build 55587)  -->
<svg version="1.1" id="Layer_3" xmlns="http://www.w3.org/2000/svg" xmlns:xlink="http://www.w3.org/1999/xlink" x="0px" y="0px"
	 viewBox="0 0 512 512" enable-background="new 0 0 512 512" xml:space="preserve">
<g>
	<path fill="#301934" d="M496,344H376V80h-0.072c0-2.08-0.736-4.128-2.272-5.656l-64-64c-1.528-1.536-3.576-2.272-5.656-2.272V8H16
		c-4.416,0-8,3.584-8,8v480c0,4.416,3.584,8,8,8h176h304c4.416,0,8-3.584,8-8V352C504,347.584,500.416,344,496,344z M312,35.312
		L348.688,72H312V35.312z M184,352v136H24V24h272v56c0,4.416,3.584,8,8,8h56v256H192C187.584,344,184,347.584,184,352z M488,488H200
		V360h288V488z"/>
	<path fill="#301934" d="M344,480c30.88,0,56-25.12,56-56s-25.12-56-56-56s-56,25.12-56,56S313.12,480,344,480z M344,384
		c22.056,0,40,17.944,40,40s-17.944,40-40,40s-40-17.944-40-40S321.944,384,344,384z"/>
	<path fill="#301934" d="M456,416h16v-32c0-4.416-3.584-8-8-8h-32v16h24V416z"/>
	<path fill="#301934" d="M224,472h32v-16h-24v-24h-16v32C216,468.416,219.584,472,224,472z"/>
	<path fill="#301934" d="M80,120c22.056,0,40-17.944,40-40s-17.944-40-40-40S40,57.944,40,80S57.944,120,80,120z M80,56
		c13.232,0,24,10.768,24,24s-10.768,24-24,24S56,93.232,56,80S66.768,56,80,56z"/>
	<path fill="#301934" d="M40,136h80v16H40V136z"/>
	<path fill="#301934" d="M88,184h240v16H88V184z"/>
	<path fill="#301934" d="M56,216h272v16H56V216z"/>
	<path fill="#301934" d="M56,248h272v16H56V248z"/>
	<path fill="#301934" d="M56,280h272v16H56V280z"/>
	<path fill="#301934" d="M56,352h96v16H56V352z"/>
	<path fill="#301934" d="M56,384h96v16H56V384z"/>
	<path fill="#301934" d="M56,416h96v16H56V416z"/>
</g>
</svg>
