<?xml version="1.0" encoding="iso-8859-1"?>
<!-- Generator: Adobe Illustrator 29.1.0, SVG Export Plug-In . SVG Version: 9.03 Build 55587)  -->
<svg version="1.1" id="Ebene_1" xmlns="http://www.w3.org/2000/svg" xmlns:xlink="http://www.w3.org/1999/xlink" x="0px" y="0px"
	 viewBox="0 0 496 496" enable-background="new 0 0 496 496" xml:space="preserve">
<path fill="#301934" d="M472,240h-48.688l-15.145-68.152C402.426,146.031,379.938,128,353.496,128h-26.711l-4.656-27.945
	C320.184,88.441,310.23,80,298.449,80H197.551c-11.789,0-21.742,8.441-23.672,20.055L169.223,128h-26.711
	c-26.449,0-48.926,18.031-54.672,43.848L72.688,240H24c-13.23,0-24,10.77-24,24v16c0,13.23,10.77,24,24,24h13.496
	C33.961,311.434,32,319.617,32,328v56c-8.824,0-16,7.176-16,16v16c0,8.824,7.176,16,16,16h32v40c0,13.23,10.77,24,24,24h48
	c13.23,0,24-10.77,24-24v-40h176v40c0,13.23,10.77,24,24,24h48c13.23,0,24-10.77,24-24v-40h32c8.824,0,16-7.176,16-16v-16
	c0-8.824-7.176-16-16-16v-56c0-8.383-1.961-16.566-5.496-24H472c13.23,0,24-10.77,24-24v-16C496,250.77,485.23,240,472,240z
	 M306.336,102.688L310.559,128H280V96h18.449C302.375,96,305.695,98.809,306.336,102.688z M232,128V96h32v32H232z M189.664,102.68
	c0.641-3.871,3.961-6.68,7.887-6.68H216v32h-30.559L189.664,102.68z M103.465,175.32c4.086-18.441,20.152-31.32,39.039-31.32
	h210.984c18.887,0,34.953,12.879,39.047,31.32l21.602,97.184c-2.039-0.23-4.082-0.504-6.137-0.504h-26.754l-21.344-96H136.098
	l-21.344,96H88c-2.055,0-4.098,0.273-6.137,0.504L103.465,175.32z M364.855,272H131.145l17.777-80h198.156L364.855,272z M24,288
	c-4.414,0-8-3.594-8-8v-16c0-4.406,3.586-8,8-8h45.137l-4.762,21.398c-3.496,1.625-6.879,3.48-9.977,5.801
	c-1.957,1.473-3.781,3.098-5.52,4.801H24z M144,448h-16v16h16v8c0,4.406-3.586,8-8,8H88c-4.414,0-8-3.594-8-8v-8h16v-16H80v-16h64
	V448z M416,448h-16v16h16v8c0,4.406-3.586,8-8,8h-48c-4.414,0-8-3.594-8-8v-8h16v-16h-16v-16h64V448z M464.008,416H32v-16h432
	L464.008,416z M48,384v-56c0-12.52,5.984-24.488,16.008-32c6.863-5.16,15.391-8,23.992-8h320c8.602,0,17.129,2.84,24,8
	c10.016,7.512,16,19.473,16,32v56H48z M480,280c0,4.406-3.586,8-8,8h-24.871c-1.738-1.703-3.562-3.328-5.52-4.801
	c-3.098-2.32-6.48-4.176-9.984-5.801L426.863,256H472c4.414,0,8,3.594,8,8V280z"/>
<path fill="#301934" d="M136,304H88c-13.23,0-24,10.77-24,24v16c0,13.23,10.77,24,24,24h48c13.23,0,24-10.77,24-24v-16
	C160,314.77,149.23,304,136,304z M144,344c0,4.406-3.586,8-8,8H88c-4.414,0-8-3.594-8-8v-16c0-4.406,3.586-8,8-8h48
	c4.414,0,8,3.594,8,8V344z"/>
<path fill="#301934" d="M408,304h-48c-13.23,0-24,10.77-24,24v16c0,13.23,10.77,24,24,24h48c13.23,0,24-10.77,24-24v-16
	C432,314.77,421.23,304,408,304z M416,344c0,4.406-3.586,8-8,8h-48c-4.414,0-8-3.594-8-8v-16c0-4.406,3.586-8,8-8h48
	c4.414,0,8,3.594,8,8V344z"/>
<path fill="#301934" d="M281.754,304h-67.508C201.984,304,192,313.984,192,326.246c0,1.816,0.215,3.633,0.664,5.402l4.879,19.504
	c2.48,9.918,11.352,16.848,21.578,16.848h57.75c10.227,0,19.105-6.93,21.578-16.848l4.887-19.52c0.449-1.762,0.664-3.57,0.664-5.387
	C304,313.984,294.016,304,281.754,304z M287.824,327.762l-4.879,19.504c-0.715,2.789-3.203,4.734-6.074,4.734h-57.75
	c-2.863,0-5.359-1.945-6.066-4.727l-4.871-19.496c-0.121-0.496-0.184-1.016-0.184-1.531c0-3.445,2.809-6.246,6.246-6.246h67.508
	c3.438,0,6.246,2.801,6.246,6.246C288,326.762,287.938,327.281,287.824,327.762z"/>
<path fill="#301934" d="M296,0h16v32h-16V0z"/>
<path fill="#301934" d="M376,80h32v16h-32V80z"/>
<path fill="#301934" d="M338.344,50.344l24-24l11.312,11.312l-24,24L338.344,50.344z"/>
<path fill="#301934" d="M184,0h16v32h-16V0z"/>
<path fill="#301934" d="M88,80h32v16H88V80z"/>
<path fill="#301934" d="M122.344,37.66l11.312-11.312l24.004,24L146.344,61.66L122.344,37.66z"/>
</svg>
