<svg width="25" height="33" viewBox="0 0 25 33" fill="none" xmlns="http://www.w3.org/2000/svg">
<path d="M23.9509 27.9568H1.03833C0.860793 27.9563 0.686342 27.9103 0.531543 27.8234C0.376744 27.7365 0.246736 27.6114 0.153865 27.4601C0.0609937 27.3088 0.00834297 27.1363 0.000912678 26.9589C-0.00651762 26.7815 0.0315194 26.6052 0.111411 26.4467C1.39646 23.8566 2.06988 21.0061 2.07981 18.1148V14.4176C2.07981 11.6554 3.17708 9.00635 5.13023 7.0532C7.08338 5.10005 9.73242 4.00278 12.4946 4.00278C15.2568 4.00278 17.9058 5.10005 19.859 7.0532C21.8121 9.00635 22.9094 11.6554 22.9094 14.4176V18.094C22.9193 20.9853 23.5927 23.8358 24.8778 26.4258C24.9626 26.5851 25.0046 26.7637 24.9996 26.944C24.9946 27.1244 24.9429 27.3004 24.8494 27.4547C24.756 27.6091 24.624 27.7365 24.4665 27.8245C24.309 27.9125 24.1313 27.9581 23.9509 27.9568ZM2.65262 25.8738H22.3366C21.3434 23.4001 20.8309 20.7597 20.8264 18.094V14.4176C20.8264 12.2078 19.9486 10.0886 18.3861 8.52607C16.8236 6.96355 14.7043 6.08574 12.4946 6.08574C10.2849 6.08574 8.16562 6.96355 6.6031 8.52607C5.04058 10.0886 4.16277 12.2078 4.16277 14.4176V18.094C4.15831 20.7597 3.64579 23.4001 2.65262 25.8738Z" fill="white"/>
<path d="M12.4946 32.1227C11.1135 32.1227 9.78899 31.5741 8.81241 30.5975C7.83584 29.621 7.2872 28.2964 7.2872 26.9153C7.2872 26.6391 7.39693 26.3742 7.59224 26.1789C7.78756 25.9836 8.05246 25.8739 8.32868 25.8739C8.6049 25.8739 8.8698 25.9836 9.06512 26.1789C9.26043 26.3742 9.37016 26.6391 9.37016 26.9153C9.37089 27.7437 9.70055 28.5379 10.2867 29.1233C10.8827 29.6888 11.673 30.0041 12.4946 30.0041C13.3162 30.0041 14.1065 29.6888 14.7025 29.1233C14.7996 29.0262 14.9149 28.9492 15.0418 28.8966C15.1687 28.844 15.3047 28.817 15.442 28.817C15.5793 28.817 15.7153 28.844 15.8422 28.8966C15.969 28.9492 16.0843 29.0262 16.1814 29.1233C16.2785 29.2204 16.3556 29.3357 16.4081 29.4625C16.4607 29.5894 16.4877 29.7254 16.4877 29.8627C16.4877 30.0001 16.4607 30.136 16.4081 30.2629C16.3556 30.3898 16.2785 30.5051 16.1814 30.6022C15.6969 31.0855 15.122 31.4685 14.4893 31.7294C13.8567 31.9903 13.1789 32.124 12.4946 32.1227Z" fill="white"/>
<path d="M12.4946 6.08575C12.2184 6.08575 11.9535 5.97603 11.7582 5.78071C11.5629 5.58539 11.4531 5.32049 11.4531 5.04427V1.91984C11.4531 1.64362 11.5629 1.37871 11.7582 1.1834C11.9535 0.988084 12.2184 0.878357 12.4946 0.878357C12.7708 0.878357 13.0357 0.988084 13.231 1.1834C13.4264 1.37871 13.5361 1.64362 13.5361 1.91984V5.04427C13.5361 5.32049 13.4264 5.58539 13.231 5.78071C13.0357 5.97603 12.7708 6.08575 12.4946 6.08575Z" fill="white"/>
</svg>
