<svg width="20" height="20" viewBox="0 0 20 20" fill="none" xmlns="http://www.w3.org/2000/svg">
<path d="M12.7828 0.00171695C12.6278 0.00787027 12.4782 0.0355602 12.3224 0.0740184L1.78641 2.62149C0.540138 2.92454 -0.239559 4.17213 0.0665846 5.40971L1.54382 11.3954C1.63334 11.7519 1.80763 12.082 2.05211 12.3579C2.29659 12.6338 2.60413 12.8476 2.94898 12.9814V11.5392C2.94898 9.4186 4.68741 7.69336 6.82421 7.69336H16.5851L15.1319 1.75618C15.0034 1.24009 14.6995 0.783765 14.2714 0.464163C13.8433 0.144561 13.3173 -0.0187678 12.782 0.00171695H12.7828ZM13.7268 3.31912L14.3569 5.9389L11.7411 6.56346L11.087 3.96753L13.7268 3.31912ZM6.82421 9.23169C5.54074 9.23169 4.49907 10.2655 4.49907 11.5392V17.6925C4.49907 18.9662 5.54074 20 6.82421 20H17.6749C18.9583 20 20 18.9662 20 17.6925V11.5392C20 10.2655 18.9583 9.23169 17.6749 9.23169H6.82421ZM6.82421 10.4577H17.6749C18.2724 10.4577 18.7646 10.9462 18.7646 11.5392V12.3084H5.7345V11.5392C5.7345 10.9462 6.22665 10.4577 6.82421 10.4577ZM5.7345 14.6158H18.7646V17.6925C18.7646 18.2855 18.2724 18.774 17.6749 18.774H6.82421C6.53571 18.7723 6.25948 18.6579 6.05547 18.4554C5.85146 18.253 5.73613 17.9788 5.7345 17.6925V14.6158Z" fill="white"/>
</svg>
