<svg xmlns="http://www.w3.org/2000/svg" fill="none" viewBox="0 0 24 25">
  <path fill="#fff" fill-rule="evenodd" d="M2.538 2.546c-.066.066-.164.286-.295.658-.175.498-.217.746-.239 1.439-.02.639.029 1.097.178 1.663.303 1.152 1.02 2.41 1.867 3.27.975.993 6.197 6.013 6.891 6.626.16.14.146.144.406-.095l.18-.164.154.146.154.146-.38.364c-.209.2-.38.373-.38.384 0 .01.138.15.306.31l.305.29 2.05-1.954a138.217 138.217 0 0 0 2.05-1.975c0-.027-.583-.582-.61-.582-.012 0-.192.163-.4.361l-.379.36-.151-.127a.749.749 0 0 1-.152-.151c0-.013.097-.116.214-.228l.214-.205-.53-.503-.53-.504-.342.038c-.188.021-.431.045-.54.053l-.198.014v-.13c0-.072.01-.188.02-.257a5.5 5.5 0 0 0 .034-.332l.015-.205h-.136c-.075 0-.272.014-.437.03-.438.044-.396.055-.395-.107 0-.075.014-.252.032-.393.017-.14.031-.293.031-.34v-.086l-.101.01a21.42 21.42 0 0 0-.395.04c-.161.016-.337.03-.39.03h-.098v-.087c0-.048.014-.202.032-.342.017-.14.032-.308.032-.373v-.117h-.123a4.68 4.68 0 0 0-.38.03 4.37 4.37 0 0 1-.361.031h-.106l.014-.209a8.43 8.43 0 0 1 .057-.515l.043-.306-1.258-1.2-1.258-1.199-.696-.287-.695-.288L4.243 4.04a88.714 88.714 0 0 0-1.64-1.54c-.01 0-.04.02-.065.046Zm.485 2.528c.38.978.711 1.615 1.202 2.304.452.636.87 1.076 2.844 3l1.245 1.213-.236.225-.236.226-1.409-1.358C4.56 8.88 4.356 8.672 4.025 8.231 3.4 7.399 2.812 5.843 2.803 5c-.003-.271.012-.362.052-.324.012.012.088.19.168.397Zm10.963 10.764-1.21 1.153 1.945 1.854 1.944 1.854.072.223c.095.297.14.409.234.569.208.353.54.645.965.847.326.155.437.173.964.157.543-.016.774-.073 1.07-.26.478-.306.846-.785.977-1.274.07-.263.07-.678 0-.937a2.183 2.183 0 0 0-.803-1.194 2.44 2.44 0 0 0-.662-.318 1.357 1.357 0 0 1-.277-.113c-.192-.122-.652-.544-2.309-2.117a217.865 217.865 0 0 0-1.691-1.597c-.005 0-.553.519-1.219 1.153Zm5.137 3.798c.137.038.342.168.425.269.386.463.224 1.127-.335 1.38-.131.059-.16.064-.367.064-.288 0-.409-.043-.606-.216-.395-.345-.42-.906-.058-1.272a.946.946 0 0 1 .94-.225Z" clip-rule="evenodd"/>
</svg>