<svg width="24" height="20" viewBox="0 0 24 20" fill="none" xmlns="http://www.w3.org/2000/svg">
<path d="M4.33103 4.78017C4.33103 3.52073 5.32687 2.5 6.55172 2.5H20.9862C22.2111 2.5 23.2069 3.52073 23.2069 4.78017V12.7608C23.2069 14.0184 22.2111 15.0409 20.9862 15.0409H6.55172C5.32687 15.0409 4.33103 14.0184 4.33103 12.7608V4.78017ZM6.55172 12.7608H8.77241C8.77241 11.5031 7.77657 10.4806 6.55172 10.4806V12.7608ZM6.55172 4.78017V7.06034C7.77657 7.06034 8.77241 6.03783 8.77241 4.78017H6.55172ZM20.9862 10.4806C19.7614 10.4806 18.7655 11.5031 18.7655 12.7608H20.9862V10.4806ZM18.7655 4.78017C18.7655 6.03783 19.7614 7.06034 20.9862 7.06034V4.78017H18.7655ZM13.769 5.92026C12.2353 5.92026 10.9931 7.19573 10.9931 8.77047C10.9931 10.3452 12.2353 11.6207 13.769 11.6207C15.3026 11.6207 16.5448 10.3452 16.5448 8.77047C16.5448 7.19573 15.3026 5.92026 13.769 5.92026ZM2.66552 14.1859C2.66552 15.6039 3.78419 16.7511 5.16379 16.7511H19.0431C19.5046 16.7511 19.8759 17.1323 19.8759 17.6061C19.8759 18.08 19.5046 18.4612 19.0431 18.4612H5.16379C2.86434 18.4612 1 16.548 1 14.1859V5.63524C1 5.16139 1.37301 4.78017 1.83276 4.78017C2.29251 4.78017 2.66552 5.16139 2.66552 5.63524V14.1859Z" fill="#7DF299"/>
</svg>
