<svg xmlns="http://www.w3.org/2000/svg" fill="none" viewBox="0 0 27 25">
  <path fill="#fff"  fill-rule="evenodd" d="M1.898 1.92c-.056.04-.244.337-.594.935a2.204 2.204 0 0 1-.198.304C1.06 3.183.952 3.134.7 2.977c-.182-.114-.234-.136-.258-.11-.055.058-.224.397-.218.436.004.021.16.132.347.247 3.63 2.22 6.57 4.04 6.574 4.069a.548.548 0 0 1-.051.167c-.096.22-.085.24.296.53.547.415 1.964 1.41 4.81 3.374.461.32.844.593.85.608.03.077-.38.588-.742.922-.236.22-.709.534-.948.632-.24.098-.74.185-1.252.217-.352.022-.44.018-.855-.04-.255-.037-.469-.059-.475-.05-.042.053.247 2.066.314 2.19.021.039.56.072 1.108.068.395-.003 1.206-.1 1.52-.182 1.19-.31 1.884-.784 2.835-1.937.32-.386.427-.485.483-.442.026.02.019.052-.034.151-.218.405-.226.425-.22.557.006.116.015.138.093.213a.47.47 0 0 1 .11.165l.049.17c.052.181.131.27.433.486.37.266.782.518.995.609l.164.07.02.156c.045.353-.052 1.116-.247 1.956-.15.643-.164.758-.107.886.049.11.202.246.347.307.139.059.406.069.624.024.317-.065.393-.16.466-.589.09-.518.273-1.45.303-1.533a.758.758 0 0 1 .5-.476.448.448 0 0 0 .222-.142c.06-.069.1-.094.15-.095.084-.001.005-.092 1.435 1.66.823 1.008 3.383 4.129 3.993 4.868l.07.084.36-.316c.599-.524 1.505-1.42 1.73-1.71.201-.26.216-.359.08-.521-.115-.138-.172-.189-1.255-1.12-2.215-1.904-2.477-2.107-2.768-2.148-.244-.034-.354-.082-.597-.261-.398-.293-1.653-1.463-1.802-1.68-.029-.041-.033-.116-.023-.367.015-.371-.054-.867-.155-1.106a1.572 1.572 0 0 0-.372-.533c-.161-.142-2.517-1.642-7.09-4.515C9.587 7.088 8.33 6.309 8.236 6.273a.325.325 0 0 0-.175.005.306.306 0 0 1-.214-.01c-.139-.053-.543-.284-1.539-.881l-.853-.512-.129.078c-.07.042-.175.096-.232.12a1.913 1.913 0 0 1-.638.08c-.297-.04-.662-.237-1.899-1.023l-.382-.243-.02-.15a8.236 8.236 0 0 1-.031-.542c-.013-.414-.008-.441.151-.839.093-.23.036-.393-.159-.464-.09-.033-.144-.026-.219.028Zm14.254 12.503c.21.135.423.28.475.321l.094.076-.05.071a.657.657 0 0 1-.429.262c-.096.02-.175.046-.175.059-.001.054.144.103.285.095.192-.01.283-.058.43-.224a.9.9 0 0 1 .141-.14c.024-.003.39.237.502.329.081.067.082.069.038.11a4.78 4.78 0 0 1-.323.23c-.432.29-.503.286-1.046-.046-.334-.204-.665-.442-.769-.552-.143-.152-.132-.333.038-.583.075-.11.236-.23.326-.242.071-.009.14.025.463.234Z" clip-rule="evenodd"/>
</svg>