<svg xmlns="http://www.w3.org/2000/svg" fill="none" viewBox="0 0 25 25">
  <path fill="#fff"  fill-rule="evenodd" d="M21.902 9.934c.105.16.064.384-.089.483-.194.126-.235.114-.927-.263-.746-.406-.864-.491-.907-.657-.044-.167-.004-.286.129-.381.194-.139.286-.11 1.044.32.58.329.685.398.75.498ZM9.57 2.912c.101.169.085.242-.147.651l-.218.388 1.587.9 1.587.9-.914 1.61-.913 1.611-2.11-1.197L6.33 6.577l-.045-.14c-.045-.14-.043-.145.15-.51.107-.203.203-.386.212-.406.011-.024-.086-.088-.3-.198l-.315-.162.368-.648.368-.648.32.17.321.17.21-.362c.123-.211.242-.383.286-.412.117-.075.29-.053.497.064l.186.106.217-.382.217-.382.165-.048c.175-.05.303-.01.383.123Zm12.712 8.524a.414.414 0 0 1 .056.186c-.002.07-.283.59-1.197 2.21a101.987 101.987 0 0 1-1.268 2.212.41.41 0 0 1-.44.12.775.775 0 0 0-.52.008c-.084.038-.136.097-.224.255-.11.198-.118.245-.18 1.17a91.808 91.808 0 0 1-.166 2.173c-.037.372-.255.641-.586.727-.075.02-.474.013-.888-.013-.623-.04-.777-.063-.9-.132a.747.747 0 0 1-.357-.51c-.01-.078.015-.738.055-1.467l.073-1.326-1.167-.662c-.84-.476-1.184-.685-1.227-.745-.08-.113-.071-.205.102-1.079l.195-.988.046-.235-.565-.32-.564-.32-.971-1.135c-.535-.624-.98-1.15-.99-1.17-.013-.021.406-.785 1.103-2.014 1.034-1.822 1.133-1.986 1.24-2.059a.435.435 0 0 1 .216-.075c.078.003 1.058.548 4.583 2.55 3.897 2.212 4.491 2.557 4.541 2.639Zm-8.146-2.494c-.33-.021-.497.377-.262.623.066.068.942.575 2.823 1.633l2.728 1.535.148-.052c.164-.057.288-.225.27-.366-.026-.22.055-.168-2.856-1.82-2.395-1.359-2.738-1.546-2.851-1.553Zm.541 2c-.218-.007-.407.185-.39.395.02.225.01.22 2.218 1.471 2.204 1.25 2.196 1.246 2.397 1.148.187-.091.256-.348.145-.533-.06-.099-4.248-2.477-4.37-2.481Zm-6.68-2.96.977.575-.046.182c-.064.246-.921 1.825-1.07 1.969-.132.128-.393.223-.56.204-.098-.011-.284-.103-.771-.382-.353-.202-.667-.398-.698-.436a.906.906 0 0 1-.154-.482c.003-.113.064-.236.496-.997.466-.821.658-1.102.812-1.188.024-.013.379.18 1.014.555Zm2.71 3.695c.324.378.745.87.935 1.095l.346.408-.265.23a14.61 14.61 0 0 1-2.968 1.972c-.622.305-1.515.661-1.8.718a.835.835 0 0 1-.585-.105c-.28-.157-.315-.22-.673-1.213-.157-.435-.158-.637-.004-.909.136-.24.22-.296.824-.554 1.35-.576 2.703-1.438 3.413-2.175a.99.99 0 0 1 .16-.144c.016-.005.294.3.618.677Zm3.54 2.574c-.057.295-.126.64-.155.768l-.051.232.862.489c.474.269.866.481.87.472.014-.024.045-.553.051-.858l.005-.259-.17.082c-.252.122-.456.18-.683.195-.172.01-.222-.002-.333-.083-.143-.104-.188-.22-.144-.374.044-.157.212-.26.483-.295.218-.03.51-.138.548-.204.007-.013-.255-.177-.584-.363l-.598-.34-.102.538Z" clip-rule="evenodd"/>
</svg>