<svg xmlns="http://www.w3.org/2000/svg" fill="none" viewBox="0 0 26 25">
  <path fill="#fff"  fill-rule="evenodd" d="M1.435.973c.979.653.998.669.969.76-.02.064.241.258 1.412 1.051a541.459 541.459 0 0 0 2.822 1.904c.333.223 1.222.824 1.976 1.335l2.57 1.739 2.431 1.643c.678.459 1.283.866 1.345.906l.112.071.206-.305.206-.306-.102-.077a.406.406 0 0 0-.2-.079c-.153-.001-2.336-1.188-2.368-1.288-.02-.06.055-.204.269-.514.467-.68.528-.754.616-.754.106 0 2.008 1.602 2.026 1.706.009.05.564.45 1.464 1.06 1.16.783 1.465.972 1.526.94.078-.041.143-.002 1.426.869.277.188.458.34.465.39.014.106-.507.888-.603.905-.04.008-.253-.107-.471-.255-.22-.148-.592-.398-.829-.555-.517-.342-.584-.4-.601-.513-.008-.048-.07-.128-.137-.177-.123-.09-.123-.09-.185-.004l-.216.29c-.166.222-.166.29 0 .377.172.09 1.467.963 1.63 1.098l.147.123-.163.315c-.26.501-.267.805-.026 1.077.072.08.465.369.873.64s1.462.98 2.34 1.574l2.562 1.732c.53.358.992.683 1.029.722.093.102.044.247-.192.57-.225.31-.416.583-1.527 2.195-.845 1.225-.956 1.364-1.09 1.362-.099-.002-.334-.261-1.2-1.323-1.556-1.91-3.026-3.886-3.809-5.119-.3-.474-.806-1.35-.806-1.399 0-.015-.14-.036-.313-.047-.738-.048-1.257-.58-1.26-1.293-.001-.24.021-.346.11-.524l.112-.223-.362-.243c-.2-.133-.873-.588-1.496-1.01a530.6 530.6 0 0 0-1.738-1.175C9.603 9.28 9.568 9.255 9.169 8.72c-.393-.525-.693-1.172-.696-1.5-.001-.136-.047-.17-1.502-1.149-.825-.555-2.31-1.557-3.302-2.227C2.25 2.886 1.845 2.631 1.768 2.65c-.076.018-.284-.1-.898-.514-.44-.295-.825-.56-.856-.59C-.03 1.503.022 1.4.295.997.48.724.653.501.68.5c.025 0 .365.212.756.473Zm14.194 9.304c-.109.153-.198.296-.198.316 0 .06 1.524 1.08 1.619 1.084.058.002.141-.081.268-.27l.183-.275-.139-.095A252.087 252.087 0 0 0 15.834 10a4.2 4.2 0 0 0-.205.277Zm.935 3.299c-.582.322-.559 1.138.043 1.505.478.292 1.076.138 1.292-.332.204-.443.005-.944-.475-1.197a.95.95 0 0 0-.86.024Z" clip-rule="evenodd"/>
</svg>