<svg xmlns="http://www.w3.org/2000/svg" viewBox="0 0 17 17" fill="none">
<path fill-rule="evenodd" clip-rule="evenodd" d="M2.11704 5.50303L2.12229 6.04615L1.16448 7.00396L0.206684 7.96175L0.764836 8.5199L1.32299 9.07805L5.15315 5.24789L8.98331 1.41773L8.42516 0.859577L7.86701 0.301426L6.90922 1.25922L5.95141 2.21703L5.40829 2.21179L4.86517 2.20655L3.48849 3.58323L2.1118 4.95991L2.11704 5.50303ZM5.87613 12.5447L9.32334 15.9813L9.49554 16.0637C9.99582 16.3031 10.4773 16.3038 10.9671 16.066C11.1033 15.9999 11.2146 15.8918 13.5058 13.6006C15.7971 11.3094 15.9051 11.1981 15.9713 11.0618C16.2091 10.572 16.2083 10.0906 15.969 9.59028L15.8866 9.41808L12.4499 5.97087L9.01326 2.52367L5.72109 5.81583L2.42892 9.108L5.87613 12.5447Z" fill="#301934 "/>
</svg>