<svg width="30" height="30" viewBox="0 0 30 30" fill="none" xmlns="http://www.w3.org/2000/svg">
<path d="M25.625 0H4.375C3.21821 0.0116958 2.11202 0.488439 1.29401 1.32784C0.475993 2.16724 0.0113978 3.30235 0 4.48939L0 21.1643C0.0440354 22.3918 0.46853 23.5728 1.21175 24.5357C1.95497 25.4986 2.97815 26.1931 4.1325 26.5182L18.0812 29.8801C18.6121 30.0211 19.1671 30.038 19.7052 29.9294C20.2432 29.8209 20.7507 29.5896 21.19 29.2529C21.6148 28.896 21.954 28.4436 22.1811 27.9307C22.4083 27.4178 22.5174 26.8581 22.5 26.295V13.8632C22.498 12.6703 22.1159 11.5107 21.4121 10.5613C20.7082 9.61184 19.7211 8.92458 18.6012 8.60424L5.07 4.77543C4.95132 4.74174 4.84026 4.68439 4.74318 4.60666C4.6461 4.52893 4.56488 4.43234 4.50418 4.32241C4.44347 4.21247 4.40446 4.09134 4.38937 3.96593C4.37429 3.84053 4.38342 3.7133 4.41625 3.59151C4.44908 3.46973 4.50497 3.35577 4.58071 3.25615C4.65646 3.15652 4.75059 3.07319 4.85773 3.01089C4.96486 2.9486 5.08291 2.90857 5.20512 2.89309C5.32733 2.87761 5.45132 2.88698 5.57 2.92067L9.9875 4.17129H10.0025H25.625C25.8736 4.17129 26.1121 4.27264 26.2879 4.45305C26.4637 4.63346 26.5625 4.87816 26.5625 5.1333C26.5625 5.38844 26.4637 5.63313 26.2879 5.81354C26.1121 5.99396 25.8736 6.09531 25.625 6.09531H19.0813C19.0056 6.09515 18.9324 6.12317 18.8753 6.17417C18.8183 6.22517 18.7812 6.29568 18.771 6.37262C18.7607 6.44956 18.7781 6.5277 18.8197 6.59253C18.8614 6.65735 18.9245 6.70446 18.9975 6.72511L19.105 6.75589C20.529 7.16172 21.7954 8.01046 22.73 9.18529C22.7597 9.22171 22.7968 9.25102 22.8387 9.27118C22.8806 9.29134 22.9262 9.30187 22.9725 9.30202H25.625C25.8736 9.30202 26.1121 9.40337 26.2879 9.58379C26.4637 9.7642 26.5625 10.0089 26.5625 10.264C26.5625 10.5192 26.4637 10.7639 26.2879 10.9443C26.1121 11.1247 25.8736 11.226 25.625 11.226H24.3275C24.2781 11.2257 24.2293 11.2375 24.1852 11.2603C24.1412 11.2832 24.103 11.3165 24.0739 11.3575C24.0449 11.3985 24.0257 11.446 24.0181 11.496C24.0104 11.5461 24.0145 11.5973 24.03 11.6455C24.2598 12.3621 24.3783 13.1114 24.3812 13.8658V22.7702C24.3812 22.8552 24.4142 22.9368 24.4728 22.9969C24.5314 23.0571 24.6109 23.0909 24.6937 23.0909H25.625C26.7853 23.0909 27.8981 22.6179 28.7186 21.7759C29.5391 20.934 30 19.7921 30 18.6015V4.49196C30.0003 3.90219 29.8874 3.31813 29.6677 2.77315C29.448 2.22818 29.1258 1.73297 28.7195 1.31582C28.3132 0.898669 27.8308 0.567753 27.2998 0.34198C26.7689 0.116206 26.1997 -9.62891e-08 25.625 0ZM19.375 19.2402C19.375 19.7476 19.2284 20.2436 18.9537 20.6655C18.679 21.0874 18.2885 21.4162 17.8317 21.6103C17.3749 21.8045 16.8722 21.8553 16.3873 21.7563C15.9023 21.6573 15.4569 21.413 15.1072 21.0542C14.7576 20.6955 14.5195 20.2384 14.423 19.7407C14.3266 19.2431 14.3761 18.7273 14.5653 18.2585C14.7545 17.7898 15.075 17.3891 15.4861 17.1072C15.8972 16.8253 16.3805 16.6749 16.875 16.6749C17.538 16.6749 18.1739 16.9452 18.6428 17.4263C19.1116 17.9074 19.375 18.5599 19.375 19.2402Z" fill="white"/>
</svg>
