<svg width="33" height="33" viewBox="0 0 33 33" fill="none" xmlns="http://www.w3.org/2000/svg">
<path fill-rule="evenodd" clip-rule="evenodd" d="M6.57388 0.8353V1.6706L3.81838 1.6894L1.06288 1.7081L0.768377 1.8812C0.434577 2.0774 0.171678 2.4245 0.0695783 2.8038C-0.0224217 3.1455 -0.0235225 7.5602 0.0682775 8.2201C0.296578 9.8622 1.01418 11.33 2.14358 12.4653C3.24298 13.5704 4.45318 14.2331 5.98328 14.5678C6.27878 14.6325 6.53418 14.6991 6.55088 14.7157C6.56758 14.7324 6.60908 15.1149 6.64328 15.5658C6.78608 17.4532 7.38978 19.1464 8.46378 20.6722C8.97698 21.4012 10.0572 22.4797 10.7957 23.0005C11.5551 23.536 12.6802 24.0867 13.5834 24.3648C13.9822 24.4876 14.3085 24.6175 14.3085 24.6533C14.3085 24.6891 14.06 25.4638 13.7564 26.3749L13.2043 28.0313L11.1279 28.0507L9.05148 28.0701L8.73178 28.2348C8.19598 28.5107 8.08618 28.7198 7.32718 30.9099C6.94708 32.0068 6.63668 32.926 6.63718 32.9526C6.63868 33.0158 26.3613 33.0158 26.3628 32.9526C26.3633 32.926 26.0529 32.0068 25.6728 30.9099C24.9138 28.7198 24.804 28.5107 24.2682 28.2348L23.9485 28.0701L21.8721 28.0507L19.7957 28.0313L19.2436 26.3749C18.94 25.4638 18.6915 24.6891 18.6915 24.6533C18.6915 24.6175 19.0178 24.4876 19.4166 24.3648C20.3198 24.0867 21.4449 23.536 22.2043 23.0005C22.9428 22.4797 24.023 21.4012 24.5362 20.6722C25.6102 19.1464 26.2139 17.4532 26.3567 15.5658C26.3909 15.1149 26.4324 14.7324 26.4491 14.7157C26.4658 14.6991 26.7212 14.6325 27.0167 14.5678C27.7703 14.403 28.4182 14.1655 29.0585 13.8192C29.8039 13.4162 30.2285 13.0965 30.8564 12.4653C31.9858 11.33 32.7034 9.8622 32.9317 8.2201C33.0235 7.5602 33.0224 3.1455 32.9304 2.8038C32.8283 2.4245 32.5654 2.0774 32.2316 1.8812L31.9371 1.7081L29.1816 1.6894L26.4261 1.6706V0.8353V0H16.5H6.57388V0.8353ZM6.57388 8.1605V11.3581L6.39658 11.3146C6.05758 11.2316 5.31438 10.8196 4.89908 10.4845C4.23308 9.9471 3.75648 9.2388 3.46068 8.3469C3.35188 8.0188 3.32798 7.7331 3.30348 6.4616L3.27458 4.963H4.92418H6.57388V8.1605ZM29.6989 6.4616C29.674 7.8736 29.6626 7.99 29.5012 8.4758C29.1226 9.6158 28.353 10.5393 27.3858 11.0145C27.0884 11.1606 26.7509 11.2982 26.6356 11.3202L26.4261 11.3602V8.1616V4.963H28.0758H29.7254L29.6989 6.4616ZM16.7561 7.1706C16.8709 7.4276 17.1971 8.1523 17.4808 8.781L17.9967 9.924L19.702 9.9411L21.4073 9.9583L20.2105 11.5527C19.5523 12.4296 19.0138 13.1919 19.0138 13.2466C19.0138 13.3014 19.189 14.045 19.4031 14.8993C19.6171 15.7535 19.7839 16.4591 19.7737 16.4673C19.7634 16.4756 19.0226 16.0781 18.1275 15.584L16.5 14.6858L14.8725 15.584C13.9774 16.0781 13.2366 16.4756 13.2263 16.4673C13.2161 16.4591 13.3829 15.7535 13.5969 14.8993C13.8111 14.045 13.9862 13.3014 13.9862 13.2466C13.9862 13.1919 13.4477 12.4296 12.7895 11.5527L11.5927 9.9583L13.2981 9.9411L15.0033 9.924L15.5192 8.781C15.8029 8.1523 16.1291 7.4276 16.2439 7.1706C16.3588 6.9136 16.474 6.7033 16.5 6.7033C16.526 6.7033 16.6412 6.9136 16.7561 7.1706Z" fill="white"/>
</svg>
