<svg width="26" height="34" viewBox="0 0 26 34" fill="none" xmlns="http://www.w3.org/2000/svg">
<g clip-path="url(#clip0_1_2)">
<path fill-rule="evenodd" clip-rule="evenodd" d="M2.17518 0.0900654C1.17826 0.362201 0.369505 1.16387 0.103709 2.14331C-0.0345697 2.65298 -0.0345697 31.3375 0.103709 31.8472C0.382094 32.873 1.2626 33.7054 2.29695 33.9208C2.80113 34.0257 23.2013 34.0267 23.7123 33.9218C24.7733 33.7041 25.6978 32.7966 25.9239 31.751C25.9786 31.4979 26 28.0565 26 19.497C26 8.59402 25.9907 7.58118 25.8894 7.43083C25.7081 7.16182 18.6044 0.193926 18.4058 0.090331C18.2498 0.00898235 17.0688 -0.00409983 10.3514 0.000947102C4.2696 0.0055956 2.41052 0.0258497 2.17518 0.0900654ZM21.8886 7.08797C19.8993 7.11341 19.6735 7.07562 19.233 6.64345C18.7903 6.20908 18.7578 6.03303 18.7578 4.06665V2.41963L21.1271 4.74347L23.4966 7.06739L21.8886 7.08797ZM14.2282 7.2947C14.5597 7.61996 14.4754 8.17997 14.0627 8.39274C13.8708 8.49169 13.4192 8.50019 9.30435 8.48199L4.75801 8.46194L4.5844 8.3019C4.24523 7.98918 4.31123 7.36476 4.70312 7.17869C4.7993 7.13306 6.40618 7.10803 9.43952 7.10511L14.0303 7.10059L14.2282 7.2947ZM21.2864 11.4249C21.6962 11.608 21.7727 12.2313 21.4248 12.5519L21.2512 12.712H13.0046H4.75808L4.58447 12.5519C4.24523 12.2393 4.31116 11.6149 4.70312 11.4287C4.91578 11.3278 21.0607 11.324 21.2864 11.4249ZM21.2864 15.6749C21.6962 15.8581 21.7727 16.4813 21.4248 16.802L21.2512 16.962H13.0046H4.75808L4.58447 16.802C4.24523 16.4894 4.31116 15.8649 4.70312 15.6788C4.91578 15.5779 21.0607 15.5741 21.2864 15.6749ZM21.2864 19.925C21.6962 20.1081 21.7727 20.7314 21.4248 21.052L21.2513 21.2121L15.9763 21.2299C10.1039 21.2497 10.3859 21.2705 10.1871 20.8036C10.0635 20.5133 10.1542 20.1842 10.4128 19.9846C10.5833 19.853 10.6752 19.8507 15.8533 19.8507C19.5901 19.8507 21.1686 19.8723 21.2864 19.925ZM7.35573 22.8458C8.36388 23.2159 8.87517 24.2857 8.58149 25.4105C8.44991 25.9142 7.97903 26.8416 7.56054 27.4212L7.24879 27.8528L7.49834 28.0686C7.94715 28.4568 7.98262 28.4258 8.73066 26.9895C9.35755 25.7858 9.63377 25.4949 10.1494 25.4956C10.3978 25.4959 10.7442 25.7152 10.9087 25.9762C10.9837 26.0952 11.1819 26.611 11.3491 27.1223C11.5163 27.6337 11.6789 28.0919 11.7103 28.1406C11.7781 28.2457 12.5849 27.6088 13.8388 26.4606C14.2789 26.0575 14.7206 25.6756 14.8202 25.6119C15.3712 25.2595 16.0801 25.8426 15.826 26.4393C15.7151 26.6997 14.378 27.9605 13.3769 28.7487C12.6494 29.3215 11.8845 29.7454 11.5786 29.7454C10.9554 29.7454 10.5511 29.2833 10.1637 28.1285L10.011 27.6737L9.7422 28.1617C9.38063 28.8179 8.99199 29.3137 8.68064 29.5158C8.12651 29.8756 7.39776 29.7666 6.65594 29.2133L6.29735 28.9457L5.86309 29.3071C5.37312 29.715 5.23491 29.7752 4.92133 29.7175C4.62149 29.6623 4.40551 29.4174 4.35948 29.0805C4.32165 28.8038 4.32625 28.7963 4.81838 28.3386C5.24202 27.9446 5.30375 27.8598 5.23586 27.7649C4.76505 27.107 4.42318 26.2813 4.3649 25.6614C4.32294 25.2152 4.46155 24.52 4.67401 24.1114C4.87497 23.7249 5.30253 23.2251 5.61198 23.015C6.19968 22.6161 6.61912 22.5754 7.35573 22.8458ZM6.29017 24.2834C5.75574 24.843 5.65787 25.5721 6.02289 26.2756C6.14127 26.5039 6.2606 26.6904 6.28794 26.6901C6.36436 26.6892 6.81838 25.9712 7.00133 25.5618C7.31742 24.8547 7.28594 24.3896 6.90908 24.1984C6.63103 24.0573 6.48727 24.0771 6.29017 24.2834Z" fill="white"/>
</g>
<defs>
<clipPath id="clip0_1_2">
<rect width="26" height="34" fill="white"/>
</clipPath>
</defs>
</svg>
