<svg width="35" height="25" viewBox="0 0 35 25" fill="none" xmlns="http://www.w3.org/2000/svg">
<g clip-path="url(#clip0_2_44)">
<path fill-rule="evenodd" clip-rule="evenodd" d="M8.18041 0.876502V1.50296L6.11381 1.51702L4.04721 1.53104L3.82629 1.66093C3.57597 1.80808 3.37879 2.0684 3.30217 2.35284C3.23318 2.60915 3.23236 5.92013 3.3012 6.4151C3.47248 7.64669 4.01066 8.74746 4.8577 9.59899C5.68226 10.4278 6.58987 10.9248 7.73745 11.1759C7.9591 11.2244 8.15068 11.2743 8.1632 11.2868C8.17567 11.2993 8.20685 11.5862 8.23247 11.9243C8.3396 13.3399 8.79236 14.6098 9.59788 15.7541C9.98272 16.3009 10.7929 17.1098 11.3468 17.5004C11.9163 17.902 12.7602 18.315 13.4375 18.5236C13.7367 18.6157 13.9814 18.7131 13.9814 18.74C13.9814 18.7669 13.795 19.3479 13.5673 20.0312L13.1532 21.2735L11.5959 21.288L10.0387 21.3026L9.79883 21.4261C9.39702 21.633 9.31464 21.7899 8.74542 23.4325C8.46035 24.2551 8.22749 24.9445 8.22793 24.9644C8.22899 25.0119 23.021 25.0119 23.0221 24.9644C23.0225 24.9445 22.7896 24.2551 22.5046 23.4325C21.9354 21.7899 21.853 21.633 21.4512 21.4261L21.2113 21.3026L19.6541 21.288L18.0968 21.2735L17.6827 20.0312C17.455 19.3479 17.2686 18.7669 17.2686 18.74C17.2686 18.7131 17.5134 18.6157 17.8125 18.5236C18.4898 18.315 19.3337 17.902 19.9032 17.5004C20.4571 17.1098 21.2673 16.3009 21.6521 15.7541C22.4576 14.6098 22.9104 13.3399 23.0175 11.9243C23.0432 11.5862 23.0743 11.2993 23.0868 11.2868C23.0993 11.2743 23.2909 11.2244 23.5125 11.1759C24.0778 11.0522 24.5636 10.8741 25.0439 10.6144C25.6029 10.3121 25.9214 10.0723 26.3923 9.59899C27.2393 8.74746 27.7775 7.64669 27.9488 6.4151C28.0176 5.92013 28.0168 2.60915 27.9478 2.35284C27.8712 2.0684 27.674 1.80808 27.4237 1.66093L27.2028 1.53104L25.1362 1.51702L23.0696 1.50296V0.876502V0.25H15.625H8.18041V0.876502ZM8.18041 6.37038V8.76854L8.04747 8.73596C7.79319 8.67369 7.23581 8.3647 6.9243 8.11337C6.42484 7.7103 6.06735 7.17908 5.84551 6.51018C5.76391 6.26408 5.74603 6.04983 5.72766 5.0962L5.70595 3.97227H6.94315H8.18041V6.37038ZM25.5242 5.0962C25.5055 6.15517 25.4969 6.24247 25.3759 6.60687C25.0919 7.46183 24.5148 8.15446 23.7894 8.51088C23.5663 8.62047 23.3131 8.72363 23.2267 8.74011L23.0696 8.77013V6.3712V3.97227H24.3068H25.5441L25.5242 5.0962ZM15.8171 5.62796C15.9032 5.82069 16.1478 6.36419 16.3606 6.83571L16.7475 7.693L18.0265 7.70585L19.3055 7.71871L18.4079 8.91453C17.9142 9.57221 17.5103 10.1439 17.5103 10.185C17.5103 10.226 17.6417 10.7838 17.8023 11.4245C17.9628 12.0651 18.088 12.5944 18.0803 12.6005C18.0725 12.6067 17.5169 12.3086 16.8456 11.938L15.625 11.2643L14.4044 11.938C13.7331 12.3086 13.1775 12.6067 13.1697 12.6005C13.162 12.5944 13.2872 12.0651 13.4477 11.4245C13.6083 10.7838 13.7397 10.226 13.7397 10.185C13.7397 10.1439 13.3358 9.57221 12.8421 8.91453L11.9445 7.71871L13.2235 7.70585L14.5025 7.693L14.8894 6.83571C15.1022 6.36419 15.3468 5.82069 15.4329 5.62796C15.5191 5.43522 15.6055 5.27748 15.625 5.27748C15.6445 5.27748 15.7309 5.43522 15.8171 5.62796Z" fill="white"/>
<path d="M30.9039 8.01362C30.8891 8.02185 30.8628 8.17345 30.8249 8.46186C30.7146 9.31063 30.6258 9.76872 30.4957 10.156C30.2933 10.7576 29.9971 11.1152 29.4951 11.3625C29.0902 11.5635 28.5421 11.6887 27.4625 11.8289C27.0296 11.8865 27 11.8931 27 11.9541C27 12.0134 27.0296 12.0233 27.3391 12.0629C28.9519 12.2672 29.5626 12.46 30.0036 12.9017C30.4348 13.3335 30.6257 13.9268 30.8249 15.4463C30.8825 15.8797 30.8891 15.9093 30.95 15.9093C31.0109 15.9093 31.0192 15.8797 31.0669 15.504C31.2677 13.935 31.457 13.3401 31.8964 12.9017C32.3374 12.4584 32.9464 12.2672 34.5609 12.0629C34.8704 12.0233 34.9 12.0134 34.9 11.9541C34.9 11.8931 34.8704 11.8865 34.4375 11.8288C33.5998 11.72 33.1505 11.6326 32.7769 11.509C32.1581 11.3064 31.796 11.013 31.5475 10.512C31.3352 10.0852 31.215 9.5578 31.0669 8.40423C31.034 8.15375 31.0109 8.02185 30.9961 8.01362C30.9681 7.99546 30.9319 7.99546 30.9039 8.01362Z" fill="white"/>
<path d="M26.9767 14.0069C26.9691 14.0111 26.9558 14.0877 26.9367 14.2336C26.8808 14.6628 26.8358 14.8945 26.77 15.0904C26.6675 15.3946 26.5175 15.5755 26.2633 15.7005C26.0583 15.8021 25.7808 15.8655 25.2342 15.9364C25.015 15.9655 25 15.9689 25 15.9997C25 16.0297 25.015 16.0347 25.1717 16.0547C25.9883 16.158 26.2975 16.2556 26.5208 16.4789C26.7391 16.6973 26.8358 16.9974 26.9367 17.7658C26.9658 17.985 26.9691 18 27 18C27.0309 18 27.035 17.985 27.0592 17.795C27.1609 17.0015 27.2567 16.7007 27.4792 16.4789C27.7025 16.2547 28.0108 16.158 28.8283 16.0547C28.985 16.0347 29 16.0297 29 15.9997C29 15.9689 28.985 15.9655 28.7658 15.9363C28.3417 15.8813 28.1142 15.8371 27.925 15.7746C27.6117 15.6721 27.4284 15.5238 27.3025 15.2704C27.195 15.0546 27.1342 14.7878 27.0592 14.2044C27.0425 14.0778 27.0309 14.0111 27.0233 14.0069C27.0092 13.9977 26.9908 13.9977 26.9767 14.0069Z" fill="white"/>
<path d="M4.08009 13.678C4.09245 13.6849 4.11435 13.8112 4.14593 14.0515C4.23782 14.7589 4.31185 15.1406 4.42021 15.4633C4.58889 15.9647 4.83577 16.2627 5.25408 16.4687C5.5915 16.6362 6.04824 16.7406 6.94794 16.8574C7.30868 16.9054 7.33333 16.9109 7.33333 16.9617C7.33333 17.0112 7.30868 17.0194 7.05079 17.0524C5.70671 17.2226 5.19785 17.3833 4.83032 17.7514C4.47099 18.1112 4.31192 18.6056 4.14593 19.8719C4.09789 20.2331 4.09245 20.2578 4.04167 20.2578C3.99088 20.2578 3.98403 20.2331 3.94426 19.92C3.77692 18.6125 3.61919 18.1168 3.25301 17.7514C2.88549 17.382 2.37803 17.2226 1.03255 17.0524C0.774654 17.0194 0.75 17.0112 0.75 16.9617C0.75 16.9109 0.774654 16.9054 1.13539 16.8573C1.8335 16.7666 2.20794 16.6939 2.51924 16.5909C3.03495 16.422 3.33665 16.1775 3.54375 15.76C3.7207 15.4044 3.82086 14.9648 3.94426 14.0035C3.97167 13.7948 3.99088 13.6849 4.00324 13.678C4.02655 13.6629 4.05678 13.6629 4.08009 13.678Z" fill="white"/>
</g>
<defs>
<clipPath id="clip0_2_44">
<rect width="35" height="25" fill="white"/>
</clipPath>
</defs>
</svg>
