<svg width="20" height="20" viewBox="0 0 20 20" fill="none" xmlns="http://www.w3.org/2000/svg">
<g clip-path="url(#clip0_6_1272)">
<path d="M12.7581 7.24161C15.0919 9.5779 15.0599 13.3236 12.7721 15.624C12.7678 15.6287 12.7627 15.6338 12.7581 15.6385L10.1331 18.2635C7.81782 20.5787 4.05106 20.5784 1.73618 18.2635C-0.579053 15.9486 -0.579053 12.1815 1.73618 9.86661L3.18563 8.41716C3.57001 8.03278 4.23196 8.28825 4.25181 8.83146C4.27712 9.52372 4.40126 10.2192 4.63032 10.8909C4.7079 11.1183 4.65247 11.3699 4.48255 11.5398L3.97134 12.051C2.87657 13.1458 2.84224 14.9283 3.92622 16.0338C5.02091 17.1502 6.8202 17.1568 7.92329 16.0537L10.5483 13.4291C11.6495 12.3279 11.6449 10.548 10.5483 9.45138C10.4037 9.30708 10.2581 9.19497 10.1443 9.11665C10.0639 9.06139 9.99743 8.98809 9.95031 8.90259C9.9032 8.8171 9.87672 8.72178 9.87298 8.62423C9.85751 8.21146 10.0038 7.7861 10.3299 7.45993L11.1524 6.63747C11.368 6.42181 11.7063 6.39532 11.9564 6.56985C12.2428 6.76983 12.5111 6.99462 12.7581 7.24161ZM18.2633 1.73606C15.9484 -0.578857 12.1817 -0.57917 9.86645 1.73606L7.24145 4.36106C7.23677 4.36575 7.23169 4.37083 7.22739 4.37552C4.93966 6.67599 4.90759 10.4216 7.24145 12.7579C7.48844 13.0049 7.75667 13.2297 8.04306 13.4297C8.29313 13.6042 8.63149 13.5777 8.84712 13.362L9.66954 12.5396C9.99571 12.2134 10.142 11.7881 10.1265 11.3753C10.1228 11.2777 10.0963 11.1824 10.0492 11.0969C10.002 11.0114 9.9356 10.9381 9.85513 10.8829C9.74138 10.8045 9.59575 10.6924 9.45118 10.5481C8.35458 9.45153 8.34997 7.67161 9.45118 6.5704L12.0762 3.94579C13.1793 2.8427 14.9785 2.84935 16.0732 3.96571C17.1572 5.07118 17.1229 6.85376 16.0281 7.94853L15.5169 8.45974C15.347 8.62966 15.2916 8.88122 15.3691 9.10864C15.5982 9.78028 15.7224 10.4758 15.7477 11.1681C15.7675 11.7113 16.4295 11.9667 16.8138 11.5824L18.2633 10.1329C20.5786 7.81809 20.5786 4.05091 18.2633 1.73606Z" fill="white"/>
</g>
<defs>
<clipPath id="clip0_6_1272">
<rect width="20" height="20" fill="white"/>
</clipPath>
</defs>
</svg>
