<svg width="28" height="20" viewBox="0 0 28 20" fill="none" xmlns="http://www.w3.org/2000/svg">
<path d="M25.4844 0.625H2.51562C1.60742 0.625 0.880859 1.35742 0.875 2.26562V2.2832V17.7168V17.7344C0.886719 18.6426 1.60742 19.375 2.51562 19.375H25.4844C26.3984 19.375 27.125 18.6309 27.125 17.7168V2.2832C27.125 1.36914 26.3984 0.625 25.4844 0.625ZM3.51758 2.5H24.4766C24.8809 2.5 25.1855 2.79883 25.2441 3.20312V4.375H2.75V3.18555C2.80859 2.78711 3.11914 2.5 3.51758 2.5ZM24.4824 17.5H3.51758C3.11328 17.5 2.80859 17.2129 2.75 16.8145V10H25.25V16.7969C25.1914 17.2012 24.8809 17.5 24.4824 17.5Z" fill="white"/>
<path d="M15.875 12.8125H4.625V13.75H15.875V12.8125Z" fill="white"/>
<path d="M10.25 14.6875H4.625V15.625H10.25V14.6875Z" fill="white"/>
<path d="M23.375 12.8125H19.625V15.625H23.375V12.8125Z" fill="white"/>
</svg>
