<svg width="33" height="33" viewBox="0 0 33 33" fill="none" xmlns="http://www.w3.org/2000/svg">
<path fill-rule="evenodd" clip-rule="evenodd" d="M6.57388 0.835336V1.67061L3.81841 1.68936L1.06294 1.70806L0.768383 1.88125C0.434633 2.07745 0.17172 2.42454 0.0695583 2.80379C-0.0224195 3.14553 -0.0235152 7.56018 0.0682692 8.22013C0.296634 9.86225 1.01422 11.33 2.1436 12.4653C3.24302 13.5704 4.45317 14.2331 5.98327 14.5678C6.2788 14.6325 6.53424 14.6991 6.55093 14.7157C6.56756 14.7324 6.60913 15.1149 6.6433 15.5658C6.78613 17.4532 7.38982 19.1464 8.46384 20.6722C8.97697 21.4012 10.0572 22.4797 10.7957 23.0005C11.5551 23.536 12.6802 24.0867 13.5834 24.3648C13.9822 24.4876 14.3085 24.6175 14.3085 24.6533C14.3085 24.6891 14.06 25.4638 13.7564 26.3749L13.2043 28.0313L11.1279 28.0507L9.05154 28.0701L8.73178 28.2348C8.19602 28.5107 8.08619 28.7198 7.32723 30.9099C6.94714 32.0068 6.63666 32.926 6.63724 32.9526C6.63865 33.0158 26.3613 33.0158 26.3628 32.9526C26.3633 32.926 26.0529 32.0068 25.6728 30.9099C24.9138 28.7198 24.804 28.5107 24.2682 28.2348L23.9485 28.0701L21.8721 28.0507L19.7957 28.0313L19.2436 26.3749C18.94 25.4638 18.6915 24.6891 18.6915 24.6533C18.6915 24.6175 19.0178 24.4876 19.4166 24.3648C20.3198 24.0867 21.4449 23.536 22.2043 23.0005C22.9428 22.4797 24.023 21.4012 24.5362 20.6722C25.6102 19.1464 26.2139 17.4532 26.3567 15.5658C26.3909 15.1149 26.4324 14.7324 26.4491 14.7157C26.4658 14.6991 26.7212 14.6325 27.0167 14.5678C27.7703 14.403 28.4182 14.1655 29.0585 13.8192C29.8039 13.4162 30.2285 13.0965 30.8564 12.4653C31.9858 11.33 32.7034 9.86225 32.9317 8.22013C33.0235 7.56018 33.0224 3.14553 32.9304 2.80379C32.8283 2.42454 32.5654 2.07745 32.2316 1.88125L31.9371 1.70806L29.1816 1.68936L26.4261 1.67061V0.835336V0H16.5H6.57388V0.835336ZM6.57388 8.16051V11.3581L6.39662 11.3146C6.05759 11.2316 5.31442 10.8196 4.89907 10.4845C4.23312 9.94707 3.75647 9.23877 3.46068 8.34691C3.35188 8.01877 3.32803 7.73311 3.30354 6.46161L3.2746 4.96303H4.92421H6.57388V8.16051ZM29.6989 6.46161C29.674 7.87356 29.6626 7.98996 29.5012 8.47582C29.1226 9.61577 28.353 10.5393 27.3858 11.0145C27.0884 11.1606 26.7509 11.2982 26.6356 11.3202L26.4261 11.3602V8.1616V4.96303H28.0758H29.7254L29.6989 6.46161ZM16.7561 7.17061C16.8709 7.42759 17.1971 8.15226 17.4808 8.78095L17.9967 9.924L19.702 9.94114L21.4073 9.95829L20.2105 11.5527C19.5523 12.4296 19.0138 13.1919 19.0138 13.2466C19.0138 13.3014 19.189 14.045 19.4031 14.8993C19.6171 15.7535 19.7839 16.4591 19.7737 16.4673C19.7634 16.4756 19.0226 16.0781 18.1275 15.584L16.5 14.6858L14.8725 15.584C13.9774 16.0781 13.2366 16.4756 13.2263 16.4673C13.2161 16.4591 13.3829 15.7535 13.5969 14.8993C13.8111 14.045 13.9862 13.3014 13.9862 13.2466C13.9862 13.1919 13.4477 12.4296 12.7895 11.5527L11.5927 9.95829L13.2981 9.94114L15.0033 9.924L15.5192 8.78095C15.8029 8.15226 16.1291 7.42759 16.2439 7.17061C16.3588 6.91363 16.474 6.70331 16.5 6.70331C16.526 6.70331 16.6412 6.91363 16.7561 7.17061Z" fill="#FFCD4D"/>
</svg>
