<svg width="26" height="30" viewBox="0 0 26 30" fill="none" xmlns="http://www.w3.org/2000/svg">
<path d="M12.75 4.5C19.7916 4.5 25.5 10.2084 25.5 17.25C25.5 24.2916 19.7916 30 12.75 30C5.70837 30 0 24.2916 0 17.25C0 10.2084 5.70837 4.5 12.75 4.5ZM12.75 9C12.1804 9 11.7097 9.42322 11.6352 9.97234L11.625 10.125V16.875L11.6352 17.0277C11.7097 17.5767 12.1804 18 12.75 18C13.3196 18 13.7903 17.5767 13.8648 17.0277L13.875 16.875V10.125L13.8648 9.97234C13.7903 9.42322 13.3196 9 12.75 9ZM23.5056 4.6839L23.6275 4.77636L25.3512 6.27636C25.8198 6.68425 25.8691 7.39485 25.4613 7.86354C25.0873 8.29317 24.4591 8.37039 23.9959 8.0661L23.874 7.97364L22.1505 6.47364C21.6818 6.06575 21.6325 5.35515 22.0404 4.88646C22.4142 4.45683 23.0426 4.37961 23.5056 4.6839ZM16.125 0.75C16.7463 0.75 17.25 1.25369 17.25 1.875C17.25 2.44455 16.8267 2.91523 16.2777 2.98972L16.125 3H9.375C8.75369 3 8.25 2.49631 8.25 1.875C8.25 1.30545 8.67322 0.834765 9.22234 0.760275L9.375 0.75H16.125Z" fill="#DA1320"/>
</svg>
