<svg width="17" height="17" viewBox="0 0 17 17" fill="none" xmlns="http://www.w3.org/2000/svg">
<path d="M13.9612 12.9554L12.9767 11.9708C13.6267 11.1332 14.0288 10.13 14.137 9.0752C14.2453 8.02044 14.0555 6.95646 13.5891 6.00422C13.1228 5.05197 12.3986 4.24967 11.499 3.68853C10.5993 3.12738 9.5603 2.8299 8.5 2.8299C7.43969 2.8299 6.40066 3.12738 5.50101 3.68853C4.60137 4.24967 3.87721 5.05197 3.41086 6.00422C2.94451 6.95646 2.75468 8.02044 2.86295 9.0752C2.97122 10.13 3.37325 11.1332 4.02333 11.9708L3.03875 12.9554C2.97236 13.0213 2.91966 13.0996 2.8837 13.1859C2.84774 13.2722 2.82922 13.3648 2.82922 13.4583C2.82922 13.5518 2.84774 13.6444 2.8837 13.7307C2.91966 13.8171 2.97236 13.8954 3.03875 13.9612C3.1046 14.0276 3.18294 14.0803 3.26926 14.1163C3.35557 14.1523 3.44816 14.1708 3.54166 14.1708C3.63517 14.1708 3.72776 14.1523 3.81407 14.1163C3.90039 14.0803 3.97873 14.0276 4.04458 13.9612L5.02916 12.9767C6.02246 13.7463 7.24341 14.164 8.5 14.164C9.75659 14.164 10.9775 13.7463 11.9708 12.9767L12.9554 13.9612C13.0213 14.0276 13.0996 14.0803 13.1859 14.1163C13.2722 14.1523 13.3648 14.1708 13.4583 14.1708C13.5518 14.1708 13.6444 14.1523 13.7307 14.1163C13.8171 14.0803 13.8954 14.0276 13.9612 13.9612C14.0276 13.8954 14.0803 13.8171 14.1163 13.7307C14.1523 13.6444 14.1708 13.5518 14.1708 13.4583C14.1708 13.3648 14.1523 13.2722 14.1163 13.1859C14.0803 13.0996 14.0276 13.0213 13.9612 12.9554V12.9554ZM10.625 9.20833H8.5C8.31214 9.20833 8.13197 9.13371 7.99913 9.00087C7.86629 8.86803 7.79166 8.68786 7.79166 8.5V6.375C7.79166 6.18714 7.86629 6.00697 7.99913 5.87413C8.13197 5.74129 8.31214 5.66667 8.5 5.66667C8.68786 5.66667 8.86803 5.74129 9.00086 5.87413C9.1337 6.00697 9.20833 6.18714 9.20833 6.375V7.79167H10.625C10.8129 7.79167 10.993 7.86629 11.1259 7.99913C11.2587 8.13197 11.3333 8.31214 11.3333 8.5C11.3333 8.68786 11.2587 8.86803 11.1259 9.00087C10.993 9.13371 10.8129 9.20833 10.625 9.20833Z" fill="white"/>
<path d="M2.83332 4.25C2.7401 4.25054 2.64769 4.23267 2.56139 4.19742C2.47509 4.16217 2.39659 4.11023 2.3304 4.04458C2.26401 3.97873 2.21132 3.90039 2.17536 3.81407C2.13939 3.72776 2.12088 3.63517 2.12088 3.54167C2.12088 3.44816 2.13939 3.35557 2.17536 3.26926C2.21132 3.18294 2.26401 3.1046 2.3304 3.03875L3.03874 2.33042C3.10478 2.26437 3.18319 2.21198 3.26948 2.17624C3.35577 2.1405 3.44825 2.1221 3.54165 2.1221C3.63505 2.1221 3.72754 2.1405 3.81383 2.17624C3.90012 2.21198 3.97853 2.26437 4.04457 2.33042C4.11061 2.39646 4.163 2.47487 4.19875 2.56116C4.23449 2.64745 4.25289 2.73993 4.25289 2.83333C4.25289 2.92673 4.23449 3.01922 4.19875 3.10551C4.163 3.1918 4.11061 3.27021 4.04457 3.33625L3.33624 4.04458C3.27005 4.11023 3.19156 4.16217 3.10525 4.19742C3.01895 4.23267 2.92654 4.25054 2.83332 4.25Z" fill="white"/>
<path d="M14.1667 4.25C14.0734 4.25054 13.981 4.23267 13.8947 4.19742C13.8084 4.16217 13.7299 4.11023 13.6637 4.04458L12.9554 3.33625C12.822 3.20287 12.7471 3.02196 12.7471 2.83333C12.7471 2.6447 12.822 2.4638 12.9554 2.33042C13.0888 2.19703 13.2697 2.1221 13.4583 2.1221C13.647 2.1221 13.8279 2.19703 13.9612 2.33042L14.6696 3.03875C14.736 3.1046 14.7887 3.18294 14.8246 3.26926C14.8606 3.35557 14.8791 3.44816 14.8791 3.54167C14.8791 3.63517 14.8606 3.72776 14.8246 3.81407C14.7887 3.90039 14.736 3.97873 14.6696 4.04458C14.6034 4.11023 14.5249 4.16217 14.4386 4.19742C14.3523 4.23267 14.2599 4.25054 14.1667 4.25Z" fill="white"/>
</svg>
