<svg width="22" height="21" viewBox="0 0 22 21" fill="none" xmlns="http://www.w3.org/2000/svg">
<path d="M12.0921 5.31582V15.7369C12.0921 16.0823 11.9549 16.4137 11.7106 16.658C11.4663 16.9023 11.135 17.0395 10.7895 17.0395H7.53292C6.67317 17.0406 5.82173 16.8713 5.02782 16.5413C4.23392 16.2113 3.5133 15.7272 2.90764 15.117C2.30198 14.5068 1.82329 13.7826 1.49924 12.9862C1.1752 12.1899 1.01223 11.3372 1.01977 10.4775C1.04419 6.91154 3.99954 4.01318 7.6062 4.01318H10.7895C11.135 4.01318 11.4663 4.15042 11.7106 4.39472C11.9549 4.63901 12.0921 4.97034 12.0921 5.31582ZM19.9079 13.7829H14.0461C13.8733 13.7829 13.7077 13.8515 13.5855 13.9737C13.4634 14.0958 13.3948 14.2615 13.3948 14.4342C13.3948 14.607 13.4634 14.7726 13.5855 14.8948C13.7077 15.0169 13.8733 15.0856 14.0461 15.0856H19.9079C20.0807 15.0856 20.2463 15.0169 20.3685 14.8948C20.4906 14.7726 20.5592 14.607 20.5592 14.4342C20.5592 14.2615 20.4906 14.0958 20.3685 13.9737C20.2463 13.8515 20.0807 13.7829 19.9079 13.7829ZM14.0461 7.26976H19.9079C20.0807 7.26976 20.2463 7.20114 20.3685 7.079C20.4906 6.95685 20.5592 6.79119 20.5592 6.61845C20.5592 6.44571 20.4906 6.28004 20.3685 6.1579C20.2463 6.03575 20.0807 5.96713 19.9079 5.96713H14.0461C13.8733 5.96713 13.7077 6.03575 13.5855 6.1579C13.4634 6.28004 13.3948 6.44571 13.3948 6.61845C13.3948 6.79119 13.4634 6.95685 13.5855 7.079C13.7077 7.20114 13.8733 7.26976 14.0461 7.26976ZM19.9079 8.57239H14.0461C13.8733 8.57239 13.7077 8.64101 13.5855 8.76316C13.4634 8.88531 13.3948 9.05097 13.3948 9.22371C13.3948 9.39645 13.4634 9.56211 13.5855 9.68426C13.7077 9.8064 13.8733 9.87503 14.0461 9.87503H19.9079C20.0807 9.87503 20.2463 9.8064 20.3685 9.68426C20.4906 9.56211 20.5592 9.39645 20.5592 9.22371C20.5592 9.05097 20.4906 8.88531 20.3685 8.76316C20.2463 8.64101 20.0807 8.57239 19.9079 8.57239ZM19.9079 11.1777H14.0461C13.8733 11.1777 13.7077 11.2463 13.5855 11.3684C13.4634 11.4906 13.3948 11.6562 13.3948 11.829C13.3948 12.0017 13.4634 12.1674 13.5855 12.2895C13.7077 12.4117 13.8733 12.4803 14.0461 12.4803H19.9079C20.0807 12.4803 20.2463 12.4117 20.3685 12.2895C20.4906 12.1674 20.5592 12.0017 20.5592 11.829C20.5592 11.6562 20.4906 11.4906 20.3685 11.3684C20.2463 11.2463 20.0807 11.1777 19.9079 11.1777Z" fill="white"/>
</svg>
