<svg xmlns="http://www.w3.org/2000/svg" width="30" height="30" fill="none" viewBox="0 0 30 30">
  <path fill="#fff" d="M15 0C6.714 0 0 6.714 0 15s6.714 15 15 15 15-6.714 15-15S23.286 0 15 0ZM7.392 7.392c.187-.166 8.646 6.122 8.646 6.122.073.05.116.109.16.16.36.33.59.792.59 1.319 0 .988-.8 1.795-1.795 1.795-.563 0-1.06-.266-1.392-.677-.029-.03-.058-.05-.08-.08.008.008-6.31-8.466-6.13-8.64Zm7.615 21.396c-7.622 0-13.803-6.18-13.803-13.802 0-3.808 1.544-7.262 4.039-9.758l.85.851a12.564 12.564 0 0 0-3.692 8.907c0 6.944 5.654 12.598 12.599 12.598s12.584-5.654 12.584-12.598c0-6.512-5.084-11.907-11.43-12.549v5.64H15V1.183c7.623 0 13.81 6.18 13.81 13.803 0 7.622-6.187 13.802-13.803 13.802Z"/>
</svg>