<svg width="19" height="19" viewBox="0 0 19 19" fill="none" xmlns="http://www.w3.org/2000/svg">
<path d="M7.91663 8.70835C7.91663 8.49839 8.00003 8.29703 8.1485 8.14856C8.29697 8.00009 8.49833 7.91669 8.70829 7.91669H10.2916C10.5016 7.91669 10.703 8.00009 10.8514 8.14856C10.9999 8.29703 11.0833 8.49839 11.0833 8.70835C11.0833 8.91832 10.9999 9.11968 10.8514 9.26815C10.703 9.41661 10.5016 9.50002 10.2916 9.50002H8.70829C8.49833 9.50002 8.29697 9.41661 8.1485 9.26815C8.00003 9.11968 7.91663 8.91832 7.91663 8.70835Z" fill="#F8F8F8"/>
<path d="M7.12492 12.6667C6.91496 12.6667 6.71359 12.7501 6.56513 12.8986C6.41666 13.047 6.33325 13.2484 6.33325 13.4584C6.33325 13.6683 6.41666 13.8697 6.56513 14.0181C6.71359 14.1666 6.91496 14.25 7.12492 14.25H11.8749C12.0849 14.25 12.2862 14.1666 12.4347 14.0181C12.5832 13.8697 12.6666 13.6683 12.6666 13.4584C12.6666 13.2484 12.5832 13.047 12.4347 12.8986C12.2862 12.7501 12.0849 12.6667 11.8749 12.6667H7.12492Z" fill="#F8F8F8"/>
<path d="M6.43146 5.54168H6.33329V3.95834C6.33329 3.32845 6.58351 2.72436 7.02891 2.27896C7.47431 1.83357 8.0784 1.58334 8.70829 1.58334H10.2916C10.9215 1.58334 11.5256 1.83357 11.971 2.27896C12.4164 2.72436 12.6666 3.32845 12.6666 3.95834V5.54168H12.5685C13.558 6.08956 14.3828 6.89252 14.9569 7.86709C15.5311 8.84165 15.8337 9.95222 15.8333 11.0833V15.0417C15.8333 15.6716 15.5831 16.2757 15.1377 16.7211C14.6923 17.1665 14.0882 17.4167 13.4583 17.4167H5.54163C4.91174 17.4167 4.30765 17.1665 3.86225 16.7211C3.41685 16.2757 3.16663 15.6716 3.16663 15.0417V11.0833C3.16663 8.69884 4.48396 6.62151 6.43146 5.54168ZM7.91663 3.95834V4.94951C8.95521 4.68185 10.0447 4.68185 11.0833 4.94951V3.95834C11.0833 3.74838 10.9999 3.54702 10.8514 3.39855C10.703 3.25008 10.5016 3.16668 10.2916 3.16668H8.70829C8.49833 3.16668 8.29697 3.25008 8.1485 3.39855C8.00003 3.54702 7.91663 3.74838 7.91663 3.95834ZM4.74996 11.0833V15.0417C4.74996 15.2516 4.83337 15.453 4.98183 15.6015C5.1303 15.7499 5.33166 15.8333 5.54163 15.8333H13.4583C13.6683 15.8333 13.8696 15.7499 14.0181 15.6015C14.1666 15.453 14.25 15.2516 14.25 15.0417V11.0833C14.25 9.82356 13.7495 8.61538 12.8587 7.72459C11.9679 6.83379 10.7597 6.33334 9.49996 6.33334C8.24018 6.33334 7.032 6.83379 6.1412 7.72459C5.2504 8.61538 4.74996 9.82356 4.74996 11.0833Z" fill="#F8F8F8"/>
</svg>
