<svg width="31" height="31" viewBox="0 0 31 31" fill="none" xmlns="http://www.w3.org/2000/svg">
<path d="M25.8333 11.6247C25.8333 9.22668 24.8807 6.92689 23.1851 5.23125C21.4894 3.53561 19.1897 2.58301 16.7917 2.58301H14.2083C11.8103 2.58301 9.51054 3.53561 7.8149 5.23125C6.11926 6.92689 5.16666 9.22668 5.16666 11.6247V12.9163C5.16666 13.6631 5.9309 13.8138 5.9309 14.208C5.9309 14.6022 5.16666 15.1055 5.16666 15.4997V16.7913C5.16666 17.4765 5.43883 18.1336 5.9233 18.618C6.40777 19.1025 7.06485 19.3747 7.74999 19.3747H11.625V21.958C11.625 22.3006 11.7611 22.6291 12.0033 22.8714C12.2455 23.1136 12.5741 23.2497 12.9167 23.2497H13.5625V21.958H14.8542V23.2497H16.1458V21.958H17.4375V23.2497H18.0833C18.4259 23.2497 18.7544 23.1136 18.9967 22.8714C19.2389 22.6291 19.375 22.3006 19.375 21.958V19.3747H23.25C23.9351 19.3747 24.5922 19.1025 25.0767 18.618C25.5611 18.1336 25.8333 17.4765 25.8333 16.7913V15.4997C25.8333 14.9144 25.0691 14.6022 25.0691 14.208C25.0691 13.8138 25.8333 13.5824 25.8333 12.9163V11.6247ZM13.2855 14.312C12.6559 17.0506 11.6502 16.5835 10.3241 16.5391C8.91693 16.4909 7.9757 16.3572 7.68077 15.7315C6.95822 14.8786 7.07065 10.9632 10.5468 12.4233C12.1207 13.0843 13.4809 13.6083 13.2855 14.312ZM16.3636 19.8017C15.6865 19.8017 15.8485 19.016 15.5 19.0221C15.1339 19.029 15.2454 19.8017 14.5882 19.8017C14.481 19.8034 14.3749 19.7801 14.2783 19.7337C14.1817 19.6873 14.0973 19.6191 14.0316 19.5344C13.9659 19.4498 13.9208 19.351 13.8998 19.2459C13.8789 19.1408 13.8827 19.0322 13.911 18.9289C14.1528 18.2506 14.48 17.606 14.8848 17.0104C14.9465 16.9089 15.0333 16.825 15.1368 16.7668C15.2404 16.7086 15.3572 16.678 15.476 16.678C15.5948 16.678 15.7115 16.7086 15.8151 16.7668C15.9186 16.825 16.0054 16.9089 16.0672 17.0104C16.4724 17.6058 16.7999 18.2505 17.0417 18.9289C17.0698 19.0323 17.0734 19.1408 17.0524 19.2459C17.0313 19.351 16.9861 19.4498 16.9204 19.5344C16.8546 19.6191 16.7701 19.6873 16.6735 19.7337C16.5769 19.7801 16.4708 19.8034 16.3636 19.8017ZM23.2809 15.7315C22.986 16.3572 22.0448 16.4909 20.6376 16.5391C19.3115 16.5835 18.3059 17.0506 17.6763 14.312C17.4809 13.6083 18.841 13.0843 20.4149 12.4233C23.8911 10.9632 24.0034 14.8786 23.2809 15.7315V15.7315Z" fill="white"/>
<path d="M21.3125 22.7121C21.3125 23.3972 21.0403 24.0543 20.5559 24.5388C20.0714 25.0233 19.4143 25.2954 18.7292 25.2954H17.4375V26.4795H16.1458V25.2954H14.8542V26.4795H13.5625V25.2954H12.2708C11.5857 25.2954 10.9286 25.0233 10.4441 24.5388C9.95967 24.0543 9.6875 23.3972 9.6875 22.7121V20.667H7.75V24.1876C7.75001 24.5971 7.84737 25.0008 8.03405 25.3652C8.22073 25.7297 8.49138 26.0446 8.82369 26.2839L12.9167 29.2314L13.6917 28.8439C14.2531 28.5631 14.8723 28.417 15.5 28.417C16.1277 28.417 16.7469 28.5631 17.3083 28.8439L18.0833 29.2314L22.1763 26.2839C22.5086 26.0446 22.7793 25.7297 22.966 25.3652C23.1526 25.0008 23.25 24.5971 23.25 24.1876V20.667H21.3125V22.7121Z" fill="white"/>
</svg>
