<svg width="30" height="30" viewBox="0 0 30 30" fill="none" xmlns="http://www.w3.org/2000/svg">
<path d="M26.4844 5.625H3.51562C2.60742 5.625 1.88086 6.35742 1.875 7.26562V7.2832V22.7168V22.7344C1.88672 23.6426 2.60742 24.375 3.51562 24.375H26.4844C27.3984 24.375 28.125 23.6309 28.125 22.7168V7.2832C28.125 6.36914 27.3984 5.625 26.4844 5.625ZM4.51758 7.5H25.4766C25.8809 7.5 26.1855 7.79883 26.2441 8.20312V9.375H3.75V8.18555C3.80859 7.78711 4.11914 7.5 4.51758 7.5ZM25.4824 22.5H4.51758C4.11328 22.5 3.80859 22.2129 3.75 21.8145V15H26.25V21.7969C26.1914 22.2012 25.8809 22.5 25.4824 22.5Z" fill="white"/>
<path d="M16.875 17.8125H5.625V18.75H16.875V17.8125Z" fill="white"/>
<path d="M11.25 19.6875H5.625V20.625H11.25V19.6875Z" fill="white"/>
<path d="M24.375 17.8125H20.625V20.625H24.375V17.8125Z" fill="white"/>
</svg>
