<svg width="20" height="20" viewBox="0 0 20 20" fill="none" xmlns="http://www.w3.org/2000/svg">
<path d="M15.3556 9.31112C14.5056 8.4139 13.3722 7.80001 12.1917 7.5639C11.6722 7.42223 11.1528 7.32779 10.6334 7.28057C11.9556 5.72223 11.7195 3.36112 10.1611 2.0389C8.6028 0.716678 6.24169 0.952789 4.91946 2.51112C3.59724 4.06946 3.83335 6.43057 5.39169 7.75279C5.67502 7.9889 5.95835 8.17779 6.24169 8.27223V9.31112L5.48613 8.60279C4.82502 7.94168 3.73891 7.94168 3.03057 8.60279C2.36946 9.2639 2.32224 10.3028 2.98335 10.9639L5.15557 13.5139C5.25002 14.175 5.48613 14.7889 5.81669 15.3556C6.0528 15.7806 6.38335 16.2056 6.71391 16.5361V17.4333C6.71391 17.7167 6.9028 17.9056 7.18613 17.9056H13.6084C13.8445 17.9056 14.0806 17.6695 14.0806 17.4333V16.2056C14.9778 15.1195 15.45 13.75 15.45 12.3806V9.64168C15.4972 9.45279 15.45 9.35835 15.3556 9.31112ZM4.96669 4.87223C4.96669 3.3139 6.24169 2.08612 7.80002 2.13334C9.35835 2.13334 10.5861 3.40834 10.5389 4.96668C10.5389 5.81668 10.1611 6.57223 9.50002 7.09168V4.73057C9.47591 4.32133 9.29616 3.93681 8.99763 3.65584C8.69911 3.37488 8.30441 3.21875 7.89446 3.21946C7.04446 3.17223 6.28891 3.88057 6.28891 4.73057V7.18612C5.48613 6.7139 5.01391 5.81668 4.96669 4.87223ZM14.5528 12.3333C14.6 13.5611 14.175 14.7417 13.3722 15.6861C13.2778 15.7806 13.1834 15.875 13.1834 16.0167V17.0083H7.70557V16.3472C7.70557 16.2056 7.61113 16.0639 7.51669 15.9695C7.18613 15.6861 6.9028 15.3556 6.66669 14.9306C6.38335 14.4583 6.19446 13.8917 6.10002 13.325C6.10002 13.2306 6.0528 13.1361 6.00557 13.0417L3.73891 10.35C3.59724 10.2083 3.5028 10.0195 3.5028 9.78335C3.5028 9.59446 3.59724 9.35835 3.73891 9.21668C4.06946 8.93335 4.54169 8.93335 4.87224 9.21668L6.24169 10.5861V12.0028L7.13891 11.5306V4.73057C7.18613 4.40001 7.46946 4.11668 7.84724 4.1639C8.1778 4.1639 8.50835 4.40001 8.50835 4.73057V10.1611L9.4528 10.35V8.17779C9.50002 8.13057 9.54724 8.13057 9.59446 8.08335C9.92502 8.08335 10.2556 8.13057 10.5861 8.17779V10.5861L11.3417 10.7278V8.27223L11.9084 8.4139C12.1445 8.46112 12.3806 8.55557 12.6167 8.65001V11.0111L13.3722 11.1528V8.98057C13.7972 9.16946 14.175 9.45279 14.5056 9.78335L14.5528 12.3333Z" fill="white"/>
</svg>
