<svg width="17" height="17" viewBox="0 0 17 17" fill="none" xmlns="http://www.w3.org/2000/svg">
<path d="M3.54167 4.95833C3.91739 4.95833 4.27772 4.80908 4.5434 4.5434C4.80908 4.27772 4.95833 3.91739 4.95833 3.54167C4.95833 3.16594 4.80908 2.80561 4.5434 2.53993C4.27772 2.27426 3.91739 2.125 3.54167 2.125C3.16594 2.125 2.80561 2.27426 2.53993 2.53993C2.27426 2.80561 2.125 3.16594 2.125 3.54167C2.125 3.91739 2.27426 4.27772 2.53993 4.5434C2.80561 4.80908 3.16594 4.95833 3.54167 4.95833Z" fill="#F8F8F8"/>
<path d="M8.50004 4.95833C8.87576 4.95833 9.2361 4.80908 9.50177 4.5434C9.76745 4.27772 9.91671 3.91739 9.91671 3.54167C9.91671 3.16594 9.76745 2.80561 9.50177 2.53993C9.2361 2.27426 8.87576 2.125 8.50004 2.125C8.12432 2.125 7.76398 2.27426 7.49831 2.53993C7.23263 2.80561 7.08337 3.16594 7.08337 3.54167C7.08337 3.91739 7.23263 4.27772 7.49831 4.5434C7.76398 4.80908 8.12432 4.95833 8.50004 4.95833Z" fill="#F8F8F8"/>
<path d="M13.4583 4.95833C13.834 4.95833 14.1944 4.80908 14.46 4.5434C14.7257 4.27772 14.875 3.91739 14.875 3.54167C14.875 3.16594 14.7257 2.80561 14.46 2.53993C14.1944 2.27426 13.834 2.125 13.4583 2.125C13.0826 2.125 12.7222 2.27426 12.4566 2.53993C12.1909 2.80561 12.0416 3.16594 12.0416 3.54167C12.0416 3.91739 12.1909 4.27772 12.4566 4.5434C12.7222 4.80908 13.0826 4.95833 13.4583 4.95833Z" fill="#F8F8F8"/>
<path d="M3.54167 9.91668C3.91739 9.91668 4.27772 9.76742 4.5434 9.50174C4.80908 9.23607 4.95833 8.87573 4.95833 8.50001C4.95833 8.12429 4.80908 7.76395 4.5434 7.49828C4.27772 7.2326 3.91739 7.08334 3.54167 7.08334C3.16594 7.08334 2.80561 7.2326 2.53993 7.49828C2.27426 7.76395 2.125 8.12429 2.125 8.50001C2.125 8.87573 2.27426 9.23607 2.53993 9.50174C2.80561 9.76742 3.16594 9.91668 3.54167 9.91668Z" fill="#F8F8F8"/>
<path d="M8.50004 9.91668C8.87576 9.91668 9.2361 9.76742 9.50177 9.50174C9.76745 9.23607 9.91671 8.87573 9.91671 8.50001C9.91671 8.12429 9.76745 7.76395 9.50177 7.49828C9.2361 7.2326 8.87576 7.08334 8.50004 7.08334C8.12432 7.08334 7.76398 7.2326 7.49831 7.49828C7.23263 7.76395 7.08337 8.12429 7.08337 8.50001C7.08337 8.87573 7.23263 9.23607 7.49831 9.50174C7.76398 9.76742 8.12432 9.91668 8.50004 9.91668Z" fill="#F8F8F8"/>
<path d="M13.4583 9.91668C13.834 9.91668 14.1944 9.76742 14.46 9.50174C14.7257 9.23607 14.875 8.87573 14.875 8.50001C14.875 8.12429 14.7257 7.76395 14.46 7.49828C14.1944 7.2326 13.834 7.08334 13.4583 7.08334C13.0826 7.08334 12.7222 7.2326 12.4566 7.49828C12.1909 7.76395 12.0416 8.12429 12.0416 8.50001C12.0416 8.87573 12.1909 9.23607 12.4566 9.50174C12.7222 9.76742 13.0826 9.91668 13.4583 9.91668Z" fill="#F8F8F8"/>
<path d="M3.54167 14.875C3.91739 14.875 4.27772 14.7257 4.5434 14.4601C4.80908 14.1944 4.95833 13.834 4.95833 13.4583C4.95833 13.0826 4.80908 12.7223 4.5434 12.4566C4.27772 12.1909 3.91739 12.0417 3.54167 12.0417C3.16594 12.0417 2.80561 12.1909 2.53993 12.4566C2.27426 12.7223 2.125 13.0826 2.125 13.4583C2.125 13.834 2.27426 14.1944 2.53993 14.4601C2.80561 14.7257 3.16594 14.875 3.54167 14.875Z" fill="#F8F8F8"/>
<path d="M8.50004 14.875C8.87576 14.875 9.2361 14.7257 9.50177 14.4601C9.76745 14.1944 9.91671 13.834 9.91671 13.4583C9.91671 13.0826 9.76745 12.7223 9.50177 12.4566C9.2361 12.1909 8.87576 12.0417 8.50004 12.0417C8.12432 12.0417 7.76398 12.1909 7.49831 12.4566C7.23263 12.7223 7.08337 13.0826 7.08337 13.4583C7.08337 13.834 7.23263 14.1944 7.49831 14.4601C7.76398 14.7257 8.12432 14.875 8.50004 14.875Z" fill="#F8F8F8"/>
<path d="M13.4583 14.875C13.834 14.875 14.1944 14.7257 14.46 14.4601C14.7257 14.1944 14.875 13.834 14.875 13.4583C14.875 13.0826 14.7257 12.7223 14.46 12.4566C14.1944 12.1909 13.834 12.0417 13.4583 12.0417C13.0826 12.0417 12.7222 12.1909 12.4566 12.4566C12.1909 12.7223 12.0416 13.0826 12.0416 13.4583C12.0416 13.834 12.1909 14.1944 12.4566 14.4601C12.7222 14.7257 13.0826 14.875 13.4583 14.875Z" fill="#F8F8F8"/>
</svg>
