<svg width="18" height="18" viewBox="0 0 18 18" fill="none" xmlns="http://www.w3.org/2000/svg">
<path d="M16.5 6.48751C16.4335 5.53913 16.0092 4.65143 15.313 4.00398C14.6168 3.35653 13.7007 2.99768 12.75 3.00001H5.25C4.28832 2.99871 3.36289 3.36692 2.66498 4.02854C1.96706 4.69017 1.55 5.59463 1.5 6.55501C1.49577 6.61994 1.49577 6.68508 1.5 6.75001V12.375C1.49801 12.7203 1.56455 13.0625 1.69576 13.3819C1.82697 13.7013 2.02026 13.9915 2.26441 14.2356C2.50856 14.4798 2.79873 14.673 3.1181 14.8042C3.43748 14.9355 3.77972 15.002 4.125 15C5.1975 15 5.865 14.205 6.5175 13.4325C6.7575 13.155 7.005 12.8625 7.2675 12.6075C7.61574 12.3524 8.00694 12.1619 8.4225 12.045C8.80618 12 9.19381 12 9.5775 12.045C9.99305 12.1619 10.3843 12.3524 10.7325 12.6075C10.995 12.8625 11.2425 13.155 11.4825 13.4325C12.135 14.1825 12.8025 15 13.875 15C14.2203 15.002 14.5625 14.9355 14.8819 14.8042C15.2013 14.673 15.4914 14.4798 15.7356 14.2356C15.9797 13.9915 16.173 13.7013 16.3042 13.3819C16.4354 13.0625 16.502 12.7203 16.5 12.375V6.75001C16.504 6.68507 16.504 6.61995 16.5 6.55501V6.48751ZM15 12.375C15 12.6734 14.8815 12.9595 14.6705 13.1705C14.4595 13.3815 14.1734 13.5 13.875 13.5C13.5 13.5 13.125 13.02 12.63 12.465C12.375 12.1725 12.09 11.8275 11.7675 11.52C11.2244 11.0825 10.596 10.7632 9.9225 10.5825C9.31242 10.4725 8.68758 10.4725 8.0775 10.5825C7.40395 10.7632 6.77555 11.0825 6.2325 11.52C5.91 11.8275 5.625 12.1725 5.37 12.465C4.905 13.02 4.5 13.5 4.125 13.5C3.82663 13.5 3.54048 13.3815 3.3295 13.1705C3.11852 12.9595 3 12.6734 3 12.375V6.75001C3.00366 6.7126 3.00366 6.67492 3 6.63751C3.02889 6.06049 3.27863 5.51668 3.6975 5.11876C4.11636 4.72084 4.67225 4.49929 5.25 4.50001H12.75C13.3121 4.49756 13.8547 4.70557 14.2711 5.08311C14.6875 5.46066 14.9475 5.98038 15 6.54001V6.63001C14.9963 6.66992 14.9963 6.7101 15 6.75001V12.375Z" fill="#F8F8F8"/>
<path d="M12 9.75C12.4142 9.75 12.75 9.41421 12.75 9C12.75 8.58579 12.4142 8.25 12 8.25C11.5858 8.25 11.25 8.58579 11.25 9C11.25 9.41421 11.5858 9.75 12 9.75Z" fill="#F8F8F8"/>
<path d="M13.5 8.25C13.9142 8.25 14.25 7.91421 14.25 7.5C14.25 7.08579 13.9142 6.75 13.5 6.75C13.0858 6.75 12.75 7.08579 12.75 7.5C12.75 7.91421 13.0858 8.25 13.5 8.25Z" fill="#F8F8F8"/>
<path d="M12 6.75C12.4142 6.75 12.75 6.41421 12.75 6C12.75 5.58579 12.4142 5.25 12 5.25C11.5858 5.25 11.25 5.58579 11.25 6C11.25 6.41421 11.5858 6.75 12 6.75Z" fill="#F8F8F8"/>
<path d="M10.5 8.25C10.9142 8.25 11.25 7.91421 11.25 7.5C11.25 7.08579 10.9142 6.75 10.5 6.75C10.0858 6.75 9.75 7.08579 9.75 7.5C9.75 7.91421 10.0858 8.25 10.5 8.25Z" fill="#F8F8F8"/>
<path d="M6 9C6.82843 9 7.5 8.32843 7.5 7.5C7.5 6.67157 6.82843 6 6 6C5.17157 6 4.5 6.67157 4.5 7.5C4.5 8.32843 5.17157 9 6 9Z" fill="#F8F8F8"/>
</svg>
