<svg xmlns="http://www.w3.org/2000/svg" fill="none" viewBox="0 0 25 25">
  <path fill="#fff" fill-rule="evenodd" d="M18.704 19.247c.306 0 .553-.22.553-.492v-6.878a2.02 2.02 0 0 0-.211-.815c-.666-1.227-1.173-3.658-1.173-5.576 0-.266.033-.486-.269-.486h-1.383c0 .958-.787 4.877-3.32 5.143v1.734h4.335c.2 0 .361.146.361.32v.34c0 .179-.16.324-.36.324H12.9v1.227h4.336c.2 0 .361.146.361.32v.34c0 .178-.16.324-.36.324H12.9v1.227h4.336c.2 0 .361.142.361.32v.34c0 .178-.16.323-.36.323H12.9v1.224a.244.244 0 0 1-.055.149l.885.592h4.974Zm-6.357-9.104C9.812 9.877 9.033 5.958 9.033 5H7.65c-.3 0-.27.22-.27.486 0 1.918-.503 4.35-1.172 5.576-.117.214-.208.58-.208.816v6.877c0 .272.248.492.55.492h4.97l.885-.592a.227.227 0 0 1-.059-.149v-1.224H8.013c-.2 0-.363-.145-.363-.323v-.34c0-.178.163-.32.363-.32h4.333v-1.227H8.013c-.2 0-.363-.146-.363-.324v-.34c0-.174.163-.32.363-.32h4.333v-1.227H8.013c-.2 0-.363-.145-.363-.323v-.34c0-.175.163-.32.363-.32h4.333v-1.735Z" clip-rule="evenodd"/>
</svg>