<svg xmlns="http://www.w3.org/2000/svg" fill="none" viewBox="0 0 26 25">
  <path fill="#fff"  fill-rule="evenodd" d="M2.159 3.85a.789.789 0 0 1-.254.046.555.555 0 0 0-.219.04c-.022.018-.068.02-.1.005a.156.156 0 0 0-.123.003c-.075.038-.197.212-.226.325-.048.181-.025.218.23.366.299.172.395.242.378.278-.007.015-.098-.001-.202-.036l-.19-.062-.113.114c-.193.195-.32.528-.266.7.009.027.16.15.337.272.255.176.333.217.378.2.044-.018.508.2 2.134 1.003 2.263 1.118 2.168 1.061 2.245 1.343.042.151.204.315.53.537.11.074.848.45 1.642.834l1.444.7.128-.04c.07-.023.195-.05.277-.063.147-.021.167-.013 1.032.39.511.24.886.43.891.454.005.024.416.229 1.002.498.711.327 1.051.499 1.2.606a6.7 6.7 0 0 0 .5.316c.378.216.416.288.375.71a1.93 1.93 0 0 0-.01.291c.037.305.518.65.854.61.085-.01.17-.062.336-.21.153-.136.27-.212.376-.245.14-.042.174-.038.347.046.167.08.224.131.422.383.197.25.239.328.292.542.034.138.064.331.068.429.007.202-.052.588-.132.856-.076.258-.05.335.16.458.154.09.21.102.552.112.291.009.434.032.603.098.215.085.23.098.537.461.173.206.404.494.513.64.108.146.35.454.538.684.187.23.725.908 1.195 1.506.47.598.916 1.149.99 1.224.075.075.244.255.376.399.294.321.389.376.468.269.03-.042.347-.715.703-1.495.356-.781.75-1.635.875-1.898.176-.369.234-.516.256-.645l.027-.169-.505-.332a231.236 231.236 0 0 0-4.834-3.047l-.24-.143-.183.044c-.316.076-.519-.05-.776-.479a12.939 12.939 0 0 0-1.14-1.574 2.202 2.202 0 0 1-.214-.264.568.568 0 0 0-.152-.135 8.672 8.672 0 0 1-.418-.323c-.409-.333-.485-.376-2.293-1.282-1.41-.707-1.668-.827-1.72-.804-.09.039-2.366-.982-2.392-1.073a.679.679 0 0 0-.088-.157c-.038-.053-.066-.123-.06-.155.005-.032-.012-.068-.038-.08-.031-.015-.037-.047-.016-.09.039-.08-.06-.14-.146-.087-.103.065-.24.065-.375 0-.23-.11-.449-.146-.589-.097l-.13.045L6.142 6.19c-1.697-.83-3.086-1.526-3.086-1.543 0-.057-.163-.194-.458-.386-.284-.184-.29-.19-.283-.3.01-.127-.046-.167-.156-.11Zm4.488 3.373c-.031.065-.049.057-1.956-.859-1.906-.916-1.923-.924-1.892-.99.032-.065.049-.057 1.956.859s1.923.924 1.892.99Zm6.007 2.949c.002.009-.014.035-.035.06-.035.038-.178-.024-1.21-.52l-1.17-.561.042-.086.041-.087 1.164.59c.64.323 1.166.595 1.168.604Zm3.538 3.353c.055.127.014.312-.1.442-.047.055-.111.099-.141.097a.185.185 0 0 0-.111.048c-.126.114-.572-.214-.593-.435a.505.505 0 0 1 .064-.266c.08-.168.097-.176.349-.178.168 0 .477.169.532.292Zm.153.435a.34.34 0 0 1-.183.19c-.069.035-.127.052-.13.038-.003-.014.055-.093.13-.175a3.36 3.36 0 0 0 .2-.24c.057-.081.063-.083.053-.015a.967.967 0 0 1-.07.202Z" clip-rule="evenodd"/>
</svg>