<svg viewBox="0 0 112 112" fill="none" xmlns="http://www.w3.org/2000/svg">
<g filter="url(#filter0_d_1_17)">
<rect x="56" y="46" width="14" height="14" transform="rotate(45 56 46)" fill="#DB121B"/>
</g>
<rect x="56" y="36.7071" width="27" height="27" transform="rotate(45 56 36.7071)" stroke="white" stroke-opacity="0.25"/>
<rect opacity="0.66" x="78" y="55" width="34" height="3" fill="url(#paint0_linear_1_17)"/>
<rect opacity="0.66" x="55" y="34" width="34" height="3" transform="rotate(-90 55 34)" fill="url(#paint1_linear_1_17)"/>
<rect opacity="0.66" width="34" height="3" transform="matrix(-4.37114e-08 1 1 4.37114e-08 55 78)" fill="url(#paint2_linear_1_17)"/>
<rect opacity="0.66" x="33.9996" y="57" width="34" height="3" transform="rotate(180 33.9996 57)" fill="url(#paint3_linear_1_17)"/>
<defs>
<filter id="filter0_d_1_17" x="34.1005" y="34" width="43.799" height="43.799" filterUnits="userSpaceOnUse" color-interpolation-filters="sRGB">
<feFlood flood-opacity="0" result="BackgroundImageFix"/>
<feColorMatrix in="SourceAlpha" type="matrix" values="0 0 0 0 0 0 0 0 0 0 0 0 0 0 0 0 0 0 127 0" result="hardAlpha"/>
<feOffset/>
<feGaussianBlur stdDeviation="6"/>
<feComposite in2="hardAlpha" operator="out"/>
<feColorMatrix type="matrix" values="0 0 0 0 0.858824 0 0 0 0 0.0705882 0 0 0 0 0.105882 0 0 0 0.55 0"/>
<feBlend mode="normal" in2="BackgroundImageFix" result="effect1_dropShadow_1_17"/>
<feBlend mode="normal" in="SourceGraphic" in2="effect1_dropShadow_1_17" result="shape"/>
</filter>
<linearGradient id="paint0_linear_1_17" x1="78" y1="56.5" x2="112" y2="56.5" gradientUnits="userSpaceOnUse">
<stop stop-color="white"/>
<stop offset="1" stop-color="white" stop-opacity="0"/>
</linearGradient>
<linearGradient id="paint1_linear_1_17" x1="55" y1="35.5" x2="89" y2="35.5" gradientUnits="userSpaceOnUse">
<stop stop-color="white"/>
<stop offset="1" stop-color="white" stop-opacity="0"/>
</linearGradient>
<linearGradient id="paint2_linear_1_17" x1="-6.33298e-08" y1="1.50001" x2="34" y2="1.50001" gradientUnits="userSpaceOnUse">
<stop stop-color="white"/>
<stop offset="1" stop-color="white" stop-opacity="0"/>
</linearGradient>
<linearGradient id="paint3_linear_1_17" x1="33.9996" y1="58.5" x2="67.9996" y2="58.5" gradientUnits="userSpaceOnUse">
<stop stop-color="white"/>
<stop offset="1" stop-color="white" stop-opacity="0"/>
</linearGradient>
</defs>
</svg>
