<svg xmlns="http://www.w3.org/2000/svg" viewBox="0 0 17 17" fill="none">
<path fill-rule="evenodd" clip-rule="evenodd" d="M13.7381 0.388684C13.6682 0.364937 13.549 0.36019 13.4732 0.378061C13.3379 0.410025 13.2921 0.453901 10.9177 2.82826L8.50007 5.24592L6.0825 2.82835C3.70442 0.450275 3.66267 0.410259 3.52643 0.378091C3.24786 0.312337 3.27121 0.293548 1.78249 1.78227C0.293774 3.27099 0.312563 3.24763 0.378318 3.5262C0.410486 3.66244 0.450503 3.70419 2.82858 6.08227L5.24615 8.49984L2.82849 10.9175C0.450324 13.2957 0.410306 13.3374 0.378132 13.4737C0.312368 13.7522 0.293579 13.7289 1.78224 15.2175C3.27091 16.7062 3.24755 16.6874 3.52613 16.6217C3.66237 16.5895 3.70412 16.5495 6.08229 14.1713L8.49995 11.7536L10.9175 14.1712C13.2956 16.5493 13.3373 16.5893 13.4736 16.6215C13.7522 16.6872 13.7288 16.706 15.2175 15.2173C16.7062 13.7286 16.6875 13.7519 16.6217 13.4734C16.5895 13.3371 16.5495 13.2954 14.1714 10.9173L11.7539 8.49972L14.1715 6.08206C16.5497 3.70389 16.5897 3.66214 16.6219 3.5259C16.6877 3.24714 16.7071 3.2712 15.2132 1.77866C14.0316 0.598133 13.8495 0.426495 13.7381 0.388684Z" fill="#5CFF80"/>
</svg>