<svg width="30" height="30" viewBox="0 0 30 30" fill="none" xmlns="http://www.w3.org/2000/svg">
<path d="M15 0C6.71394 0 0 6.71394 0 15C0 23.2861 6.71394 30 15 30C23.2861 30 30 23.2861 30 15C30 6.71394 23.2861 0 15 0ZM7.39183 7.39183C7.57933 7.22596 16.0385 13.5144 16.0385 13.5144C16.1106 13.5649 16.1538 13.6226 16.1971 13.6731C16.5577 14.0048 16.7885 14.4663 16.7885 14.9928C16.7885 15.9808 15.988 16.7885 14.9928 16.7885C14.4303 16.7885 13.9327 16.5216 13.601 16.1106C13.5721 16.0817 13.5433 16.0601 13.5216 16.0312C13.5288 16.0385 7.21154 7.5649 7.39183 7.39183ZM15.0072 28.7885C7.38462 28.7885 1.20433 22.6082 1.20433 14.9856C1.20433 11.1779 2.7476 7.72356 5.24279 5.22837L6.09375 6.07933C3.8149 8.35817 2.40144 11.5096 2.40144 14.9856C2.40144 21.9303 8.05529 27.5841 15 27.5841C21.9447 27.5841 27.5841 21.9303 27.5841 14.9856C27.5841 8.47356 22.5 3.07933 16.1538 2.4375V8.07692H15V1.18269C22.6226 1.18269 28.8101 7.36298 28.8101 14.9856C28.8101 22.6082 22.6226 28.7885 15.0072 28.7885Z" fill="white"/>
</svg>
