<svg width="26" height="26" viewBox="0 0 26 26" fill="none" xmlns="http://www.w3.org/2000/svg">
<path d="M15.4388 26H10.5617C9.93208 26 9.38734 25.5749 9.25261 24.9782L8.70728 22.529C7.97979 22.2197 7.28999 21.833 6.65056 21.3759L4.18921 22.1364C3.58894 22.3221 2.9364 22.077 2.62155 21.5475L0.177608 17.4512C-0.133796 16.9215 -0.0265112 16.2532 0.436205 15.8405L2.34553 14.1505C2.2587 13.3849 2.2587 12.6125 2.34553 11.8469L0.436205 10.1608C-0.0271928 9.74788 -0.13452 9.07884 0.177608 8.5488L2.61619 4.4499C2.93104 3.92041 3.58358 3.67528 4.18385 3.861L6.6452 4.6215C6.97222 4.3864 7.31264 4.16939 7.66485 3.9715C8.00296 3.7865 8.35092 3.619 8.70728 3.4697L9.25395 1.0231C9.38803 0.426359 9.93218 0.000642711 10.5617 0H15.4388C16.0683 0.000642711 16.6125 0.426359 16.7466 1.0231L17.2986 3.471C17.6748 3.63157 18.0412 3.813 18.3959 4.0144C18.7273 4.20001 19.0476 4.40356 19.3553 4.6241L21.818 3.8636C22.4179 3.67857 23.0696 3.92361 23.3843 4.4525L25.8229 8.5514C26.1343 9.08113 26.027 9.74937 25.5643 10.1621L23.655 11.8521C23.7418 12.6177 23.7418 13.3901 23.655 14.1557L25.5643 15.8457C26.027 16.2584 26.1343 16.9267 25.8229 17.4564L23.3843 21.5553C23.0696 22.0842 22.4179 22.3292 21.818 22.1442L19.3553 21.3837C19.0437 21.6064 18.7198 21.8125 18.3852 22.0012C18.0339 22.1987 17.6716 22.3771 17.2999 22.5355L16.7466 24.9782C16.6119 25.5744 16.0679 25.9995 15.4388 26ZM12.9949 7.8C10.0349 7.8 7.63538 10.1281 7.63538 13C7.63538 15.8719 10.0349 18.2 12.9949 18.2C15.9549 18.2 18.3544 15.8719 18.3544 13C18.3544 10.1281 15.9549 7.8 12.9949 7.8Z" fill="url(#paint0_linear_24_220)"/>
<defs>
<linearGradient id="paint0_linear_24_220" x1="13" y1="0" x2="13" y2="26" gradientUnits="userSpaceOnUse">
<stop stop-color="#DB121B"/>
<stop offset="1" stop-color="#7B090E"/>
</linearGradient>
</defs>
</svg>
