<svg width="43" height="43" viewBox="0 0 43 43" fill="none" xmlns="http://www.w3.org/2000/svg">
<g clip-path="url(#clip0_37_342)">
<path d="M11.2875 29.5625L12.9 26.4719C13.5719 25.1281 14.9156 24.1875 16.5281 24.1875H21.2313C21.3656 24.1875 21.5 24.1875 21.5 24.1875C23.9188 20.9625 27.8156 18.8125 32.25 18.8125C33.8625 18.8125 35.3406 19.0813 36.8187 19.6188C36.2812 18.8125 35.6094 18.0063 34.9375 17.4688H36.2812C37.0875 17.4688 37.625 16.9312 37.625 16.125C37.625 15.3188 37.0875 14.7812 36.2812 14.7812H32.5187L30.9062 10.75C29.8312 8.33125 27.4125 6.71875 24.725 6.71875H12.9C10.2125 6.71875 7.79375 8.33125 6.71875 10.75L4.97188 14.7812H1.34375C0.5375 14.7812 0 15.3188 0 16.125C0 16.9312 0.5375 17.4688 1.34375 17.4688H2.6875C1.075 18.6781 0 20.6938 0 22.8438V28.2188C0 29.4281 0.5375 30.5031 1.34375 31.175V33.5938C1.34375 35.8781 3.09063 37.625 5.375 37.625H8.0625C10.3469 37.625 12.0938 35.8781 12.0938 33.5938V32.25H18.8125C18.8125 31.3094 18.9469 30.3687 19.0812 29.5625H11.2875ZM9.40625 25.5312H5.375C4.56875 25.5312 4.03125 24.9937 4.03125 24.1875C4.03125 23.3813 4.56875 22.8438 5.375 22.8438H9.40625C10.2125 22.8438 10.75 23.3813 10.75 24.1875C10.75 24.9937 10.2125 25.5312 9.40625 25.5312ZM7.39062 16.125L9.27188 11.825C9.94375 10.3469 11.2875 9.40625 12.9 9.40625H24.5906C26.2031 9.40625 27.6812 10.3469 28.3531 11.825L30.2344 16.125H7.39062Z" fill="white"/>
<path d="M42.5969 29.4282C42.4625 28.7563 41.6562 28.3532 40.9844 28.4875C40.0438 28.7563 39.3719 28.4875 39.2375 28.2188C39.1031 27.95 39.2375 27.2782 39.9094 26.4719C40.4469 25.9344 40.4469 25.1282 39.9094 24.5907C38.5656 23.2469 36.9531 22.3063 35.0719 21.7688C34.4 21.6344 33.5937 22.0375 33.4594 22.7094C33.1906 23.65 32.6531 24.0532 32.25 24.0532C31.8469 24.0532 31.4438 23.5157 31.0406 22.7094C30.7719 22.0375 30.1 21.6344 29.4281 21.7688C27.5469 22.3063 25.9344 23.2469 24.5906 24.5907C24.0531 25.1282 24.0531 25.9344 24.5906 26.4719C25.2625 27.1438 25.3969 27.8157 25.2625 28.2188C25.1281 28.4875 24.4562 28.7563 23.5156 28.4875C22.8438 28.3532 22.0375 28.7563 21.9031 29.4282C21.6344 30.3688 21.5 31.3094 21.5 32.25C21.5 33.1907 21.6344 34.1313 21.9031 35.0719C22.0375 35.7438 22.8438 36.1469 23.5156 36.0125C24.4562 35.7438 25.1281 36.0125 25.2625 36.2813C25.3969 36.55 25.2625 37.2219 24.5906 38.0282C24.0531 38.5657 24.0531 39.3719 24.5906 39.9094C25.9344 41.2532 27.5469 42.1938 29.4281 42.7313C30.1 42.8657 30.9063 42.4625 31.0406 41.7907C31.3094 40.85 31.8469 40.4469 32.25 40.4469C32.6531 40.4469 33.0562 40.9844 33.4594 41.7907C33.5937 42.3282 34.1312 42.7313 34.8031 42.7313C34.9375 42.7313 35.0719 42.7313 35.2063 42.7313C37.0875 42.1938 38.7 41.2532 40.0437 39.9094C40.5812 39.3719 40.5812 38.5657 40.0437 38.0282C39.3719 37.3563 39.2375 36.6844 39.3719 36.2813C39.5062 36.0125 40.1781 35.7438 41.1187 36.0125C41.7906 36.1469 42.5969 35.7438 42.7312 35.0719C43 34.1313 43.1344 33.1907 43.1344 32.25C43.1344 31.3094 42.8656 30.3688 42.5969 29.4282ZM32.25 36.2813C29.9656 36.2813 28.2188 34.5344 28.2188 32.25C28.2188 29.9657 29.9656 28.2188 32.25 28.2188C34.5344 28.2188 36.2812 29.9657 36.2812 32.25C36.2812 34.5344 34.5344 36.2813 32.25 36.2813Z" fill="white"/>
</g>
<defs>
<clipPath id="clip0_37_342">
<rect width="43" height="43" fill="white"/>
</clipPath>
</defs>
</svg>
