<svg width="20" height="20" viewBox="0 0 20 20" fill="none" xmlns="http://www.w3.org/2000/svg">
<g clip-path="url(#clip0_5_953)">
<path fill-rule="evenodd" clip-rule="evenodd" d="M10 0.833336C4.93754 0.833336 0.833374 4.9375 0.833374 10C0.833374 15.0625 4.93754 19.1667 10 19.1667C15.0625 19.1667 19.1667 15.0625 19.1667 10C19.1667 4.9375 15.0625 0.833336 10 0.833336ZM9.58337 5C9.36236 5 9.1504 5.0878 8.99412 5.24408C8.83784 5.40036 8.75004 5.61232 8.75004 5.83334C8.75004 6.05435 8.83784 6.26631 8.99412 6.42259C9.1504 6.57887 9.36236 6.66667 9.58337 6.66667H10C10.2211 6.66667 10.433 6.57887 10.5893 6.42259C10.7456 6.26631 10.8334 6.05435 10.8334 5.83334C10.8334 5.61232 10.7456 5.40036 10.5893 5.24408C10.433 5.0878 10.2211 5 10 5H9.58337ZM8.33337 8.33334C8.11236 8.33334 7.9004 8.42113 7.74412 8.57741C7.58784 8.73369 7.50004 8.94566 7.50004 9.16667C7.50004 9.38768 7.58784 9.59964 7.74412 9.75593C7.9004 9.91221 8.11236 10 8.33337 10H9.16671V12.5H8.33337C8.11236 12.5 7.9004 12.5878 7.74412 12.7441C7.58784 12.9004 7.50004 13.1123 7.50004 13.3333C7.50004 13.5543 7.58784 13.7663 7.74412 13.9226C7.9004 14.0789 8.11236 14.1667 8.33337 14.1667H11.6667C11.8877 14.1667 12.0997 14.0789 12.256 13.9226C12.4122 13.7663 12.5 13.5543 12.5 13.3333C12.5 13.1123 12.4122 12.9004 12.256 12.7441C12.0997 12.5878 11.8877 12.5 11.6667 12.5H10.8334V9.16667C10.8334 8.94566 10.7456 8.73369 10.5893 8.57741C10.433 8.42113 10.2211 8.33334 10 8.33334H8.33337Z" fill="white"/>
</g>
<defs>
<clipPath id="clip0_5_953">
<rect width="20" height="20" fill="white"/>
</clipPath>
</defs>
</svg>
