<svg xmlns="http://www.w3.org/2000/svg" width="29" height="29" fill="none" viewBox="0 0 29 29">
  <path fill="#fff" d="M18.578 2.719c-.544 0-.997.09-1.54.181-.997-.997-2.81-.997-3.807 0-.725.725-1.268 2.81-1.45 3.897-.634.362-1.54.362-2.084-.272a.876.876 0 0 0-1.269 0 .876.876 0 0 0 0 1.269c.634.815 1.54 1.087 2.447 1.087.725 0 1.45-.272 2.084-.725 1.088-.181 3.354-.725 4.17-1.45.543-.544.815-1.36.815-2.175h.634a5.879 5.879 0 0 1 5.89 5.89 5.879 5.879 0 0 1-5.89 5.892h-2.9l5.71-3.807c.362-.181.453-.634.362-.997-.09-.362-.453-.634-.906-.634H4.53c-.362 0-.725.272-.906.634-.09.363 0 .816.362.997l5.8 3.806c-1.45.363-2.537 1.632-2.537 3.172 0 1.722 1.45 3.172 3.172 3.172h1.36v2.719H9.968c-.544 0-.907.363-.907.906 0 .544.363.907.907.907h4.078c1.722 0 3.172-1.45 3.172-3.172 0-1.722-1.45-3.172-3.172-3.172h-.453v-2.719h4.984a7.697 7.697 0 0 0 7.703-7.703 7.697 7.697 0 0 0-7.703-7.703ZM9.062 19.484c0-.725.635-1.359 1.36-1.359h1.36v2.719h-1.36c-.725 0-1.36-.635-1.36-1.36Zm6.344 4.532c0 .725-.634 1.359-1.36 1.359h-.452v-2.719h.453c.725 0 1.36.635 1.36 1.36Z"/>
</svg>