<svg width="26" height="34" viewBox="0 0 26 34" fill="none" xmlns="http://www.w3.org/2000/svg">
<path fill-rule="evenodd" clip-rule="evenodd" d="M6.58051 0.19377L6.36261 0.38757V1.99227V3.59687L6.58051 3.79067L6.79831 3.98437H12.971C19.6754 3.98437 19.4183 3.99857 19.591 3.62107C19.7016 3.37937 19.7016 0.60507 19.591 0.36337C19.4183 -0.0141302 19.6754 6.95118e-05 12.971 6.95118e-05H6.79831L6.58051 0.19377ZM2.26711 2.09737C1.29071 2.35867 0.553908 3.04217 0.168608 4.04377L0.0254077 4.41607L0.0053081 17.7969C-0.0093919 27.6466 0.0055084 31.2829 0.0617084 31.5762C0.285208 32.7415 1.21271 33.6815 2.38011 33.926C2.63121 33.9785 5.71401 34 13.0226 34C22.0513 34 23.3597 33.9875 23.7042 33.8982C24.705 33.6387 25.4406 32.9645 25.8314 31.9484L25.9746 31.5762L25.9947 18.1953C26.0094 8.34567 25.9945 4.70937 25.9383 4.41607C25.8226 3.81277 25.5647 3.33447 25.1122 2.88397C24.4288 2.20367 23.8021 1.99227 22.4692 1.99227H21.672V2.85767C21.672 3.55657 21.6455 3.80137 21.5341 4.13047C21.2785 4.88587 20.8278 5.38177 20.0741 5.73737L19.6374 5.94337L13.1674 5.96157C6.83811 5.97937 6.68771 5.97687 6.25341 5.84557C5.46611 5.60747 4.79011 4.97007 4.51821 4.20927C4.41231 3.91317 4.37011 3.59687 4.34391 2.90527L4.30941 1.99227L3.46821 1.99657C2.95681 1.99927 2.48591 2.03877 2.26711 2.09737ZM10.2323 10.0566C10.6121 10.2145 10.8495 10.6952 10.7676 11.1402C10.7283 11.3535 10.4791 11.6314 9.00921 13.1008C7.17921 14.9302 7.07381 15.0078 6.55251 14.911C6.33941 14.8714 6.15271 14.7207 5.45131 14.0225C4.74991 13.3243 4.59851 13.1384 4.55881 12.9263C4.41941 12.1823 5.12951 11.5241 5.82501 11.7527C5.95611 11.7957 6.23041 11.983 6.43471 12.1688L6.80601 12.5066L8.01851 11.308C8.68541 10.6489 9.29111 10.077 9.36441 10.0373C9.55311 9.93507 9.96211 9.94427 10.2323 10.0566ZM20.9833 12.1262C21.5611 12.5549 21.5611 13.3436 20.9833 13.7724C20.7978 13.9102 20.7401 13.9124 16.9595 13.9303L13.1239 13.9485L12.8618 13.8019C12.5859 13.6475 12.3329 13.2397 12.3329 12.9493C12.3329 12.6683 12.5853 12.2533 12.8494 12.1L13.1001 11.9544L16.9475 11.9704C20.7421 11.9862 20.7977 11.9883 20.9833 12.1262ZM10.2758 17.2404C10.5165 17.3611 10.7197 17.6316 10.77 17.898C10.8633 18.3932 10.8076 18.4691 9.07311 20.2095C8.16941 21.1164 7.33991 21.9055 7.22991 21.9629C6.92231 22.1236 6.49871 22.0898 6.19521 21.8805C6.05311 21.7824 5.65231 21.4103 5.30461 21.0537C4.62141 20.3527 4.47291 20.07 4.55611 19.6285C4.61471 19.3177 4.98531 18.9461 5.29431 18.8884C5.72251 18.8085 5.98721 18.9083 6.40911 19.3089L6.80221 19.6822L8.05711 18.4343C9.01961 17.4772 9.36471 17.1744 9.53841 17.1348C9.79201 17.0771 10.013 17.1087 10.2758 17.2404ZM20.9833 18.7668C21.5611 19.1956 21.5611 19.9842 20.9833 20.413C20.7978 20.5508 20.7401 20.553 16.9595 20.571L13.1239 20.5892L12.8618 20.4425C12.5859 20.2881 12.3329 19.8803 12.3329 19.5899C12.3329 19.3089 12.5853 18.8939 12.8494 18.7406L13.1001 18.595L16.9475 18.611C20.7421 18.6268 20.7977 18.6289 20.9833 18.7668ZM10.2758 23.881C10.5165 24.0017 10.7197 24.2722 10.77 24.5387C10.8633 25.0338 10.8076 25.1097 9.07311 26.8501C8.16941 27.757 7.33991 28.5461 7.22991 28.6035C6.92231 28.7642 6.49871 28.7304 6.19521 28.5211C6.05311 28.423 5.65231 28.0509 5.30461 27.6943C4.62141 26.9934 4.47291 26.7106 4.55611 26.2691C4.61471 25.9583 4.98531 25.5867 5.29431 25.529C5.72251 25.4491 5.98721 25.5489 6.40911 25.9495L6.80221 26.3228L8.05711 25.0749C9.01961 24.1178 9.36471 23.815 9.53841 23.7754C9.79201 23.7177 10.013 23.7494 10.2758 23.881ZM20.9379 25.375C21.2206 25.5332 21.4718 25.9224 21.4718 26.2019C21.4718 26.5278 21.2162 26.9526 20.9338 27.096C20.6871 27.2213 20.5236 27.2266 16.8974 27.2266C13.1356 27.2266 13.117 27.2259 12.859 27.0815C12.5859 26.9287 12.3329 26.5195 12.3329 26.2305C12.3329 25.949 12.5852 25.5345 12.8494 25.3821C13.0988 25.2382 13.1191 25.2374 16.8933 25.2359C20.6347 25.2344 20.69 25.2363 20.9379 25.375Z" fill="white"/>
</svg>
