<svg width="50" height="50" viewBox="0 0 50 50" fill="none" xmlns="http://www.w3.org/2000/svg">
<path d="M50 25C50 38.8071 38.8071 50 25 50C11.1929 50 0 38.8071 0 25C0 11.1929 11.1929 0 25 0C38.8071 0 50 11.1929 50 25ZM1.7921 25C1.7921 37.8173 12.1827 48.2079 25 48.2079C37.8173 48.2079 48.2079 37.8173 48.2079 25C48.2079 12.1827 37.8173 1.7921 25 1.7921C12.1827 1.7921 1.7921 12.1827 1.7921 25Z" fill="#5CFF80"/>
<path d="M25 43C34.9411 43 43 34.9411 43 25C43 15.0589 34.9411 7 25 7C15.0589 7 7 15.0589 7 25C7 34.9411 15.0589 43 25 43Z" fill="white" fill-opacity="0.06"/>
<path fill-rule="evenodd" clip-rule="evenodd" d="M23.8478 13.0297C18.7761 13.5551 14.5614 17.1966 13.3354 22.1127C13.0635 23.2033 13 23.7495 13 25.0004C13 25.8316 13.0211 26.2429 13.0857 26.6673C13.7649 31.1302 16.718 34.7422 20.9824 36.3259C21.5413 36.5334 22.6857 36.8128 23.3781 36.9106C24.2231 37.03 25.7767 37.0298 26.6193 36.9102C31.4869 36.2192 35.4762 32.6355 36.6623 27.8881C36.9192 26.8601 37 26.1688 37 25.0004C37 23.832 36.9192 23.1407 36.6623 22.1127C35.5864 17.8067 32.1669 14.3963 27.8641 13.3379C27.4895 13.2457 26.961 13.137 26.6898 13.0962C26.0976 13.0073 24.439 12.9685 23.8478 13.0297ZM25.898 15.8466C29.8905 16.2518 33.2085 19.2475 34.0142 23.1743C34.7707 26.8611 33.1788 30.6228 29.978 32.712C26.1011 35.2426 20.9685 34.4694 17.9707 30.9033C16.8751 29.6 16.22 28.1822 15.9049 26.4325C15.7906 25.798 15.7873 24.2345 15.8988 23.5918C16.1358 22.2258 16.6167 21.0074 17.3482 19.9199C19.2594 17.0787 22.5572 15.5076 25.898 15.8466ZM24.1379 17.2555C21.1367 17.6041 18.5553 19.702 17.6038 22.5657C16.8474 24.8422 17.1784 27.2936 18.5104 29.2804C20.369 32.0525 23.6885 33.3563 26.8601 32.5599C30.0329 31.7633 32.3734 29.0838 32.7474 25.8202C33.1387 22.4057 31.0811 19.032 27.8231 17.746C26.6914 17.2992 25.3257 17.1175 24.1379 17.2555ZM28.1472 21.5733C28.2665 21.6342 28.3663 21.7339 28.4272 21.8532C28.519 22.0331 28.5218 22.1246 28.5218 25.0004C28.5218 27.8763 28.519 27.9677 28.4272 28.1476C28.3663 28.2669 28.2665 28.3667 28.1472 28.4275C27.9672 28.5193 27.8757 28.522 24.9987 28.522C22.1217 28.522 22.0302 28.5193 21.8502 28.4275C21.7309 28.3667 21.6311 28.2669 21.5702 28.1476C21.4784 27.9677 21.4757 27.8763 21.4757 25.0004C21.4757 22.1258 21.4784 22.033 21.5701 21.8534C21.6279 21.7403 21.7329 21.6323 21.8402 21.5756C22.0096 21.4862 22.1217 21.4829 24.9888 21.4809C27.8779 21.4788 27.967 21.4815 28.1472 21.5733ZM22.8849 27.1134H27.1125V22.8874H22.8849V27.1134Z" fill="#5CFF80"/>
</svg>
