<svg width="24" height="26" viewBox="0 0 24 26" fill="none" xmlns="http://www.w3.org/2000/svg">
<path fill-rule="evenodd" clip-rule="evenodd" d="M12 0L23.2583 6.5V19.5L12 26L0.741669 19.5V6.5L12 0Z" fill="#DB121B"/>
<path fill-rule="evenodd" clip-rule="evenodd" d="M6.93332 11.4331C6.93332 14.1948 11.9333 20.6538 11.9333 20.4784C11.9333 20.303 16.9333 14.1948 16.9333 11.4331C16.9333 8.67146 14.6933 6.43311 11.9333 6.43311C9.17333 6.43311 6.93332 8.67146 6.93332 11.4331ZM9.43333 10.9331C9.43333 12.314 10.5533 13.4331 11.9333 13.4331C13.3133 13.4331 14.4333 12.314 14.4333 10.9331C14.4333 9.55228 13.3133 8.43312 11.9333 8.43312C10.5533 8.43312 9.43333 9.55228 9.43333 10.9331Z" fill="white"/>
</svg>
