<svg width="26" height="26" viewBox="0 0 26 26" fill="none" xmlns="http://www.w3.org/2000/svg">
<path d="M13 4.33343V2.6001" stroke="white" stroke-width="2" stroke-miterlimit="10" stroke-linecap="round" stroke-linejoin="round"/>
<path d="M1.7334 4.3335H24.2667" stroke="white" stroke-width="2" stroke-miterlimit="10" stroke-linecap="round" stroke-linejoin="round"/>
<path d="M13.8667 18.2002L16.9 23.8335" stroke="white" stroke-width="2" stroke-miterlimit="10" stroke-linecap="round" stroke-linejoin="round"/>
<path d="M1.7334 4.3335V18.2002C1.7334 19.1578 2.50907 19.9335 3.46673 19.9335H22.5334C23.4911 19.9335 24.2667 19.1578 24.2667 18.2002V4.3335H1.7334ZM20.5461 9.27956L15.3461 14.4796C15.0073 14.8184 14.4595 14.8184 14.1207 14.4796L12.1334 12.4923L9.27947 15.3462C9.11047 15.5152 8.8886 15.6002 8.66673 15.6002C8.44487 15.6002 8.223 15.5152 8.054 15.3462L6.32067 13.6129C5.9818 13.274 5.9818 12.7263 6.32067 12.3874C6.65953 12.0486 7.20726 12.0486 7.54613 12.3874L8.66673 13.508L11.5207 10.6541C11.8595 10.3152 12.4073 10.3152 12.7461 10.6541L14.7334 12.6414L19.3207 8.0541C19.6595 7.71523 20.2073 7.71523 20.5461 8.0541C20.885 8.39296 20.885 8.9407 20.5461 9.27956Z" fill="white"/>
<path d="M16.9001 25.1332C17.6181 25.1332 18.2001 24.5512 18.2001 23.8332C18.2001 23.1152 17.6181 22.5332 16.9001 22.5332C16.1821 22.5332 15.6001 23.1152 15.6001 23.8332C15.6001 24.5512 16.1821 25.1332 16.9001 25.1332Z" fill="white"/>
<path d="M12.1334 18.2002L9.1001 23.8335" stroke="white" stroke-width="2" stroke-miterlimit="10" stroke-linecap="round" stroke-linejoin="round"/>
<path d="M9.10005 25.1332C9.81802 25.1332 10.4 24.5512 10.4 23.8332C10.4 23.1152 9.81802 22.5332 9.10005 22.5332C8.38208 22.5332 7.80005 23.1152 7.80005 23.8332C7.80005 24.5512 8.38208 25.1332 9.10005 25.1332Z" fill="white"/>
</svg>
