<svg width="26" height="23" viewBox="0 0 26 23" fill="none" xmlns="http://www.w3.org/2000/svg">
<path fill-rule="evenodd" clip-rule="evenodd" d="M12.2568 0.058857C11.8023 0.138008 11.2073 0.36211 10.7613 0.622131C10.1885 0.955953 9.40528 1.76071 9.09598 2.3332C8.07343 4.22551 8.36472 6.50637 9.82281 8.02459C10.6886 8.92619 11.768 9.39002 13 9.39002C14.232 9.39002 15.3114 8.92619 16.1772 8.02459C17.6353 6.50637 17.9266 4.22551 16.904 2.3332C16.5947 1.76071 15.8115 0.955953 15.2387 0.622131C14.333 0.0941941 13.2397 -0.112319 12.2568 0.058857ZM4.20864 4.50545C3.20309 4.77972 2.33868 5.56774 1.94323 6.57063C1.75477 7.0484 1.69738 7.36633 1.69799 7.92843C1.69865 8.49627 1.79715 8.94171 2.0364 9.458C2.45438 10.3602 3.29549 11.0677 4.24853 11.3189C4.68005 11.4326 5.44524 11.4299 5.87671 11.3132C6.62944 11.1096 7.4246 10.5265 7.85566 9.86202C8.54276 8.80296 8.61002 7.39705 8.02911 6.23686C7.77008 5.71952 7.15204 5.07598 6.65519 4.80627C5.91421 4.40405 4.99475 4.29099 4.20864 4.50545ZM20.0834 4.50545C19.2214 4.74057 18.3711 5.43746 17.9709 6.23686C17.506 7.16527 17.4491 8.24997 17.8149 9.20783C18.1982 10.2114 19.1039 11.0375 20.1233 11.3132C20.5548 11.4299 21.3199 11.4326 21.7515 11.3189C22.9529 11.0023 23.9095 10.0061 24.2185 8.74961C24.3139 8.36149 24.3286 7.57035 24.2476 7.17989C23.9808 5.89425 22.9953 4.82889 21.7714 4.50296C21.2632 4.36765 20.5848 4.36861 20.0834 4.50545ZM9.92172 10.4633C9.1493 10.6461 8.63933 10.9426 8.05995 11.5459C7.57775 12.048 7.3175 12.4795 7.1038 13.1312L6.97065 13.5374L6.95716 17.9876C6.94393 22.3621 6.94541 22.4409 7.04575 22.6106C7.10187 22.7055 7.2224 22.8306 7.31363 22.8885C7.4764 22.9918 7.58091 22.9938 13 22.9938C18.4191 22.9938 18.5236 22.9918 18.6864 22.8885C18.7776 22.8306 18.8981 22.7055 18.9543 22.6106C19.0546 22.4409 19.0561 22.3621 19.0428 17.9876L19.0294 13.5374L18.8962 13.1312C18.6825 12.4795 18.4222 12.048 17.9401 11.5459C17.4576 11.0435 17.0428 10.7724 16.4175 10.5506L16.0274 10.4123L13.1272 10.4017C10.8324 10.3933 10.1633 10.4062 9.92172 10.4633ZM3.23886 12.4553C1.78331 12.652 0.577648 13.7356 0.119468 15.2592C0.000508806 15.6549 0 15.6684 0 18.4115V21.1664L0.117941 21.4705C0.356775 22.0863 0.847519 22.597 1.43789 22.8444C1.72211 22.9635 1.78123 22.9673 3.64794 22.9834L5.56593 23L5.50671 22.8249C5.42708 22.5894 5.3906 14.4983 5.4659 13.7758C5.49475 13.499 5.55596 13.1295 5.60191 12.9546C5.64785 12.7798 5.6968 12.5831 5.71069 12.5175L5.73593 12.3983L4.64881 12.4051C4.05086 12.4088 3.41638 12.4314 3.23886 12.4553ZM20.2893 12.5175C20.3032 12.5831 20.3521 12.7798 20.3981 12.9546C20.444 13.1295 20.5052 13.499 20.5341 13.7758C20.6094 14.4983 20.5729 22.5894 20.4933 22.8249L20.4341 23L22.3521 22.9834C24.2188 22.9673 24.2779 22.9635 24.5621 22.8444C25.1525 22.597 25.6432 22.0863 25.8821 21.4705L26 21.1664V18.4115C26 15.6623 25.9997 15.6557 25.8797 15.2592C25.494 13.9854 24.6342 13.045 23.482 12.637C22.9662 12.4543 22.4491 12.3983 21.2762 12.3983H20.2641L20.2893 12.5175Z" fill="#33FF60"/>
</svg>
