<svg width="32" height="29" viewBox="0 0 32 29" fill="none" xmlns="http://www.w3.org/2000/svg">
<path fill-rule="evenodd" clip-rule="evenodd" d="M15.0853 0.074211C14.5259 0.17401 13.7936 0.456573 13.2446 0.784427C12.5397 1.20533 11.5757 2.22002 11.1951 2.94186C9.93653 5.32782 10.295 8.20368 12.0896 10.118C13.1553 11.2548 14.4837 11.8396 16 11.8396C17.5163 11.8396 18.8447 11.2548 19.9104 10.118C21.705 8.20368 22.0635 5.32782 20.8049 2.94186C20.4243 2.22002 19.4603 1.20533 18.7554 0.784427C17.6406 0.118766 16.295 -0.141619 15.0853 0.074211ZM5.17987 5.68079C3.94226 6.02661 2.87837 7.02019 2.39167 8.28471C2.15972 8.88711 2.08908 9.28798 2.08983 9.99672C2.09065 10.7127 2.21188 11.2743 2.50633 11.9253C3.02077 13.0628 4.05598 13.9549 5.22896 14.2716C5.76006 14.415 6.70184 14.4117 7.23288 14.2645C8.15931 14.0077 9.13797 13.2725 9.66851 12.4347C10.5142 11.0994 10.5969 9.32672 9.88199 7.86387C9.56318 7.21157 8.80251 6.40015 8.191 6.06008C7.27903 5.55293 6.14738 5.41038 5.17987 5.68079ZM24.718 5.68079C23.6571 5.97724 22.6106 6.85593 22.118 7.86387C21.5459 9.03447 21.4758 10.4021 21.9261 11.6099C22.3978 12.8752 23.5125 13.9168 24.7671 14.2645C25.2982 14.4117 26.2399 14.415 26.771 14.2716C28.2497 13.8724 29.427 12.6163 29.8073 11.0321C29.9248 10.5427 29.9429 9.54522 29.8432 9.05291C29.5148 7.43188 28.3019 6.0886 26.7955 5.67765C26.17 5.50704 25.3352 5.50824 24.718 5.68079ZM12.2114 13.1929C11.2607 13.4234 10.633 13.7972 9.91994 14.5578C9.32647 15.1909 9.00615 15.735 8.74314 16.5567L8.57926 17.0689L8.56266 22.6801C8.54638 28.1957 8.5482 28.295 8.67169 28.509C8.74076 28.6287 8.88911 28.7864 9.00139 28.8594C9.20172 28.9897 9.33035 28.9922 16 28.9922C22.6697 28.9922 22.7983 28.9897 22.9986 28.8594C23.1109 28.7864 23.2592 28.6287 23.3283 28.509C23.4518 28.295 23.4536 28.1957 23.4373 22.6801L23.4207 17.0689L23.2569 16.5567C22.9938 15.735 22.6735 15.1909 22.0801 14.5578C21.4862 13.9244 20.9757 13.5825 20.2062 13.3029L19.726 13.1285L16.1566 13.1151C13.3322 13.1046 12.5086 13.1209 12.2114 13.1929ZM3.98629 15.7046C2.19485 15.9525 0.710951 17.3188 0.147037 19.2399C0.000626222 19.7387 0 19.7558 0 23.2145V26.6881L0.145159 27.0715C0.439108 27.8479 1.0431 28.4919 1.76971 28.8038C2.11951 28.954 2.19228 28.9587 4.48977 28.9791L6.85038 29L6.77749 28.7792C6.67948 28.4823 6.63458 18.2804 6.72726 17.3695C6.76277 17.0205 6.83811 16.5545 6.89465 16.3341C6.9512 16.1136 7.01144 15.8657 7.02854 15.783L7.0596 15.6327L5.72161 15.6412C4.98567 15.6458 4.20477 15.6744 3.98629 15.7046ZM24.9715 15.783C24.9886 15.8657 25.0488 16.1136 25.1053 16.3341C25.1619 16.5545 25.2372 17.0205 25.2727 17.3695C25.3654 18.2804 25.3205 28.4823 25.2225 28.7792L25.1496 29L27.5102 28.9791C29.8077 28.9587 29.8805 28.954 30.2303 28.8038C30.9569 28.4919 31.5609 27.8479 31.8548 27.0715L32 26.6881V23.2145C32 19.7482 31.9997 19.7398 31.852 19.2399C31.3772 17.6337 30.319 16.448 28.9009 15.9336C28.2661 15.7032 27.6297 15.6327 26.1861 15.6327H24.9404L24.9715 15.783Z" fill="#DA1320"/>
</svg>
