<svg width="7" height="17" viewBox="0 0 7 17" fill="none" xmlns="http://www.w3.org/2000/svg">
<path fill-rule="evenodd" clip-rule="evenodd" d="M3.1821 0.0290339C2.66782 0.132074 2.22804 0.591851 2.11849 1.14101C1.91256 2.17324 2.83181 3.06509 3.82938 2.80086C4.89143 2.51955 5.22735 1.16334 4.42672 0.389326C4.09323 0.0669472 3.64311 -0.0633734 3.1821 0.0290339ZM3.19673 3.50459C2.67646 3.57361 2.25245 3.69117 1.93073 3.85562C0.701951 4.48376 -0.0468701 6.15985 0.00227987 8.17194C0.0158676 8.72812 0.0211662 8.76769 0.104285 8.93619C0.245657 9.22272 0.468294 9.35879 0.800413 9.36161C1.00501 9.36334 1.14989 9.30595 1.26864 9.1761C1.4171 9.01381 1.42987 8.93426 1.40627 8.31868C1.37357 7.46449 1.45909 6.79231 1.6751 6.20541L1.76644 5.95719L1.77613 8.20009C1.78146 9.43368 1.76703 11.5644 1.74401 12.9351C1.72103 14.3058 1.70202 15.675 1.70182 15.978C1.70143 16.5224 1.70244 16.5303 1.79011 16.6656C2.03765 17.0477 2.62536 17.1146 2.99555 16.8027C3.20112 16.6295 3.25173 16.4846 3.28187 15.9831C3.31346 15.4577 3.37513 12.4117 3.37536 11.3651L3.37552 10.6257H3.48929H3.60306L3.60332 11.2155C3.60378 12.1662 3.66778 15.4178 3.69639 15.9422C3.71772 16.3328 3.73579 16.4502 3.79196 16.562C4.05754 17.0912 4.87362 17.1517 5.18847 16.6656C5.27637 16.5299 5.27715 16.5239 5.27683 15.9614C5.27663 15.6493 5.25866 14.2875 5.23684 12.9351C5.215 11.5827 5.18883 9.42953 5.17869 8.15025L5.16023 5.82428L5.23102 5.95573C5.33589 6.15045 5.44654 6.50436 5.52654 6.9012C5.58804 7.20604 5.59802 7.36859 5.60134 8.11702C5.60384 8.68525 5.61759 9.00371 5.64152 9.04741C5.83236 9.3962 6.37552 9.4698 6.71986 9.19351C6.77447 9.14972 6.85983 9.03162 6.90957 8.93111L7 8.74835L6.99964 8.00072C6.99935 7.37261 6.98781 7.18936 6.92741 6.85435C6.62734 5.19039 5.81858 4.05482 4.66583 3.67887C4.28788 3.5556 3.50889 3.46319 3.19673 3.50459Z" fill="white"/>
</svg>
