<svg width="26" height="27" viewBox="0 0 26 27" fill="none" xmlns="http://www.w3.org/2000/svg">
<path fill-rule="evenodd" clip-rule="evenodd" d="M9.84062 1.05121V1.8645L5.39937 1.8645L0.95813 1.8645L0.95813 3.49109L0.95813 5.11768L13.3936 5.11768L25.8291 5.11768V3.49109V1.8645L21.3878 1.8645L16.9466 1.8645V1.05121V0.237915L13.3936 0.237915L9.84062 0.237915V1.05121ZM2.73557 15.0424C2.73668 24.3067 2.71148 23.7107 3.13473 24.4842C3.5386 25.2223 4.26186 25.7925 5.18647 26.1017L5.59368 26.2379L13.2112 26.2517C21.7461 26.2671 21.2629 26.2863 22.1065 25.8974C22.917 25.5238 23.5938 24.7993 23.9014 23.9759L24.0248 23.6455L24.0397 15.1949L24.0545 6.74426L13.3946 6.74426L2.73463 6.74426L2.73557 15.0424Z" fill="white"/>
</svg>
