<svg width="23" height="30" viewBox="0 0 23 30" fill="none" xmlns="http://www.w3.org/2000/svg">
<path fill-rule="evenodd" clip-rule="evenodd" d="M6.55905 0.821114L5.75156 1.64223H2.87575H0V3.31378V4.98534H11.5H23V3.31378V1.64223H20.1242H17.2484L16.441 0.821114L15.6335 0H11.5H7.36653L6.55905 0.821114ZM1.63115 16.9941L1.64698 27.3021L1.78181 27.6833C2.17356 28.7908 2.89517 29.5128 3.98744 29.8902C4.29135 29.9952 4.62063 30 11.5 30C18.3794 30 18.7087 29.9952 19.0126 29.8902C20.1048 29.5128 20.8264 28.7908 21.2182 27.6833L21.353 27.3021L21.3688 16.9941L21.3847 6.68622H11.5H1.61532L1.63115 16.9941Z" fill="white"/>
</svg>
