<svg width="32" height="36" viewBox="0 0 32 36" fill="none" xmlns="http://www.w3.org/2000/svg">
<g opacity="0.1">
<path d="M30.1589 26.5103C30.8063 25.2241 31.1529 23.8041 31.1529 22.3597C31.1529 17.563 31.2147 17.5737 30.9717 17.0198C30.8709 16.7896 30.7286 16.5726 30.5413 16.3798C29.9909 15.8137 29.1441 15.5539 28.3209 15.822C27.4461 12.8598 25.9874 10.7024 23.9973 8.7122C23.1901 7.9047 21.9052 7.86598 21.0516 8.59547C19.8917 7.6045 18.1262 8.10218 17.5947 9.48096C16.1857 9.71937 15.0075 11.4264 16.4225 13.1595C16.5757 13.3473 16.7188 13.5187 16.8608 13.686C15.9435 14.4671 15.7784 15.7118 16.7309 16.8783C17.6497 18.0681 18.1149 19.2472 18.1149 20.3895V24.0158C18.1149 26.1164 18.584 28.1173 19.9002 29.5735C20.5561 30.2994 20.9401 31.2264 21.0021 32.1976H20.9206C20.3605 32.1976 19.9065 32.6513 19.9065 33.2114V34.9859C19.9065 35.546 20.3605 36 20.9206 36H29.3789C29.9389 36 30.393 35.546 30.393 34.9859V33.2114C30.393 32.6513 29.9389 32.1976 29.3789 32.1976H29.2913C29.2913 30.3352 29.2913 29.4211 29.2913 28.8171C29.291 27.6339 29.5039 27.8866 30.1589 26.5103Z" fill="white"/>
<path d="M21.9171 26.6928C21.9163 26.9691 22.1207 27.2135 22.395 27.2454C22.7244 27.2838 23.0037 27.0276 23.0037 26.706C23.0037 24.6092 24.7096 22.903 26.8066 22.903C27.6265 22.903 27.5443 21.8165 26.8511 21.8165C24.0331 21.8165 21.924 24.067 21.9171 26.6928Z" fill="white"/>
<path d="M23.5467 20.9329C24.1449 20.9329 24.628 20.4446 24.6214 19.8464C24.4954 16.8872 23.3286 14.1903 20.9237 11.7854C20.0294 10.8909 20.0845 9.42136 21.0516 8.59547C20.7354 8.32548 20.3744 8.16681 20.0058 8.10556C18.8621 9.41815 18.961 11.3592 20.1555 12.5536C22.2981 14.6963 23.4069 17.0869 23.5344 19.8464H22.444C22.2113 15.9484 19.518 13.5158 18.1052 11.7852C17.4806 11.0202 17.3161 10.1935 17.5976 9.47308C17.5965 9.47583 17.5956 9.47822 17.5947 9.48096C17.1366 9.55842 16.7031 9.79196 16.3748 10.1303C16.3507 11.5465 17.2224 12.4441 18.0033 13.3364C19.4183 14.9542 21.1586 16.9452 21.3549 19.8464H20.2651C20.0569 17.2149 18.3888 15.4537 16.8608 13.686C16.5752 13.9293 16.3617 14.2181 16.2328 14.5356C17.5803 16.2019 18.9879 17.6617 19.1813 19.9505C19.2283 20.5067 19.6941 20.9329 20.2519 20.9329H23.5467Z" fill="white"/>
<path d="M30.1589 26.5103C30.8063 25.2241 31.1529 23.8041 31.1529 22.3597C31.1529 17.563 31.2147 17.5737 30.9717 17.0198C30.7794 16.5811 30.456 16.236 30.0655 16.0097C29.3975 16.3942 28.9795 17.1034 28.9795 17.8908V22.3598C28.9795 23.6498 28.6199 24.9218 27.9399 26.038C27.4051 26.9158 27.1225 27.9252 27.1225 28.9565V32.1978H28.2195V33.8273H26.7413V32.1975H25.6547V33.8273H24.644V32.1975H23.5574V33.8273H22.5464V32.1975H21.4601V33.8273H19.9061L19.9065 34.9859C19.9065 35.546 20.3605 36 20.9206 36H29.3789C29.9389 36 30.393 35.546 30.393 34.9859V33.2114C30.393 32.6513 29.9389 32.1976 29.3789 32.1976H29.2913C29.2913 31.8576 29.2913 29.2445 29.2913 28.8171C29.291 27.6583 29.5044 27.8855 30.1589 26.5103Z" fill="white"/>
<path d="M26.0854 15.9793C26.2738 16.5253 26.4097 16.9197 26.6484 17.2073C26.7069 17.2778 26.7819 17.3306 26.8646 17.3638C27.0392 16.6217 27.5941 16.0268 28.3123 15.7952C27.4364 12.8468 25.9814 10.6963 23.9973 8.7122C23.4287 8.14365 22.6236 7.95705 21.899 8.15041C21.698 8.89473 21.9037 9.69206 22.4601 10.2491C24.9785 12.7671 25.6714 14.7776 26.0854 15.9793Z" fill="white"/>
<path d="M14.2923 5.6105C14.4341 5.44323 14.5772 5.27185 14.7307 5.08398C16.1455 3.35089 14.9672 1.6439 13.5582 1.40549C13.0267 0.0267138 11.2615 -0.47124 10.1014 0.519724C9.24772 -0.209491 7.96314 -0.17104 7.15565 0.636728C5.16548 2.6269 3.70705 4.78406 2.83199 7.74651C1.44937 7.29635 0 8.33428 0 9.81496V14.2842C0 15.8632 0.41281 17.3238 1.05661 18.557C1.53534 19.4749 1.77017 20.5008 1.77017 21.536V24.1232H1.75369C1.19366 24.1232 0.739653 24.5775 0.739653 25.1375V26.9121C0.739653 27.4721 1.19366 27.9261 1.75369 27.9261H10.212C10.7721 27.9261 11.2261 27.4721 11.2261 26.9121V25.1375C11.2261 24.5775 10.7721 24.1232 10.212 24.1232H10.1409V23.9697C10.1409 23.1067 10.4889 22.2847 11.0929 21.6681C12.5312 20.1998 13.0383 18.1239 13.0383 15.9404C13.0383 15.1966 13.0383 13.0386 13.0383 12.3141C13.0383 11.1715 13.5033 9.99266 14.4223 8.80284C15.3745 7.6361 15.2094 6.39163 14.2923 5.6105Z" fill="white"/>
<path d="M2.17307 10.384V13.1973C2.17307 13.9037 2.19367 14.8274 3.23545 14.8274H4.34616C6.43878 14.8274 8.14194 16.5264 8.1488 18.6174C8.1499 18.8693 8.31195 19.0981 8.55667 19.1571C8.91565 19.2436 9.23535 18.9745 9.23535 18.6303C9.23535 15.9343 7.04221 13.7409 4.34616 13.7409V9.8149C4.34616 8.72945 3.54773 7.82363 2.49744 7.66708C2.48151 7.6646 2.3862 7.65307 2.39664 7.65444C2.09397 7.6245 1.79844 7.65005 1.49604 7.7503C1.36695 8.36086 1.50593 8.99175 1.87479 9.48833C2.06733 9.74761 2.17307 10.061 2.17307 10.384Z" fill="white"/>
<path d="M14.2923 5.6105C14.4341 5.44323 14.5772 5.27185 14.7307 5.08398C15.5105 4.12872 15.5736 3.07736 14.9466 2.25696C14.5096 2.43631 14.225 2.88785 14.2797 3.38086C14.3503 4.01779 13.84 4.47592 12.337 6.20736C10.6394 8.16237 9.7786 10.2171 9.7786 12.3141H8.69206C8.69206 8.09645 11.5699 5.51934 13.0473 3.7099C13.7155 2.89114 13.8573 2.00208 13.4895 1.24814C13.0237 1.32889 12.649 1.70847 12.596 2.20175C12.4436 3.61734 7.60551 6.48998 7.60551 12.3141H6.51924C6.51924 9.14097 7.67747 6.26119 10.2288 3.7099C11.1316 2.8071 11.0681 1.31845 10.0747 0.496954C9.68357 0.781224 9.51713 1.3028 9.70307 1.77329C9.8621 2.17648 9.76707 2.63489 9.46055 2.94168C6.67387 5.72808 5.4327 8.89296 5.4327 12.3141C5.4327 13.1784 6.15312 13.8247 6.97462 13.8247C10.6152 13.8247 10.535 13.7761 10.8723 13.9708C10.872 16.6413 11.0423 19.2423 8.93568 20.6469C8.32978 21.0507 7.96806 21.7266 7.96806 22.455V24.1235H9.05323V25.7534H7.57502V24.1235H6.48848V25.7534H5.47774V24.1235H4.39119V25.7534H3.38018V24.1235H2.29364V25.7534H0.739624L0.739653 26.9121C0.739653 27.4721 1.19366 27.9261 1.75369 27.9261H10.212C10.7721 27.9261 11.2261 27.4721 11.2261 26.9121V25.1375C11.2261 24.5775 10.7721 24.1232 10.212 24.1232H10.1409C10.1412 23.9128 10.1417 23.8802 10.1447 23.8173C10.1843 22.9906 10.5529 22.2133 11.0703 21.698C13.3434 19.434 13.0382 16.0324 13.0382 13.2814C13.0366 13.2814 13.0349 13.282 13.0333 13.282C13.0138 11.8376 13.002 10.6417 14.4223 8.80284C15.3772 7.63253 15.2067 6.3886 14.2923 5.6105ZM13.5623 8.13875C12.4936 9.52275 11.9517 10.9276 11.9517 12.3141H10.8651C10.8651 9.82707 12.1791 8.04536 13.5848 6.42901C14.1594 7.00386 14.066 7.50484 13.5623 8.13875Z" fill="white"/>
</g>
</svg>
