<svg width="29" height="39" viewBox="0 0 29 39" fill="none" xmlns="http://www.w3.org/2000/svg">
<path fill-rule="evenodd" clip-rule="evenodd" d="M13.4503 0.0257729C11.8822 0.227358 10.3806 0.793779 9.07231 1.67732C8.34495 2.1686 7.01456 3.51187 6.52799 4.24626C5.83437 5.29329 5.36192 6.3932 5.05493 7.67588C4.91491 8.26082 4.89657 8.62871 4.86607 11.4675L4.83233 14.6113H4.02428C3.54232 14.6113 3.03726 14.6584 2.77262 14.728C1.47068 15.0704 0.467884 16.0862 0.126925 17.4078C-0.0423084 18.0637 -0.0423084 35.5473 0.126925 36.2032C0.467884 37.5248 1.47068 38.5406 2.77262 38.8831C3.16143 38.9853 4.61215 38.9997 14.5071 38.9997C26.9329 38.9997 26.2011 39.0269 27.1226 38.531C27.9896 38.0645 28.7362 37.0296 28.9229 36.0357C28.9725 35.7714 28.9999 32.4635 28.9999 26.735C28.9999 17.0599 29.0163 17.4527 28.5766 16.5767C28.307 16.0394 27.6514 15.3646 27.1226 15.08C26.4828 14.7357 25.917 14.6113 24.9899 14.6113H24.1819L24.1482 11.4675C24.1177 8.62871 24.0993 8.26082 23.9593 7.67588C23.4912 5.72039 22.6774 4.24314 21.3104 2.86717C19.9085 1.45623 18.4433 0.635788 16.5452 0.198854C15.915 0.0538195 14.0457 -0.0507457 13.4503 0.0257729ZM15.7921 3.36355C16.5027 3.51568 17.415 3.89027 17.9723 4.25884C19.4393 5.22896 20.5323 6.86489 20.8414 8.55264C20.8907 8.82175 20.9232 10.1157 20.9232 11.8054V14.6113H14.5071H8.09103L8.09231 11.7724C8.09374 8.67215 8.11918 8.41759 8.53524 7.33109C9.29212 5.35464 11.0723 3.83783 13.1862 3.3682C13.7874 3.23468 15.1783 3.23216 15.7921 3.36355Z" fill="black"/>
<path fill-rule="evenodd" clip-rule="evenodd" d="M13.4503 0.0257729C11.8822 0.227358 10.3806 0.793779 9.07231 1.67732C8.34495 2.1686 7.01456 3.51187 6.52799 4.24626C5.83437 5.29329 5.36192 6.3932 5.05493 7.67588C4.91491 8.26082 4.89657 8.62871 4.86607 11.4675L4.83233 14.6113H4.02428C3.54232 14.6113 3.03726 14.6584 2.77262 14.728C1.47068 15.0704 0.467884 16.0862 0.126925 17.4078C-0.0423084 18.0637 -0.0423084 35.5473 0.126925 36.2032C0.467884 37.5248 1.47068 38.5406 2.77262 38.8831C3.16143 38.9853 4.61215 38.9997 14.5071 38.9997C26.9329 38.9997 26.2011 39.0269 27.1226 38.531C27.9896 38.0645 28.7362 37.0296 28.9229 36.0357C28.9725 35.7714 28.9999 32.4635 28.9999 26.735C28.9999 17.0599 29.0163 17.4527 28.5766 16.5767C28.307 16.0394 27.6514 15.3646 27.1226 15.08C26.4828 14.7357 25.917 14.6113 24.9899 14.6113H24.1819L24.1482 11.4675C24.1177 8.62871 24.0993 8.26082 23.9593 7.67588C23.4912 5.72039 22.6774 4.24314 21.3104 2.86717C19.9085 1.45623 18.4433 0.635788 16.5452 0.198854C15.915 0.0538195 14.0457 -0.0507457 13.4503 0.0257729ZM15.7921 3.36355C16.5027 3.51568 17.415 3.89027 17.9723 4.25884C19.4393 5.22896 20.5323 6.86489 20.8414 8.55264C20.8907 8.82175 20.9232 10.1157 20.9232 11.8054V14.6113H14.5071H8.09103L8.09231 11.7724C8.09374 8.67215 8.11918 8.41759 8.53524 7.33109C9.29212 5.35464 11.0723 3.83783 13.1862 3.3682C13.7874 3.23468 15.1783 3.23216 15.7921 3.36355Z" fill="#DB121B"/>
</svg>
