<svg width="36" height="36" viewBox="0 0 36 36" fill="none" xmlns="http://www.w3.org/2000/svg">
<g opacity="0.1">
<path d="M35.1863 17.0435C34.7044 16.9322 34.2172 17.164 34.0009 17.6017C32.906 19.8089 30.5243 21.2344 28.0401 21.2344H22.2188C21.4638 21.2344 20.7191 21.4023 20.0095 21.7298C19.2009 22.0985 18.516 22.6609 18.0011 23.3479C17.4881 22.665 16.8114 22.1089 16.0184 21.7535C15.3551 21.4095 14.6021 21.2344 13.7812 21.2344H7.95987C5.47552 21.2344 3.09403 19.8089 1.9992 17.6017C1.78291 17.1639 1.29059 16.9353 0.813727 17.0435C0.336797 17.1547 0 17.58 0 18.0703V26.5078C0 31.7421 4.32823 36 9.5625 36C14.1613 36 16.7537 33.9545 18 32.5321C19.2463 33.9545 21.8387 36 26.4375 36C31.6718 36 36 31.7421 36 26.5078V18.0703C36 17.58 35.6632 17.1547 35.1863 17.0435ZM9.5625 31.7813C6.65487 31.7813 4.28906 29.4155 4.28906 26.5078C4.28906 25.9249 4.76079 25.4531 5.34375 25.4531H13.7812C14.3642 25.4531 14.8359 25.9249 14.8359 26.5078C14.8359 29.4155 12.4701 31.7813 9.5625 31.7813ZM26.4375 31.7813C23.5299 31.7813 21.1641 29.4155 21.1641 26.5078C21.1641 25.9249 21.6358 25.4531 22.2188 25.4531H30.6562C31.2392 25.4531 31.7109 25.9249 31.7109 26.5078C31.7109 29.4155 29.3451 31.7813 26.4375 31.7813Z" fill="white"/>
<path d="M34.9453 7.80469C31.2115 7.80469 27.6549 9.13268 24.8886 11.3883L24.8673 11.4057C24.9992 13.3857 24.8176 15.8716 24.3055 19.125H26.4731L26.9925 18.3516C28.1347 16.6506 29.8124 15.3274 31.7974 14.6457C34.2694 13.8053 36 11.4796 36 8.85938C36 8.27641 35.5283 7.80469 34.9453 7.80469Z" fill="white"/>
<path d="M16.9354 19.8532C17.306 20.0232 17.6617 20.2257 17.9985 20.4577C18.3553 20.2096 18.7343 19.9932 19.1305 19.8122C20.105 19.3633 21.1272 19.1327 22.1694 19.1256C22.7565 15.4949 22.927 12.8344 22.705 10.9014C22.4209 8.42773 21.5185 7.38443 20.7224 6.46397C19.8253 5.427 19.0507 4.53136 19.0507 1.05469C19.0507 0.472219 18.5785 0 17.996 0C17.4135 0 16.9413 0.472219 16.9413 1.05469C16.9413 4.52215 16.1675 5.40042 15.2715 6.41749C14.4697 7.32755 13.5609 8.35903 13.2759 10.8399C13.0532 12.7793 13.2269 15.4593 13.8217 19.1256C14.9463 19.1313 15.9935 19.3757 16.9354 19.8532Z" fill="white"/>
<path d="M1.05469 7.80469C4.78849 7.80469 8.34511 9.13268 11.1114 11.3883L11.1326 11.4057C11.0008 13.3857 11.1824 15.8716 11.6944 19.125H9.52685L9.00752 18.3516C7.8653 16.6506 6.18757 15.3274 4.20258 14.6457C1.7306 13.8053 0 11.4796 0 8.85938C0 8.27641 0.471727 7.80469 1.05469 7.80469Z" fill="white"/>
</g>
</svg>
