<svg width="45" height="42" viewBox="0 0 45 42" fill="none" xmlns="http://www.w3.org/2000/svg">
<path fill-rule="evenodd" clip-rule="evenodd" d="M16.4483 0.0755444C14.8263 0.393286 13.5771 1.75472 13.3107 3.49494C13.2673 3.77774 13.1807 3.86523 12.4941 4.3189C12.0717 4.59802 11.4291 5.06386 11.0662 5.35419C10.7033 5.64452 10.3922 5.89211 10.3749 5.90454C10.3576 5.91689 10.6149 6.19671 10.9468 6.52628C11.2786 6.85584 11.6491 7.29059 11.77 7.49246C11.891 7.69425 12.0218 7.86039 12.0606 7.8617C12.0995 7.86301 12.3964 7.65352 12.7204 7.39621C13.0446 7.13899 13.488 6.80863 13.7062 6.6622L14.1027 6.39604L14.536 6.78656C16.8967 8.91407 20.5926 7.62874 21.1136 4.49905C21.5495 1.88058 19.0983 -0.443632 16.4483 0.0755444ZM26.9994 0.0765954C26.4572 0.182568 25.6047 0.603128 25.173 0.977534C24.4945 1.56634 23.9986 2.51124 23.869 3.46315L23.8062 3.92295H25.1342C26.2712 3.92295 26.4621 3.90359 26.4621 3.78808C26.4621 3.71389 26.5418 3.49766 26.6392 3.30761C26.8383 2.91902 27.3452 2.60924 27.7817 2.60924C28.4511 2.60924 29.1014 3.25655 29.1014 3.92295C29.1014 4.35752 28.7902 4.86207 28.3998 5.06036C28.2089 5.15731 27.9917 5.23665 27.9172 5.23665C27.8012 5.23665 27.7817 5.42592 27.7817 6.55036C27.7817 8.04404 27.719 7.94989 28.5912 7.76554C29.2284 7.63084 29.9515 7.25407 30.4703 6.78656L30.9035 6.39604L31.3001 6.6622C31.5182 6.80863 31.9617 7.13899 32.2858 7.39621C32.6098 7.65352 32.9068 7.86301 32.9456 7.8617C32.9844 7.86039 33.1153 7.69425 33.2362 7.49246C33.3572 7.29059 33.7277 6.85584 34.0595 6.52628C34.3914 6.19671 34.6487 5.91689 34.6314 5.90454C34.614 5.89211 34.3029 5.64452 33.94 5.35419C33.5771 5.06386 32.9346 4.59802 32.5122 4.3189C31.8256 3.86523 31.739 3.77774 31.6956 3.49494C31.4779 2.07343 30.6461 0.928402 29.4277 0.373055C28.6326 0.0107349 27.8347 -0.0867419 26.9994 0.0765954ZM17.8427 2.78554C18.233 2.98383 18.5442 3.48838 18.5442 3.92295C18.5442 4.58935 17.894 5.23665 17.2246 5.23665C16.5552 5.23665 15.9049 4.58935 15.9049 3.92295C15.9049 3.50178 16.2163 2.98505 16.5877 2.78983C17.0122 2.56677 17.4092 2.56545 17.8427 2.78554ZM5.43576 7.30898C4.85652 7.42336 3.95125 7.96014 3.47635 8.47073C2.32113 9.71289 2.05782 11.289 2.76533 12.7273L2.996 13.1963L3.71001 13.147C4.97898 13.0593 6.31948 13.4126 7.42631 14.1264C7.75894 14.3409 8.08331 14.5173 8.14718 14.5183C8.49372 14.5239 9.50941 13.5782 9.83113 12.9504C10.8415 10.9789 10.045 8.62742 8.03132 7.63671C7.3949 7.32361 7.28774 7.29882 6.50132 7.28279C6.03619 7.27325 5.55672 7.28507 5.43576 7.30898ZM37.2837 7.48256C36.5714 7.77701 36.1045 8.11008 35.6695 8.63407C34.1903 10.4156 34.5108 12.9914 36.3702 14.2649C36.5753 14.4053 36.7952 14.5193 36.8591 14.5183C36.923 14.5173 37.2473 14.3409 37.58 14.1264C38.6896 13.4108 40.0268 13.0593 41.3038 13.1475L42.0254 13.1974L42.2519 12.7366C43.1866 10.8346 42.3107 8.52022 40.2997 7.57829C39.766 7.32834 39.6043 7.29576 38.7787 7.27246C37.9418 7.24881 37.8013 7.26852 37.2837 7.48256ZM3.45629 15.8031C2.03477 16.0978 1.00387 16.8367 0.42208 17.9778C-0.340938 19.4742 -0.0565109 21.1388 1.17049 22.3581C1.46161 22.6474 1.8041 22.938 1.93158 23.0037C2.14492 23.1139 2.19498 23.1016 2.56404 22.8489C3.77855 22.017 5.04585 21.6524 6.47036 21.7247L7.38927 21.7714L7.60472 21.3027C8.6607 19.0066 7.2478 16.3088 4.74154 15.8357C4.26866 15.7464 3.78849 15.7342 3.45629 15.8031ZM40.1959 15.8355C39.0421 16.0774 37.9347 16.9404 37.4472 17.9775C36.9288 19.0804 36.9092 20.224 37.3906 21.2803L37.5961 21.731L38.8693 21.7433C40.0357 21.7545 40.1975 21.7762 40.8007 22.0028C41.3669 22.2155 41.8504 22.4721 42.7056 23.0137C42.8754 23.1212 42.9368 23.1009 43.3441 22.8034C44.9387 21.6381 45.4453 19.6667 44.5842 17.9778C44.1118 17.0512 43.1175 16.2211 42.1364 15.934C41.625 15.7844 40.671 15.736 40.1959 15.8355ZM5.32543 24.4243C4.51324 24.6148 3.58192 25.2824 3.04562 26.0584C2.72266 26.5257 2.47069 27.2411 2.39521 27.9057C2.16902 29.8956 3.8711 31.9607 5.85364 32.1019L6.45522 32.1448L6.62731 31.7628C7.26065 30.3572 8.50894 29.1175 9.88058 28.5322C10.2342 28.3813 10.2744 28.3344 10.2744 28.0729C10.2744 27.637 10.035 26.8061 9.76938 26.3202C9.32923 25.5153 8.47824 24.8166 7.56469 24.5102C6.98845 24.3169 5.95226 24.2771 5.32543 24.4243ZM37.4297 24.5053C36.1261 24.9657 35.2105 25.9519 34.8667 27.2662C34.7925 27.5497 34.7318 27.9079 34.7318 28.0621C34.7318 28.3235 34.776 28.3644 35.3797 28.6613C36.6129 29.268 37.6762 30.3283 38.2638 31.5375L38.5587 32.1442L39.1564 32.1017C41.1351 31.9607 42.837 29.8936 42.6111 27.9057C42.4451 26.4456 41.6051 25.2661 40.2976 24.657C39.7947 24.4227 39.5993 24.3825 38.8302 24.3554C38.1013 24.3296 37.8514 24.3563 37.4297 24.5053ZM11.7855 30.6411C10.5722 30.8788 9.50342 31.7681 8.95093 32.9996C8.76205 33.4207 8.73486 33.608 8.73486 34.4885C8.73486 35.4732 8.74217 35.5105 9.06249 36.1629C10.5393 39.1701 14.7628 39.1215 16.1956 36.0807C16.4301 35.5829 16.4762 35.3716 16.5048 34.6637C16.5325 33.9804 16.5044 33.7312 16.3478 33.2696C15.691 31.3339 13.8026 30.2459 11.7855 30.6411ZM31.3792 30.6743C30.1301 31.0172 29.0843 32.0149 28.6585 33.2696C28.5019 33.7312 28.4738 33.9804 28.5014 34.6637C28.5301 35.3747 28.5757 35.5821 28.8151 36.0902C29.1809 36.8665 29.9298 37.6497 30.6384 37.997C32.6347 38.9754 35.0203 38.1252 35.9886 36.0902C36.256 35.528 36.2714 35.4409 36.2714 34.4885C36.2714 33.608 36.2442 33.4207 36.0553 32.9996C35.6543 32.1057 34.9867 31.3828 34.1873 30.9768C33.387 30.5704 32.2169 30.4444 31.3792 30.6743ZM21.7209 34.2329C19.7226 34.6235 18.2839 36.6715 18.6141 38.6554C18.9001 40.3735 20.1986 41.6661 21.9244 41.9509C24.4683 42.3705 26.8137 40.0357 26.3922 37.5032C26.0207 35.2716 23.9223 33.8026 21.7209 34.2329Z" fill="white" fill-opacity="0.1"/>
</svg>
