<svg width="19" height="36" viewBox="0 0 19 36" fill="none" xmlns="http://www.w3.org/2000/svg">
<g opacity="0.1">
<path d="M18.1297 0.000187963H10.9367V2.67438H18.2907V0.161204C18.2907 0.0722583 18.2187 0.000187963 18.1297 0.000187963Z" fill="white"/>
<path d="M0 0.161204V2.67445L10.9367 2.67438V0.000187963H0.161016C0.0720704 0.000187963 0 0.0722583 0 0.161204Z" fill="white"/>
<path d="M15.3931 0.000187963C15.3826 0.678774 14.8293 1.22573 14.1482 1.22573H10.9366L10.9367 2.67438H18.2907V0.161204C18.2907 0.0722583 18.2187 0.000187963 18.1297 0.000187963H15.3931Z" fill="white"/>
<path d="M8.04002 0.000187963V0.377766C8.04002 0.846047 7.66041 1.22573 7.19205 1.22573H0V2.67445L10.9367 2.67438V0.000187963H8.04002Z" fill="white"/>
<path d="M2.92944 0.000187963H4.7674V2.67438H2.92944V0.000187963Z" fill="white"/>
<path d="M2.92944 1.22557H4.7674V2.67438H2.92944V1.22557Z" fill="white"/>
<path d="M15.3614 2.6742H13.5235V0H15.3614V2.6742Z" fill="white"/>
<path d="M14.1482 1.22573L13.5241 1.22584L13.5235 2.6742H15.3614L15.362 0.26284C15.2342 0.814582 14.7387 1.22573 14.1482 1.22573Z" fill="white"/>
<path d="M0 2.67445L0.494367 35.8413C0.495703 35.9293 0.567352 35.9999 0.655312 35.9999H6.25598C6.34275 35.9999 6.41391 35.9311 6.41686 35.8444L6.90089 21.7367C7.00882 18.5909 7.51591 15.4715 8.41001 12.4535L9.14569 9.97045L9.87897 12.4442C10.7741 15.4637 11.2818 18.5848 11.3899 21.7324L11.8744 35.8445C11.8774 35.9312 11.9486 36 12.0353 36H17.636C17.724 36 17.7957 35.9294 17.7969 35.8414L18.2907 2.67438L0 2.67445Z" fill="white"/>
<path d="M9.14569 9.97045L8.41001 12.4535C7.51591 15.4715 7.00882 18.5909 6.90089 21.7367L6.41686 35.8444C6.41391 35.9311 6.34275 35.9999 6.25598 35.9999H0.655312C0.567352 35.9999 0.495703 35.9293 0.494367 35.8413L0.475349 34.5517H0.870294C2.34503 34.5517 3.55454 33.3831 3.6051 31.9092L4.00377 20.2886C4.12879 16.6451 4.7519 13.7579 5.32262 11.6739C5.7722 10.0321 7.61548 9.20531 9.14569 9.97045Z" fill="white"/>
<path d="M15.3724 2.6742L14.9374 31.8556C14.9152 33.3508 13.6967 34.5513 12.2013 34.5513H11.83L11.8744 35.8445C11.8774 35.9312 11.9486 36 12.0353 36H17.636C17.724 36 17.7957 35.9294 17.7969 35.8414L18.2907 2.67438L15.3724 2.6742Z" fill="white"/>
<path d="M18.2066 8.36468L16.6116 6.76971C15.5531 5.71122 14.9152 4.24908 14.9152 2.67429L18.2907 2.67438L18.2066 8.36468Z" fill="white"/>
<path d="M16.6116 6.76971L18.2066 8.36468L18.2907 2.67438L15.3724 2.6742L15.34 4.85144C15.6285 5.56272 16.0583 6.21642 16.6116 6.76971Z" fill="white"/>
<path d="M0.0847971 8.36466L1.67984 6.76962C2.73833 5.71113 3.3762 4.24898 3.3762 2.6742L0 2.67445L0.0847971 8.36466Z" fill="white"/>
<path d="M8.60182 11.8042L9.14569 9.97045L9.68828 11.8031V2.6742H8.60182V11.8042Z" fill="white"/>
<path d="M8.60182 9.76724V11.8042L9.14569 9.97045C9.13655 9.97038 8.93137 9.85183 8.60182 9.76724Z" fill="white"/>
<path d="M16.0101 33.646C11.6448 33.646 11.8154 33.6458 11.7984 33.6463L11.8357 34.7325H16.01C16.3101 34.7325 16.5533 34.4893 16.5533 34.1893C16.5533 33.8892 16.3101 33.646 16.0101 33.646Z" fill="white"/>
<path d="M16.0101 33.646L14.235 33.646C13.7338 34.2023 13.0079 34.5513 12.2013 34.5513H11.83L11.8357 34.7325H16.01C16.3101 34.7325 16.5533 34.4893 16.5533 34.1893C16.5533 33.8892 16.3101 33.646 16.0101 33.646Z" fill="white"/>
<path d="M6.49238 33.6463C6.47502 33.6458 6.12697 33.646 2.28087 33.646C1.98085 33.646 1.73764 33.8892 1.73764 34.1892C1.73764 34.4892 1.98085 34.7324 2.28087 34.7324H6.45512L6.49238 33.6463Z" fill="white"/>
<path d="M6.49238 33.6463C6.31463 33.6403 7.2735 33.6461 2.90372 33.6461C2.60025 33.9828 2.21451 34.2435 1.77872 34.3968C1.86028 34.5939 2.05433 34.7324 2.28087 34.7324H6.45512L6.49238 33.6463Z" fill="white"/>
<path d="M9.15036 7.84378C10.1345 7.84378 10.9371 7.04651 10.9371 6.057L10.9367 2.67438L9.14544 2.6742L9.15036 7.84378Z" fill="white"/>
<path d="M9.15036 7.84378C9.33795 7.84378 9.5188 7.81481 9.68874 7.76123L9.68828 2.6742H9.14544C9.15043 7.97281 9.14333 7.84378 9.15036 7.84378Z" fill="white"/>
</g>
</svg>
