<svg width="31" height="31" viewBox="0 0 31 31" fill="none" xmlns="http://www.w3.org/2000/svg">
<g opacity="0.1">
<path d="M24.8637 6.3104C22.7706 7.38906 20.7949 8.6816 18.9681 10.1673C18.3287 10.6797 17.5336 10.9587 16.7142 10.9581C16.253 10.9598 15.7961 10.8704 15.3696 10.695C14.9431 10.5196 14.5555 10.2617 14.229 9.93601C13.8706 9.567 13.5954 9.12557 13.4219 8.64137C13.2483 8.15718 13.1804 7.64143 13.2226 7.12881C13.2649 6.61618 13.4165 6.11854 13.6671 5.66934C13.9176 5.22014 14.2615 4.82978 14.6755 4.5245C19.6136 0.769794 23.917 -0.983836 25.4608 0.560004C25.8186 0.896462 26.0877 1.31602 26.2444 1.78145C26.4012 2.24688 26.4406 2.74379 26.3592 3.2281C26.1978 4.12321 25.42 5.16463 24.8637 6.3104Z" fill="white"/>
<path d="M10.1673 18.9679C8.6816 20.7947 7.38907 22.7704 6.31041 24.8635C5.16463 25.4197 4.12321 26.1976 3.2281 26.359C2.74379 26.4403 2.24688 26.4009 1.78145 26.2442C1.31602 26.0875 0.896463 25.8184 0.560004 25.4606C-0.983836 23.9168 0.769794 19.6134 4.5245 14.6752C4.86596 14.22 5.30854 13.8504 5.81732 13.5956C6.32609 13.3407 6.88714 13.2076 7.45618 13.2067C7.91659 13.2046 8.37285 13.2938 8.79852 13.4692C9.2242 13.6447 9.61083 13.9028 9.93601 14.2288C10.5492 14.8528 10.9116 15.6804 10.9543 16.5543C10.9969 17.4281 10.7168 18.2871 10.1673 18.9679Z" fill="white"/>
<path d="M25.2591 0.359213L30.4108 5.5109C32.5442 7.64485 28.7018 14.9472 21.8245 21.8245C14.9471 28.7019 7.64484 32.5442 5.5109 30.4108L0.359205 25.2591C1.34683 26.2462 3.45011 25.9547 6.10799 24.662C9.17738 23.1725 12.9853 20.3587 16.6728 16.6728C20.3603 12.987 23.1725 9.17739 24.662 6.108C25.9547 3.45012 26.2462 1.34684 25.2591 0.359213Z" fill="white"/>
<path d="M19.9739 18.4514H18.9238C18.663 18.4514 18.4515 18.6629 18.4515 18.9237V19.9737C18.4515 20.2346 18.663 20.446 18.9238 20.446H19.9739C20.2347 20.446 20.4462 20.2346 20.4462 19.9737V18.9237C20.4462 18.6629 20.2347 18.4514 19.9739 18.4514Z" fill="white"/>
<path d="M14.822 22.7446H13.772C13.5111 22.7446 13.2997 22.956 13.2997 23.2169V24.2669C13.2997 24.5277 13.5111 24.7392 13.772 24.7392H14.822C15.0829 24.7392 15.2943 24.5277 15.2943 24.2669V23.2169C15.2943 22.956 15.0829 22.7446 14.822 22.7446Z" fill="white"/>
<path d="M9.67056 26.1792H8.62053C8.35969 26.1792 8.14824 26.3907 8.14824 26.6515V27.7016C8.14824 27.9624 8.35969 28.1739 8.62053 28.1739H9.67056C9.9314 28.1739 10.1429 27.9624 10.1429 27.7016V26.6515C10.1429 26.3907 9.9314 26.1792 9.67056 26.1792Z" fill="white"/>
<path d="M24.2662 13.2996H23.2162C22.9553 13.2996 22.7439 13.5111 22.7439 13.7719V14.822C22.7439 15.0828 22.9553 15.2943 23.2162 15.2943H24.2662C24.527 15.2943 24.7385 15.0828 24.7385 14.822V13.7719C24.7385 13.5111 24.527 13.2996 24.2662 13.2996Z" fill="white"/>
<path d="M27.7009 8.14857H26.6508C26.39 8.14857 26.1785 8.36003 26.1785 8.62087V9.6709C26.1785 9.93174 26.39 10.1432 26.6508 10.1432H27.7009C27.9617 10.1432 28.1731 9.93174 28.1731 9.6709V8.62087C28.1731 8.36003 27.9617 8.14857 27.7009 8.14857Z" fill="white"/>
</g>
</svg>
