<svg width="25" height="24" viewBox="0 0 25 24" fill="none" xmlns="http://www.w3.org/2000/svg">
<path fill-rule="evenodd" clip-rule="evenodd" d="M1.36532 0.053022C0.827458 0.220192 0.4436 0.541199 0.20833 1.0206L0.0585327 1.32574L0.0585327 12.0056L0.0585327 22.6855L0.20833 22.9907C0.398637 23.3785 0.699295 23.6701 1.09912 23.8547L1.41372 24H5.72231H10.0309L10.3528 23.8463C10.7515 23.6559 11.1149 23.285 11.2717 22.9084L11.384 22.6386L11.384 12.0056L11.384 1.37268L11.2717 1.10289C11.1149 0.726349 10.7515 0.355392 10.3528 0.164985L10.031 0.0112882L5.79495 0.00204011C2.46162 -0.00518937 1.51768 0.00565485 1.36532 0.053022ZM14.7928 0.0514728C14.2781 0.187284 13.7789 0.619832 13.5767 1.105C13.4678 1.36649 13.4652 1.41024 13.4652 2.99227C13.4652 4.57764 13.4676 4.61754 13.5776 4.88165C13.7343 5.25824 14.0978 5.62915 14.4965 5.81956L14.8184 5.97326L19.127 5.97326L23.4356 5.97326L23.7578 5.82515C24.1582 5.64117 24.446 5.3604 24.6409 4.96395L24.7907 4.65881V2.99227V1.32574L24.6409 1.0206C24.446 0.62415 24.1582 0.343375 23.7578 0.159399L23.4356 0.0112882L19.2248 0.00222789C15.9947 -0.00476687 14.9625 0.00673457 14.7928 0.0514728ZM14.7928 9.06484C14.2781 9.20066 13.7789 9.6332 13.5767 10.1184C13.4678 10.3799 13.4652 10.4236 13.4652 12.0056C13.4652 13.591 13.4676 13.6309 13.5776 13.895C13.7343 14.2716 14.0978 14.6425 14.4965 14.8329L14.8184 14.9866L19.127 14.9866H23.4356L23.7578 14.8385C24.1582 14.6545 24.446 14.3738 24.6409 13.9773L24.7907 13.6722V12.0056V10.3391L24.6409 10.034C24.446 9.63752 24.1582 9.35675 23.7578 9.17277L23.4356 9.02466L19.2248 9.0156C15.9947 9.0086 14.9625 9.02011 14.7928 9.06484ZM14.7928 18.0782C14.2781 18.214 13.7789 18.6466 13.5767 19.1317C13.4678 19.3932 13.4652 19.437 13.4652 21.019C13.4652 22.6044 13.4676 22.6443 13.5776 22.9084C13.7343 23.285 14.0978 23.6559 14.4965 23.8463L14.8184 24H19.127H23.4356L23.7578 23.8519C24.1582 23.6679 24.446 23.3871 24.6409 22.9907L24.7907 22.6855V21.019V19.3525L24.6409 19.0473C24.446 18.6509 24.1582 18.3701 23.7578 18.1861L23.4356 18.038L19.2248 18.029C15.9947 18.022 14.9625 18.0335 14.7928 18.0782Z" fill="white" fill-opacity="0.25"/>
</svg>
