<svg width="36" height="36" viewBox="0 0 36 36" fill="none" xmlns="http://www.w3.org/2000/svg">
<g opacity="0.1">
<path d="M35.373 16.3426H34.7625C34.1557 11.5494 29.6198 11.5457 28.0576 11.5457C27.6639 11.5457 27.2776 11.5562 26.9146 11.566C26.6056 11.5742 26.3131 11.5817 26.0439 11.5817C25.2309 11.5817 24.4974 11.6154 23.8262 11.6799C19.9818 10.3615 15.8066 10.3615 11.963 11.6799C11.291 11.6154 10.5583 11.5817 9.74454 11.5817C9.47602 11.5817 9.18283 11.5735 8.87458 11.566C8.51087 11.5555 8.12612 11.5457 7.73161 11.5457C6.16866 11.5457 1.63347 11.5502 1.02675 16.3426H0.625487C0.278994 16.3426 0 16.6238 0 16.9681C0 17.3146 0.278994 17.5936 0.625487 17.5936H0.95398C0.91348 20.169 2.10898 24.8542 7.00712 25.2719C7.10535 25.2862 7.31389 25.3087 7.60934 25.3087C8.77031 25.3087 11.8018 24.9434 14.9007 21.5662C15.1159 21.3487 16.4741 19.8922 17.0823 17.5936H18.7046C19.3143 19.8915 20.671 21.3487 20.887 21.5662C23.9852 24.9434 27.0166 25.3087 28.1776 25.3087C28.4746 25.3087 28.6824 25.2862 28.7814 25.2719C33.6781 24.8534 34.875 20.1682 34.833 17.5936H35.3737C35.7195 17.5936 36 17.3146 36 16.9681C35.9992 16.6238 35.7188 16.3426 35.373 16.3426ZM19.2678 13.3952C18.5959 14.1407 18.3273 15.0751 18.4481 16.2541C18.4511 16.2856 18.4593 16.3118 18.463 16.3426H17.3223C17.326 16.3119 17.3343 16.2856 17.3373 16.2541C17.458 15.0759 17.191 14.1414 16.5175 13.3952C16.0593 12.8874 15.4151 12.4974 14.5856 12.2057C16.7695 11.7752 19.0165 11.7752 21.1997 12.2057C20.3703 12.4974 19.7268 12.8881 19.2678 13.3952Z" fill="white"/>
<path d="M19.4682 16.1491C19.2822 14.3357 20.1221 12.6055 26.0433 12.6055C28.7605 12.6055 33.8087 11.83 33.8087 17.4594C33.8087 17.4594 34.0509 23.8177 28.6645 24.2542C28.6645 24.2542 25.2671 24.8362 21.6274 20.8576C21.6267 20.8575 19.7652 19.0471 19.4682 16.1491Z" fill="white"/>
<path d="M16.319 16.1491C16.505 14.3357 15.665 12.6055 9.74318 12.6055C7.02601 12.6055 1.97859 11.83 1.97859 17.4594C1.97859 17.4594 1.7356 23.8177 7.12276 24.2542C7.12276 24.2542 10.5187 24.8362 14.1598 20.8576C14.1605 20.8575 16.0205 19.0471 16.319 16.1491Z" fill="white"/>
<path d="M7.52416 12.5665L1.9968 18.0947C1.9743 17.7039 1.98105 17.4564 1.98105 17.4564C1.98105 17.209 1.98928 16.9764 2.01107 16.7582L6.12096 12.6565C6.58663 12.5973 7.05912 12.5741 7.52416 12.5665Z" fill="white"/>
<path d="M11.0185 12.6342L2.65694 20.9965C2.43194 20.4798 2.28197 19.954 2.18445 19.4815L9.06931 12.5967C9.30928 12.5967 9.53427 12.6042 9.74429 12.6042C10.2018 12.605 10.6218 12.6117 11.0185 12.6342Z" fill="white"/>
<path d="M25.3281 12.6114L19.9065 18.0338C19.7864 17.7188 19.6815 17.3731 19.6064 17.0056L23.9188 12.6932C24.3463 12.6572 24.8188 12.6264 25.3281 12.6114Z" fill="white"/>
<path d="M28.906 12.589L21.1662 20.3213C20.9412 20.0296 20.6562 19.6239 20.3937 19.1213L26.9268 12.589C27.5411 12.574 28.2161 12.5515 28.906 12.589Z" fill="white"/>
</g>
</svg>
