<svg width="20" height="35" viewBox="0 0 20 35" fill="none" xmlns="http://www.w3.org/2000/svg">
<path fill-rule="evenodd" clip-rule="evenodd" d="M5.05814 0.166428C4.47004 0.444856 4.41914 0.569369 3.74779 3.37245C3.42196 4.73301 3.15505 5.88467 3.15471 5.93164C3.15418 5.99947 4.56816 6.01711 10.0022 6.01711C13.7688 6.01711 16.8668 6.00056 16.8866 5.98039C16.9065 5.96015 16.6426 4.80535 16.3001 3.4141C15.602 0.578053 15.5588 0.472001 14.9812 0.179351L14.6272 0L10.0171 0.000683763L5.40689 0.00136753L5.05814 0.166428ZM3.16763 7.4537C1.99191 7.76891 0.988075 8.60297 0.432461 9.72625C-0.0238935 10.6491 -0.0134695 10.4521 0.00784852 17.7095L0.0269471 24.2394L0.17651 24.6838C0.611344 25.9764 1.55983 26.9611 2.86877 27.4788L3.32216 27.6582H10.0135H16.7048L17.1582 27.4788C18.487 26.9532 19.4475 25.944 19.8508 24.6496L20 24.171V17.5043V10.8376L19.8517 10.359C19.4515 9.06751 18.3671 7.95202 17.0747 7.50252L16.6375 7.35045L10.148 7.33629C3.93366 7.32269 3.63756 7.32768 3.16763 7.4537ZM6.23285 16.1746C7.20628 16.588 7.42067 17.8721 6.63372 18.5746C5.97697 19.1609 5.01268 19.027 4.51201 18.28C4.28013 17.934 4.22781 17.2978 4.40078 16.9272C4.73803 16.2046 5.53379 15.8777 6.23285 16.1746ZM10.5368 16.1746C11.5102 16.588 11.7246 17.8721 10.9377 18.5746C10.2809 19.1609 9.31664 19.027 8.81596 18.28C8.58409 17.934 8.53177 17.2978 8.70473 16.9272C9.04199 16.2046 9.83775 15.8777 10.5368 16.1746ZM14.8408 16.1746C15.8142 16.588 16.0286 17.8721 15.2416 18.5746C14.5849 19.1609 13.6206 19.027 13.1199 18.28C12.888 17.934 12.8357 17.2978 13.0087 16.9272C13.3459 16.2046 14.1417 15.8777 14.8408 16.1746ZM3.13541 29.0428C3.12075 29.0711 3.38376 30.2225 3.71988 31.6017C4.39103 34.3559 4.46682 34.5467 5.0034 34.8316C5.26755 34.9719 5.35578 34.9748 9.9126 34.9936C13.9303 35.0102 14.5889 34.9988 14.8218 34.9089C15.103 34.8004 15.3927 34.5622 15.5608 34.3014C15.6428 34.1741 16.8729 29.2558 16.8729 29.0551C16.8729 28.9787 3.17502 28.9664 3.13541 29.0428Z" fill="white" fill-opacity="0.1"/>
</svg>
