<svg width="30" height="30" viewBox="0 0 30 30" fill="none" xmlns="http://www.w3.org/2000/svg">
<path fill-rule="evenodd" clip-rule="evenodd" d="M7.70475 3.52414L0.617369 7.07344L15.0211 7.07678L29.4247 7.08012L22.3735 3.55486C17.0105 0.87364 15.2588 0.0230838 15.0572 0.00227419C14.803 -0.023987 14.5006 0.120918 7.70475 3.52414ZM0.0377288 8.99988C0.27242 10.0017 1.48537 11.8788 2.12113 12.2239L2.36408 12.3558H15H27.6359L27.8789 12.2239C28.5146 11.8788 29.7276 10.0017 29.9623 8.99988L30 8.83868H15H0L0.0377288 8.99988ZM3.51733 19.4193V24.7243H6.18295H8.84857V19.4193V14.1144H6.18295H3.51733V19.4193ZM12.3637 19.4193V24.7243H15H17.6363V19.4193V14.1144H15H12.3637V19.4193ZM21.1514 19.4193V24.7243H23.817H26.4827V19.4193V14.1144H23.817H21.1514V19.4193ZM1.61074 26.565C1.14838 26.767 0.00222623 28.5772 0.00222623 29.1053C0.00222623 29.4104 0.204579 29.7468 0.469383 29.882C0.699213 29.9993 0.784337 30 15 30C29.2157 30 29.3008 29.9993 29.5306 29.882C29.7974 29.7458 29.9978 29.4099 29.9978 29.099C29.9978 28.6639 28.9885 26.9876 28.5142 26.6351L28.3488 26.5122L15.069 26.4996C4.12954 26.4893 1.75767 26.5008 1.61074 26.565Z" fill="#5CFF80"/>
</svg>
