<svg width="27" height="27" viewBox="0 0 27 27" fill="none" xmlns="http://www.w3.org/2000/svg">
<path fill-rule="evenodd" clip-rule="evenodd" d="M11.3021 0.0613514C9.72344 0.465346 8.88116 2.28311 9.49044 3.97101C9.74402 4.67334 10.1869 5.30475 10.99 6.10871C12.0163 7.13602 13.1133 7.93368 13.5 7.93368C14.0258 7.93368 15.976 6.33926 16.8032 5.23309C17.5853 4.18725 17.8543 3.20867 17.6408 2.1873C17.2473 0.305824 15.3054 -0.579913 13.748 0.411748L13.5 0.569628L13.252 0.411748C12.6812 0.0482698 11.901 -0.0919207 11.3021 0.0613514ZM5.53448 6.42744C4.25308 6.70469 3.17367 7.59424 2.67986 8.78006C1.75275 11.0063 2.99405 13.516 5.34462 14.1677C5.79227 14.2918 6.86519 14.2901 7.31912 14.1646C8.29086 13.8957 9.09174 13.3102 9.6364 12.4704C10.8149 10.6534 10.3249 8.24938 8.52619 7.023C7.67361 6.44174 6.5251 6.2131 5.53448 6.42744ZM19.883 6.42744C18.6016 6.70469 17.5222 7.59424 17.0284 8.78006C16.1012 11.0063 17.3425 13.516 19.6931 14.1677C20.1408 14.2918 21.2137 14.2901 21.6676 14.1646C22.6394 13.8957 23.4402 13.3102 23.9849 12.4704C25.1634 10.6534 24.6734 8.24938 22.8747 7.023C22.0221 6.44174 20.8736 6.2131 19.883 6.42744ZM12.8142 13.5773C11.649 13.8295 10.6608 14.8312 10.4142 16.0104C10.2602 16.7468 10.3652 17.5031 10.7143 18.172C10.9668 18.6559 11.5826 19.2557 12.0757 19.4981C13.3422 20.1207 14.7383 19.892 15.7174 18.9016C16.1741 18.4396 16.4092 18.031 16.5609 17.4353C17.0647 15.4576 15.5123 13.4786 13.4736 13.4998C13.2995 13.5016 13.0028 13.5365 12.8142 13.5773ZM1.62799 14.3385C0.918005 15.0513 0.445666 15.8907 0.136856 16.9885C0.0271326 17.3787 0.024284 17.485 0.00787818 21.8736C-0.00873865 26.3127 -0.00778911 26.3622 0.0995081 26.5733C0.17009 26.7122 0.280658 26.824 0.416177 26.8934C0.618322 26.9969 0.72103 27 3.95445 27H7.28457L7.24036 26.7749C7.21604 26.6511 7.19616 25.3939 7.19616 23.9812C7.19616 21.461 7.19848 21.4037 7.31891 20.9465C7.56969 19.9944 7.95336 19.268 8.60758 18.5067C8.8341 18.2431 8.95728 18.057 8.93823 18.0072C8.92151 17.9635 8.87013 17.7108 8.82397 17.4457C8.72892 16.9 8.75223 16.1155 8.8792 15.5871C8.92109 15.4126 8.94968 15.264 8.94261 15.2569C8.9356 15.2499 8.73994 15.3245 8.50783 15.4228C7.70875 15.7611 7.24791 15.8492 6.29938 15.8448C5.62115 15.8416 5.37733 15.8195 5.05807 15.7322C4.01944 15.4479 3.18501 14.9851 2.47381 14.2989C2.25695 14.0896 2.07211 13.9184 2.06298 13.9184C2.05391 13.9184 1.85815 14.1075 1.62799 14.3385ZM24.4988 14.3087C23.8409 14.9708 22.9873 15.4461 21.9419 15.7322C21.6227 15.8195 21.3789 15.8416 20.7006 15.8448C19.7521 15.8492 19.2913 15.7611 18.4922 15.4228C18.2601 15.3245 18.0644 15.2499 18.0574 15.2569C18.0503 15.264 18.0789 15.4126 18.1208 15.5871C18.2478 16.1155 18.2711 16.9 18.176 17.4457C18.1299 17.7108 18.0786 17.9631 18.062 18.0064C18.0433 18.0555 18.1771 18.2554 18.4167 18.5366C19.1586 19.4068 19.6418 20.4566 19.7771 21.492C19.8431 21.9968 19.8227 26.6076 19.7533 26.8544L19.7124 27H23.044C26.279 27 26.3817 26.9969 26.5838 26.8934C26.7193 26.824 26.8299 26.7122 26.9005 26.5733C27.0078 26.3622 27.0087 26.3127 26.9921 21.8736C26.9757 17.485 26.9729 17.3787 26.8631 16.9885C26.5559 15.8961 26.0919 15.0687 25.3795 14.3429C25.1503 14.1094 24.9415 13.9226 24.9154 13.9277C24.8894 13.9328 24.7018 14.1042 24.4988 14.3087ZM9.51908 19.8899C9.27975 20.2175 8.99441 20.8011 8.8782 21.2007C8.79765 21.4777 8.78325 21.8271 8.76605 23.9261C8.74363 26.6662 8.73888 26.6297 9.14892 26.871L9.36827 27H13.4936C17.5239 27 17.6236 26.9976 17.827 26.8934C17.9611 26.8247 18.0731 26.7123 18.1415 26.5777C18.2429 26.378 18.2477 26.2695 18.2472 24.1554C18.2469 21.8401 18.2226 21.504 18.0123 20.8955C17.8902 20.5422 17.4781 19.8193 17.3272 19.6935C17.2628 19.6399 17.1885 19.691 16.8914 19.9934C16.2806 20.6151 15.5225 21.06 14.6869 21.2873C14.1308 21.4385 12.9717 21.4539 12.4276 21.3172C11.5597 21.0992 10.7339 20.63 10.1222 20.0073C9.92285 19.8044 9.74692 19.6383 9.73131 19.6383C9.71569 19.6383 9.62021 19.7515 9.51908 19.8899Z" fill="#5CFF80"/>
</svg>
