<svg width="20" height="32" viewBox="0 0 20 32" fill="none" xmlns="http://www.w3.org/2000/svg">
<path fill-rule="evenodd" clip-rule="evenodd" d="M8.60578 2.66293C7.55429 4.72814 7.21974 5.33217 7.11526 5.35415C7.04117 5.36968 5.73864 5.55329 4.22078 5.76206C2.70292 5.97084 1.37377 6.15839 1.26708 6.1788C1.0787 6.21481 1.13669 6.27592 3.30065 8.32104L5.52812 10.4263L5.00279 13.3627C4.7139 14.9778 4.48546 16.3062 4.49526 16.3147C4.505 16.3232 5.72565 15.714 7.20779 14.9608C8.68994 14.2077 9.94643 13.5915 10 13.5915C10.0536 13.5915 11.3101 14.2077 12.7922 14.9608C14.2744 15.714 15.495 16.3232 15.5047 16.3147C15.5145 16.3062 15.2861 14.9778 14.9972 13.3627L14.4719 10.4263L16.6994 8.32104C18.8633 6.27592 18.9213 6.21481 18.7329 6.1788C18.6262 6.15839 17.2971 5.97084 15.7792 5.76206C14.2614 5.55329 12.9588 5.36968 12.8847 5.35415C12.7803 5.33217 12.4457 4.72814 11.3942 2.66293C10.6486 1.1983 10.0212 0 10 0C9.97883 0 9.35143 1.1983 8.60578 2.66293ZM0.0155194 18.5775L0.0324675 21.3121L5.04513 23.2528L10.0579 25.1934L15.0127 23.2517L19.9675 21.31L19.9845 18.5765C19.9938 17.073 19.9793 15.8429 19.9522 15.8429C19.9252 15.8429 17.6749 16.7062 14.9516 17.7613L10 19.6797L5.04844 17.7613C2.32513 16.7062 0.0748052 15.8429 0.0477922 15.8429C0.0207143 15.8429 0.00623366 17.0735 0.0155194 18.5775ZM0 25.3601C0 27.4959 0.017987 28.1101 0.0811688 28.1347C0.125844 28.152 2.3889 29.0289 5.11026 30.0831L10.0582 32L14.9479 30.0828C17.6373 29.0283 19.8742 28.1515 19.9188 28.1343C19.982 28.11 20 27.4961 20 25.3601V22.6171L15 24.5475L10 26.4779L5 24.5475L0 22.6171V25.3601Z" fill="#5CFF80"/>
</svg>
