<svg width="26" height="21" viewBox="0 0 26 21" fill="none" xmlns="http://www.w3.org/2000/svg">
<path fill-rule="evenodd" clip-rule="evenodd" d="M10.1787 0.0786438C9.56833 0.285774 9.1396 0.657325 8.86765 1.21485C8.71304 1.53176 8.70598 1.57427 8.68156 2.33335L8.65617 3.12242L5.48278 3.14707L2.30939 3.17173L1.97027 3.29996C1.23587 3.57766 0.638003 4.10934 0.302639 4.78296C0.0302346 5.32998 -0.00642439 5.62553 0.0102296 7.13787L0.0245479 8.44097L6.51096 10.5402L12.9974 12.6395L19.4838 10.5402L25.9702 8.44097L25.9848 7.13787C26.0016 5.63786 25.9674 5.36085 25.6957 4.79731C25.3682 4.11822 24.7693 3.5816 24.0245 3.29996L23.6854 3.17173L20.512 3.14707L17.3386 3.12242L17.3132 2.33059L17.2878 1.53876L17.0986 1.16721C16.8673 0.712855 16.5294 0.390769 16.0552 0.172543L15.7138 0.0154693L13.0735 0.0038799C10.6701 -0.00667386 10.4104 3.31458e-05 10.1787 0.0786438ZM15.1553 2.60459V3.12242H12.9974H10.8395L10.8247 2.65761C10.8167 2.40195 10.8217 2.16316 10.8361 2.12691C10.8573 2.07311 11.2554 2.06339 13.0087 2.0739L15.1553 2.08677V2.60459ZM2.39394e-05 14.2504C0.00103942 18.8643 -0.00454575 18.7776 0.331935 19.4272C0.581694 19.9094 1.16011 20.4768 1.62394 20.6946C2.32036 21.0216 1.50152 20.9997 12.9974 20.9997C24.4932 20.9997 23.6744 21.0216 24.3708 20.6946C24.8743 20.4582 25.4335 19.8936 25.6874 19.3651C25.7963 19.1385 25.9103 18.8214 25.9405 18.6604C26.025 18.2112 26.017 10.0825 25.9321 10.1129C25.8972 10.1255 23.0697 11.0419 19.6488 12.1495L13.429 14.1632H12.9974H12.5658L6.34594 12.1495C2.92503 11.0419 0.0975613 10.1255 0.0626286 10.1129C0.012159 10.0948 -0.000636126 10.9427 2.39394e-05 14.2504Z" fill="black"/>
<path fill-rule="evenodd" clip-rule="evenodd" d="M10.1787 0.0786438C9.56833 0.285774 9.1396 0.657325 8.86765 1.21485C8.71304 1.53176 8.70598 1.57427 8.68156 2.33335L8.65617 3.12242L5.48278 3.14707L2.30939 3.17173L1.97027 3.29996C1.23587 3.57766 0.638003 4.10934 0.302639 4.78296C0.0302346 5.32998 -0.00642439 5.62553 0.0102296 7.13787L0.0245479 8.44097L6.51096 10.5402L12.9974 12.6395L19.4838 10.5402L25.9702 8.44097L25.9848 7.13787C26.0016 5.63786 25.9674 5.36085 25.6957 4.79731C25.3682 4.11822 24.7693 3.5816 24.0245 3.29996L23.6854 3.17173L20.512 3.14707L17.3386 3.12242L17.3132 2.33059L17.2878 1.53876L17.0986 1.16721C16.8673 0.712855 16.5294 0.390769 16.0552 0.172543L15.7138 0.0154693L13.0735 0.0038799C10.6701 -0.00667386 10.4104 3.31458e-05 10.1787 0.0786438ZM15.1553 2.60459V3.12242H12.9974H10.8395L10.8247 2.65761C10.8167 2.40195 10.8217 2.16316 10.8361 2.12691C10.8573 2.07311 11.2554 2.06339 13.0087 2.0739L15.1553 2.08677V2.60459ZM2.39394e-05 14.2504C0.00103942 18.8643 -0.00454575 18.7776 0.331935 19.4272C0.581694 19.9094 1.16011 20.4768 1.62394 20.6946C2.32036 21.0216 1.50152 20.9997 12.9974 20.9997C24.4932 20.9997 23.6744 21.0216 24.3708 20.6946C24.8743 20.4582 25.4335 19.8936 25.6874 19.3651C25.7963 19.1385 25.9103 18.8214 25.9405 18.6604C26.025 18.2112 26.017 10.0825 25.9321 10.1129C25.8972 10.1255 23.0697 11.0419 19.6488 12.1495L13.429 14.1632H12.9974H12.5658L6.34594 12.1495C2.92503 11.0419 0.0975613 10.1255 0.0626286 10.1129C0.012159 10.0948 -0.000636126 10.9427 2.39394e-05 14.2504Z" fill="#5CFF80"/>
</svg>
