<svg viewBox="0 0 50 50" fill="none" xmlns="http://www.w3.org/2000/svg">
<path d="M40.8594 17.8125H17.8906C16.9824 17.8125 16.2559 18.5449 16.25 19.4531V19.4707V34.9043V34.9219C16.2617 35.8301 16.9824 36.5625 17.8906 36.5625H40.8594C41.7734 36.5625 42.5 35.8184 42.5 34.9043V19.4707C42.5 18.5566 41.7734 17.8125 40.8594 17.8125ZM18.8926 19.6875H39.8516C40.2559 19.6875 40.5605 19.9863 40.6191 20.3906V21.5625H18.125V20.373C18.1836 19.9746 18.4941 19.6875 18.8926 19.6875ZM39.8574 34.6875H18.8926C18.4883 34.6875 18.1836 34.4004 18.125 34.002V27.1875H40.625V33.9844C40.5664 34.3887 40.2559 34.6875 39.8574 34.6875Z" fill="white"/>
<path d="M18.25 13H7V13.9375H18.25V13Z" fill="white"/>
<path d="M12.625 14.875H7V15.8125H12.625V14.875Z" fill="white"/>
<path d="M25.75 13H22V15.8125H25.75V13Z" fill="white"/>
</svg>
