<svg viewBox="0 0 50 50" fill="none" xmlns="http://www.w3.org/2000/svg">
<g clip-path="url(#clip0_107_35)">
<path d="M14.25 33.375V21H13.125V18.75H16.5V16.5C16.5 16.2016 16.6185 15.9155 16.8295 15.7045C17.0405 15.4935 17.3266 15.375 17.625 15.375H33.375C33.6734 15.375 33.9595 15.4935 34.1705 15.7045C34.3815 15.9155 34.5 16.2016 34.5 16.5V18.75H37.875V21H36.75V33.375H37.875V35.625H13.125V33.375H14.25ZM26.625 33.375V25.5H24.375V33.375H26.625ZM21 33.375V25.5H18.75V33.375H21ZM32.25 33.375V25.5H30V33.375H32.25ZM18.75 17.625V18.75H32.25V17.625H18.75Z" fill="white"/>
</g>
<defs>
<clipPath id="clip0_107_35">
<rect width="27" height="27" fill="white" transform="translate(12 12)"/>
</clipPath>
</defs>
</svg>
