<svg width="32" height="32" viewBox="0 0 32 32" fill="none" xmlns="http://www.w3.org/2000/svg">
<g opacity="0.1">
<path d="M20.4968 4.3745C20.4299 1.95112 18.4392 0 16 0C13.5608 0 11.5701 1.95112 11.5032 4.3745C7.19587 6.08256 4 10.4186 4 15.5V29C4 30.6544 5.34563 32 7 32H25C26.6544 32 28 30.6544 28 29V15.5C28 10.4303 24.8149 6.08681 20.4968 4.3745ZM16 2C17.1126 2 18.0574 2.73075 18.3806 3.73738C16.8264 3.42331 15.1986 3.41831 13.6194 3.73738C13.9426 2.73075 14.8874 2 16 2ZM24 25.5C24 27.1544 22.6544 28.5 21 28.5H11C9.34562 28.5 8 27.1544 8 25.5V22C8 20.3456 9.34562 19 11 19H21C22.6544 19 24 20.3456 24 22V25.5ZM23.5 16.5C22.9475 16.5 22.5 16.0525 22.5 15.5C22.5 11.9156 19.5844 9 16 9C12.4156 9 9.5 11.9156 9.5 15.5C9.5 16.0525 9.0525 16.5 8.5 16.5C7.9475 16.5 7.5 16.0525 7.5 15.5C7.5 10.8131 11.3131 7 16 7C20.6869 7 24.5 10.8131 24.5 15.5C24.5 16.0525 24.0525 16.5 23.5 16.5Z" fill="white"/>
<path d="M21 21H11C10.4488 21 10 21.4488 10 22V25.5C10 26.0512 10.4488 26.5 11 26.5H21C21.5513 26.5 22 26.0512 22 25.5V22C22 21.4488 21.5513 21 21 21Z" fill="white"/>
<path d="M31 17H30.3125C30.1399 17 30 17.1399 30 17.3125V27.8134C30 28.0899 30.335 28.2327 30.5306 28.0374C31.4379 27.1314 32 25.8803 32 24.5V18C32 17.4477 31.5523 17 31 17Z" fill="white"/>
<path d="M0 18V24.5C0 25.8803 0.562063 27.1314 1.46938 28.0374C1.665 28.2327 2 28.0899 2 27.8135V17.3125C2 17.1399 1.86006 17 1.6875 17H1C0.447688 17 0 17.4477 0 18Z" fill="white"/>
</g>
</svg>
