<svg width="36" height="20" viewBox="0 0 36 20" fill="none" xmlns="http://www.w3.org/2000/svg">
<g opacity="0.1">
<path d="M16.3211 2.86482L12.7461 0.182397C12.4169 -0.0646811 11.963 -0.0603216 11.6385 0.192944C10.7607 0.87821 10.3538 2.00701 10.5924 3.09531L10.8417 4.23233" fill="white"/>
<path d="M36 13.9751V13.9374C36 12.1698 34.7662 10.6425 33.0394 10.2724L29.0512 9.4175C24.3031 8.39973 19.9099 6.13857 16.3211 2.86482C15.4609 2.68918 14.1955 2.57736 12.9731 3.15083C11.2937 3.93882 11.4078 5.21696 9.68709 6.26799C8.33435 7.0943 5.91405 7.7397 4.43918 6.75891C3.76397 6.3099 3.25477 5.49863 1.76618 4.81991C1.47628 4.68772 1.2311 4.59786 1.07339 4.54379L0.981281 4.58534L0.411187 6.68241C0.138305 7.68634 0 8.72218 0 9.76266V13.9751L0.472641 16.5155H35.3464L36 13.9751Z" fill="white"/>
<path d="M32.2724 10.8233C32.2724 12.0078 31.4238 13.0217 30.2587 13.2294L28.0894 13.6161C26.9243 13.8237 26.0757 14.8377 26.0757 16.0221V16.2822L35.3576 16.4705L36 13.9751V13.9374C36 12.1698 34.7662 10.6425 33.0394 10.2724L32.3034 10.1146L32.2723 10.1193L32.2724 10.8233Z" fill="white"/>
<path d="M13.6512 13.975L13.6502 13.9653C13.3279 10.6843 11.6569 7.68519 9.03755 5.68628L8.89917 5.58067L8.89727 5.5799C6.94139 6.38863 4.6099 6.04501 2.95924 4.50883L2.4757 3.9478C2.04785 3.4514 1.23968 3.63491 1.0677 4.26752L0.411187 6.68241C0.138305 7.68634 0 8.72218 0 9.76266V13.9751V14.8408L13.6512 13.975Z" fill="white"/>
<path d="M5.16059 9.76258C5.16059 8.72209 5.29889 7.68625 5.57177 6.68233L5.77976 5.91726C4.75826 5.73599 3.7755 5.26848 2.95924 4.50883L2.4757 3.9478C2.04785 3.4514 1.23968 3.63491 1.0677 4.26752L0.411187 6.68241C0.138305 7.68634 0 8.72218 0 9.76266V13.9751V14.8408L5.16059 14.5135V9.76258Z" fill="white"/>
<path d="M30.9137 19.056H3.14873C1.40977 19.056 0 17.6449 0 15.9043V13.9751L13.6512 13.975C14.3467 13.975 14.9105 14.5395 14.9105 15.2356C14.9105 15.9393 15.4861 16.2562 16.1891 16.2454H32.4868C33.4503 16.2306 34.3121 15.6423 34.6775 14.7499C34.7833 14.4915 34.9982 14.2933 35.2642 14.2088L36 13.9751L35.9021 15.7088C35.0712 17.7337 33.1008 19.056 30.9137 19.056Z" fill="white"/>
<path d="M5.21803 15.9043V13.9752L0 13.9751V15.9043C0 17.6449 1.40977 19.056 3.14873 19.056H8.36677C6.6278 19.056 5.21803 17.6449 5.21803 15.9043Z" fill="white"/>
<path d="M8.36248 16.1104H0.00703912C0.113281 17.7548 1.47902 19.056 3.14873 19.056L11.3052 19.0558C11.3052 17.4292 9.98769 16.1104 8.36248 16.1104Z" fill="white"/>
<path d="M5.22904 16.1104H0.0110126C0.117255 17.7548 1.48258 19.0558 3.15236 19.0558H8.3704C6.70061 19.0558 5.33529 17.7548 5.22904 16.1104Z" fill="white"/>
<path d="M20.3542 9.0909C20.9478 9.37609 21.4622 9.60889 21.9076 9.79874C23.4045 10.4369 25.1429 9.93634 26.0756 8.60202C22.4716 7.3925 19.1471 5.44269 16.3211 2.86482C15.1264 1.66909 13.2049 1.70155 12.0512 2.93701L11.8458 3.15695C13.676 4.65988 17.6137 7.7743 20.3542 9.0909Z" fill="white"/>
<path d="M2.47567 5.55486C2.67649 5.7272 2.87737 5.89953 3.07818 6.07194C3.51243 6.38511 4.94174 7.33286 6.98959 7.27464C9.04961 7.21607 10.4284 6.17677 10.8418 5.8392L11.9553 4.6467C13.1175 3.40217 15.0634 3.32412 16.3213 4.47162C17.7528 5.7774 19.3722 6.22705 21.1031 6.36071C19.395 5.37563 17.7905 4.20519 16.3211 2.86482C15.0632 1.71739 13.1175 1.79546 11.9553 3.03999L10.8417 4.23233C8.73952 6.48353 5.21381 6.60703 2.95924 4.50883L2.4757 3.9478C2.04785 3.4514 1.23968 3.63491 1.0677 4.26752L0.981281 4.58534C1.61241 4.88319 2.26565 5.31116 2.47567 5.55486Z" fill="white"/>
<path d="M17.6469 3.49474C17.6193 3.20041 17.3606 2.98856 17.0713 2.9951C16.9953 2.99679 16.9191 3.00234 16.8432 3.006C16.4587 3.02435 16.0741 3.0427 15.6895 3.06105C15.5302 3.06865 15.3708 3.07624 15.2116 3.08383C15.0932 3.08946 14.9777 3.0908 14.8675 3.14374C14.6039 3.27051 14.4834 3.59297 14.5999 3.8617C14.6949 4.08044 14.9142 4.20215 15.1477 4.19273C15.4824 4.17916 15.8168 4.16081 16.1513 4.14485C16.2872 4.13838 16.4331 4.11567 16.569 4.12488C16.6019 4.12713 16.5887 4.11707 16.5996 4.14126C16.6181 4.18303 16.6107 4.25861 16.6149 4.30361C16.6474 4.64793 16.679 4.99232 16.7125 5.33657C16.7344 5.56199 16.8665 5.75859 17.0861 5.83368C17.3684 5.93022 17.6848 5.7763 17.7845 5.49548C17.8286 5.37109 17.8127 5.24833 17.8006 5.12134C17.7847 4.95266 17.7688 4.78399 17.7528 4.61538C17.7196 4.26374 17.6864 3.91211 17.6531 3.56048C17.651 3.53854 17.649 3.51661 17.6469 3.49474Z" fill="white"/>
<path d="M22.1546 8.13479C22.046 7.57749 21.9373 7.02019 21.8287 6.4629C21.8028 6.33008 21.7628 6.20612 21.6636 6.10719C21.5279 5.97191 21.3401 5.92494 21.1544 5.95819C20.8718 6.00875 20.5905 6.06753 20.3087 6.12216C20.0474 6.17286 19.785 6.21941 19.5245 6.27418C19.2874 6.32403 19.1025 6.51655 19.0777 6.76088C19.0498 7.03573 19.2369 7.29547 19.5062 7.35594C19.6418 7.38638 19.7744 7.3508 19.9072 7.32507C20.0875 7.29012 20.2678 7.25511 20.4482 7.22016C20.5299 7.20434 20.6116 7.18845 20.6933 7.17263C20.7238 7.16673 20.7969 7.13733 20.8271 7.14669C20.86 7.15688 20.8704 7.31417 20.8777 7.35172C20.94 7.67115 21.0023 7.99058 21.0645 8.30993C21.1024 8.50428 21.2113 8.67 21.3986 8.74932C21.6554 8.85802 21.9611 8.75129 22.0959 8.50779C22.1584 8.3948 22.1793 8.2617 22.1546 8.13479Z" fill="white"/>
</g>
</svg>
