<svg width="36" height="36" viewBox="0 0 36 36" fill="none" xmlns="http://www.w3.org/2000/svg">
<g opacity="0.1">
<path d="M23.6921 3.78579C23.1442 3.67894 22.5763 3.79409 22.1133 4.10591C21.6504 4.41773 21.3302 4.90068 21.2233 5.44854L25.3548 6.2546C25.4078 5.98332 25.4068 5.70426 25.3518 5.43337C25.2969 5.16248 25.1892 4.90505 25.0348 4.6758C24.8804 4.44654 24.6824 4.24995 24.452 4.09724C24.2216 3.94453 23.9634 3.8387 23.6921 3.78579Z" fill="white"/>
<path d="M8.8124 19.4532C8.8124 19.4532 2.48119 23.9684 1.19531 25.5395C1.01351 25.7699 0.879587 26.0342 0.801402 26.3171C0.723218 26.5999 0.702351 26.8955 0.740029 27.1866C0.777708 27.4776 0.87317 27.7581 1.02081 28.0117C1.16845 28.2653 1.36528 28.4869 1.59975 28.6634C3.97575 30.3748 6.31715 27.8846 7.86375 26.3037C12.1236 27.4017 15.1875 30.7789 17.1562 31.8167C21.15 33.9208 23.6905 27.5268 25.3941 25.3941C18.3282 21.0991 13.8282 19.9859 8.8124 19.4532Z" fill="white"/>
<path d="M35.0157 22.2723C34.9095 23.0483 34.5283 23.7604 33.9414 24.2792C33.3546 24.7979 32.601 25.0887 31.8179 25.0989C31.1007 25.1045 30.3301 25.1017 29.6213 25.0708C29.3449 25.058 29.0694 25.1107 28.8172 25.2246C28.565 25.3385 28.3433 25.5103 28.1701 25.7261C26.8144 27.4248 23.1554 31.6211 19.7044 32.1892C18.8347 32.3547 17.9346 32.224 17.1479 31.8179C15.1791 30.7801 12.1135 27.4023 7.85537 26.3026C4.67162 25.4842 2.29787 25.9286 0.762249 27.3883C0.693606 27.0679 0.69606 26.7365 0.769438 26.4172C0.842815 26.0979 0.985331 25.7987 1.18694 25.5404C2.47225 23.9683 7.07912 18.557 7.07912 18.557C7.76819 9.06483 14.2735 3.88701 23.2791 5.29326C27.6469 5.97389 31.0866 8.30264 32.8191 10.8311C35.3335 14.4986 35.6204 17.9917 35.0157 22.2723Z" fill="white"/>
<path d="M28.8901 25.1944C28.6073 25.3049 28.3589 25.4883 28.1701 25.726C26.8144 27.4247 23.1554 31.621 19.7044 32.1891C18.8347 32.3546 17.9346 32.2239 17.1479 31.8178C15.1791 30.78 12.1135 27.4022 7.85537 26.3025C4.67162 25.4841 2.29787 25.9285 0.762249 27.3881C0.693606 27.0678 0.69606 26.7364 0.769438 26.4171C0.842815 26.0978 0.985331 25.7985 1.18694 25.5403C2.47225 23.9681 7.07912 18.5569 7.07912 18.5569C9.31752 17.8945 11.6905 17.8305 13.9613 18.3713C19.4457 19.6594 22.6182 23.0907 28.8901 25.1944Z" fill="white"/>
<path d="M28.8896 25.6162C28.844 25.6163 28.7986 25.6089 28.7554 25.5943C25.7576 24.5888 23.4941 23.3038 21.3051 22.0612C18.9381 20.7177 16.7022 19.4484 13.8652 18.7818C11.6727 18.2628 9.38296 18.3224 7.22041 18.9548C7.1149 18.9921 6.9989 18.9859 6.89792 18.9377C6.79694 18.8895 6.71926 18.8031 6.68196 18.6976C6.64466 18.5921 6.65081 18.4761 6.69904 18.3751C6.74728 18.2741 6.83365 18.1964 6.93916 18.1591C9.25316 17.4653 11.7097 17.3968 14.0587 17.9606C17.0149 18.6547 19.3021 19.953 21.7234 21.3277C23.8777 22.5503 26.1049 23.8148 29.0254 24.7944C29.1203 24.8263 29.2008 24.8908 29.2525 24.9765C29.3041 25.0622 29.3237 25.1635 29.3075 25.2623C29.2914 25.3611 29.2407 25.4509 29.1644 25.5157C29.0882 25.5806 28.9914 25.6162 28.8913 25.6162H28.8896Z" fill="white"/>
</g>
</svg>
