<svg width="36" height="36" viewBox="0 0 36 36" fill="none" xmlns="http://www.w3.org/2000/svg">
<g opacity="0.1">
<path d="M8.69005 6.82751C8.34728 6.82751 8.06934 7.10539 8.06934 7.44823V13.6551C8.06934 13.9979 8.34721 14.2759 8.69005 14.2759C9.03283 14.2759 9.31077 13.998 9.31077 13.6551V7.44823C9.3107 7.10546 9.03283 6.82751 8.69005 6.82751Z" fill="white"/>
<path d="M27.3105 6.82751C26.9678 6.82751 26.6898 7.10539 26.6898 7.44823V13.6551C26.6898 13.9979 26.9677 14.2759 27.3105 14.2759C27.6534 14.2759 27.9313 13.998 27.9313 13.6551V7.44823C27.9313 7.10546 27.6534 6.82751 27.3105 6.82751Z" fill="white"/>
<path d="M9.38474 16.0014C10.2121 15.6684 10.6873 14.7956 10.5177 13.92C10.3481 13.0444 9.58147 12.412 8.68956 12.412C7.79764 12.412 7.03102 13.0444 6.86143 13.92C6.69183 14.7956 7.16694 15.6685 7.99438 16.0014H9.38474Z" fill="white"/>
<path d="M28.0052 16.0014C28.8326 15.6684 29.3078 14.7956 29.1382 13.92C28.9686 13.0444 28.2019 12.412 27.31 12.412C26.4181 12.412 25.6515 13.0444 25.4819 13.92C25.3123 14.7956 25.7874 15.6685 26.6149 16.0014H28.0052Z" fill="white"/>
<path d="M9.21472 15.7288C9.10102 15.5485 8.90281 15.4391 8.68962 15.4391C8.47643 15.4391 8.27815 15.5485 8.16453 15.7288L2.03644 25.4482C-0.434551 29.7837 3.1599 35.9999 8.68962 35.9999C14.2187 35.9999 17.8138 29.7837 15.3422 25.4482L9.21472 15.7288Z" fill="white"/>
<path d="M7.55969 21.3438L8.68996 19.5519L9.82024 21.3438L10.9499 23.1357L12.0801 24.9276L13.2098 26.7195C13.3781 27.0252 13.5005 27.354 13.5729 27.6953C13.6465 28.044 13.6729 28.4009 13.6511 28.7566C13.6281 29.1305 13.5594 29.5001 13.4463 29.8571C13.3262 30.2383 13.1637 30.605 12.9621 30.9501C12.735 31.3415 12.4607 31.7034 12.1453 32.0277C11.8423 32.3391 11.5006 32.6102 11.1285 32.8346C10.7635 33.0543 10.3709 33.2244 9.961 33.3404C9.12984 33.5738 8.25044 33.5738 7.41927 33.3404C7.00914 33.2244 6.61631 33.0543 6.2511 32.8346C5.87894 32.6104 5.53722 32.3392 5.23438 32.0277C4.91854 31.703 4.64411 31.3405 4.41756 30.9483C4.21584 30.6034 4.05342 30.237 3.93339 29.8558C3.82089 29.4984 3.75206 29.1287 3.72857 28.7547C3.70685 28.3992 3.73314 28.0425 3.80676 27.694C3.87918 27.3527 4.00152 27.0239 4.16985 26.7183L5.29949 24.9264L6.42977 23.1344L7.55969 21.3438Z" fill="white"/>
<path d="M8.68932 32.276C7.64159 32.2767 6.63436 31.871 5.87949 31.1444C5.62566 30.9013 5.40354 30.6271 5.21848 30.3282C5.055 30.0661 4.92232 29.786 4.82311 29.4934C4.7284 29.2124 4.67082 28.9203 4.65183 28.6244C4.63355 28.3356 4.65654 28.0457 4.72011 27.7635C4.78451 27.4796 4.89258 27.2074 5.04038 26.9566L8.17421 22.3045C8.29831 22.1206 8.511 22.017 8.73221 22.0325C8.95341 22.0481 9.14958 22.1805 9.24675 22.3798C9.34393 22.5791 9.32733 22.8153 9.2033 22.9991L6.08993 27.6207C6.01751 27.7526 5.96407 27.8941 5.93103 28.0409C5.89362 28.2072 5.88026 28.3779 5.8913 28.548C5.90417 28.7361 5.94129 28.9218 6.00176 29.1004C6.07011 29.3012 6.1613 29.4934 6.27359 29.6733C6.40437 29.8833 6.56054 30.0763 6.7385 30.2481C6.91175 30.4137 7.10504 30.5569 7.31386 30.6745C7.73342 30.9117 8.20739 31.0357 8.68932 31.0345C9.03209 31.0345 9.31004 31.3124 9.31004 31.6552C9.30997 31.9981 9.03209 32.276 8.68932 32.276Z" fill="white"/>
<path d="M27.8352 15.7288C27.7215 15.5485 27.5233 15.4391 27.3101 15.4391C27.0969 15.4391 26.8986 15.5485 26.785 15.7288L20.6569 25.4482C18.1859 29.7837 21.7803 35.9999 27.31 35.9999C32.8391 35.9999 36.4342 29.7837 33.9626 25.4482L27.8352 15.7288Z" fill="white"/>
<path d="M26.1802 21.3438L27.3105 19.5519L28.4408 21.3438L29.5704 23.1357L30.7007 24.9276L31.8303 26.7195C31.9986 27.0252 32.121 27.354 32.1934 27.6953C32.267 28.044 32.2934 28.4009 32.2716 28.7566C32.2487 29.1305 32.1799 29.5001 32.0668 29.8571C31.9467 30.2383 31.7843 30.605 31.5827 30.9501C31.3556 31.3415 31.0813 31.7034 30.7659 32.0277C30.4629 32.3391 30.1212 32.6102 29.7491 32.8346C29.3842 33.0543 28.9915 33.2244 28.5816 33.3404C27.7504 33.5738 26.871 33.5738 26.0399 33.3404C25.6297 33.2244 25.2369 33.0543 24.8717 32.8346C24.4995 32.6104 24.1578 32.3392 23.855 32.0277C23.5391 31.703 23.2647 31.3405 23.0382 30.9483C22.8364 30.6034 22.674 30.237 22.554 29.8558C22.4415 29.4984 22.3727 29.1287 22.3492 28.7547C22.3275 28.3992 22.3537 28.0425 22.4274 27.694C22.4998 27.3527 22.6221 27.0239 22.7905 26.7183L23.9201 24.9264L25.0504 23.1344L26.1802 21.3438Z" fill="white"/>
<path d="M8.68991 8.68964C11.0895 8.68964 13.0347 6.7444 13.0347 4.34482C13.0347 1.94524 11.0895 0 8.68991 0C6.29033 0 4.34509 1.94524 4.34509 4.34482C4.34509 6.7444 6.29033 8.68964 8.68991 8.68964Z" fill="white"/>
<path d="M27.3104 8.68964C29.71 8.68964 31.6552 6.7444 31.6552 4.34482C31.6552 1.94524 29.71 0 27.3104 0C24.9108 0 22.9656 1.94524 22.9656 4.34482C22.9656 6.7444 24.9108 8.68964 27.3104 8.68964Z" fill="white"/>
<path d="M8.68947 5.58636C8.00385 5.58636 7.4481 5.03061 7.4481 4.34499C7.4481 4.00222 7.17023 3.72427 6.82738 3.72427C6.48454 3.72427 6.20667 4.00215 6.20667 4.34499C6.20667 5.71615 7.31824 6.82772 8.6894 6.82772C9.03217 6.82772 9.31012 6.54985 9.31012 6.207C9.31012 5.8643 9.03224 5.58636 8.68947 5.58636Z" fill="white"/>
<path d="M8.68908 1.86218C8.3463 1.86218 8.06836 2.14006 8.06836 2.4829C8.06836 2.82575 8.34623 3.10362 8.68908 3.10362C9.3747 3.10362 9.93045 3.65937 9.93045 4.34499C9.93045 4.68776 10.2083 4.96571 10.5512 4.96571C10.894 4.96571 11.1719 4.68783 11.1719 4.34499C11.1718 2.97375 10.0602 1.86218 8.68908 1.86218Z" fill="white"/>
<path d="M27.31 5.58636C26.6243 5.58636 26.0686 5.03061 26.0686 4.34499C26.0686 4.00222 25.7907 3.72427 25.4479 3.72427C25.105 3.72427 24.8271 4.00215 24.8271 4.34499C24.8271 5.71615 25.9387 6.82772 27.3099 6.82772C27.6527 6.82772 27.9306 6.54985 27.9306 6.207C27.9307 5.8643 27.6528 5.58636 27.31 5.58636Z" fill="white"/>
<path d="M27.3105 1.86218C26.9678 1.86218 26.6898 2.14006 26.6898 2.4829C26.6898 2.82575 26.9677 3.10362 27.3105 3.10362C27.9962 3.10362 28.5519 3.65937 28.5519 4.34499C28.5519 4.68776 28.8298 4.96571 29.1726 4.96571C29.5155 4.96571 29.7933 4.68783 29.7933 4.34499C29.7933 2.97375 28.6818 1.86218 27.3105 1.86218Z" fill="white"/>
<path d="M27.6296 32.2759C26.9339 32.2773 26.2497 32.0988 25.6434 31.7577C25.3437 31.5884 25.0664 31.3824 24.8178 31.1444C24.5644 30.9011 24.3424 30.6269 24.1574 30.3282C23.9934 30.0664 23.8607 29.7862 23.762 29.4934C23.6673 29.2124 23.6097 28.9203 23.5907 28.6244C23.5721 28.3356 23.5951 28.0457 23.659 27.7635C23.7231 27.4795 23.8312 27.2073 23.9793 26.9566L27.1131 22.3045C27.2372 22.1206 27.4499 22.017 27.6711 22.0325C27.8923 22.0481 28.0885 22.1805 28.1857 22.3798C28.2828 22.5791 28.2662 22.8153 28.1422 22.9991L25.0295 27.6207C24.9571 27.7527 24.9035 27.8941 24.8699 28.0409C24.8327 28.2072 24.8196 28.378 24.8308 28.548C24.8434 28.7361 24.8805 28.9219 24.9413 29.1004C25.0096 29.3012 25.1008 29.4934 25.2131 29.6733C25.3439 29.8833 25.5001 30.0763 25.678 30.2481C25.8511 30.4138 26.0445 30.5571 26.2534 30.6745C26.4605 30.7911 26.6816 30.8809 26.9113 30.942C27.1458 31.0033 27.3871 31.0344 27.6295 31.0345C27.9723 31.0345 28.2502 31.3124 28.2502 31.6552C28.2502 31.9981 27.9723 32.2759 27.6296 32.2759Z" fill="white"/>
</g>
</svg>
