<svg width="22" height="22" viewBox="0 0 22 22" fill="none" xmlns="http://www.w3.org/2000/svg">
<path fill-rule="evenodd" clip-rule="evenodd" d="M10.0133 0.0260322C7.88744 0.234167 5.92264 1.01734 4.19995 2.34323C3.36103 2.98889 2.27158 4.20232 1.642 5.19216C1.3701 5.61966 0.840807 6.70294 0.6512 7.21992C0.439201 7.79802 0.213249 8.68143 0.10206 9.3669C-0.0340199 10.2059 -0.0340199 11.7988 0.10206 12.6378C0.294466 13.8239 0.598836 14.7827 1.11981 15.8442C1.68902 17.0039 2.28088 17.8259 3.22866 18.7732C4.17648 19.7204 4.99898 20.3119 6.15932 20.8808C7.22143 21.4015 8.18079 21.7057 9.36752 21.898C10.207 22.034 11.8008 22.034 12.6403 21.898C13.8271 21.7057 14.7864 21.4015 15.8485 20.8808C17.0089 20.3119 17.8314 19.7204 18.7792 18.7732C19.727 17.8259 20.3188 17.0039 20.888 15.8442C21.2661 15.0739 21.4562 14.5691 21.6599 13.7949C21.9312 12.764 22 12.1988 22 11.0024C22 9.80589 21.9312 9.24075 21.6599 8.20981C21.4562 7.43568 21.2661 6.93083 20.888 6.16053C20.3188 5.00086 19.727 4.17882 18.7792 3.23154C17.8314 2.28431 17.0089 1.69279 15.8485 1.1239C14.7874 0.603695 13.8091 0.293344 12.6618 0.11297C12.0289 0.0134649 10.6154 -0.0329306 10.0133 0.0260322ZM11.6929 1.85444C11.6929 1.86507 11.6445 1.92601 11.5853 1.98988C11.3989 2.19091 11.4439 2.43981 11.7215 2.74181L11.823 2.85224L11.7257 2.94267C11.6721 2.99242 11.4539 3.1332 11.2408 3.25551C10.0959 3.9125 9.45365 4.71517 9.45365 5.48878C9.45365 5.81222 9.56428 6.07604 9.77894 6.26438C9.9422 6.40766 9.94483 6.4083 10.2904 6.38609C10.6936 6.36023 10.9994 6.26421 11.7012 5.94331C12.5613 5.54994 12.7174 5.51439 13.5662 5.51844C15.4479 5.52739 16.7829 6.03348 16.4695 6.61889C16.366 6.81213 16.1771 6.84402 15.0303 6.86206C13.8224 6.88104 13.6343 6.85922 13.0738 6.63507C12.5992 6.44532 12.1268 6.39023 11.4248 6.44282C9.74648 6.56849 8.56668 7.34052 8.2642 8.51099C8.20538 8.73858 8.19788 8.9134 8.22058 9.52687C8.25283 10.3976 8.31704 10.631 8.60311 10.9169C8.98615 11.2997 9.38543 11.4211 10.4441 11.4765C11.6039 11.5372 12.38 11.6625 12.7366 11.8469C12.8367 11.8986 12.8556 11.936 12.8556 12.0819C12.8556 12.3219 12.9262 12.588 13.1203 13.0798C13.3456 13.6507 13.3444 13.8373 13.1131 14.2207C12.8875 14.5945 12.8423 14.7766 12.8652 15.2201C12.8932 15.7642 13.1423 16.3218 13.6664 17.0137C14.0055 17.4614 14.1218 17.4911 14.7311 17.2853C15.447 17.0434 16.0996 16.6651 16.4624 16.2817C16.762 15.9651 16.898 15.6783 16.9518 15.25C17.0204 14.7034 17.0557 14.6262 17.399 14.2733C17.7741 13.8875 17.8368 13.7725 17.8949 13.3635C17.9578 12.9205 18.2686 12.3805 18.9073 11.6049C19.4173 10.9855 19.4139 10.9647 18.6843 10.2578C18.3876 9.97017 18.0499 9.60852 17.9339 9.45405C17.702 9.14529 17.4418 8.68551 17.4783 8.64902C17.5063 8.62104 17.7254 8.76944 17.9526 8.97013C18.4036 9.36862 18.908 9.30944 19.5867 8.77835C19.7242 8.67075 19.8426 8.58967 19.8498 8.59823C19.8729 8.6256 20.0041 9.20473 20.0726 9.58209C20.1668 10.1005 20.2003 11.358 20.1358 11.9557C19.8278 14.8133 18.2299 17.3223 15.7409 18.8563C13.8029 20.0507 11.3499 20.4606 9.06608 19.9717C7.55405 19.6481 6.06023 18.8794 4.8567 17.8058L4.58756 17.5657V16.6619L4.5876 15.7581L4.7155 15.4879C4.78586 15.3392 4.89059 15.1552 4.94821 15.079C5.13976 14.8256 5.35262 14.4269 5.42264 14.1901C5.50859 13.8998 5.51001 13.7045 5.42828 13.4293C5.31153 13.0366 5.02008 12.8618 4.29115 12.7474C4.04526 12.7088 3.78241 12.6515 3.70705 12.6201C3.54035 12.5505 3.37705 12.3456 3.10377 11.8631C2.72809 11.2 2.34104 10.7474 1.90765 10.4644C1.85193 10.428 1.84754 10.3649 1.87936 10.0555C2.14282 7.49322 3.53841 5.09098 5.65212 3.56139C6.93803 2.63085 8.53154 2.02276 10.0996 1.86416C10.3302 1.84084 11.6929 1.83253 11.6929 1.85444Z" fill="white"/>
</svg>
