<svg width="23" height="23" viewBox="0 0 23 23" fill="none" xmlns="http://www.w3.org/2000/svg">
<path fill-rule="evenodd" clip-rule="evenodd" d="M17.4238 0.0374162C17.2047 0.103465 17.0201 0.272206 16.9114 0.505602C16.8074 0.728972 16.8047 0.76593 16.8043 1.94734L16.8038 3.15983L15.916 2.27885C14.9515 1.32175 14.8645 1.26379 14.4633 1.31136C14.0448 1.36091 13.7461 1.66701 13.7117 2.08155C13.6763 2.50919 13.7294 2.59048 14.6573 3.52995L15.5084 4.39164L14.2758 4.4067L13.0431 4.42172L12.8255 4.55661C12.1809 4.95609 12.3012 5.95163 13.0181 6.15077C13.1136 6.17729 13.6956 6.1973 14.376 6.19744L15.5668 6.19771L14.6816 7.0857C14.1948 7.57412 13.7752 8.03066 13.7493 8.10026C13.6018 8.4966 13.7674 8.97796 14.1231 9.18645C14.3345 9.31036 14.6705 9.33904 14.9017 9.25294C14.9713 9.22705 15.4277 8.80737 15.916 8.32039L16.8038 7.43501L16.8041 8.62604C16.8042 9.30663 16.8242 9.88879 16.8508 9.98433C17.0499 10.7014 18.0452 10.8217 18.4446 10.177L18.5794 9.95929L18.5944 8.72635L18.6095 7.49341L19.471 8.34476C20.4103 9.27286 20.4915 9.32596 20.9191 9.29053C21.3335 9.25613 21.6395 8.95737 21.6891 8.53873C21.7366 8.13744 21.6787 8.05044 20.7218 7.0857L19.841 6.19771H21.0557H22.2703L22.5069 6.07977C23.0765 5.79584 23.1705 5.08387 22.6951 4.65422C22.4479 4.43085 22.2313 4.39924 20.9488 4.39924H19.8389L20.7021 3.53373C21.2514 2.98299 21.5905 2.60743 21.6345 2.50105C21.9262 1.7951 21.2054 1.07414 20.4997 1.36599C20.3933 1.40996 20.0178 1.74911 19.4672 2.29854L18.6019 3.16194V2.05179C18.6019 1.41428 18.5809 0.843444 18.5525 0.711032C18.443 0.200717 17.9192 -0.111947 17.4238 0.0374162ZM7.29122 4.48318C7.08291 4.61308 7.04933 4.77197 7.04933 5.62768V6.39311L6.45373 5.80793C5.8721 5.23647 5.76376 5.16467 5.53568 5.19911C5.40995 5.21813 5.22129 5.40683 5.19926 5.5356C5.1597 5.76666 5.22524 5.86634 5.80274 6.4539L6.39061 7.05198H5.61722C4.74048 7.05198 4.58504 7.0888 4.46268 7.32553C4.3998 7.44715 4.39589 7.4998 4.43908 7.64394C4.52917 7.94478 4.61646 7.97167 5.55802 7.98858L6.38603 8.00346L5.79617 8.59929C5.22592 9.17534 5.20632 9.20146 5.20632 9.38594C5.20632 9.65364 5.39102 9.8396 5.65691 9.8396C5.83739 9.8396 5.86832 9.8164 6.44703 9.24732L7.04933 8.65504L7.04942 9.43841C7.04947 10.0941 7.06228 10.2474 7.12809 10.3791C7.26218 10.6476 7.61415 10.7012 7.82938 10.4859C7.97507 10.3402 7.99332 10.2167 7.99332 9.37659V8.65504L8.59562 9.24732C9.17433 9.8164 9.20526 9.8396 9.38574 9.8396C9.65023 9.8396 9.83633 9.65346 9.83633 9.38891C9.83633 9.20839 9.81314 9.17745 9.24419 8.59862L8.65204 7.99617H9.37342C10.2134 7.99617 10.3368 7.97792 10.4825 7.8322C10.6977 7.61692 10.6442 7.26487 10.3758 7.13075C10.244 7.06493 10.0908 7.05211 9.43523 7.05207L8.65204 7.05198L9.24419 6.44954C9.81314 5.8707 9.83633 5.83977 9.83633 5.65925C9.83633 5.3933 9.65041 5.20855 9.38277 5.20855C9.19825 5.20855 9.17226 5.22806 8.59266 5.80213L7.99332 6.39576L7.99305 5.65601C7.99291 5.2492 7.9717 4.84022 7.94589 4.74729C7.8657 4.4585 7.54088 4.32748 7.29122 4.48318ZM2.8188 11.6294L2.66655 11.7654L2.65257 12.6538L2.63859 13.5422L2.02325 12.9329C1.68481 12.5978 1.35923 12.312 1.29966 12.2979C1.24015 12.2838 1.12314 12.3008 1.03957 12.3357C0.867365 12.4077 0.745231 12.6372 0.786452 12.8112C0.800566 12.8708 1.08628 13.1964 1.42135 13.535L2.03053 14.1504L1.14229 14.1644L0.25409 14.1784L0.118111 14.3307C0.00379937 14.4588 -0.0136868 14.5084 0.00811472 14.643C0.0224093 14.731 0.0857012 14.8547 0.148768 14.9178C0.262631 15.0318 0.269778 15.0328 1.12166 15.0467L1.97987 15.0607L1.39757 15.6537C0.775798 16.2869 0.713765 16.3955 0.823807 16.6589C0.895999 16.8317 1.01018 16.8986 1.23278 16.8986C1.38826 16.8986 1.44657 16.8531 2.01965 16.2851L2.63859 15.6717L2.65257 16.554L2.66655 17.4363L2.79017 17.5598C2.96269 17.7322 3.22454 17.7322 3.39702 17.5598L3.52063 17.4363L3.54311 16.5596L3.56558 15.683L4.1718 16.2908C4.7546 16.8751 4.78521 16.8986 4.96358 16.8986C5.21953 16.8986 5.38612 16.7336 5.38612 16.4802C5.38612 16.3075 5.35691 16.2693 4.77357 15.6805L4.16106 15.0622L5.04238 15.0474L5.9237 15.0327L6.04723 14.909C6.21957 14.7365 6.21957 14.4746 6.04723 14.3021L5.9237 14.1784L5.04162 14.1644L4.15953 14.1504L4.77281 13.5314C5.34068 12.9581 5.38612 12.8998 5.38612 12.7443C5.38612 12.5217 5.31924 12.4075 5.14649 12.3352C4.88316 12.2252 4.77456 12.2872 4.1415 12.9091L3.54864 13.4916L3.53466 12.6332C3.52072 11.7811 3.51978 11.7739 3.40583 11.6601C3.34271 11.597 3.21905 11.5337 3.13108 11.5194C2.9965 11.4976 2.94687 11.5151 2.8188 11.6294ZM17.0131 16.0053C16.8777 16.0841 16.8038 16.3309 16.8038 16.7047V17.0531L16.5454 16.8011C16.257 16.52 16.1427 16.449 15.9786 16.449C15.8306 16.449 15.6067 16.6419 15.5775 16.7946C15.5415 16.9828 15.6162 17.1218 15.9172 17.4269L16.1944 17.7079H15.7539C15.3271 17.7079 15.3095 17.7119 15.1821 17.8393C15.005 18.0166 15.0028 18.2374 15.1764 18.4317C15.296 18.5656 15.3222 18.5735 15.7152 18.596L16.1283 18.6195L15.8654 18.9006C15.7208 19.0552 15.5917 19.2385 15.5784 19.308C15.5265 19.5794 15.7287 19.8211 16.0076 19.8211C16.163 19.8211 16.2186 19.787 16.4891 19.5257L16.7949 19.2304L16.8106 19.6597C16.8252 20.0579 16.8353 20.0979 16.9499 20.2125C17.0436 20.3061 17.1172 20.3361 17.2533 20.3361C17.3895 20.3361 17.4631 20.3061 17.5568 20.2125C17.6714 20.0979 17.6815 20.0579 17.6961 19.6597L17.7118 19.2304L18.0176 19.5257C18.2801 19.7792 18.3466 19.8211 18.4867 19.8211C18.6986 19.8211 18.8549 19.7156 18.9156 19.5316C18.9828 19.328 18.9224 19.1932 18.6232 18.8796L18.3754 18.6197L18.79 18.5961C19.1846 18.5735 19.2106 18.5656 19.3303 18.4317C19.5039 18.2374 19.5017 18.0166 19.3246 17.8393C19.1972 17.7119 19.1796 17.7079 18.7528 17.7079H18.3123L18.5895 17.4269C18.8864 17.1259 18.9709 16.971 18.9299 16.8022C18.8673 16.5446 18.547 16.3817 18.3257 16.4949C18.2675 16.5247 18.1035 16.6625 17.9613 16.8011L17.7029 17.0531V16.7047C17.7029 16.3225 17.6273 16.0792 17.4848 16.003C17.3697 15.9414 17.1211 15.9426 17.0131 16.0053ZM9.08937 16.8798C8.86925 16.9885 8.8474 17.0907 8.8474 18.0114V18.8503L8.22572 18.2341C7.63802 17.6517 7.59433 17.618 7.42657 17.618C7.20491 17.618 7.07064 17.7093 7.0065 17.9039C6.92837 18.1407 7.00407 18.2614 7.62301 18.8871L8.19115 19.4614H7.39106C6.51589 19.4614 6.34382 19.4992 6.24645 19.713C6.1365 19.9543 6.23998 20.2305 6.47031 20.3108C6.55388 20.34 6.94037 20.3606 7.40095 20.3606H8.18868L7.60242 20.9571C6.97602 21.5943 6.8987 21.7267 7.01238 21.9664C7.09721 22.1452 7.35901 22.2655 7.52695 22.2029C7.59801 22.1763 7.92423 21.8879 8.25179 21.5617L8.8474 20.9689V21.8135C8.8474 22.7486 8.87482 22.868 9.11203 22.9663C9.28568 23.0382 9.48297 22.9929 9.61715 22.8502C9.72063 22.7401 9.7244 22.7099 9.73874 21.8816L9.75353 21.0265L10.3456 21.6082C10.9504 22.2024 11.0838 22.2853 11.3019 22.2023C11.4804 22.1344 11.5894 21.9755 11.5894 21.7833C11.5894 21.6136 11.5576 21.5721 10.9761 20.9852L10.3629 20.3661L11.2423 20.3521C12.092 20.3387 12.1256 20.3346 12.2332 20.2334C12.3743 20.1008 12.4075 19.9294 12.3287 19.7408C12.2276 19.4988 12.0704 19.4614 11.1547 19.4614H10.3574L10.9734 18.8396C11.5602 18.2472 11.5894 18.2092 11.5894 18.0364C11.5894 17.7764 11.4237 17.618 11.1518 17.618C10.9547 17.618 10.9399 17.6289 10.3487 18.2103L9.74643 18.8025V18.029C9.74643 17.1295 9.7089 16.9797 9.4573 16.8745C9.26504 16.7941 9.26302 16.7941 9.08937 16.8798Z" fill="white"/>
</svg>
