<svg width="19" height="20" viewBox="0 0 19 20" fill="none" xmlns="http://www.w3.org/2000/svg">
<path fill-rule="evenodd" clip-rule="evenodd" d="M16.9246 0.0510971C16.8038 0.118078 16.7281 0.257354 16.7263 0.415896C16.7253 0.518868 16.7731 0.593195 16.9857 0.8186L17.2464 1.09504L16.9186 1.42467L16.5907 1.7543L16.4528 1.62557C16.2446 1.43135 16.1927 1.39845 16.0405 1.3641C15.7226 1.29239 15.7688 1.25304 13.4115 3.60478C12.2014 4.812 11.1842 5.85114 11.1509 5.91394C11.1177 5.97678 11.0904 6.11128 11.0904 6.21285C11.0904 6.38378 11.0752 6.41246 10.8854 6.60004C10.7225 6.76093 10.6571 6.80075 10.5676 6.79352C10.2738 6.7698 10.246 6.78504 9.8152 7.20525L9.3959 7.61429L9.04638 7.25961C8.637 6.84416 8.41499 6.71856 8.09137 6.71931C7.96421 6.71958 7.81271 6.74959 7.72024 6.79281C7.59179 6.85288 5.93386 8.17424 5.13078 8.85659C4.88595 9.06465 4.77196 9.26993 4.74246 9.5559C4.70519 9.91679 4.79028 10.0666 5.36182 10.6467L5.86354 11.156L5.47241 11.5455C5.06499 11.9513 4.96951 12.1199 5.02405 12.3373C5.04472 12.4195 5.01467 12.4705 4.84349 12.6439C4.65273 12.8371 4.62808 12.8502 4.49549 12.829C4.40005 12.8138 4.30879 12.8282 4.21995 12.8727C4.06334 12.951 0.144302 16.8462 0.0574966 17.0098C-0.0239953 17.1634 -0.01794 17.4416 0.0698025 17.5773C0.171062 17.7339 2.40814 19.854 2.55738 19.9347C2.71716 20.0212 2.89631 20.0218 3.07539 19.9364C3.19513 19.8793 3.48141 19.5004 4.80981 17.6405C5.68485 16.4154 6.43832 15.3514 6.48415 15.2762C6.57603 15.1255 6.59533 14.8562 6.52423 14.7168C6.50028 14.6699 6.39086 14.539 6.28104 14.4259L6.08138 14.2204L6.24659 14.0551L6.41176 13.8899L6.68092 14.163L6.95009 14.4361L7.46439 15.96C7.79392 16.9365 8.00945 17.5169 8.06433 17.5757C8.18446 17.7045 8.33901 17.7774 8.48984 17.7766C8.66439 17.7757 11.2717 17.0589 11.3955 16.9778C11.6381 16.8188 11.7222 16.4367 11.5696 16.1864C11.51 16.0885 11.3314 15.9421 11.1471 15.8401C11.1411 15.8368 10.9693 15.2205 10.7654 14.4707C10.5615 13.7209 10.387 13.086 10.3776 13.0598C10.3683 13.0336 10.5183 12.8783 10.7111 12.7147L11.0616 12.4172L11.3442 12.599C11.9246 12.9723 12.6072 13.2524 13.3488 13.4217C13.7316 13.5091 13.9398 13.5314 14.5177 13.547C14.9885 13.5597 15.2763 13.5509 15.3885 13.5204C15.7009 13.4354 15.7556 13.3498 16.1594 12.3142C16.5579 11.2923 16.5905 11.1365 16.4532 10.9113C16.302 10.6633 16.2443 10.648 15.3596 10.6208C14.4865 10.5939 14.0663 10.5165 13.4917 10.2767C12.9847 10.0651 13.0138 10.0899 13.0131 9.86736C13.0117 9.36086 12.8083 8.88782 12.3996 8.43982L12.1422 8.15767L12.3043 7.99546L12.4665 7.83324L12.7889 8.15091C13.1381 8.49488 13.2935 8.59383 13.4844 8.59383C13.7744 8.59383 13.7934 8.57257 15.7595 6.04321C16.7955 4.71047 17.6738 3.56559 17.7114 3.49904C17.7867 3.36582 17.8003 3.14284 17.7425 2.99063C17.7219 2.93662 17.6437 2.82446 17.5687 2.74138L17.4323 2.59034L18.1353 1.88939C18.5219 1.50388 18.8742 1.13103 18.9181 1.06085C19.0726 0.81395 19.001 0.443641 18.7668 0.278026C18.5151 0.100063 18.2121 0.136328 17.9693 0.373456L17.8209 0.518438L17.5886 0.296784C17.2776 6.0521e-05 17.1211 -0.0578539 16.9246 0.0510971ZM8.33635 8.23306L8.55934 8.4585L7.63136 9.38619L6.70335 10.3138L6.37187 9.98038L6.0404 9.64692L6.15759 9.55344C6.22205 9.50201 6.67034 9.13436 7.15378 8.73646C7.63722 8.33857 8.05089 8.01179 8.07304 8.01035C8.09523 8.00886 8.21368 8.1091 8.33635 8.23306ZM8.33401 11.5207C8.57919 11.7398 8.47793 12.0502 8.05535 12.3747C7.9644 12.4446 7.8465 12.5017 7.79341 12.5017C7.65097 12.5017 7.48799 12.4045 7.43486 12.2878C7.34622 12.0932 7.37685 11.9756 7.57311 11.7573C7.90694 11.3859 8.11184 11.3221 8.33401 11.5207Z" fill="white"/>
</svg>
