<svg width="12" height="15" viewBox="0 0 12 15" fill="none" xmlns="http://www.w3.org/2000/svg">
<path fill-rule="evenodd" clip-rule="evenodd" d="M5.17321 0.00991264C4.57007 0.0874455 3.99253 0.3053 3.48935 0.645125C3.2096 0.834076 2.69791 1.35072 2.51077 1.63318C2.24399 2.03588 2.06228 2.45892 1.94421 2.95226C1.89035 3.17724 1.8833 3.31873 1.87157 4.41058L1.85859 5.61974H1.5478C1.36243 5.61974 1.16818 5.63786 1.06639 5.66462C0.565646 5.79632 0.179955 6.18701 0.0488174 6.69532C-0.0162725 6.94759 -0.0162725 13.672 0.0488174 13.9243C0.179955 14.4326 0.565646 14.8233 1.06639 14.955C1.21594 14.9944 1.7739 14.9999 5.57966 14.9999C10.3588 14.9999 10.0774 15.0104 10.4318 14.8196C10.7652 14.6402 11.0524 14.2422 11.1242 13.8599C11.1433 13.7582 11.1538 12.486 11.1538 10.2827C11.1538 6.56148 11.1601 6.71259 10.991 6.37564C10.8873 6.16898 10.6352 5.90947 10.4318 5.80002C10.1857 5.66758 9.96806 5.61974 9.61152 5.61974H9.30073L9.28775 4.41058C9.27602 3.31873 9.26897 3.17724 9.21511 2.95226C9.03508 2.20015 8.72209 1.63198 8.19629 1.10276C7.65711 0.560088 7.09357 0.244534 6.36352 0.0764824C6.12117 0.0206998 5.40219 -0.0195176 5.17321 0.00991264ZM6.0739 1.29367C6.34721 1.35218 6.69806 1.49626 6.91241 1.63801C7.47664 2.01114 7.89706 2.64034 8.01591 3.28948C8.03487 3.39298 8.04739 3.89066 8.04739 4.54056V5.61974H5.57966H3.11193L3.11243 4.52783C3.11298 3.33544 3.12276 3.23754 3.28279 2.81965C3.57389 2.05948 4.25858 1.47609 5.0716 1.29546C5.30284 1.24411 5.83781 1.24314 6.0739 1.29367Z" fill="black"/>
<path fill-rule="evenodd" clip-rule="evenodd" d="M5.17321 0.00991264C4.57007 0.0874455 3.99253 0.3053 3.48935 0.645125C3.2096 0.834076 2.69791 1.35072 2.51077 1.63318C2.24399 2.03588 2.06228 2.45892 1.94421 2.95226C1.89035 3.17724 1.8833 3.31873 1.87157 4.41058L1.85859 5.61974H1.5478C1.36243 5.61974 1.16818 5.63786 1.06639 5.66462C0.565646 5.79632 0.179955 6.18701 0.0488174 6.69532C-0.0162725 6.94759 -0.0162725 13.672 0.0488174 13.9243C0.179955 14.4326 0.565646 14.8233 1.06639 14.955C1.21594 14.9944 1.7739 14.9999 5.57966 14.9999C10.3588 14.9999 10.0774 15.0104 10.4318 14.8196C10.7652 14.6402 11.0524 14.2422 11.1242 13.8599C11.1433 13.7582 11.1538 12.486 11.1538 10.2827C11.1538 6.56148 11.1601 6.71259 10.991 6.37564C10.8873 6.16898 10.6352 5.90947 10.4318 5.80002C10.1857 5.66758 9.96806 5.61974 9.61152 5.61974H9.30073L9.28775 4.41058C9.27602 3.31873 9.26897 3.17724 9.21511 2.95226C9.03508 2.20015 8.72209 1.63198 8.19629 1.10276C7.65711 0.560088 7.09357 0.244534 6.36352 0.0764824C6.12117 0.0206998 5.40219 -0.0195176 5.17321 0.00991264ZM6.0739 1.29367C6.34721 1.35218 6.69806 1.49626 6.91241 1.63801C7.47664 2.01114 7.89706 2.64034 8.01591 3.28948C8.03487 3.39298 8.04739 3.89066 8.04739 4.54056V5.61974H5.57966H3.11193L3.11243 4.52783C3.11298 3.33544 3.12276 3.23754 3.28279 2.81965C3.57389 2.05948 4.25858 1.47609 5.0716 1.29546C5.30284 1.24411 5.83781 1.24314 6.0739 1.29367Z" fill="white" fill-opacity="0.35"/>
</svg>
