<svg width="26" height="36" viewBox="0 0 26 36" fill="none" xmlns="http://www.w3.org/2000/svg">
<g opacity="0.1">
<path d="M8.72214 0C8.72214 0 12.2026 3.286 16.3614 0L17.2018 6.33803L16.3614 13.2844H8.72214L7.83351 6.19316L8.72214 0Z" fill="white"/>
<path d="M14.7776 0.969972V13.2844L16.3614 13.2844L17.2018 6.33803L16.3614 0C15.8201 0.427654 15.2898 0.743179 14.7776 0.969972Z" fill="white"/>
<path d="M25.0827 16.3101V34.3036C25.0827 35.2402 24.3228 36 23.3862 36H1.69642C0.759839 36 0 35.2402 0 34.3036V16.3101C0 15.9247 0.131106 15.551 0.371589 15.2504L0.98004 14.4891C2.83002 12.177 3.83758 9.30422 3.83758 6.3431V1.01915C3.83758 0.456338 4.29392 0 4.85674 0H8.72214L8.72185 7.09787C8.72185 8.15251 9.14921 9.1072 9.84097 9.79895C10.532 10.49 11.4867 10.9173 12.5413 10.9173C14.6506 10.9173 16.3608 9.20716 16.3608 7.09787L16.3614 0H20.2259C20.7887 0 21.2451 0.456338 21.2451 1.01915V6.3431C21.2451 9.30422 22.2526 12.177 24.1026 14.4891L24.7111 15.2504C24.9515 15.551 25.0827 15.9247 25.0827 16.3101Z" fill="white"/>
<path d="M10.9585 10.9174C11.2299 10.9174 11.4946 10.8887 11.75 10.8348C10.0204 10.4703 8.72185 8.93589 8.72185 7.09787L8.72214 0H7.13885V7.09779C7.13885 9.20731 8.84896 10.9174 10.9585 10.9174Z" fill="white"/>
<path d="M24.7111 15.2504L24.1026 14.4891C22.2526 12.177 21.2451 9.30422 21.2451 6.3431V1.01915C21.2451 0.456338 20.7887 0 20.2259 0H18.6431C19.2058 0 19.662 0.456193 19.662 1.01894V6.3431C19.662 9.30415 20.6697 12.829 22.5195 15.1412L23.128 15.9019C23.3686 16.2028 23.4998 16.5765 23.4998 16.9617V34.3034C23.4998 35.2404 22.7402 35.9999 21.8033 35.9999L23.3862 36C24.3228 36 25.0827 35.2402 25.0827 34.3036V16.3101C25.0827 15.9247 24.9515 15.551 24.7111 15.2504Z" fill="white"/>
<path d="M25.0823 18.9214V20.0079H24.2703C23.3004 20.0079 22.5109 19.2191 22.5109 18.2484V16.6165L22.0936 16.0957C19.888 13.3381 18.6733 9.87428 18.6733 6.3431V0H19.7598V6.3431C19.7598 9.62873 20.8898 12.8513 22.9426 15.417L23.4786 16.087C23.5554 16.1833 23.5974 16.3029 23.5974 16.426V18.2484C23.5974 18.62 23.8994 18.9214 24.2703 18.9214H25.0823Z" fill="white"/>
<path d="M6.40901 0V6.3431C6.40901 9.87428 5.19428 13.3381 2.98865 16.0957L2.57143 16.6165V18.2484C2.57143 19.2191 1.78189 20.0079 0.811991 20.0079H0V18.9214H0.811991C1.18286 18.9214 1.48491 18.62 1.48491 18.2484V16.426C1.48491 16.3029 1.52692 16.1833 1.6037 16.087L2.13972 15.417C4.19251 12.8513 5.32249 9.62873 5.32249 6.3431V0H6.40901Z" fill="white"/>
<path d="M13.7531 4.4393H11.3292C11.0292 4.4393 10.7859 4.19614 10.7859 3.89604C10.7859 3.59595 11.0292 3.35278 11.3292 3.35278H13.7531C14.0532 3.35278 14.2963 3.59595 14.2963 3.89604C14.2963 4.19614 14.0532 4.4393 13.7531 4.4393Z" fill="white"/>
</g>
</svg>
