<svg width="27" height="37" viewBox="0 0 27 37" fill="none" xmlns="http://www.w3.org/2000/svg">
<path fill-rule="evenodd" clip-rule="evenodd" d="M8.2893 0.149066C7.95006 0.279666 7.63194 0.572884 5.56717 2.65778C-0.0569527 8.33668 2.24694e-05 8.27712 2.24694e-05 8.47674C2.24694e-05 8.61457 0.238885 8.94349 0.876287 9.68344C1.35822 10.2429 1.82361 10.7271 1.91056 10.7595C1.99744 10.7918 2.13926 10.7917 2.2257 10.7592C2.31215 10.7269 3.52061 9.88306 4.91118 8.88423C7.25749 7.19886 7.44112 7.08113 7.46203 7.24902C7.47436 7.34861 7.35054 8.84665 7.18687 10.5781C6.87616 13.864 6.87608 13.9241 7.18237 14.0873C7.37413 14.1895 19.6259 14.1895 19.8176 14.0873C20.1239 13.9241 20.1238 13.864 19.8131 10.5781C19.6495 8.84665 19.5256 7.34861 19.538 7.24902C19.5589 7.08113 19.7425 7.19886 22.0888 8.88423C23.4794 9.88306 24.6879 10.7269 24.7743 10.7592C24.8607 10.7917 25.0026 10.7918 25.0894 10.7595C25.1764 10.7271 25.6418 10.2429 26.1237 9.68344C26.7611 8.94349 27 8.61457 27 8.47674C27 8.27712 27.057 8.33668 21.4331 2.658C18.6321 -0.170242 18.8725 -0.0195499 17.2129 0.0116727L16.151 0.0316204L16.0945 0.423637C16.0169 0.961214 15.7808 1.41026 15.3508 1.83848C14.9189 2.26851 14.4845 2.49401 13.917 2.58262C13.0591 2.71662 12.2714 2.45809 11.6492 1.83848C11.2192 1.41026 10.9831 0.961214 10.9055 0.423637L10.849 0.0316204L9.76116 0.0163705C8.81529 0.00307201 8.62331 0.0204179 8.2893 0.149066ZM8.13122 15.7851C8.00369 15.9204 7.94897 16.0908 7.90498 16.4898C7.86964 16.8111 7.94853 20.8435 8.1077 26.8454C8.31608 34.7033 8.38837 36.7074 8.46814 36.8374C8.56685 36.9983 8.58456 37 10.2217 37C11.4304 37 11.9087 36.9757 11.9991 36.9097C12.1076 36.8304 12.1939 35.8599 12.7046 28.9775C13.0246 24.6646 13.3017 21.0928 13.3203 21.0404C13.3728 20.8923 13.6785 20.969 13.7005 21.1358C13.7111 21.2153 13.9798 24.7764 14.2977 29.0496C14.8065 35.8892 14.8906 36.8297 15.0001 36.9094C15.0912 36.9757 15.5659 37 16.7711 37C18.2076 37 18.4303 36.9849 18.5163 36.8817C18.5951 36.7872 18.6707 34.8424 18.8919 27.215C19.1936 16.8156 19.1924 16.1282 18.8722 15.7888L18.7005 15.6068H13.5H8.29953L8.13122 15.7851Z" fill="white" fill-opacity="0.1"/>
</svg>
