<svg width="35" height="32" viewBox="0 0 35 32" fill="none" xmlns="http://www.w3.org/2000/svg">
<g opacity="0.1">
<path d="M34.2107 30.0858L29.9498 31.5483C29.8113 31.5957 29.6599 31.5873 29.5275 31.5248C29.3952 31.4623 29.2924 31.3507 29.241 31.2137L29.1117 30.8733L28.8107 30.0887L26.0376 22.8155L25.8632 27.2199L25.0501 28.2704L9.79035 28.3758L8.72948 27.2199L8.5551 22.8155L5.78198 30.0887L5.48104 30.8733L5.35166 31.2137C5.30027 31.3507 5.19751 31.4623 5.06518 31.5248C4.93285 31.5873 4.78138 31.5957 4.64291 31.5483L0.381976 30.0858C0.241704 30.0379 0.125923 29.9367 0.0596228 29.8041C-0.00667715 29.6715 -0.0181784 29.5181 0.0276014 29.3771C0.876976 26.8037 4.63166 15.4552 6.52448 10.134C7.12808 8.43902 8.35515 7.03794 9.95573 6.21616L11.5195 5.36678H23.0732L24.637 6.21616C26.2376 7.03794 27.4646 8.43902 28.0682 10.134C29.961 15.4552 33.7157 26.8037 34.5651 29.3771C34.6109 29.5181 34.5994 29.6715 34.5331 29.8041C34.4668 29.9367 34.351 30.0379 34.2107 30.0858Z" fill="white"/>
<path d="M25.8632 27.2199L25.824 28.2237C25.8189 28.3694 25.7574 28.5075 25.6525 28.6088C25.5476 28.71 25.4074 28.7666 25.2615 28.7665H9.33155C9.18571 28.7666 9.04554 28.71 8.9406 28.6088C8.83566 28.5075 8.77415 28.3694 8.76905 28.2237L8.72948 27.2199H25.8632Z" fill="white"/>
<path d="M24.4967 3.42422C23.428 2.16956 21.7489 0 20.0586 0H14.5354C12.8451 0 11.1663 2.16956 10.0973 3.42422C9.91652 3.61644 9.81619 3.87058 9.81692 4.13446C9.81765 4.39833 9.91939 4.65192 10.1012 4.84313C11.2144 5.95378 14.3985 7.82438 17.2709 7.98891H17.3226C20.195 7.82353 23.379 5.95378 24.4922 4.84313C24.6742 4.65199 24.776 4.39845 24.7768 4.13457C24.7777 3.87069 24.6774 3.61651 24.4967 3.42422Z" fill="white"/>
<path d="M5.78198 30.0887L5.48104 30.8733L1.30733 29.4133C1.20545 29.3736 1.12296 29.2959 1.07724 29.1966C1.03152 29.0973 1.02615 28.9841 1.06225 28.8809C1.09836 28.7777 1.17311 28.6925 1.27077 28.6433C1.36843 28.5942 1.48136 28.5849 1.58576 28.6173L5.76514 30.0798C5.77076 30.0826 5.77635 30.083 5.78198 30.0887Z" fill="white"/>
<path d="M15.0891 17.5917C14.9772 17.5917 14.8699 17.5473 14.7908 17.4682C14.7116 17.389 14.6672 17.2817 14.6672 17.1698C14.6672 14.6046 16.0481 7.28194 16.1069 6.97144C16.1277 6.86149 16.1914 6.76431 16.2838 6.70128C16.3763 6.63825 16.49 6.61454 16.6 6.63535C16.7099 6.65616 16.8071 6.71979 16.8701 6.81225C16.9331 6.90472 16.9569 7.01843 16.936 7.12838C16.9217 7.20375 15.511 14.6833 15.511 17.169C15.5111 17.2245 15.5002 17.2794 15.4791 17.3307C15.4579 17.382 15.4269 17.4286 15.3877 17.4679C15.3485 17.5071 15.302 17.5383 15.2507 17.5595C15.1995 17.5808 15.1445 17.5917 15.0891 17.5917Z" fill="white"/>
<path d="M17.2967 6.36031C16.6745 6.3601 16.0617 6.20702 15.5125 5.91453C14.3326 5.28621 13.5378 4.45934 13.15 3.45696C13.13 3.40525 13.1204 3.35012 13.1218 3.29471C13.1231 3.2393 13.1354 3.18469 13.1578 3.13401C13.1803 3.08333 13.2125 3.03757 13.2526 2.99934C13.2927 2.96111 13.34 2.93116 13.3917 2.9112C13.4434 2.89123 13.4986 2.88165 13.554 2.88299C13.6094 2.88434 13.664 2.89658 13.7147 2.91903C13.7653 2.94148 13.8111 2.97369 13.8493 3.01382C13.8876 3.05395 13.9175 3.10122 13.9375 3.15293C14.2494 3.96068 14.9126 4.63934 15.9088 5.16949C16.3358 5.39731 16.8124 5.51648 17.2965 5.51648C17.7805 5.51648 18.2571 5.39731 18.6841 5.16949C19.6803 4.63934 20.3435 3.96012 20.6554 3.15293C20.6754 3.10122 20.7053 3.05395 20.7436 3.01382C20.7818 2.97369 20.8276 2.94148 20.8782 2.91903C20.9289 2.89658 20.9835 2.88434 21.0389 2.88299C21.0944 2.88165 21.1495 2.89123 21.2012 2.9112C21.2529 2.93116 21.3002 2.96111 21.3403 2.99934C21.3804 3.03757 21.4126 3.08333 21.4351 3.13401C21.4575 3.18469 21.4698 3.2393 21.4711 3.29471C21.4725 3.35012 21.4629 3.40525 21.4429 3.45696C21.0556 4.45934 20.2617 5.28509 19.0804 5.91453C18.5313 6.20693 17.9188 6.36 17.2967 6.36031Z" fill="white"/>
<path d="M33.286 29.4133L29.1117 30.8733L28.8107 30.0887C28.8164 30.083 28.8225 30.0826 28.8282 30.0798L33.0075 28.6173C33.1119 28.5849 33.2249 28.5942 33.3225 28.6433C33.4202 28.6925 33.4949 28.7777 33.531 28.8809C33.5672 28.9841 33.5618 29.0973 33.5161 29.1966C33.4703 29.2959 33.3878 29.3736 33.286 29.4133Z" fill="white"/>
<path d="M19.5043 17.5916C19.3924 17.5916 19.2851 17.5471 19.206 17.468C19.1269 17.3889 19.0824 17.2816 19.0824 17.1697C19.0824 14.6829 17.6717 7.20363 17.6573 7.12909C17.6365 7.01915 17.6601 6.90542 17.7232 6.81293C17.7862 6.72044 17.8833 6.65677 17.9933 6.63592C18.1032 6.61507 18.2169 6.63876 18.3094 6.70176C18.4019 6.76476 18.4656 6.86193 18.4864 6.97187C18.5449 7.28125 19.9262 14.605 19.9262 17.1703C19.926 17.2821 19.8815 17.3892 19.8024 17.4682C19.7233 17.5472 19.6161 17.5916 19.5043 17.5916Z" fill="white"/>
<path d="M23.7413 25.4562C23.6617 25.4563 23.5837 25.4338 23.5163 25.3915C22.2623 24.6225 21.2084 23.5673 20.4408 22.3124C20.3832 22.2164 20.3661 22.1015 20.3931 21.993C20.4202 21.8844 20.4893 21.791 20.5853 21.7334C20.6812 21.6758 20.7961 21.6586 20.9046 21.6857C21.0132 21.7128 21.1066 21.7819 21.1642 21.8778C21.8641 23.019 22.8243 23.9782 23.9663 24.6768C24.0437 24.7256 24.1031 24.7982 24.1357 24.8837C24.1682 24.9692 24.1721 25.0629 24.1467 25.1508C24.1213 25.2387 24.068 25.316 23.9949 25.3709C23.9218 25.4259 23.8328 25.4562 23.7413 25.4562Z" fill="white"/>
<path d="M10.8532 25.4562C10.7617 25.4562 10.6727 25.4265 10.5996 25.3715C10.5265 25.3165 10.4732 25.2393 10.4478 25.1514C10.4224 25.0635 10.4263 24.9698 10.4588 24.8843C10.4913 24.7988 10.5508 24.7262 10.6282 24.6774C11.7702 23.9786 12.7305 23.0192 13.4303 21.8778C13.4879 21.7819 13.5813 21.7128 13.6898 21.6857C13.7984 21.6586 13.9133 21.6758 14.0092 21.7334C14.1051 21.791 14.1742 21.8844 14.2013 21.993C14.2284 22.1015 14.2113 22.2164 14.1536 22.3124C13.3859 23.5673 12.3318 24.6225 11.0776 25.3915C11.0104 25.4337 10.9326 25.4562 10.8532 25.4562Z" fill="white"/>
<path d="M8.55521 23.2378C8.44614 23.2378 8.34128 23.1957 8.26262 23.1201C8.18396 23.0445 8.13763 22.9415 8.13334 22.8325L7.66759 10.9986C7.6654 10.9432 7.67414 10.888 7.69332 10.836C7.71249 10.784 7.74171 10.7363 7.77932 10.6956C7.81693 10.6549 7.86219 10.622 7.91251 10.5988C7.96283 10.5756 8.01722 10.5626 8.07259 10.5604C8.18387 10.558 8.29176 10.5988 8.3735 10.6744C8.45525 10.7499 8.50446 10.8543 8.51078 10.9654L8.97709 22.7993C8.97927 22.8546 8.97053 22.9099 8.95136 22.9619C8.93219 23.0139 8.90296 23.0616 8.86536 23.1023C8.82775 23.143 8.78249 23.1758 8.73217 23.199C8.68185 23.2222 8.62746 23.2353 8.57209 23.2375L8.55521 23.2378Z" fill="white"/>
<path d="M26.0386 23.2379H26.0217C25.9663 23.2357 25.9119 23.2226 25.8616 23.1994C25.8113 23.1762 25.7661 23.1434 25.7284 23.1027C25.6908 23.062 25.6616 23.0143 25.6424 22.9623C25.6233 22.9103 25.6145 22.855 25.6167 22.7997L26.083 10.9655C26.0852 10.9101 26.0983 10.8557 26.1215 10.8054C26.1447 10.755 26.1776 10.7097 26.2183 10.6721C26.259 10.6344 26.3068 10.6052 26.3588 10.586C26.4108 10.5668 26.4661 10.5581 26.5215 10.5603C26.5769 10.5624 26.6313 10.5755 26.6817 10.5987C26.732 10.6219 26.7773 10.6548 26.8149 10.6955C26.8526 10.7363 26.8818 10.784 26.901 10.836C26.9202 10.888 26.9289 10.9433 26.9268 10.9987L26.4599 22.8326C26.4556 22.9415 26.4094 23.0445 26.3308 23.12C26.2523 23.1956 26.1476 23.2378 26.0386 23.2379Z" fill="white"/>
</g>
</svg>
