<svg width="34" height="36" viewBox="0 0 34 36" fill="none" xmlns="http://www.w3.org/2000/svg">
<g opacity="0.1">
<path d="M26.9919 9.74253L29.1688 4.83592C29.8184 3.37166 29.1544 1.65828 27.6878 1.01415C26.2289 0.373394 24.5265 1.03307 23.8802 2.48959L22.4354 5.74625C21.7488 7.2939 20.2146 8.29164 18.5215 8.29164H14.7045C13.0113 8.29164 11.4772 7.29397 10.7906 5.74625L9.3458 2.48959C8.69956 1.03307 6.99715 0.373323 5.53823 1.01415C4.07159 1.65828 3.40763 3.37173 4.05724 4.83592L6.23412 9.74253C7.19649 11.9117 6.8464 14.4389 5.3306 16.2648L2.56198 19.5998C2.01157 20.2628 1.71035 21.0973 1.71035 21.9589V32.8516C1.71028 34.5903 3.11977 35.9998 4.85845 35.9998H28.3675C30.1062 35.9998 31.5157 34.5903 31.5157 32.8517V21.959C31.5157 21.0974 31.2144 20.2628 30.6641 19.5999L27.8954 16.2649C26.3796 14.4389 26.0295 11.9117 26.9919 9.74253Z" fill="white"/>
<path d="M30.6641 19.5999L27.8954 16.2649C26.3796 14.4389 26.0295 11.9117 26.9919 9.74253L29.1688 4.83592C29.8184 3.37166 29.1544 1.65828 27.6878 1.01415C26.8628 0.651831 25.9607 0.70567 25.2151 1.08395C26.5784 1.77505 27.1768 3.42163 26.5493 4.83604L24.3724 9.74265C23.41 11.9119 23.7601 14.439 25.2759 16.2649L28.0445 19.5999C28.5949 20.2629 28.8961 21.0974 28.8961 21.959V32.8517C28.8961 34.5904 27.4867 35.9999 25.748 35.9999L28.3675 35.9998C30.1062 35.9998 31.5157 34.5903 31.5157 32.8517V21.959C31.5157 21.0974 31.2144 20.2628 30.6641 19.5999Z" fill="white"/>
<path d="M24.3226 0.874653L23.0317 3.78425C22.3301 5.36565 23.0472 7.21607 24.6312 7.91181C26.2068 8.60382 28.0454 7.89135 28.7433 6.31832L30.0392 3.39747C30.3695 2.65307 30.0319 1.78204 29.2863 1.45459L26.2582 0.124559C25.5166 -0.201198 24.6511 0.134192 24.3226 0.874653Z" fill="white"/>
<path d="M8.90346 0.874577L10.1943 3.78418C10.8959 5.36558 10.1789 7.21599 8.59485 7.91173C7.01922 8.60375 5.18062 7.89127 4.4827 6.31824L3.18684 3.39739C2.85659 2.65299 3.19416 1.78196 3.93975 1.45451L6.96782 0.124553C7.70948 -0.201275 8.57496 0.134116 8.90346 0.874577Z" fill="white"/>
<path d="M29.3514 21.6228V23.6222C29.3514 23.9099 29.5846 24.1432 29.8724 24.1432H32.7058C32.9935 24.1432 33.2268 23.91 33.2268 23.6222V21.6228C33.2268 21.3351 32.9936 21.1018 32.7058 21.1018H29.8724C29.5846 21.1018 29.3514 21.3351 29.3514 21.6228Z" fill="white"/>
<path d="M0 21.6228V23.6222C0 23.9099 0.233227 24.1432 0.521016 24.1432H3.3544C3.64212 24.1432 3.87541 23.91 3.87541 23.6222V21.6228C3.87541 21.3351 3.64219 21.1018 3.3544 21.1018H0.521016C0.233297 21.1018 0 21.3351 0 21.6228Z" fill="white"/>
<path d="M29.3514 28.2292V30.2286C29.3514 30.5163 29.5846 30.7496 29.8724 30.7496H32.7058C32.9935 30.7496 33.2268 30.5164 33.2268 30.2286V28.2292C33.2268 27.9415 32.9936 27.7082 32.7058 27.7082H29.8724C29.5846 27.7082 29.3514 27.9415 29.3514 28.2292Z" fill="white"/>
<path d="M0 28.2292V30.2286C0 30.5163 0.233227 30.7496 0.521016 30.7496H3.3544C3.64212 30.7496 3.87541 30.5164 3.87541 30.2286V28.2292C3.87541 27.9415 3.64219 27.7082 3.3544 27.7082H0.521016C0.233297 27.7082 0 27.9415 0 28.2292Z" fill="white"/>
<path d="M24.1622 24.1432H9.064C8.82142 24.1432 8.62476 23.9465 8.62476 23.7039V21.541C8.62476 21.2985 8.82142 21.1018 9.064 21.1018H24.1622C24.4048 21.1018 24.6014 21.2985 24.6014 21.541V23.704C24.6014 23.9465 24.4048 24.1432 24.1622 24.1432Z" fill="white"/>
<path d="M24.1622 30.7495H9.064C8.82142 30.7495 8.62476 30.5529 8.62476 30.3103V28.1474C8.62476 27.9048 8.82142 27.7081 9.064 27.7081H24.1622C24.4048 27.7081 24.6014 27.9048 24.6014 28.1474V30.3103C24.6014 30.553 24.4048 30.7495 24.1622 30.7495Z" fill="white"/>
<path d="M16.6132 17.2899C16.4603 17.2899 16.3074 17.2631 16.1618 17.2093L11.2417 15.3935C10.5662 15.1443 10.2207 14.3945 10.47 13.7189C10.7192 13.0433 11.4692 12.6978 12.1445 12.9472L16.6132 14.5964L21.0818 12.9472C21.7574 12.6978 22.5071 13.0435 22.7564 13.719C23.0057 14.3945 22.6602 15.1444 21.9847 15.3936L17.0646 17.2094C16.919 17.2631 16.7661 17.2899 16.6132 17.2899Z" fill="white"/>
</g>
</svg>
