<svg width="22" height="36" viewBox="0 0 22 36" fill="none" xmlns="http://www.w3.org/2000/svg">
<path d="M1.7001 16.8332C2.43343 17.9332 3.36677 17.9666 4.03343 17.9999C4.46677 17.9999 4.73343 18.0332 4.86677 18.1999C5.1001 18.4666 5.26677 19.0332 5.4001 19.5666C5.56677 20.1999 5.73343 20.7666 6.06677 21.0332C6.76677 21.5666 7.86677 22.0332 10.9668 22.0332C14.0668 22.0332 15.1334 21.5666 15.8668 21.0332C16.2334 20.7666 16.3668 20.1999 16.5334 19.5666C16.6668 19.0332 16.8334 18.4999 17.0668 18.1999C17.2001 18.0332 17.5001 17.9999 17.9001 17.9999C18.6001 17.9666 19.5334 17.9332 20.2334 16.8332C20.9668 15.7332 20.4668 14.7666 20.0334 13.8999C19.7668 13.3666 19.5001 12.8332 19.5001 12.2999C19.5001 11.8999 19.6668 11.4666 19.8668 10.9666C20.4001 9.63322 21.1334 7.79989 19.4668 4.76655C17.3334 0.866553 12.8334 0.466553 11.0001 0.466553C9.16677 0.466553 4.66677 0.899886 2.5001 4.76655C0.800101 7.79989 1.56677 9.63322 2.1001 10.9666C2.3001 11.4666 2.46677 11.8999 2.46677 12.2999C2.46677 12.8332 2.2001 13.3666 1.93343 13.8999C1.5001 14.7666 1.0001 15.7332 1.7001 16.8332ZM12.7001 12.1999C13.1001 11.6999 13.8668 11.3999 15.0001 11.2666C15.6334 11.1999 16.4334 11.1999 16.9334 11.6332C17.3001 11.9332 17.5001 12.3999 17.5668 13.1332C17.6334 13.6999 17.4334 14.2332 17.1001 14.6666C16.7001 15.0999 16.1668 15.3666 15.4668 15.4332C13.9668 15.5666 12.5334 14.6999 12.4001 13.5999C12.3001 12.9666 12.4001 12.5332 12.7001 12.1999ZM11.0001 16.0332C11.5001 16.0332 12.1001 17.5666 12.1001 18.2999C12.1001 18.7332 11.9001 18.7999 11.0001 18.7999C10.1001 18.7999 9.9001 18.6999 9.9001 18.2999C9.9001 17.5666 10.5001 16.0332 11.0001 16.0332ZM4.43343 13.0999C4.5001 12.3666 4.7001 11.8999 5.06677 11.5999C5.56677 11.1999 6.36677 11.1666 7.0001 11.2332C8.13343 11.3666 8.93343 11.6666 9.3001 12.1666C9.56677 12.4999 9.66677 12.9666 9.6001 13.5332C9.46677 14.6332 8.06677 15.4999 6.53343 15.3666C5.83343 15.2999 5.26677 15.0332 4.9001 14.5999C4.56677 14.1999 4.4001 13.6666 4.43343 13.0999Z" fill="white"/>
<path d="M21.7002 30.4998C21.5668 30.0331 21.2668 29.6664 20.8335 29.4331C20.2002 29.0998 19.4335 29.1664 18.8335 29.6331C18.7002 29.7664 18.4668 29.9331 18.1335 29.7331C17.8668 29.5998 16.5002 28.8664 14.7668 27.9331L15.9668 27.2664H16.0002L18.1668 26.0998C18.4668 25.9331 18.6002 26.0331 18.7335 26.1664C19.3668 26.6998 20.1668 26.7664 20.8002 26.3998C21.6668 25.9331 22.0002 24.8331 21.5335 23.9664C21.3335 23.5998 21.0335 23.3331 20.6335 23.1664C20.3002 23.0331 20.2002 22.6664 20.2668 22.3664C20.3335 21.9664 20.2668 21.5998 20.0668 21.2664C19.6002 20.3998 18.5002 20.0664 17.6335 20.5331C17.0002 20.8664 16.6335 21.5664 16.7002 22.2998C16.7335 22.4998 16.7335 22.7664 16.4002 22.9664C16.1002 23.1331 14.8002 23.8331 12.5335 25.0664L12.5002 25.0998L11.0002 25.9331C8.36682 24.5331 5.93349 23.1998 5.56682 22.9998C5.20015 22.7998 5.23349 22.5331 5.26682 22.3331C5.33349 21.5998 4.96682 20.9331 4.33349 20.5998C3.46682 20.1331 2.36682 20.4664 1.90015 21.3331C1.70015 21.6664 1.63349 22.0664 1.70015 22.4331C1.73349 22.7331 1.66682 23.0998 1.33349 23.2331C0.96682 23.3998 0.633487 23.6664 0.433487 24.0331C-0.0331801 24.8998 0.300153 25.9998 1.16682 26.4664C1.80015 26.7998 2.60015 26.7331 3.16682 26.2664C3.40015 26.0664 3.50015 25.9664 3.80015 26.1331L7.23349 27.9664L6.06682 28.5998H6.03349C4.73349 29.2998 4.06682 29.6331 3.86682 29.7664C3.50015 29.9664 3.30015 29.7998 3.13349 29.6664C2.56682 29.1998 1.80015 29.1331 1.16682 29.4998C0.300153 29.9664 -0.0331801 31.0664 0.433487 31.9331C0.633487 32.2664 0.900153 32.5331 1.26682 32.6998C1.53349 32.8331 1.80015 33.0998 1.73349 33.4664C1.66682 33.8664 1.73349 34.2998 1.93349 34.6664C2.40015 35.5331 3.50015 35.8664 4.36682 35.3998C5.00015 35.0664 5.36682 34.3664 5.30015 33.6331C5.26682 33.3331 5.23349 33.1998 5.53349 33.0331L9.50015 30.8998C9.50015 30.8998 9.50015 30.8998 9.53349 30.8998L11.0002 30.0998L16.5002 33.0664C16.8002 33.2331 16.7668 33.3998 16.7668 33.5998C16.6668 34.3998 17.0668 35.0998 17.7002 35.4664C18.5668 35.9331 19.6668 35.5998 20.1335 34.7331C20.3335 34.3664 20.4002 33.9664 20.3335 33.5331C20.2668 33.1664 20.5335 32.8998 20.8002 32.7664C21.1668 32.5998 21.4335 32.3331 21.6335 31.9998C21.7668 31.4664 21.8335 30.9664 21.7002 30.4998Z" fill="white"/>
</svg>
