<svg xmlns="http://www.w3.org/2000/svg" width="19" height="19" fill="none" viewBox="0 0 19 19">
  <path fill="#fff" fill-opacity=".25" fill-rule="evenodd" d="M6.603.04A7.589 7.589 0 0 0 2.211 2.2C-.03 4.44-.633 7.838.703 10.674c1.105 2.343 3.308 3.964 5.837 4.295a7.505 7.505 0 0 0 5.333-1.338c.183-.131.345-.239.361-.239.016 0 1.257 1.228 2.758 2.729 2.876 2.875 2.88 2.878 3.211 2.879.164 0 .485-.134.583-.245a1.06 1.06 0 0 0 .214-.552c0-.332-.003-.335-2.877-3.214-1.5-1.502-2.727-2.742-2.727-2.756 0-.014.109-.178.241-.366a7.377 7.377 0 0 0 1.392-4.332 7.444 7.444 0 0 0-2.217-5.35A7.524 7.524 0 0 0 8.682.078C8.178-.008 7.13-.026 6.603.04Zm1.782 1.598c1.693.272 3.138 1.188 4.055 2.57.683 1.027.996 2.055 1 3.279.002.59-.04.946-.175 1.486a5.946 5.946 0 0 1-4.285 4.288c-.54.135-.897.178-1.486.176-1.223-.005-2.25-.318-3.277-1.001a5.904 5.904 0 0 1-2.625-4.922c0-.998.204-1.835.67-2.735a5.997 5.997 0 0 1 3.692-2.997c.678-.194 1.73-.257 2.431-.144Z" clip-rule="evenodd"/>
</svg>
