<svg width="27" height="28" viewBox="0 0 27 28" fill="none" xmlns="http://www.w3.org/2000/svg">
<path d="M18.4782 4.17981L21.1869 2.31468C21.864 1.84839 21.9393 0.915825 21.3373 0.371827C21.0364 0.0609713 20.6602 -0.094452 20.2087 0.060976L15.3933 1.07125L12.0827 7.36609C11.8569 7.75466 12.0074 8.29866 12.3084 8.60952L12.8351 9.15352L9.14826 12.9615L0.495526 21.9763L0.420281 22.054C-1.23503 25.5512 2.30132 29.2814 5.76241 27.5717L5.83764 27.494L14.5656 18.4792L18.2524 14.6712L18.7791 15.2152C19.1553 15.6038 19.6068 15.6815 19.983 15.4483L26.0775 12.0289L26.9804 7.05524C27.0557 6.66667 26.9052 6.20038 26.6795 5.88953C26.1528 5.34553 25.2499 5.42323 24.7984 6.12266L23.0679 8.92037L19.4563 10.5524L16.8981 7.91009L18.4782 4.17981Z" fill="#A0FF98"/>
</svg>
