<svg xmlns="http://www.w3.org/2000/svg" width="32" height="36" fill="none" viewBox="0 0 32 36">
  <g opacity=".1">
    <path fill="#fff" d="M30.159 26.51a9.236 9.236 0 0 0 .994-4.15c0-4.797.062-4.786-.181-5.34a2.17 2.17 0 0 0-.43-.64 2.159 2.159 0 0 0-2.221-.558c-.875-2.962-2.334-5.12-4.324-7.11a2.172 2.172 0 0 0-2.945-.117c-1.16-.99-2.926-.493-3.457.886-1.41.238-2.587 1.945-1.172 3.678.153.188.296.36.438.527-.918.781-1.083 2.026-.13 3.192.919 1.19 1.384 2.37 1.384 3.512v3.626c0 2.1.469 4.101 1.785 5.558a4.323 4.323 0 0 1 1.102 2.624h-.081c-.56 0-1.014.453-1.014 1.013v1.775c0 .56.453 1.014 1.014 1.014h8.458c.56 0 1.014-.454 1.014-1.014V33.21c0-.56-.454-1.013-1.014-1.013h-.088v-3.38c0-1.184.213-.931.868-2.308Z"/>
    <path fill="#fff" d="M21.917 26.693c0 .276.204.52.478.552a.543.543 0 0 0 .609-.539 3.807 3.807 0 0 1 3.803-3.803c.82 0 .737-1.086.044-1.086a4.893 4.893 0 0 0-4.934 4.876Zm1.63-5.76c.598 0 1.081-.488 1.074-1.087-.126-2.959-1.292-5.656-3.697-8.06a2.173 2.173 0 0 1 .128-3.19 2.143 2.143 0 0 0-1.046-.49 3.26 3.26 0 0 0 .15 4.448c2.142 2.142 3.25 4.533 3.378 7.292h-1.09c-.233-3.898-2.926-6.33-4.339-8.06-.624-.766-.789-1.592-.507-2.313a.128.128 0 0 0-.003.008 2.24 2.24 0 0 0-1.22.65c-.024 1.415.847 2.313 1.628 3.205 1.415 1.618 3.156 3.61 3.352 6.51h-1.09c-.208-2.631-1.876-4.392-3.404-6.16a2.2 2.2 0 0 0-.628.85c1.347 1.666 2.755 3.126 2.948 5.415.047.556.513.982 1.07.982h3.296Z"/>
    <path fill="#fff" d="M30.159 26.51a9.236 9.236 0 0 0 .994-4.15c0-4.797.062-4.786-.181-5.34a2.175 2.175 0 0 0-.907-1.01 2.163 2.163 0 0 0-1.085 1.88v4.47c0 1.29-.36 2.562-1.04 3.678a5.608 5.608 0 0 0-.818 2.918v3.242h1.098v1.63h-1.48v-1.63h-1.086v1.63h-1.011v-1.63h-1.087v1.63h-1.01v-1.63H21.46v1.63h-1.554v1.158c0 .56.454 1.014 1.015 1.014h8.458c.56 0 1.014-.454 1.014-1.014V33.21c0-.56-.454-1.013-1.014-1.013h-.088v-3.38c0-1.16.213-.933.868-2.308Zm-4.074-10.53c.189.545.325.94.563 1.227.059.07.134.124.217.157a2.177 2.177 0 0 1 1.447-1.569c-.876-2.948-2.33-5.099-4.315-7.083A2.171 2.171 0 0 0 21.9 8.15a2.163 2.163 0 0 0 .561 2.1c2.518 2.517 3.211 4.528 3.625 5.73ZM14.292 5.61c.142-.167.285-.338.439-.526 1.414-1.733.236-3.44-1.173-3.679C13.027.027 11.262-.47 10.101.52a2.172 2.172 0 0 0-2.945.117c-1.99 1.99-3.449 4.147-4.324 7.11C1.449 7.297 0 8.334 0 9.815v4.47c0 1.578.413 3.039 1.057 4.272.478.918.713 1.944.713 2.979v2.587h-.016c-.56 0-1.014.454-1.014 1.014v1.775c0 .56.454 1.014 1.014 1.014h8.458c.56 0 1.014-.454 1.014-1.014v-1.774c0-.56-.454-1.015-1.014-1.015h-.071v-.153c0-.863.348-1.685.952-2.302 1.438-1.468 1.945-3.544 1.945-5.728v-3.626c0-1.143.465-2.321 1.384-3.511.952-1.167.787-2.411-.13-3.193Z"/>
    <path fill="#fff" d="M2.173 10.384v2.813c0 .707.02 1.63 1.062 1.63h1.111a3.807 3.807 0 0 1 3.803 3.79.55.55 0 0 0 .408.54.544.544 0 0 0 .678-.527 4.895 4.895 0 0 0-4.889-4.89V9.816a2.172 2.172 0 0 0-2.85-2.065 2.16 2.16 0 0 0 .379 1.738c.192.26.298.573.298.896Z"/>
    <path fill="#fff" d="M14.292 5.61c.142-.167.285-.338.439-.526.78-.955.843-2.007.216-2.827-.437.18-.722.63-.667 1.124.07.637-.44 1.095-1.943 2.826-1.698 1.955-2.558 4.01-2.558 6.107H8.692c0-4.218 2.878-6.795 4.355-8.604.668-.819.81-1.708.442-2.462-.465.08-.84.46-.893.954-.152 1.415-4.99 4.288-4.99 10.112H6.519c0-3.173 1.158-6.053 3.71-8.604a2.173 2.173 0 0 0-.154-3.213 1.085 1.085 0 0 0-.372 1.276c.16.403.064.862-.242 1.169-2.787 2.786-4.028 5.951-4.028 9.372 0 .864.72 1.51 1.542 1.51 3.64 0 3.56-.048 3.897.147 0 2.67.17 5.271-1.936 6.676a2.168 2.168 0 0 0-.968 1.808v1.669h1.085v1.63H7.575v-1.63H6.488v1.63h-1.01v-1.63H4.39v1.63H3.38v-1.63H2.293v1.63H.74v1.158c0 .56.454 1.014 1.014 1.014h8.458c.56 0 1.014-.454 1.014-1.014v-1.774c0-.56-.454-1.015-1.014-1.015h-.071c0-.21 0-.243.004-.306.04-.826.408-1.604.925-2.119 2.273-2.264 1.968-5.666 1.968-8.417l-.005.001c-.02-1.444-.031-2.64 1.39-4.48.954-1.17.784-2.413-.13-3.191Zm-.73 2.529c-1.068 1.384-1.61 2.789-1.61 4.175h-1.087c0-2.487 1.314-4.269 2.72-5.885.574.575.481 1.076-.023 1.71Z"/>
  </g>
</svg>

