<svg xmlns="http://www.w3.org/2000/svg" width="45" height="42" fill="none" viewBox="0 0 45 42">
  <path fill="#fff" fill-opacity=".1" fill-rule="evenodd" d="M16.448.076c-1.622.317-2.87 1.679-3.137 3.419-.044.283-.13.37-.817.824-.422.279-1.065.745-1.428 1.035-.363.29-.674.538-.691.55-.017.013.24.293.572.622.332.33.702.765.823.966.121.202.252.368.29.37.04.001.336-.208.66-.466.325-.257.768-.587.986-.734l.397-.266.433.39c2.36 2.128 6.057.843 6.578-2.287.435-2.618-2.016-4.943-4.666-4.423ZM27 .076c-.542.107-1.394.527-1.826.902-.678.588-1.174 1.533-1.304 2.485l-.063.46h1.328c1.137 0 1.328-.02 1.328-.135 0-.074.08-.29.177-.48.2-.389.706-.699 1.143-.699.67 0 1.32.648 1.32 1.314 0 .435-.312.94-.702 1.137-.191.097-.408.177-.483.177-.116 0-.135.189-.135 1.313 0 1.494-.063 1.4.81 1.216.636-.135 1.36-.512 1.878-.98l.434-.39.396.266c.218.147.662.477.986.734.324.258.62.467.66.466.038-.002.17-.168.29-.37.121-.201.492-.636.824-.966.331-.33.589-.61.571-.621a99.02 99.02 0 0 1-.691-.55 23.563 23.563 0 0 0-1.428-1.036c-.686-.454-.773-.541-.816-.824-.218-1.422-1.05-2.567-2.268-3.122A3.886 3.886 0 0 0 27 .077Zm-9.156 2.71c.39.198.701.702.701 1.137 0 .666-.65 1.314-1.32 1.314-.669 0-1.32-.648-1.32-1.314 0-.421.312-.938.684-1.133.424-.223.821-.225 1.255-.004ZM5.436 7.309c-.58.114-1.485.651-1.96 1.162-1.155 1.242-1.418 2.818-.71 4.256l.23.47.714-.05c1.269-.088 2.61.266 3.716.98.333.214.657.39.721.391.347.006 1.362-.94 1.684-1.568 1.01-1.971.214-4.323-1.8-5.313-.636-.313-.743-.338-1.53-.354-.465-.01-.944.002-1.065.026Zm31.848.174c-.713.294-1.18.627-1.614 1.151-1.48 1.782-1.16 4.357.7 5.63.205.141.425.255.49.254.063 0 .387-.177.72-.392 1.11-.715 2.447-1.067 3.724-.978l.721.05.227-.461c.935-1.902.059-4.217-1.952-5.159-.534-.25-.696-.282-1.521-.306-.837-.023-.978-.003-1.495.21Zm-33.828 8.32c-1.421.295-2.452 1.034-3.034 2.175-.763 1.496-.479 3.16.748 4.38.292.29.634.58.762.646.213.11.263.098.632-.155 1.215-.832 2.482-1.197 3.906-1.124l.92.046.215-.468c1.056-2.296-.357-4.994-2.863-5.467-.473-.09-.954-.102-1.286-.033Zm36.74.032c-1.154.242-2.261 1.105-2.749 2.142-.518 1.103-.538 2.247-.056 3.303l.205.451 1.273.012c1.167.012 1.328.033 1.932.26.566.212 1.05.47 1.905 1.01.17.108.23.088.638-.21 1.595-1.165 2.101-3.136 1.24-4.825-.472-.927-1.467-1.757-2.448-2.044-.511-.15-1.465-.198-1.94-.098Zm-34.87 8.59c-.813.19-1.744.857-2.28 1.633-.323.468-.575 1.183-.65 1.848-.227 1.99 1.475 4.055 3.458 4.196l.601.043.172-.382c.634-1.406 1.882-2.646 3.254-3.23.353-.152.393-.199.393-.46 0-.436-.239-1.267-.505-1.753-.44-.805-1.29-1.503-2.204-1.81-.577-.193-1.613-.233-2.24-.086Zm32.104.08c-1.304.46-2.22 1.447-2.563 2.761-.075.284-.135.642-.135.796 0 .261.044.302.648.6 1.233.606 2.296 1.666 2.884 2.876l.295.606.597-.042c1.98-.141 3.681-2.208 3.455-4.196-.166-1.46-1.006-2.64-2.313-3.249-.503-.234-.699-.274-1.468-.302-.729-.025-.979.001-1.4.15Zm-25.645 6.136c-1.213.238-2.282 1.127-2.834 2.359-.189.42-.216.608-.216 1.489 0 .984.007 1.022.327 1.674 1.477 3.007 5.7 2.959 7.134-.082.234-.498.28-.71.309-1.417.027-.684 0-.933-.157-1.394-.657-1.936-2.545-3.024-4.562-2.629Zm19.594.033c-1.249.343-2.295 1.34-2.72 2.596-.157.461-.185.71-.158 1.394.03.71.075.918.314 1.426.366.776 1.115 1.56 1.823 1.907 1.997.978 4.382.128 5.35-1.907.268-.562.283-.65.283-1.602 0-.88-.027-1.067-.216-1.488-.4-.894-1.068-1.617-1.868-2.023-.8-.407-1.97-.533-2.808-.303Zm-9.658 3.559c-1.998.39-3.437 2.439-3.107 4.422.286 1.718 1.585 3.011 3.31 3.296 2.544.42 4.89-1.915 4.468-4.448-.371-2.231-2.47-3.7-4.671-3.27Z" clip-rule="evenodd"/>
</svg>
