<svg xmlns="http://www.w3.org/2000/svg" width="36" height="36" fill="none" viewBox="0 0 36 36">
  <g opacity=".1">
    <path fill="#fff" d="M8.69 6.828a.62.62 0 0 0-.62.62v6.207a.62.62 0 0 0 1.24 0V7.448a.62.62 0 0 0-.62-.62Zm18.62 0a.62.62 0 0 0-.62.62v6.207a.62.62 0 0 0 1.241 0V7.448a.62.62 0 0 0-.62-.62Z"/>
    <path fill="#fff" d="M9.385 16.002a1.862 1.862 0 1 0-1.39 0h1.39Zm18.62 0a1.862 1.862 0 1 0-1.39 0h1.39Z"/>
    <path fill="#fff" d="M9.215 15.729a.62.62 0 0 0-1.05 0l-6.129 9.72c-2.47 4.335 1.124 10.55 6.654 10.55 5.529 0 9.124-6.215 6.652-10.55l-6.127-9.72Z"/>
    <path fill="#fff" d="m7.56 21.344 1.13-1.792 1.13 1.792 1.13 1.792 1.13 1.791 1.13 1.792c.168.306.29.635.363.976.073.349.1.706.078 1.061a4.574 4.574 0 0 1-.205 1.101 5.519 5.519 0 0 1-1.301 2.17 5.073 5.073 0 0 1-1.016.807 4.703 4.703 0 0 1-4.877 0 5.052 5.052 0 0 1-1.018-.806 5.474 5.474 0 0 1-.816-1.08 5.342 5.342 0 0 1-.485-1.092 4.636 4.636 0 0 1-.204-1.101 3.962 3.962 0 0 1 .078-1.061 3.55 3.55 0 0 1 .363-.976l1.13-1.792 1.13-1.792 1.13-1.79Z"/>
    <path fill="#fff" d="M8.69 32.276a4.048 4.048 0 0 1-2.81-1.132 4.169 4.169 0 0 1-1.057-1.65 3.403 3.403 0 0 1-.171-.87 3.043 3.043 0 0 1 .068-.86c.065-.284.173-.557.32-.807l3.134-4.652a.62.62 0 1 1 1.03.694L6.09 27.621a1.606 1.606 0 0 0-.159.42c-.037.166-.05.337-.04.507.013.188.05.374.11.552.07.201.16.393.273.573a2.873 2.873 0 0 0 1.04 1.001c.42.238.893.362 1.375.36a.62.62 0 0 1 0 1.242Zm19.145-16.547a.62.62 0 0 0-1.05 0l-6.128 9.72c-2.471 4.335 1.123 10.55 6.653 10.55 5.53 0 9.124-6.215 6.653-10.55l-6.128-9.72Z"/>
    <path fill="#fff" d="m26.18 21.344 1.13-1.792 1.13 1.792 1.13 1.792 1.13 1.791 1.13 1.792c.169.306.291.635.363.976.074.349.1.706.079 1.061a4.57 4.57 0 0 1-.205 1.101 5.519 5.519 0 0 1-1.3 2.17 5.073 5.073 0 0 1-1.018.807 4.703 4.703 0 0 1-4.877 0 5.05 5.05 0 0 1-1.017-.806 5.47 5.47 0 0 1-.817-1.08 5.336 5.336 0 0 1-.484-1.092 4.636 4.636 0 0 1-.205-1.101 3.96 3.96 0 0 1 .078-1.061c.073-.341.195-.67.364-.976l1.13-1.792 1.13-1.792 1.13-1.79ZM8.69 8.69a4.345 4.345 0 1 0 0-8.69 4.345 4.345 0 0 0 0 8.69Zm18.62 0a4.345 4.345 0 1 0 0-8.69 4.345 4.345 0 0 0 0 8.69Z"/>
    <path fill="#fff" d="M8.69 5.586a1.241 1.241 0 0 1-1.242-1.241.62.62 0 0 0-1.241 0 2.483 2.483 0 0 0 2.482 2.483.62.62 0 0 0 0-1.242Zm0-3.724a.62.62 0 0 0 0 1.241c.685 0 1.24.556 1.24 1.242a.62.62 0 1 0 1.242 0 2.483 2.483 0 0 0-2.483-2.483Zm18.62 3.724a1.241 1.241 0 0 1-1.241-1.241.62.62 0 0 0-1.242 0 2.483 2.483 0 0 0 2.483 2.483.62.62 0 0 0 0-1.242Zm0-3.724a.62.62 0 0 0 0 1.241c.686 0 1.242.556 1.242 1.242a.62.62 0 0 0 1.241 0 2.483 2.483 0 0 0-2.482-2.483Zm.32 30.414a4.034 4.034 0 0 1-2.812-1.132 4.19 4.19 0 0 1-1.056-1.65 3.404 3.404 0 0 1-.171-.87 3.02 3.02 0 0 1 .068-.86 2.79 2.79 0 0 1 .32-.807l3.134-4.652a.62.62 0 1 1 1.03.694l-3.114 4.622a1.63 1.63 0 0 0-.16.42c-.036.166-.05.337-.038.507.012.188.05.374.11.552.069.201.16.393.272.573a2.855 2.855 0 0 0 1.698 1.269c.235.061.476.092.718.093a.62.62 0 0 1 0 1.24Z"/>
  </g>
</svg>
