<svg xmlns="http://www.w3.org/2000/svg" width="36" height="36" fill="none" viewBox="0 0 36 36">
  <g opacity=".1">
    <path fill="#fff" d="M23.692 3.786a2.105 2.105 0 0 0-2.469 1.663l4.132.806a2.104 2.104 0 0 0-1.663-2.47ZM8.812 19.453s-6.33 4.516-7.617 6.087a2.202 2.202 0 0 0 .405 3.123c2.376 1.712 4.717-.778 6.264-2.36 4.26 1.099 7.324 4.476 9.292 5.514 3.994 2.104 6.535-4.29 8.238-6.423-7.066-4.295-11.566-5.408-16.582-5.94Z"/>
    <path fill="#fff" d="M35.016 22.272a3.27 3.27 0 0 1-3.198 2.827c-.717.006-1.488.003-2.197-.028a1.759 1.759 0 0 0-1.451.655c-1.356 1.699-5.015 5.895-8.466 6.463a3.96 3.96 0 0 1-2.556-.371c-1.969-1.038-5.035-4.416-9.293-5.515-3.183-.819-5.557-.374-7.093 1.085a2.24 2.24 0 0 1 .425-1.848c1.285-1.572 5.892-6.983 5.892-6.983.69-9.492 7.194-14.67 16.2-13.264 4.368.68 7.808 3.01 9.54 5.538 2.514 3.668 2.801 7.16 2.197 11.441Z"/>
    <path fill="#fff" d="M28.89 25.194c-.283.11-.531.294-.72.532-1.356 1.699-5.015 5.895-8.466 6.463a3.96 3.96 0 0 1-2.556-.371c-1.969-1.038-5.035-4.416-9.293-5.515-3.183-.819-5.557-.375-7.093 1.085a2.24 2.24 0 0 1 .425-1.848c1.285-1.572 5.892-6.983 5.892-6.983a13.352 13.352 0 0 1 6.882-.186c5.485 1.288 8.657 4.72 14.929 6.823Z"/>
    <path fill="#fff" d="M28.89 25.616a.416.416 0 0 1-.134-.022c-2.998-1.005-5.262-2.29-7.45-3.533-2.368-1.343-4.604-2.613-7.44-3.28a13.003 13.003 0 0 0-6.646.174.422.422 0 0 1-.28-.796 13.676 13.676 0 0 1 7.119-.198c2.956.694 5.243 1.992 7.664 3.367 2.155 1.222 4.382 2.487 7.303 3.466a.422.422 0 0 1-.135.822h-.001Z"/>
  </g>
</svg>