<svg xmlns="http://www.w3.org/2000/svg" width="19" height="36" fill="none" viewBox="0 0 19 36">
  <g opacity=".1">
    <path fill="#fff" d="M18.13 0h-7.193v2.674h7.354V.161a.16.16 0 0 0-.161-.16ZM0 .161v2.513h10.937V0H.16A.161.161 0 0 0 0 .161Z"/>
    <path fill="#fff" d="M15.393 0a1.245 1.245 0 0 1-1.245 1.226h-3.211v1.448h7.354V.161a.16.16 0 0 0-.161-.16h-2.737ZM8.04 0v.378c0 .468-.38.848-.848.848H0v1.448h10.937V0H8.04Z"/>
    <path fill="#fff" d="M2.93 0h1.837v2.674H2.93V0Z"/>
    <path fill="#fff" d="M2.93 1.226h1.837v1.448H2.93V1.226Zm12.431 1.448h-1.838V0h1.838v2.674Z"/>
    <path fill="#fff" d="M14.148 1.226h-.624v1.448h1.837l.001-2.411a1.247 1.247 0 0 1-1.214.963Z"/>
    <path fill="#fff" d="m0 2.674.494 33.167A.161.161 0 0 0 .655 36h5.601a.161.161 0 0 0 .16-.156l.485-14.107a37.168 37.168 0 0 1 1.509-9.283l.736-2.484.733 2.474a37.168 37.168 0 0 1 1.51 9.288l.485 14.112a.161.161 0 0 0 .161.156h5.601a.16.16 0 0 0 .16-.159l.495-33.167H0Z"/>
    <path fill="#fff" d="m9.146 9.97-.736 2.483a37.168 37.168 0 0 0-1.51 9.284l-.483 14.107a.161.161 0 0 1-.161.156h-5.6a.161.161 0 0 1-.162-.159l-.019-1.29H.87a2.736 2.736 0 0 0 2.735-2.642l.399-11.62a36.95 36.95 0 0 1 1.319-8.615A2.708 2.708 0 0 1 9.146 9.97Zm6.226-7.296-.435 29.182a2.736 2.736 0 0 1-2.736 2.695h-.371l.044 1.293a.161.161 0 0 0 .161.156h5.601a.16.16 0 0 0 .16-.159l.495-33.167h-2.919Z"/>
    <path fill="#fff" d="M18.207 8.365 16.612 6.77a5.792 5.792 0 0 1-1.697-4.096h3.376l-.084 5.69Z"/>
    <path fill="#fff" d="m16.612 6.77 1.595 1.595.084-5.69h-2.919L15.34 4.85a5.79 5.79 0 0 0 1.272 1.919ZM.085 8.365 1.68 6.77a5.792 5.792 0 0 0 1.696-4.096H0l.085 5.69Zm8.517 3.439.544-1.834.542 1.833V2.674H8.602v9.13Z"/>
    <path fill="#fff" d="M8.602 9.767v2.037l.544-1.834c-.01 0-.215-.118-.544-.203Zm7.408 23.879h-4.212l.038 1.087h4.174a.543.543 0 1 0 0-1.087Z"/>
    <path fill="#fff" d="M16.01 33.646h-1.775a2.73 2.73 0 0 1-2.034.905h-.371l.006.181h4.174a.543.543 0 1 0 0-1.086Zm-9.518 0H2.281a.543.543 0 1 0 0 1.086h4.174l.037-1.086Z"/>
    <path fill="#fff" d="M6.492 33.646c-.177-.006.782 0-3.588 0a2.74 2.74 0 0 1-1.125.75.543.543 0 0 0 .502.336h4.174l.037-1.086ZM9.15 7.844c.984 0 1.787-.797 1.787-1.787V2.674H9.145l.005 5.17Z"/>
    <path fill="#fff" d="M9.15 7.844c.188 0 .369-.03.539-.083V2.674h-.544c.005 5.299-.002 5.17.005 5.17Z"/>
  </g>
</svg>
