<svg xmlns="http://www.w3.org/2000/svg" width="35" height="32" fill="none" viewBox="0 0 35 32">
  <g opacity=".1">
    <path fill="#fff" d="m34.21 30.086-4.26 1.462a.562.562 0 0 1-.709-.334l-.13-.34-.3-.785-2.773-7.273-.175 4.404-.813 1.05-15.26.106-1.06-1.156-.175-4.404-2.773 7.273-.301.784-.13.34a.563.563 0 0 1-.708.335L.382 30.086a.564.564 0 0 1-.354-.709c.849-2.573 4.604-13.922 6.496-19.243a7.07 7.07 0 0 1 3.432-3.918l1.564-.85h11.553l1.564.85a7.07 7.07 0 0 1 3.431 3.918c1.893 5.321 5.648 16.67 6.497 19.243a.565.565 0 0 1-.354.709Z"/>
    <path fill="#fff" d="m25.863 27.22-.039 1.004a.563.563 0 0 1-.563.543H9.332a.563.563 0 0 1-.562-.543l-.04-1.004h17.134ZM24.497 3.424C23.428 2.17 21.749 0 20.059 0h-5.524c-1.69 0-3.369 2.17-4.438 3.424a1.033 1.033 0 0 0 .004 1.42c1.113 1.11 4.297 2.98 7.17 3.145h.052c2.872-.165 6.056-2.035 7.17-3.146a1.032 1.032 0 0 0 .004-1.419ZM5.782 30.089l-.301.784-4.174-1.46a.422.422 0 0 1 .279-.796l4.18 1.463c.005.003.01.003.016.009Z"/>
    <path fill="#fff" d="M15.09 17.592a.422.422 0 0 1-.423-.422c0-2.565 1.381-9.888 1.44-10.199a.422.422 0 0 1 .829.157c-.014.076-1.425 7.555-1.425 10.041a.423.423 0 0 1-.422.423ZM17.297 6.36a3.799 3.799 0 0 1-1.785-.445c-1.18-.629-1.974-1.456-2.362-2.458a.42.42 0 0 1 .242-.546.422.422 0 0 1 .546.242c.311.808.975 1.486 1.97 2.016a2.948 2.948 0 0 0 2.776 0c.996-.53 1.66-1.209 1.971-2.016a.422.422 0 0 1 .788.304c-.387 1.002-1.181 1.828-2.363 2.458a3.799 3.799 0 0 1-1.783.445Zm15.989 23.053-4.174 1.46-.301-.784c.005-.006.012-.006.017-.01l4.18-1.462a.423.423 0 0 1 .278.796ZM19.504 17.592a.422.422 0 0 1-.422-.422c0-2.487-1.41-9.966-1.425-10.04a.422.422 0 0 1 .83-.158c.058.31 1.44 7.633 1.44 10.198a.422.422 0 0 1-.423.422Zm4.237 7.864a.422.422 0 0 1-.225-.064 9.311 9.311 0 0 1-3.075-3.08.423.423 0 0 1 .723-.434c.7 1.141 1.66 2.1 2.802 2.799a.422.422 0 0 1-.225.78Zm-12.888 0a.422.422 0 0 1-.225-.779 8.476 8.476 0 0 0 2.802-2.8.422.422 0 0 1 .724.435 9.312 9.312 0 0 1-3.076 3.08.422.422 0 0 1-.225.064Zm-2.298-2.218a.422.422 0 0 1-.422-.405l-.465-11.834a.422.422 0 0 1 .405-.439.43.43 0 0 1 .438.405L8.977 22.8a.422.422 0 0 1-.405.439h-.017Zm17.484 0h-.017a.422.422 0 0 1-.405-.438l.466-11.835a.422.422 0 0 1 .844.034l-.467 11.834a.421.421 0 0 1-.421.405Z"/>
  </g>
</svg>

