<?xml version="1.0" encoding="iso-8859-1"?>
<!-- Generator: Adobe Illustrator 29.1.0, SVG Export Plug-In . SVG Version: 9.03 Build 55587)  -->
<svg version="1.1" id="Ebene_1" xmlns="http://www.w3.org/2000/svg" xmlns:xlink="http://www.w3.org/1999/xlink" x="0px" y="0px"
	 viewBox="0 0 479 479" enable-background="new 0 0 479 479" xml:space="preserve">
<path fill="#301934" d="M446.238,290.26l-39.919-47.903c-1.563-1.75-3.797-2.752-6.148-2.752c-2.347,0-4.581,1.002-6.144,2.752
	l-39.919,47.903c-1.984,2.382-2.413,5.699-1.095,8.506c1.318,2.803,4.14,4.596,7.239,4.588h12.697
	c-11.816,48.145-54.612,85.269-108.503,93.892V191.581H336.3c4.413,0,7.984-3.575,7.984-7.984v-31.935
	c0-4.409-3.571-7.984-7.984-7.984h-71.854v-20.599c28.341-11.461,44.585-41.401,38.746-71.41C297.352,21.663,271.065,0,240.494,0
	c-30.567,0-56.854,21.663-62.693,51.669c-5.84,30.01,10.405,59.949,38.742,71.41v20.599h-71.854c-4.409,0-7.984,3.575-7.984,7.984
	v31.935c0,4.409,3.575,7.984,7.984,7.984h71.854v205.666c-53.891-8.623-96.683-45.747-108.499-93.892h12.693
	c3.103,0.008,5.925-1.785,7.243-4.588c1.318-2.807,0.889-6.124-1.095-8.506l-39.919-47.903c-1.563-1.75-3.797-2.752-6.148-2.752
	c-2.347,0-4.581,1.002-6.144,2.752L34.754,290.26c-1.984,2.382-2.413,5.699-1.095,8.506c1.318,2.803,4.14,4.596,7.239,4.588h17.808
	c11.656,74.252,76.404,132.61,157.837,142.274v9.418c0.02,2.117,0.846,4.148,2.316,5.668l15.968,15.968
	c3.15,3.087,8.19,3.087,11.34,0l15.968-15.968c1.47-1.52,2.296-3.551,2.312-5.668v-9.418
	c81.437-9.664,146.184-68.022,157.841-142.274h17.804c3.103,0.008,5.926-1.785,7.243-4.588
	C448.651,295.959,448.222,292.642,446.238,290.26z M240.494,87.791c-13.227,0-23.951-10.724-23.951-23.951
	s10.724-23.951,23.951-23.951c13.231,0,23.952,10.724,23.952,23.951S253.725,87.791,240.494,87.791z"/>
</svg>
