<?xml version="1.0" encoding="iso-8859-1"?>
<!-- Generator: Adobe Illustrator 29.1.0, SVG Export Plug-In . SVG Version: 9.03 Build 55587)  -->
<svg version="1.1" id="Ebene_1" xmlns="http://www.w3.org/2000/svg" xmlns:xlink="http://www.w3.org/1999/xlink" x="0px" y="0px"
	 viewBox="0 0 512 512" enable-background="new 0 0 512 512" xml:space="preserve">
<g id="surface1">
	<path fill="#301934" d="M437.598,399.527l-15.355-80.438c-1.105-5.777-3.512-11.035-6.871-15.5
		c15.117-0.09,27.391-12.414,27.391-27.551c0-15.195-12.359-27.555-27.555-27.555h-30.91l-12.023-60.117H139.52l-12.023,60.117
		h-30.91c-15.195,0-27.555,12.359-27.555,27.555c0,15.137,12.273,27.461,27.391,27.551c-3.359,4.465-5.766,9.723-6.871,15.5
		l-15.355,80.438C62.059,402.406,53,413.328,53,426.332c0,15.195,12.359,27.555,27.555,27.555h2.504v35.57
		c0,12.43,10.113,22.543,22.543,22.543h30.059c12.434,0,22.547-10.113,22.547-22.543v-35.57h195.379v35.57
		c0,12.43,10.113,22.543,22.547,22.543h30.059c12.43,0,22.543-10.113,22.543-22.543v-35.57h2.504
		c15.195,0,27.555-12.359,27.555-27.555C458.793,413.328,449.734,402.406,437.598,399.527z M415.207,263.516
		c6.906,0,12.523,5.617,12.523,12.523s-5.617,12.523-12.523,12.523h-22.895l-5.012-25.047H415.207z M151.84,203.398h208.109
		l17.035,85.164H134.809L151.84,203.398z M84.062,276.039c0-6.906,5.617-12.523,12.523-12.523h27.906l-5.012,25.047H96.586
		C89.68,288.562,84.062,282.945,84.062,276.039z M104.312,321.91c2.027-10.613,11.34-18.316,22.145-18.316h258.879
		c10.805,0,20.117,7.703,22.141,18.316l14.676,76.867H89.637L104.312,321.91z M143.176,489.457c0,4.145-3.371,7.512-7.516,7.512
		h-30.059c-4.145,0-7.512-3.367-7.512-7.512v-35.57h45.086V489.457z M413.703,489.457c0,4.145-3.371,7.512-7.512,7.512h-30.059
		c-4.145,0-7.516-3.367-7.516-7.512v-35.57h45.086V489.457z M431.238,438.855H80.555c-6.906,0-12.523-5.617-12.523-12.523
		s5.617-12.523,12.523-12.523h350.684c6.906,0,12.523,5.617,12.523,12.523S438.145,438.855,431.238,438.855z"/>
	<path fill="#301934" d="M254.395,95.188h3.004c4.695,0,8.516,3.82,8.516,8.516s-3.82,8.516-8.516,8.516h-26.051v15.031h16.531
		v17.531h15.031V126.59c10.332-2.488,18.035-11.801,18.035-22.887c0-12.984-10.562-23.547-23.547-23.547h-3.004
		c-4.699,0-8.52-3.82-8.52-8.516s3.82-8.516,8.52-8.516h26.051V48.094H262.91V30.559h-15.031V49.02
		c-9.824,2.832-17.031,11.895-17.031,22.621C230.848,84.625,241.41,95.188,254.395,95.188z"/>
	<path fill="#301934" d="M255.895,175.344c48.344,0,87.672-39.332,87.672-87.672C343.566,39.328,304.238,0,255.895,0
		c-48.34,0-87.668,39.328-87.668,87.672C168.227,136.012,207.555,175.344,255.895,175.344z M255.895,15.031
		c40.059,0,72.645,32.586,72.645,72.641s-32.586,72.641-72.645,72.641c-40.055,0-72.641-32.586-72.641-72.641
		S215.84,15.031,255.895,15.031z"/>
	<path fill="#301934" d="M161.711,323.633h-14.027c-15.191,0-27.551,12.359-27.551,27.555c0,15.191,12.359,27.551,27.551,27.551
		h14.027c15.195,0,27.555-12.359,27.555-27.551C189.266,335.992,176.906,323.633,161.711,323.633z M161.711,363.711h-14.027
		c-6.906,0-12.523-5.617-12.523-12.523s5.617-12.527,12.523-12.527h14.027c6.906,0,12.527,5.621,12.527,12.527
		S168.617,363.711,161.711,363.711z"/>
	<path fill="#301934" d="M364.109,323.633h-14.027c-15.195,0-27.555,12.359-27.555,27.555c0,15.191,12.359,27.551,27.555,27.551
		h14.027c15.191,0,27.551-12.359,27.551-27.551C391.66,335.992,379.301,323.633,364.109,323.633z M364.109,363.711h-14.027
		c-6.91,0-12.527-5.617-12.527-12.523s5.617-12.527,12.527-12.527h14.027c6.906,0,12.523,5.621,12.523,12.527
		S371.016,363.711,364.109,363.711z"/>
	<path fill="#301934" d="M130.652,80.156h15.027v15.031h-15.027V80.156z"/>
	<path fill="#301934" d="M100.594,80.156h15.027v15.031h-15.027V80.156z"/>
	<path fill="#301934" d="M366.113,80.156h15.027v15.031h-15.027V80.156z"/>
	<path fill="#301934" d="M396.172,80.156h15.027v15.031h-15.027V80.156z"/>
	<path fill="#301934" d="M210.809,318.621h15.027v15.031h-15.027V318.621z"/>
	<path fill="#301934" d="M240.867,318.621h60.117v15.031h-60.117V318.621z"/>
	<path fill="#301934" d="M294.973,219.43h50.098v15.027h-50.098V219.43z"/>
	<path fill="#301934" d="M264.914,219.43h15.027v15.027h-15.027V219.43z"/>
</g>
</svg>
