<?xml version="1.0" encoding="iso-8859-1"?>
<!-- Generator: Adobe Illustrator 29.1.0, SVG Export Plug-In . SVG Version: 9.03 Build 55587)  -->
<svg version="1.1" id="Capa_1" xmlns="http://www.w3.org/2000/svg" xmlns:xlink="http://www.w3.org/1999/xlink" x="0px" y="0px"
	 viewBox="0 0 512 512" enable-background="new 0 0 512 512" xml:space="preserve">
<g>
	<path fill="#301934" d="M466.824,60.737H45.176C20.266,60.737,0,81.003,0,105.914v300.173c0,24.91,20.266,45.176,45.176,45.176
		h421.647c24.91,0,45.176-20.266,45.176-45.176V105.914C512,81.003,491.734,60.737,466.824,60.737z M45.176,90.855h421.647
		c8.303,0,15.059,6.755,15.059,15.059v75.294c-18.957,0-439.847,0-451.765,0v-75.294C30.118,97.61,36.873,90.855,45.176,90.855z
		 M90.353,211.326h120.471v120.523c-6.115-8.142-13.849-14.993-22.707-20.109c19.939-29.691-1.292-70.297-37.529-70.297
		c-24.91,0-45.176,20.266-45.176,45.176c0,9.29,2.821,17.932,7.648,25.12c-8.858,5.116-16.592,11.967-22.707,20.109V211.326z
		 M135.529,286.62c0-8.303,6.755-15.059,15.059-15.059s15.059,6.755,15.059,15.059s-6.755,15.059-15.059,15.059
		S135.529,294.923,135.529,286.62z M193.185,361.914h-85.193C122.188,321.872,178.976,321.837,193.185,361.914z M466.824,421.145
		H45.176c-8.303,0-15.059-6.755-15.059-15.059V211.326h30.118v165.647c0,8.316,6.742,15.059,15.059,15.059h150.588
		c8.316,0,15.059-6.742,15.059-15.059V211.326h240.941v194.761C481.882,414.39,475.127,421.145,466.824,421.145z"/>
	<path fill="#301934" d="M286.118,271.561h150.588c8.316,0,15.059-6.742,15.059-15.059c0-8.316-6.742-15.059-15.059-15.059H286.118
		c-8.316,0-15.059,6.742-15.059,15.059C271.059,264.818,277.801,271.561,286.118,271.561z"/>
	<path fill="#301934" d="M436.706,361.412H286.118c-8.316,0-15.059,6.742-15.059,15.059c0,8.316,6.742,15.059,15.059,15.059h150.588
		c8.316,0,15.059-6.742,15.059-15.059C451.765,368.154,445.022,361.412,436.706,361.412z"/>
	<path fill="#301934" d="M436.756,301.678H286.118c-8.316,0-15.059,6.742-15.059,15.059s6.742,15.059,15.059,15.059h150.638
		c8.316,0,15.059-6.742,15.059-15.059S445.073,301.678,436.756,301.678z"/>
	<path fill="#301934" d="M135.529,151.09h240.941c8.316,0,15.059-6.742,15.059-15.059s-6.742-15.059-15.059-15.059H135.529
		c-8.316,0-15.059,6.742-15.059,15.059S127.213,151.09,135.529,151.09z"/>
</g>
</svg>
