<?xml version="1.0" encoding="iso-8859-1"?>
<!-- Generator: Adobe Illustrator 29.1.0, SVG Export Plug-In . SVG Version: 9.03 Build 55587)  -->
<svg version="1.1" id="Ebene_1" xmlns="http://www.w3.org/2000/svg" xmlns:xlink="http://www.w3.org/1999/xlink" x="0px" y="0px"
	 viewBox="0 0 512 512" enable-background="new 0 0 512 512" xml:space="preserve">
<path fill="#301934" d="M256,149.333c-23.531,0-42.667-19.136-42.667-42.667c0-17.877,11.051-33.216,26.667-39.552V16
	c0-8.832,7.168-16,16-16c8.832,0,16,7.168,16,16v64c0,8.832-7.168,16-16,16c-5.867,0-10.667,4.779-10.667,10.667
	s4.8,10.667,10.667,10.667c5.867,0,10.667-4.779,10.667-10.667c0-8.832,7.168-16,16-16c8.832,0,16,7.168,16,16
	C298.667,130.197,279.531,149.333,256,149.333z"/>
<path fill="#301934" d="M495.979,277.333c-2.987,0-5.973-0.832-8.661-2.56l-176-113.707c-7.424-4.8-9.536-14.699-4.757-22.123
	s14.699-9.557,22.123-4.757l176,113.707c7.424,4.8,9.536,14.699,4.757,22.123C506.368,274.752,501.227,277.333,495.979,277.333
	L495.979,277.333z"/>
<path fill="#301934" d="M16.021,277.333c-5.248,0-10.389-2.581-13.461-7.317c-4.8-7.424-2.667-17.323,4.757-22.123l176-113.707
	c7.467-4.821,17.323-2.645,22.123,4.757c4.779,7.424,2.667,17.323-4.757,22.123l-176,113.707
	C21.995,276.501,18.987,277.333,16.021,277.333L16.021,277.333z"/>
<path fill="#301934" d="M496,245.333H16c-8.832,0-16,7.168-16,16V496c0,8.832,7.168,16,16,16h480c8.832,0,16-7.168,16-16V261.333
	C512,252.501,504.832,245.333,496,245.333z M90.667,442.667c0,8.832-7.168,16-16,16s-16-7.168-16-16v-128c0-8.832,7.168-16,16-16
	s16,7.168,16,16V442.667z M176,442.667c0,8.832-7.168,16-16,16s-16-7.168-16-16v-128c0-8.832,7.168-16,16-16s16,7.168,16,16V442.667
	z M272,442.667c0,8.832-7.168,16-16,16c-8.832,0-16-7.168-16-16v-128c0-8.832,7.168-16,16-16c8.832,0,16,7.168,16,16V442.667z
	 M368,442.667c0,8.832-7.168,16-16,16c-8.832,0-16-7.168-16-16v-128c0-8.832,7.168-16,16-16c8.832,0,16,7.168,16,16V442.667z
	 M453.333,442.667c0,8.832-7.168,16-16,16s-16-7.168-16-16v-128c0-8.832,7.168-16,16-16s16,7.168,16,16V442.667z"/>
</svg>
