<?xml version="1.0" encoding="iso-8859-1"?>
<!-- Generator: Adobe Illustrator 29.1.0, SVG Export Plug-In . SVG Version: 9.03 Build 55587)  -->
<svg version="1.1" id="Layer_2" xmlns="http://www.w3.org/2000/svg" xmlns:xlink="http://www.w3.org/1999/xlink" x="0px" y="0px"
	 viewBox="0 0 512 512" enable-background="new 0 0 512 512" xml:space="preserve">
<g>
	<g>
		<g>
			<path fill="#301934" d="M23.276,241.13H81v27.707H23.276L23.276,241.13z"/>
		</g>
		<g>
			<path fill="#301934" d="M23.276,241.13H81v5.772H23.276L23.276,241.13z"/>
		</g>
		<g>
			<path fill="#301934" d="M211.697,138.382h28.621v23.667h-28.621V138.382z"/>
		</g>
		<g>
			<path fill="#301934" d="M217.18,138.382h-5.483v23.667h10.496L217.18,138.382z"/>
		</g>
		<g>
			<path fill="#301934" d="M10.577,138.382h28.526v23.667H10.577L10.577,138.382z"/>
		</g>
		<g>
			<path fill="#301934" d="M33.619,138.382h5.484v23.667H28.607L33.619,138.382z"/>
		</g>
		<g>
			<path fill="#301934" d="M217.564,162.049H33.331l17.317-72.732h149.599L217.564,162.049z"/>
		</g>
		<g>
			<path fill="#301934" d="M40.639,156.276l14.568-61.187h140.48l14.568,61.187H40.639z"/>
		</g>
		<g>
			<path fill="#301934" d="M17.745,162.049h215.404v54.837H17.745L17.745,162.049z"/>
		</g>
		<g>
			<path fill="#301934" d="M53.534,184.561H197.36v32.325H53.534L53.534,184.561z"/>
		</g>
		<g>
			<path fill="#301934" d="M227.618,268.838h-57.724v-27.707h57.724V268.838z"/>
		</g>
		<g>
			<path fill="#301934" d="M169.894,241.13h57.724v5.772h-57.724V241.13z"/>
		</g>
		<g>
			<path fill="#301934" d="M10,216.886h230.894v24.244H10V216.886z"/>
		</g>
		<g>
			<path fill="#301934" d="M27.762,207.65H17.745v-23.089h30.016v3.089C47.762,198.696,38.807,207.65,27.762,207.65z"/>
		</g>
		<g>
			<path fill="#301934" d="M223.133,207.65h10.016v-23.089h-30.016v3.089C203.133,198.696,212.087,207.65,223.133,207.65z"/>
		</g>
		<g>
			<path fill="#301934" d="M84.993,83.545h80.813v5.772H84.993V83.545z"/>
		</g>
		<g>
			<path fill="#301934" d="M122.514,72h5.772v11.545h-5.772L122.514,72z"/>
		</g>
		<g>
			<path fill="#301934" d="M157.148,83.545h-28.862V72h23.089L157.148,83.545z"/>
		</g>
		<g>
			<path fill="#301934" d="M93.652,83.545h28.862V72h-23.09L93.652,83.545z"/>
		</g>
	</g>
	<g>
		<g>
			<path fill="#301934" d="M284.382,241.13h57.724v27.707h-57.724V241.13z"/>
		</g>
		<g>
			<path fill="#301934" d="M284.382,241.13h57.724v5.772h-57.724V241.13z"/>
		</g>
		<g>
			<path fill="#301934" d="M472.802,138.382h28.621v23.667h-28.621V138.382z"/>
		</g>
		<g>
			<path fill="#301934" d="M478.286,138.382h-5.484v23.667h10.496L478.286,138.382z"/>
		</g>
		<g>
			<path fill="#301934" d="M271.683,138.382h28.526v23.667h-28.526V138.382z"/>
		</g>
		<g>
			<path fill="#301934" d="M294.725,138.382h5.484v23.667h-10.496L294.725,138.382z"/>
		</g>
		<g>
			<path fill="#301934" d="M478.669,162.049H294.436l17.317-72.732h149.599L478.669,162.049z"/>
		</g>
		<g>
			<path fill="#301934" d="M301.745,156.276l14.568-61.187h140.48l14.568,61.187H301.745z"/>
		</g>
		<g>
			<path fill="#301934" d="M278.851,162.049h215.404v54.837H278.851V162.049z"/>
		</g>
		<g>
			<path fill="#301934" d="M314.64,184.561h143.826v32.325H314.64V184.561z"/>
		</g>
		<g>
			<path fill="#301934" d="M488.724,268.838H431v-27.707h57.724V268.838z"/>
		</g>
		<g>
			<path fill="#301934" d="M431,241.13h57.724v5.772H431V241.13z"/>
		</g>
		<g>
			<path fill="#301934" d="M271.106,216.886H502v24.244H271.106L271.106,216.886z"/>
		</g>
		<g>
			<path fill="#301934" d="M288.867,207.65h-10.016v-23.089h30.016v3.089C308.867,198.696,299.913,207.65,288.867,207.65z"/>
		</g>
		<g>
			<path fill="#301934" d="M484.238,207.65h10.016v-23.089h-30.016v3.089C464.238,198.696,473.193,207.65,484.238,207.65z"/>
		</g>
		<g>
			<path fill="#301934" d="M346.099,83.545h80.813v5.772h-80.813V83.545z"/>
		</g>
		<g>
			<path fill="#301934" d="M383.619,72h5.772v11.545h-5.772V72z"/>
		</g>
		<g>
			<path fill="#301934" d="M418.253,83.545h-28.861V72h23.089L418.253,83.545z"/>
		</g>
		<g>
			<path fill="#301934" d="M354.758,83.545h28.861V72H360.53L354.758,83.545z"/>
		</g>
	</g>
	<g>
		<g>
			<path fill="#301934" d="M300.447,412.293h57.724V440h-57.724V412.293z"/>
		</g>
		<g>
			<path fill="#301934" d="M153.829,412.293h57.724V440h-57.724V412.293z"/>
		</g>
		<g>
			<path fill="#301934" d="M153.829,412.293h57.724v5.772h-57.724V412.293z"/>
		</g>
		<g>
			<path fill="#301934" d="M300.447,412.293h57.724v5.772h-57.724V412.293z"/>
		</g>
		<g>
			<path fill="#301934" d="M342.249,309.545h28.621v23.667h-28.621V309.545z"/>
		</g>
		<g>
			<path fill="#301934" d="M347.733,309.545h-5.484v23.666h10.496L347.733,309.545z"/>
		</g>
		<g>
			<path fill="#301934" d="M141.13,309.545h28.526v23.667H141.13V309.545z"/>
		</g>
		<g>
			<path fill="#301934" d="M164.172,309.545h5.484v23.666H159.16L164.172,309.545z"/>
		</g>
		<g>
			<path fill="#301934" d="M348.116,333.211H163.884l17.317-72.731h149.598L348.116,333.211z"/>
		</g>
		<g>
			<path fill="#301934" d="M171.192,327.439l14.568-61.187h140.48l14.568,61.187H171.192z"/>
		</g>
		<g>
			<path fill="#301934" d="M148.298,333.211h215.404v54.837H148.298L148.298,333.211z"/>
		</g>
		<g>
			<path fill="#301934" d="M184.087,355.724h143.826v32.325H184.087L184.087,355.724z"/>
		</g>
		<g>
			<path fill="#301934" d="M140.553,388.049h230.894v24.244H140.553V388.049z"/>
		</g>
		<g>
			<circle fill="#301934" cx="163.306" cy="367.268" r="11.545"/>
		</g>
		<g>
			<circle fill="#301934" cx="348.694" cy="367.268" r="11.545"/>
		</g>
	</g>
</g>
</svg>
