<?xml version="1.0" encoding="iso-8859-1"?>
<!-- Generator: Adobe Illustrator 29.1.0, SVG Export Plug-In . SVG Version: 9.03 Build 55587)  -->
<svg version="1.1" id="Ebene_1" xmlns="http://www.w3.org/2000/svg" xmlns:xlink="http://www.w3.org/1999/xlink" x="0px" y="0px"
	 viewBox="0 0 512 512" enable-background="new 0 0 512 512" xml:space="preserve">
<g id="Page-1">
	<g id="_x30_26---Invite-to-Game">
		<path id="Shape" fill="#301934" d="M435.2,0H76.8C34.404,0.047,0.047,34.404,0,76.8v358.4c0.047,42.396,34.404,76.753,76.8,76.8
			h358.4c42.396-0.047,76.753-34.404,76.8-76.8V76.8C511.953,34.404,477.596,0.047,435.2,0z M494.933,435.2
			c-0.038,32.974-26.759,59.696-59.733,59.733H76.8c-32.974-0.038-59.696-26.759-59.733-59.733V76.8
			C17.104,43.826,43.826,17.104,76.8,17.067h358.4c32.974,0.038,59.696,26.759,59.733,59.733V435.2z"/>
		<path id="Shape_00000182512196473315637720000004866126709379619515_" fill="#301934" d="M435.2,34.133H76.8
			C53.248,34.162,34.162,53.248,34.133,76.8v358.4c0.028,23.552,19.114,42.638,42.667,42.667h358.4
			c23.552-0.028,42.638-19.114,42.667-42.667V76.8C477.838,53.248,458.752,34.162,435.2,34.133z M460.8,435.2
			c0,14.138-11.462,25.6-25.6,25.6H76.8c-14.138,0-25.6-11.462-25.6-25.6V76.8c0-14.138,11.462-25.6,25.6-25.6h358.4
			c14.138,0,25.6,11.462,25.6,25.6V435.2z"/>
		<path id="Shape_00000014632812701109883150000017437841004913792162_" fill="#301934" d="M418.133,281.6h-42.667v-42.667
			c0-9.426-7.641-17.067-17.067-17.067h-34.133c-9.426,0-17.067,7.641-17.067,17.067V281.6h-15.642
			c-12.97-12.013-28.292-21.204-44.996-26.991c39.026-19.39,59.575-63.089,49.616-105.513S248.373,76.68,204.796,76.68
			s-81.424,29.991-91.383,72.416s10.59,86.123,49.616,105.513c-51.531,17.834-86.13,66.328-86.229,120.858V409.6
			c0,14.138,11.462,25.6,25.6,25.6h204.8c14.138,0,25.6-11.462,25.6-25.6h25.6c9.426,0,17.067-7.641,17.067-17.067v-42.667h42.667
			c9.426,0,17.067-7.641,17.067-17.067v-34.133C435.2,289.241,427.559,281.6,418.133,281.6z M128,170.667
			c0-42.415,34.385-76.8,76.8-76.8s76.8,34.385,76.8,76.8s-34.385,76.8-76.8,76.8C162.404,247.42,128.047,213.063,128,170.667z
			 M307.2,418.133H102.4c-4.713,0-8.533-3.821-8.533-8.533v-34.133c-0.053-40.4,21.889-77.625,57.261-97.144
			c35.371-19.519,78.564-18.237,112.715,3.346c-9.128,0.37-16.346,7.863-16.375,16.998V332.8c0,9.426,7.641,17.067,17.067,17.067
			H307.2v42.667c0.018,6.07,3.27,11.67,8.533,14.694v2.372C315.733,414.313,311.913,418.133,307.2,418.133L307.2,418.133z
			 M418.133,332.8h-42.667c-9.426,0-17.067,7.641-17.067,17.067v42.667h-34.133v-42.667c0-9.426-7.641-17.067-17.067-17.067h-42.667
			v-34.133H307.2c9.426,0,17.067-7.641,17.067-17.067v-42.667H358.4V281.6c0,9.426,7.641,17.067,17.067,17.067h42.667V332.8z"/>
	</g>
</g>
</svg>
