<?xml version="1.0" encoding="iso-8859-1"?>
<!-- Generator: Adobe Illustrator 29.1.0, SVG Export Plug-In . SVG Version: 9.03 Build 55587)  -->
<svg version="1.1" id="Layer_1" xmlns="http://www.w3.org/2000/svg" xmlns:xlink="http://www.w3.org/1999/xlink" x="0px" y="0px"
	 viewBox="0 0 512 512" enable-background="new 0 0 512 512" xml:space="preserve">
<g>
	<path fill="#301934" d="M458.162,485.695h-2.371l-0.076-60.443l-10.108,53.669c8.865,7.227,7.629,17.623,7.737,18.134
		c0,1.048-0.117,2.069-0.328,3.055h11.667c1.688,0,3.055-1.368,3.055-3.055v-1.783C467.74,489.982,463.452,485.695,458.162,485.695z
		"/>
	<path fill="#301934" d="M417.406,339.783c1.527-2.063,2.956-3.992,4.304-5.807l-193.035-73.889
		c-0.397,4.708-1.866,9.397-4.51,13.696c-0.521,0.847-1.079,1.657-1.666,2.436L396.6,342.862L417.406,339.783z"/>
	<g>
		<path fill="#301934" d="M347.531,442.879c-2.567,3.552-5.617,7.278-8.898,10.885l2.55,40.785c0.195,3.123,2.784,5.561,5.913,5.561
			h16.52c1.688,0,3.056-1.368,3.056-3.055v-1.783c0-5.168-4.097-9.368-9.218-9.558l8.392-45.78c0,0-9.976-1.236-14.545-1.809
			C350.13,439.806,348.87,441.391,347.531,442.879z"/>
	</g>
	<path fill="#301934" d="M510.682,340.445l-7.305-4.472c-3.047-1.866-5.384-4.655-6.851-7.913
		c-3.536-7.85-10.543-13.741-19.099-15.774l-4.309-1.023c-2.488-0.949-4.176-3.271-4.334-5.929
		c-0.134-2.257-0.185-4.636-0.085-6.977c0.11-2.594,0.405-5.139,0.981-7.412c0.326-1.289-0.831-2.494-2.135-2.235
		c-3.971,0.789-8.165,4.805-12.11,10.086c-9.512,12.731-18.947,34.648-18.947,34.648l44.32,30.821c3.549,0,8.768,0.52,12.35,1.827
		c1.598,0.583,3.251,0.866,4.889,0.866c4.004,0,7.91-1.691,10.655-4.816C508.703,362.142,514.539,343.897,510.682,340.445
		L510.682,340.445z"/>
	<path fill="#301934" d="M424.646,351.994l36.334,25.075c1.638,1.131,3.877,0.754,5.055-0.849l3.872-5.268
		c1.244-1.693,0.821-4.081-0.927-5.243l-36.377-24.186c-1.537-1.022-3.594-0.747-4.808,0.642l-3.829,4.38
		C422.519,348.198,422.837,350.744,424.646,351.994L424.646,351.994z"/>
	<path fill="#301934" d="M214.305,265.07c5.677-9.226,2.798-21.308-6.428-26.984l-61.97-38.125l-15.484-44.455l20.715,34.082
		l61.424,37.788l23.966,6.089c10.507,2.645,21.165-3.731,23.808-14.234c2.644-10.505-3.729-21.165-14.234-23.808l-57.154-14.443
		l-26.311-30.309l0.532-7.955c1.071-16.002-11.035-29.843-27.038-30.912l-51.671-3.455c-16.002-1.069-29.842,11.035-30.912,27.037
		l-9.66,148.679c0,0,2.794,56.254,4.159,83.702L2.189,466.666c-5.469,11.793-0.341,25.786,11.452,31.254
		c11.792,5.468,25.786,0.341,31.254-11.452l48.3-104.168c1.606-3.462,2.344-7.262,2.155-11.073l-4.187-83.999l10.611,0.709
		l26.044,77.449l9.885,113.227c1.126,12.893,12.484,22.534,25.495,21.401c12.95-1.131,22.531-12.545,21.401-25.495l-10.129-116.022
		c-0.162-1.857-0.544-3.689-1.139-5.456l-20.751-61.708l0.647,0.043l1.751-26.187c-12.984-7.988-31.936-19.647-45.976-28.285
		c-5.008-3.081-8.07-8.229-8.775-13.638l-6.85-54.858l17.781,51.051c1.486,4.265,4.398,7.888,8.245,10.254l67.917,41.784
		C196.508,277.149,208.604,274.337,214.305,265.07L214.305,265.07z"/>
	<path fill="#301934" d="M117.111,97.757c23.689,1.584,44.175-16.336,45.76-40.025c1.584-23.688-16.336-44.175-40.024-45.759
		S78.672,28.309,77.089,51.997C75.504,75.686,93.423,96.173,117.111,97.757z"/>
	<path fill="#301934" d="M451.262,408.349c2.879-7.118,5.662-14.68,8.099-21.611c-49.308-34.3-48.692-34.316-48.692-34.316
		s-82.853,10.855-91.964,15.469c-4.155,0.858-14.448,5.308-21.938,11.168c-6.15,4.731-11.294,10.492-15.311,16.708
		c-0.002,0.003-0.004,0.006-0.006,0.009c-4.062,6.203-7.005,12.865-9.17,19.619c-2.053,6.455-3.621,14.03-4.006,20.825
		c-0.115,2.004,1.323,3.861,3.455,4.129c1.999,0.251,3.839-1.163,4.33-3.116l0.023-0.092c1.459-5.789,3.85-11.892,6.763-17.385
		c2.329-4.37,5.022-8.476,8.087-12.131c-0.676,8.143,0.204,11.606,0.746,21.633c0.787,12.598,2.985,47.751,4.082,65.294v0.003
		c0.195,3.127,2.785,5.555,5.919,5.555h16.514c1.688,0,3.055-1.369,3.055-3.055v-1.783c0-5.168-4.097-9.368-9.218-9.558
		c0.738-3.921,5.926-31.465,5.926-31.465c15.954-8.446,30.195-30.071,30.667-48.193c0.081-3.127,2.259-5.912,5.36-6.323
		c3.807-0.505,7.056,2.443,7.056,6.15c0,7.629-1.428,14.863-3.968,21.354c17.906,2.236,55.466,6.534,55.466,6.534l3.8,60.782
		c0.195,3.121,2.781,5.559,5.909,5.561c18.219,0.012,16.969,0.073,17.713-0.242c2.188-0.925,1.866-3.088,1.866-4.604
		c-0.003-5.061-4.005-9.359-9.217-9.553c0,0,0,0-0.001,0l12.645-67.141C447.701,415.532,449.741,412.108,451.262,408.349
		L451.262,408.349z"/>
</g>
</svg>
