<?xml version="1.0" encoding="iso-8859-1"?>
<!-- Generator: Adobe Illustrator 29.1.0, SVG Export Plug-In . SVG Version: 9.03 Build 55587)  -->
<svg version="1.1" id="Capa_1" xmlns="http://www.w3.org/2000/svg" xmlns:xlink="http://www.w3.org/1999/xlink" x="0px" y="0px"
	 viewBox="0 0 512 512" enable-background="new 0 0 512 512" xml:space="preserve">
<g>
	<path fill="#301934" d="M480.309,204.072V71.859C498.14,69.687,512,54.476,512,36.082C512,16.187,495.813,0,475.918,0H36.082
		C16.187,0,0,16.187,0,36.082c0,18.394,13.86,33.605,31.691,35.777v132.213C14.216,204.076,0,218.294,0,235.77
		c0,8.386,3.274,16.022,8.61,21.697C3.274,263.142,0,270.777,0,279.163s3.274,16.022,8.61,21.697C3.274,306.535,0,314.172,0,322.558
		s3.274,16.022,8.61,21.697C3.274,349.93,0,357.566,0,365.952c0,17.476,14.216,31.694,31.691,31.697v42.491
		C13.86,442.313,0,457.524,0,475.918C0,495.813,16.187,512,36.082,512h439.836C495.813,512,512,495.813,512,475.918
		c0-18.394-13.86-33.605-31.691-35.777V397.65C497.784,397.646,512,383.428,512,365.952c0-8.386-3.274-16.022-8.61-21.697
		c5.336-5.675,8.61-13.312,8.61-21.697s-3.274-16.022-8.61-21.697c5.336-5.675,8.61-13.312,8.61-21.697s-3.274-16.021-8.61-21.696
		c5.336-5.675,8.61-13.312,8.61-21.697C512,218.294,497.784,204.076,480.309,204.072z M20,36.082C20,27.215,27.214,20,36.082,20
		h439.836C484.786,20,492,27.215,492,36.082c0,8.853-7.214,16.054-16.082,16.054H36.082C27.214,52.136,20,44.935,20,36.082z
		 M460.309,72.136v131.937h-32.164V72.136H460.309z M376.265,300.86c-3.681,3.914-6.379,8.763-7.7,14.146h-9.846
		c-5.366,0-9.732-4.366-9.732-9.732v-53.56c0-5.382,4.366-9.761,9.732-9.761h9.542c1.178,5.93,4.013,11.27,8.003,15.513
		c-5.336,5.675-8.61,13.311-8.61,21.696S370.929,295.186,376.265,300.86L376.265,300.86z M370.829,221.954h-12.11
		c-16.394,0-29.732,13.351-29.732,29.761v53.56c0,16.395,13.338,29.732,29.732,29.732h11.492c1.473,3.435,3.529,6.563,6.053,9.248
		c-5.336,5.675-8.61,13.312-8.61,21.697c0,17.478,14.219,31.697,31.697,31.697h8.793v42.215H292.068V244.853c0-5.522-4.477-10-10-10
		s-10,4.478-10,10v195.012h-32.136V72.136h32.136v82.512c0,5.522,4.477,10,10,10s10-4.478,10-10V72.136h116.077v131.937h-8.793
		C386.824,204.072,375.972,211.379,370.829,221.954L370.829,221.954z M460.309,397.649v42.215h-32.164v-42.215H460.309z
		 M135.735,344.255c2.525-2.685,4.58-5.813,6.053-9.248h11.492c16.395,0,29.732-13.338,29.732-29.732v-53.56
		c0-16.41-13.338-29.761-29.732-29.761h-12.109c-5.143-10.575-15.995-17.882-28.522-17.882h-8.793V72.136h116.077v367.729H103.855
		V397.65h8.793c17.478,0,31.697-14.22,31.697-31.697C144.345,357.566,141.071,349.93,135.735,344.255L135.735,344.255z
		 M135.735,257.467c3.99-4.243,6.825-9.583,8.003-15.513h9.542c5.367,0,9.732,4.379,9.732,9.761v53.56
		c0,5.366-4.366,9.732-9.732,9.732h-9.845c-1.321-5.383-4.019-10.232-7.7-14.146c5.336-5.675,8.61-13.312,8.61-21.697
		S141.071,263.142,135.735,257.467L135.735,257.467z M83.855,72.136v131.937H51.691V72.136H83.855z M20,365.952
		c0-6.45,5.248-11.697,11.697-11.697c5.523,0,10-4.478,10-10s-4.477-10-10-10c-6.45,0-11.697-5.247-11.697-11.697
		s5.248-11.697,11.697-11.697c5.523,0,10-4.478,10-10s-4.477-10-10-10c-6.45,0-11.697-5.247-11.697-11.697
		c0-6.449,5.248-11.696,11.697-11.696c5.523,0,10-4.478,10-10s-4.477-10-10-10c-6.45,0-11.697-5.247-11.697-11.697
		s5.248-11.697,11.697-11.697h80.951c6.45,0,11.697,5.247,11.697,11.697s-5.247,11.697-11.697,11.697H81.697
		c-5.523,0-10,4.478-10,10s4.477,10,10,10h30.951c6.45,0,11.697,5.247,11.697,11.696c0,6.45-5.247,11.697-11.697,11.697H81.697
		c-5.523,0-10,4.478-10,10s4.477,10,10,10h30.951c6.45,0,11.697,5.247,11.697,11.697s-5.247,11.697-11.697,11.697
		c-0.012,0-0.025,0-0.037,0l-30.951,0.114c-5.522,0.021-9.983,4.514-9.963,10.037c0.021,5.51,4.494,9.963,9.999,9.963h0.038
		l30.917-0.114c6.448,0.001,11.694,5.248,11.694,11.697c0,6.45-5.247,11.697-11.697,11.697H31.697
		C25.248,377.649,20,372.402,20,365.952z M83.855,397.649v42.215H51.691v-42.215H83.855z M492,475.918
		c0,8.867-7.214,16.082-16.082,16.082H36.082C27.214,492,20,484.785,20,475.918c0-8.853,7.214-16.054,16.082-16.054h439.836
		C484.786,459.864,492,467.065,492,475.918z M480.303,267.467c6.45,0,11.697,5.247,11.697,11.696c0,6.45-5.248,11.697-11.697,11.697
		c-5.523,0-10,4.478-10,10s4.477,10,10,10c6.45,0,11.697,5.247,11.697,11.697s-5.248,11.697-11.697,11.697c-5.523,0-10,4.478-10,10
		s4.477,10,10,10c6.45,0,11.697,5.247,11.697,11.697s-5.248,11.697-11.697,11.697h-80.951c-6.45,0-11.697-5.247-11.697-11.697
		c0-6.449,5.246-11.696,11.694-11.697l30.917,0.114h0.038c5.505,0,9.979-4.453,9.999-9.963c0.021-5.523-4.44-10.017-9.963-10.037
		l-30.951-0.114c-0.013,0-0.024,0-0.037,0c-6.45,0-11.697-5.247-11.697-11.697s5.247-11.697,11.697-11.697h30.951
		c5.523,0,10-4.478,10-10s-4.477-10-10-10h-30.951c-6.45,0-11.697-5.247-11.697-11.697c0-6.449,5.247-11.696,11.697-11.696h30.951
		c5.523,0,10-4.478,10-10s-4.477-10-10-10h-30.951c-6.45,0-11.697-5.247-11.697-11.697s5.247-11.697,11.697-11.697h80.951
		c6.45,0,11.697,5.247,11.697,11.697s-5.248,11.697-11.697,11.697c-5.523,0-10,4.478-10,10S474.78,267.467,480.303,267.467z"/>
	<path fill="#301934" d="M282.068,189.75c-5.523,0-10,4.478-10,10v0.028c0,5.522,4.477,9.986,10,9.986s10-4.492,10-10.015
		S287.591,189.75,282.068,189.75L282.068,189.75z"/>
</g>
</svg>
