<?xml version="1.0" encoding="iso-8859-1"?>
<!-- Generator: Adobe Illustrator 29.1.0, SVG Export Plug-In . SVG Version: 9.03 Build 55587)  -->
<svg version="1.1" id="Ebene_1" xmlns="http://www.w3.org/2000/svg" xmlns:xlink="http://www.w3.org/1999/xlink" x="0px" y="0px"
	 viewBox="0 0 512 512" enable-background="new 0 0 512 512" xml:space="preserve">
<g id="Outline">
	<path fill="#301934" d="M136,184v272c0,13.009,10.532,24,23,24h169v16H159c-21.141,0-39-18.318-39-40V184H136z M195.056,64
		l5.789,11.578C202.2,78.288,204.97,80,208,80h96c3.03,0,5.8-1.712,7.155-4.422L316.944,64H352c13.249,0.015,23.985,10.751,24,24
		v260.687l-19.716-19.716c-11.961-11.961-31.353-11.961-43.314-0.001c-11.961,11.961-11.961,31.353,0,43.314l29.3,29.3l-0.56,1.12
		c-13.94,27.695-13.08,60.532,2.29,87.46V496h16v-8c0-1.45-0.394-2.872-1.14-4.116c-13.608-22.548-14.682-50.504-2.843-74.029
		l3.138-6.277c1.54-3.08,0.936-6.8-1.5-9.235l-33.373-33.372c-5.669-5.756-5.598-15.018,0.158-20.687
		c5.694-5.607,14.834-5.608,20.528,0l33.373,33.373l24,24l11.314-11.314L392,364.686v-49.373l36.284,36.287
		c7.526,7.484,11.745,17.668,11.716,28.282V496h16V379.882c0.041-14.861-5.864-29.12-16.4-39.6l-47.6-47.6V88
		c-0.025-22.081-17.919-39.975-40-40H168v16H195.056z M195.304,176.928L217.6,147.2c1.511-2.014,3.882-3.2,6.4-3.2h64
		c2.518,0,4.889,1.186,6.4,3.2l22.3,29.728l23.186,5.8c7.126,1.775,12.123,8.179,12.114,15.522V224c0,4.418-3.582,8-8,8h-17.376
		c-4.424,12.495-18.139,19.038-30.634,14.614c-6.827-2.417-12.197-7.787-14.614-14.614h-50.752
		c-4.424,12.495-18.139,19.038-30.634,14.614c-6.827-2.417-12.197-7.787-14.614-14.614H168c-4.418,0-8-3.582-8-8v-25.75
		c-0.008-7.345,4.992-13.749,12.12-15.521L195.304,176.928z M216,224c0-4.418-3.582-8-8-8s-8,3.582-8,8s3.582,8,8,8
		C212.416,231.995,215.995,228.416,216,224z M312,224c0-4.418-3.582-8-8-8s-8,3.582-8,8s3.582,8,8,8
		C308.416,231.995,311.995,228.416,312,224z M201.941,191.761L176,198.251V216h9.376c4.424-12.495,18.139-19.038,30.634-14.614
		c6.827,2.417,12.197,7.787,14.614,14.614h50.752c4.424-12.495,18.139-19.038,30.634-14.614c6.827,2.417,12.197,7.787,14.614,14.614
		H336v-17.75l-25.941-6.489c-1.782-0.446-3.357-1.491-4.459-2.961L284,160h-56l-21.6,28.8
		C205.298,190.27,203.723,191.315,201.941,191.761z M16,141.036c0.002-4.692,1.227-9.303,3.554-13.378l53.561-93.735
		c9.747-17.057,31.477-22.983,48.534-13.236c5.515,3.151,10.085,7.722,13.236,13.236l53.562,93.735
		c7.388,12.93,2.896,29.401-10.033,36.789c-4.074,2.328-8.685,3.553-13.378,3.553H42.964C28.08,167.98,16.02,155.92,16,141.036z
		 M32,141.036c0.007,6.053,4.911,10.957,10.964,10.964h122.072c6.055-0.001,10.963-4.91,10.962-10.966
		c0-1.906-0.497-3.779-1.442-5.434l-53.564-93.739c-5.362-9.384-17.316-12.645-26.701-7.283c-3.035,1.734-5.55,4.249-7.283,7.283
		L33.445,135.6C32.499,137.256,32.001,139.129,32,141.036z M112,56H96v48h16V56z M112,120H96v16h16V120z M160,404
		c0.007-6.624,5.376-11.993,12-12h24c6.624,0.007,11.993,5.376,12,12v24c-0.007,6.624-5.376,11.993-12,12h-24
		c-6.624-0.007-11.993-5.376-12-12V404z M176,424h16v-16h-16V424z M224,408h80v-16h-80V408z M224,440h88v-16h-88V440z M160,340
		c0.007-6.624,5.376-11.993,12-12h24c6.624,0.007,11.993,5.376,12,12v24c-0.007,6.624-5.376,11.993-12,12h-24
		c-6.624-0.007-11.993-5.376-12-12V340z M176,360h16v-16h-16V360z M280,328h-56v16h56V328z M224,376h56v-16h-56V376z M160,276
		c0.007-6.624,5.376-11.993,12-12h24c6.624,0.007,11.993,5.376,12,12v24c-0.007,6.624-5.376,11.993-12,12h-24
		c-6.624-0.007-11.993-5.376-12-12V276z M176,296h16v-16h-16V296z M352,264H224v16h128V264z M352,296H224v16h128V296z
		 M485.657,85.657l-11.314-11.314l-16,16l11.314,11.314L485.657,85.657z M457.657,113.657l-11.314-11.314l-36,36l11.314,11.314
		L457.657,113.657z M479,184v16h17v-16H479z M416,184v16h45v-16H416z M485.657,298.343l-16-16l-11.314,11.314l16,16L485.657,298.343
		z M455.99,268.677l-34.333-34.334l-11.314,11.314l34.333,34.333L455.99,268.677z M240,104h-40v16h40V104z M296,104h-40v16h40V104z
		 M352,104h-40v16h40V104z"/>
</g>
</svg>
