<?xml version="1.0" encoding="iso-8859-1"?>
<!-- Generator: Adobe Illustrator 29.1.0, SVG Export Plug-In . SVG Version: 9.03 Build 55587)  -->
<svg version="1.1" id="_x33_0" xmlns="http://www.w3.org/2000/svg" xmlns:xlink="http://www.w3.org/1999/xlink" x="0px" y="0px"
	 viewBox="0 0 512 512" enable-background="new 0 0 512 512" xml:space="preserve">
<g>
	<g>
		<g>
			<path fill="#301934" d="M264,496H64v-48h112h56h8v24C240,485.28,250.72,496,264,496z"/>
		</g>
		<g>
			<path fill="#301934" d="M112,400h64v48H64h-8c-22.08,0-40-17.92-40-40v-86.08c0-19.04,6.64-37.36,18.64-52
				C36.08,271.2,37.92,272,40,272h88v12.72c0,7.2,2.88,14.16,8,19.28L112,400z"/>
		</g>
		<g>
			<path fill="#301934" d="M248,272l8.88,11.44C246.48,292.32,240,305.52,240,320v32v32v17.36v0.08c-2.48-0.96-5.2-1.44-8-1.44h-8
				l-9.2-9.2c-4.32-4.32-10.24-6.8-16.4-6.8c-8.8,0-16.88,4.96-20.8,12.88L176,400l-24-96c5.12-5.12,8-12.08,8-19.28V272L248,272z"
				/>
		</g>
		<g>
			<path fill="#301934" d="M152,304l24,96h-64l24-96H152z"/>
		</g>
		<g>
			<path fill="#301934" d="M160,272v12.72c0,7.2-2.88,14.16-8,19.28h-16c-5.12-5.12-8-12.08-8-19.28V272H160z"/>
		</g>
		<g>
			<path fill="#301934" d="M112,240l16,32H40c-2.08,0-3.92-0.8-5.36-2.08c-1.6-1.44-2.64-3.6-2.64-5.92v-16c0-4.4,3.6-8,8-8H112z"/>
		</g>
		<g>
			<path fill="#301934" d="M256,248v16c0,4.4-3.6,8-8,8h-88l16-32h72C252.4,240,256,243.6,256,248z"/>
		</g>
		<g>
			<path fill="#301934" d="M208,96c4.4,0,8,3.6,8,8c0,9.04-2.96,17.36-8,24c-1.12,1.52-2.32,2.96-3.68,4.32s-2.8,2.56-4.32,3.68
				c-6.64,5.04-14.96,8-24,8h-64c-9.04,0-17.36-2.96-24-8c-3.04-2.32-5.68-4.96-8-8c-5.04-6.64-8-14.96-8-24c0-4.4,3.6-8,8-8h64H208
				z"/>
		</g>
		<g>
			<path fill="#301934" d="M220.08,56.88l-61.2-36.8C154.4,17.44,149.2,16,144,16s-10.4,1.44-14.88,4.08l-61.2,36.8
				C60.48,61.28,56,69.28,56,77.84c0,6.48,2.56,12.72,7.2,17.36L72,104c0-4.4,3.6-8,8-8h128c4.4,0,8,3.6,8,8l8.8-8.8
				c4.64-4.64,7.2-10.88,7.2-17.36C232,69.28,227.52,61.28,220.08,56.88z"/>
		</g>
		<g>
			<circle fill="#301934" cx="144" cy="80" r="16"/>
		</g>
		<g>
			<path fill="#301934" d="M427.92,80H292.08c1.76-2.16,3.68-4.24,5.68-6.24C313.68,57.84,335.68,48,360,48s46.32,9.84,62.24,25.76
				C424.24,75.76,426.16,77.84,427.92,80L427.92,80z"/>
		</g>
		<g>
			<path fill="#301934" d="M444.64,112c2.24,7.6,3.36,15.68,3.36,24c0,4.4-3.6,8-8,8h-16h-8H304h-8h-16c-4.4,0-8-3.6-8-8
				c0-8.32,1.12-16.4,3.36-24H444.64z"/>
		</g>
		<g>
			<path fill="#301934" d="M444.64,112H275.36c3.28-11.92,9.12-22.72,16.72-32h135.84C435.52,89.28,441.36,100.08,444.64,112z"/>
		</g>
		<g>
			<path fill="#301934" d="M254.64,416H288h8c4.4,0,8,3.6,8,8v8v8c0,4.4-3.6,8-8,8h-8h-48h-8c13.28,0,24-10.72,24-24l-1.44-8H254.64
				z"/>
		</g>
		<g>
			<path fill="#301934" d="M496,424v16c0,4.4-3.6,8-8,8h-8h-48h-8c-4.4,0-8-3.6-8-8v-8v-8c0-4.4,3.6-8,8-8h8h48h8
				C492.4,416,496,419.6,496,424z"/>
		</g>
		<g>
			<path fill="#301934" d="M456,496H264c6.64,0,12.64-2.72,16.96-7.04S288,478.64,288,472v-8h144v8c0,6.64,2.72,12.64,7.04,16.96
				S449.36,496,456,496z"/>
		</g>
		<g>
			<path fill="#301934" d="M240,384h48v32h-33.36h-0.08c-1.12-3.44-3.12-6.48-5.6-8.96s-5.52-4.48-8.96-5.6v-0.08L240,384z"/>
		</g>
		<g>
			<path fill="#301934" d="M432,384h48v32h-48V384z"/>
		</g>
		<g>
			<path fill="#301934" d="M432,384v32h-8c-4.4,0-8,3.6-8,8v8H304v-8c0-4.4-3.6-8-8-8h-8v-32H432z"/>
		</g>
		<g>
			<path fill="#301934" d="M240,320h240v32H240V320z"/>
		</g>
		<g>
			<path fill="#301934" d="M424,448h8v16H288v-16h8c4.4,0,8-3.6,8-8v-8h112v8C416,444.4,419.6,448,424,448z"/>
		</g>
		<g>
			<path fill="#301934" d="M240,352h240v32H240V352z"/>
		</g>
		<g>
			<path fill="#301934" d="M480,320h-48H288h-48c0-14.48,6.48-27.68,16.88-36.56c6.24-5.28,13.92-9.04,22.48-10.64l32.08-5.92
				c5.04-0.96,9.6-3.44,12.88-7.04l0.08,0.08c9.6,7.76,21.68,12.08,34.24,12.08h2.72c12.56,0,24.64-4.32,34.24-12.08l0.08-0.08
				c3.36,3.6,7.84,6.08,12.88,7.04l32.08,5.92C463.44,276.96,480,296.8,480,320L480,320z"/>
		</g>
		<g>
			<path fill="#301934" d="M208,128c13.28,0,24,10.72,24,24c0,6.64-2.72,12.64-7.04,16.96S214.64,176,208,176h-8.64
				c0.48-2.56,0.64-5.28,0.64-8v-32c1.52-1.12,2.96-2.32,4.32-3.68S206.88,129.52,208,128z"/>
		</g>
		<g>
			<path fill="#301934" d="M88,168c0,2.72,0.16,5.36,0.64,8h-0.08H80c-6.64,0-12.64-2.72-16.96-7.04S56,158.64,56,152
				c0-13.28,10.72-24,24-24c2.32,3.04,4.96,5.68,8,8V168z"/>
		</g>
		<g>
			<path fill="#301934" d="M200,136v32c0,2.72-0.16,5.44-0.64,8c-2.56,18.64-14.4,34.24-30.64,42.24
				c-7.44,3.68-15.84,5.76-24.72,5.76s-17.28-2.08-24.72-5.76c-5.52-2.72-10.56-6.32-14.88-10.64c-8.4-8.4-14.08-19.28-15.76-31.6
				c-0.48-2.64-0.64-5.28-0.64-8v-32c6.64,5.04,14.96,8,24,8h64C185.04,144,193.36,141.04,200,136z"/>
		</g>
		<g>
			<path fill="#301934" d="M168.72,218.24L176,240l-16,32h-32l-16-32l7.28-21.76c7.44,3.68,15.84,5.76,24.72,5.76
				S161.28,221.92,168.72,218.24z"/>
		</g>
		<g>
			<path fill="#301934" d="M254.56,416l1.44,8c0,13.28-10.72,24-24,24h-56v-48l1.6-3.12c3.92-7.92,12-12.88,20.8-12.88
				c6.16,0,12.08,2.48,16.4,6.8l9.2,9.2h8c2.8,0,5.52,0.48,8,1.44c3.44,1.12,6.48,3.12,8.96,5.6S253.44,412.56,254.56,416
				L254.56,416z"/>
		</g>
		<g>
			<path fill="#301934" d="M288,464v8c0,6.64-2.72,12.64-7.04,16.96S270.64,496,264,496c-13.28,0-24-10.72-24-24v-24h48V464z"/>
		</g>
		<g>
			<path fill="#301934" d="M480,448v24c0,13.28-10.72,24-24,24c-6.64,0-12.64-2.72-16.96-7.04S432,478.64,432,472v-8v-16H480z"/>
		</g>
		<g>
			<path fill="#301934" d="M416,144h8c13.28,0,24,10.72,24,24c0,6.64-2.72,12.64-7.04,16.96S430.64,192,424,192h-8.64
				c0.48-2.56,0.64-5.28,0.64-8V144z"/>
		</g>
		<g>
			<path fill="#301934" d="M389.52,248.48c0.96,4.4,3.12,8.32,6.16,11.36l-0.08,0.08C386,267.68,373.92,272,361.36,272h-2.72
				c-12.56,0-24.64-4.32-34.24-12.08l-0.08-0.08c3.04-3.12,5.2-6.96,6.16-11.28l3.36-15.04c7.84,4.16,16.72,6.48,26.16,6.48
				s18.32-2.32,26.16-6.48L389.52,248.48z"/>
		</g>
		<g>
			<path fill="#301934" d="M415.36,192c-2.48,18.08-13.68,33.36-29.2,41.52c-7.84,4.16-16.72,6.48-26.16,6.48
				s-18.32-2.32-26.16-6.48c-4.96-2.64-9.52-6-13.44-9.92c-8.32-8.32-14.08-19.28-15.76-31.6c-0.48-2.64-0.64-5.28-0.64-8v-40h112
				v40C416,186.72,415.84,189.44,415.36,192L415.36,192z"/>
		</g>
		<g>
			<path fill="#301934" d="M304,184c0,2.72,0.16,5.36,0.64,8h-0.08H296c-6.64,0-12.64-2.72-16.96-7.04S272,174.64,272,168
				c0-13.28,10.72-24,24-24h8L304,184z"/>
		</g>
	</g>
	<g>
		<path fill="#301934" d="M344,209.888c3.048-6.096,9.176-9.888,16-9.888s12.952,3.792,16,9.888l0.84,1.688l14.312-7.16l-0.84-1.688
			C384.536,191.176,372.92,184,360,184s-24.536,7.176-30.312,18.736l-0.84,1.688l14.312,7.16L344,209.888z"/>
		<path fill="#301934" d="M144,200c12.92,0,24.536-7.176,30.312-18.736l0.84-1.688l-14.312-7.16l-0.84,1.696
			c-3.048,6.096-9.176,9.888-16,9.888s-12.952-3.792-16-9.888l-0.84-1.688l-14.312,7.16l0.84,1.688
			C119.464,192.824,131.08,200,144,200z"/>
		<path fill="#301934" d="M488,408v-88.016c0-27.024-19.296-50.184-45.872-55.08L410.024,259c-6.32-1.16-11.312-5.968-12.72-12.232
			l-2.104-9.376c13.024-8.616,22.672-21.872,26.688-37.392H424c17.648,0,32-14.352,32-32c0-7.216-2.488-13.808-6.536-19.168
			C453.408,145.92,456,141.272,456,136c0-52.936-43.064-96-96-96s-96,43.064-96,96c0,5.272,2.592,9.92,6.536,12.832
			C266.488,154.192,264,160.784,264,168c0,17.648,14.352,32,32,32h2.104c4.016,15.52,13.664,28.776,26.688,37.392l-2.104,9.392
			c-1.408,6.272-6.4,11.072-12.72,12.232l-32.096,5.904c-5.416,1-10.432,2.92-15.144,5.312C263.544,268.32,264,266.216,264,264v-16
			c0-8.824-7.176-16-16-16h-66.232l-3.368-10.12c13.424-8.6,23.4-22.056,27.496-37.88H208c17.648,0,32-14.352,32-32
			c0-13.288-8.152-24.696-19.704-29.528c1.952-4.664,3.144-9.712,3.528-14.984l6.664-6.664C236.624,94.688,240,86.536,240,77.856
			c0-11.344-6.04-22.016-15.768-27.848l-61.256-36.752c-11.456-6.872-26.504-6.872-37.952,0L63.768,50.008
			C54.04,55.84,48,66.512,48,77.856c0,8.672,3.376,16.832,9.512,22.968l6.664,6.664c0.384,5.272,1.576,10.32,3.528,14.984
			C56.152,127.304,48,138.712,48,152c0,17.648,14.352,32,32,32h2.104c4.096,15.832,14.072,29.28,27.496,37.88L106.232,232H40
			c-8.824,0-16,7.176-16,16v16c0,1.912,0.392,3.72,1.008,5.416C14.04,284.664,8,303.08,8,321.944V408c0,26.472,21.528,48,48,48v48
			h400c17.648,0,32-14.352,32-32v-16c8.824,0,16-7.176,16-16v-16C504,415.176,496.824,408,488,408L488,408z M440,408v-16h32v16H440z
			 M248,472v-16h32v16c0,8.824-7.176,16-16,16S248,480.824,248,472z M152,284.688c0,4.056-1.312,8.04-3.664,11.312h-8.664
			c-2.36-3.272-3.672-7.256-3.672-11.312V280h16V284.688z M142.248,312h3.504l20,80h-43.504L142.248,312z M184,401.888l0.728-1.464
			c2.6-5.192,7.824-8.424,13.64-8.424c4.008,0,7.944,1.632,10.784,4.464L220.688,408H232c8.824,0,16,7.176,16,16s-7.176,16-16,16
			h-48L184,401.888z M248,328h32v16h-32V328z M472,376h-32v-16h32V376z M424,376H296v-16h128V376z M472,344h-32v-16h32V344z
			 M424,344H296v-16h128V344z M248,360h32v16h-32V360z M248,392h32v16h-20.448c-2.792-4.792-6.76-8.752-11.552-11.552V392z M312,440
			h96c0,8.824,7.176,16,16,16H296C304.824,456,312,448.824,312,440z M264,424h32v16h-36.448C262.304,435.272,264,429.856,264,424z
			 M296,472h128c0,5.856,1.696,11.272,4.448,16H291.552C294.304,483.272,296,477.856,296,472z M408,424h-96c0-8.824-7.176-16-16-16
			v-16h128v16C415.176,408,408,415.176,408,424z M280,136c0-5.48,0.56-10.832,1.616-16H438.4c1.056,5.168,1.616,10.52,1.616,16H280z
			 M423.848,88c3.72,4.936,6.92,10.272,9.432,16H286.728c2.512-5.728,5.704-11.064,9.424-16H423.848z M424,184v-32
			c8.824,0,16,7.176,16,16S432.824,184,424,184z M407.8,72h-95.6c13.36-10,29.872-16,47.8-16S394.44,62,407.8,72L407.8,72z M280,168
			c0-8.824,7.176-16,16-16v32C287.176,184,280,176.824,280,168z M312,184v-32h96v32c0,26.472-21.528,48-48,48S312,210.472,312,184z
			 M360,248c7.144,0,14-1.232,20.424-3.4l1.272,5.672c0.6,2.672,1.584,5.176,2.792,7.536c-7.008,4-14.992,6.192-23.12,6.192h-2.744
			c-8.128,0-16.104-2.184-23.112-6.184c1.208-2.36,2.192-4.856,2.784-7.528l1.272-5.688C346,246.768,352.856,248,360,248L360,248z
			 M280.768,280.664l32.104-5.904c4.32-0.792,8.288-2.488,11.808-4.816C334.752,276.44,346.576,280,358.632,280h2.744
			c12.056,0,23.888-3.56,33.976-10.064c3.512,2.312,7.48,4.008,11.792,4.8l32.096,5.904c16.296,3,28.696,15.64,31.896,31.36H248.88
			C252.088,296.288,264.48,283.656,280.768,280.664z M249.2,279.88C238.6,290.136,232,304.352,232,320v72h-4.688l-6.848-6.848
			C214.56,379.248,206.72,376,198.368,376c-6.944,0-13.464,2.272-18.76,6.264l-18.888-76.328c4.648-6.104,7.28-13.44,7.28-21.24V280
			h80C248.408,280,248.8,279.912,249.2,279.88z M248,264h-75.056l8-16H248V264z M80,104h128c0,17.648-14.352,32-32,32h-64
			C94.352,136,80,121.648,80,104z M136,80c0-4.408,3.592-8,8-8s8,3.592,8,8s-3.592,8-8,8S136,84.408,136,80z M224,152
			c0,8.824-7.176,16-16,16v-28.32c1.168-1.048,2.28-2.152,3.344-3.312C218.568,137.904,224,144.328,224,152z M72,63.728
			l61.256-36.752c6.488-3.896,15-3.896,21.488,0L216,63.728c4.936,2.96,8,8.376,8,14.136c0,4.4-1.712,8.544-4.832,11.656l-1.68,1.68
			c-2.656-1.984-5.92-3.2-9.488-3.2h-41.472c0.896-2.512,1.472-5.184,1.472-8c0-13.232-10.768-24-24-24s-24,10.768-24,24
			c0,2.816,0.576,5.488,1.472,8H80c-3.568,0-6.832,1.216-9.496,3.192l-1.68-1.68C65.712,86.4,64,82.264,64,77.856
			C64,72.104,67.064,66.688,72,63.728z M64,152c0-7.672,5.432-14.096,12.656-15.632c1.064,1.152,2.176,2.256,3.344,3.312V168
			C71.176,168,64,160.824,64,152z M96,168v-18.8c5.016,1.784,10.384,2.8,16,2.8h64c5.616,0,10.984-1.024,16-2.8V168
			c0,26.472-21.528,48-48,48S96,194.472,96,168z M144,232c6.928,0,13.584-1.144,19.84-3.184l3.52,10.568L155.056,264h-22.112
			l-12.304-24.616l3.52-10.568C130.416,230.856,137.072,232,144,232L144,232z M40,248h67.056l8,16H40V248z M24,408v-86.056
			c0-15.104,4.688-29.88,13.264-42.216C38.16,279.88,39.064,280,40,280h80v4.688c0,7.8,2.632,15.136,7.272,21.232L105.752,392H88
			v-65.888l-8.84-17.688l-14.312,7.16L72,329.888v66.8l-13.656,13.656l11.312,11.312L83.312,408H168v32H56
			C38.352,440,24,425.648,24,408L24,408z M72,456h160v16c0,5.856,1.696,11.272,4.448,16H72V456z M472,472c0,8.824-7.176,16-16,16
			s-16-7.176-16-16v-16h32V472z M424,440v-16h64l0.008,16H424z"/>
	</g>
</g>
</svg>
