<svg width="31" height="31" viewBox="0 0 31 31" fill="none" xmlns="http://www.w3.org/2000/svg">
<path d="M23.25 29.0625H7.75C6.97717 29.0984 6.20535 28.9726 5.4839 28.6932C4.76246 28.4138 4.10725 27.9869 3.56019 27.4398C3.01312 26.8927 2.58624 26.2375 2.30683 25.5161C2.02741 24.7946 1.90162 24.0228 1.9375 23.25V10.6562C1.9375 10.3993 2.03957 10.1529 2.22124 9.97124C2.40292 9.78956 2.64932 9.6875 2.90625 9.6875H28.0938C28.3507 9.6875 28.5971 9.78956 28.7788 9.97124C28.9604 10.1529 29.0625 10.3993 29.0625 10.6562V23.25C29.0984 24.0228 28.9726 24.7946 28.6932 25.5161C28.4138 26.2375 27.9869 26.8927 27.4398 27.4398C26.8927 27.9869 26.2375 28.4138 25.5161 28.6932C24.7947 28.9726 24.0228 29.0984 23.25 29.0625ZM3.875 11.625V23.25C3.83914 23.7681 3.91478 24.2879 4.09684 24.7743C4.27889 25.2607 4.56312 25.7024 4.93036 26.0696C5.29759 26.4369 5.73931 26.7211 6.22571 26.9032C6.71211 27.0852 7.23189 27.1609 7.75 27.125H23.25C23.7681 27.1609 24.2879 27.0852 24.7743 26.9032C25.2607 26.7211 25.7024 26.4369 26.0696 26.0696C26.4369 25.7024 26.7211 25.2607 26.9032 24.7743C27.0852 24.2879 27.1609 23.7681 27.125 23.25V11.625H3.875Z" fill="white"/>
<path d="M27.125 11.625H7.75002C7.53259 11.633 7.31878 11.5677 7.14304 11.4394C6.9673 11.3111 6.83987 11.1274 6.78127 10.9178C6.72492 10.7152 6.73604 10.4998 6.81293 10.304C6.88983 10.1083 7.02833 9.94289 7.20752 9.83282L19.8013 2.08282C19.9953 1.96419 20.2249 1.91763 20.4499 1.95128C20.6748 1.98493 20.8807 2.09665 21.0316 2.26688L27.8128 10.0169C27.9338 10.1542 28.0133 10.3231 28.0423 10.5038C28.0713 10.6845 28.0484 10.8697 27.9764 11.038C27.9045 11.2063 27.7863 11.3507 27.6356 11.4546C27.4849 11.5585 27.3079 11.6176 27.125 11.625ZM11.1697 9.6875H24.9938L20.15 4.15594L11.1697 9.6875Z" fill="white"/>
<path d="M4.84375 11.625C4.71626 11.6257 4.58987 11.6013 4.47184 11.5531C4.35381 11.5049 4.24646 11.4338 4.15594 11.3441C4.06514 11.254 3.99307 11.1469 3.94389 11.0288C3.89471 10.9108 3.86938 10.7841 3.86938 10.6563C3.86938 10.5284 3.89471 10.4017 3.94389 10.2837C3.99307 10.1656 4.06514 10.0585 4.15594 9.96844L11.9059 2.21844C11.996 2.12764 12.1031 2.05557 12.2212 2.00639C12.3392 1.95721 12.4659 1.93188 12.5938 1.93188C12.7216 1.93188 12.8483 1.95721 12.9663 2.00639C13.0844 2.05557 13.1915 2.12764 13.2816 2.21844L16.1878 5.12469C16.2781 5.21501 16.3498 5.32225 16.3987 5.44026C16.4476 5.55828 16.4727 5.68476 16.4727 5.8125C16.4727 5.94024 16.4476 6.06673 16.3987 6.18474C16.3498 6.30276 16.2781 6.40999 16.1878 6.50031C16.0975 6.59064 15.9903 6.66229 15.8722 6.71117C15.7542 6.76006 15.6277 6.78522 15.5 6.78522C15.3723 6.78522 15.2458 6.76006 15.1278 6.71117C15.0097 6.66229 14.9025 6.59064 14.8122 6.50031L12.5938 4.27219L5.53156 11.3441C5.44104 11.4338 5.33369 11.5049 5.21566 11.5531C5.09763 11.6013 4.97125 11.6257 4.84375 11.625Z" fill="white"/>
<path d="M24.2188 21.3125C23.8355 21.3125 23.461 21.1989 23.1423 20.986C22.8237 20.7731 22.5754 20.4705 22.4287 20.1165C22.2821 19.7624 22.2437 19.3729 22.3185 18.997C22.3932 18.6212 22.5778 18.2759 22.8487 18.005C23.1197 17.734 23.4649 17.5495 23.8408 17.4747C24.2166 17.4 24.6062 17.4383 24.9602 17.585C25.3142 17.7316 25.6168 17.98 25.8297 18.2986C26.0426 18.6172 26.1563 18.9918 26.1563 19.375C26.1563 19.8889 25.9521 20.3817 25.5888 20.745C25.2254 21.1084 24.7326 21.3125 24.2188 21.3125Z" fill="white"/>
<path d="M11.16 8.55406H25.2941L27.2606 10.5303H7.75L11.16 8.55406Z" fill="white"/>
<path d="M15.5 24.8872C7.99216 24.8872 3.87498 18.7259 3.87498 16.7109L3.18716 24.3931C3.15873 24.8775 3.23139 25.3624 3.40052 25.8172C3.56966 26.2719 3.83157 26.6865 4.1696 27.0346C4.50763 27.3826 4.91438 27.6565 5.364 27.8389C5.81361 28.0212 6.29625 28.108 6.78123 28.0937H24.2187C24.6989 28.1063 25.1764 28.0175 25.62 27.8332C26.0636 27.6489 26.4634 27.3732 26.7933 27.024C27.1233 26.6749 27.3759 26.2602 27.5349 25.8069C27.6939 25.3536 27.7555 24.8719 27.7159 24.3931L27.125 21.3125C27.125 23.7344 23.0078 24.8872 15.5 24.8872Z" fill="white"/>
</svg>
