<svg width="20" height="31" viewBox="0 0 20 31" fill="none" xmlns="http://www.w3.org/2000/svg">
<path d="M10 15.9C6.3 15.9 2.8 16.3 0 17V21C0 26.5 4.5 31 10 31C15.5 31 20 26.5 20 21V17C17.2 16.3 13.7 15.9 10 15.9Z" fill="white"/>
<path d="M13 7.56303C13 9.20168 12.2 10.5882 11 11.0924V13.7395C14.3 13.8655 17.4 14.2437 20 15V8.82353C20 3.90756 16.9 0 13 0H11V4.03361C12.2 4.53782 13 5.92437 13 7.56303Z" fill="white"/>
<path d="M9 13.7395V11.0924C7.8 10.5882 7 9.20168 7 7.56303C7 5.92437 7.8 4.53782 9 4.03361V0H7C3.1 0 0 3.90756 0 8.82353V15C2.6 14.2437 5.7 13.8655 9 13.7395Z" fill="#DB121B"/>
<ellipse cx="10" cy="7.5" rx="2" ry="2.5" fill="white"/>
</svg>
