<svg xmlns="http://www.w3.org/2000/svg" fill="none" viewBox="0 0 24 25">
  <path fill="#fff"  fill-rule="evenodd" d="m5.209 4.278.76.788-.281 1.012a31.077 31.077 0 0 1-.297 1.033c-.02.026-1.581.234-1.78.236-.148.002-.14-.009.307-.401.252-.222.459-.422.459-.444 0-.021-.326-.322-.724-.668-.625-.542-.71-.632-.625-.66.054-.016.446-.077.871-.134.425-.058.778-.108.783-.113.006-.005-.049-.326-.12-.713A11.812 11.812 0 0 1 4.44 3.5c.005-.005.351.345.769.778Zm3.956-.23c.47.15.863.283.874.294.01.011-.04.21-.112.442-.073.232-.118.435-.1.451.033.033.334.126 3.805 1.173 3.279.99 3.38 1.022 3.66 1.162.144.072.368.248.524.413l.273.288.298-.154c.502-.26.933-.354 1.635-.357.581-.002 1.283.095 1.368.19.028.03-.46 1.776-.51 1.821-.01.009-.19-.016-.404-.055-.613-.112-1.262.02-1.513.307-.078.089-.075.103.08.386.175.322.184.366.109.539-.06.137-.15.177-.7.313-1.474.368-2.77 1.263-3.283 2.267-.519 1.019-1.129 1.478-2.04 1.534a2.977 2.977 0 0 1-1.548-.317c-.492-.248-.919-.705-1.191-1.275-.26-.543-.327-.818-.36-1.468l-.026-.553.265-.965c.145-.531.254-.977.24-.99-.012-.014-1.014-.324-2.225-.689a197.17 197.17 0 0 1-2.213-.675 190.36 190.36 0 0 1 1.054-3.69c.006-.005.203.053.439.13l.433.14c.003.001.064-.21.136-.47.072-.259.142-.47.155-.468.012.001.407.126.877.276Zm3.83 3.657c-.074.261-.11.465-.086.487.066.06 2.52.768 2.581.745.045-.018.318-.837.288-.863a55.468 55.468 0 0 0-.964-.3 136.17 136.17 0 0 1-1.296-.401 9.475 9.475 0 0 0-.368-.114c-.014-.002-.084.199-.154.446Zm-.515 1.8a8.6 8.6 0 0 0-.107.456c-.013.081.12.131 1.213.457.676.2 1.271.377 1.324.39.085.023.108-.017.216-.386.067-.226.121-.433.12-.46 0-.045-2.429-.81-2.598-.819-.056-.003-.099.09-.168.362Zm-1.04 1.828c-.119.136-.17.443-.14.839.061.783.705 1.383 1.538 1.433.46.028.735-.065.987-.333.199-.21.42-.644.42-.825.002-.35-.492-.662-1.656-1.048-.786-.26-.97-.271-1.149-.066Zm8.275.653c.639.236 1.28 1.34 1.739 2.993.38 1.37.54 2.606.544 4.194L22 20.28l-.163.354c-.275.596-.623.867-1.11.866-.325-.001-2.626-.653-3.016-.854-.608-.314-.894-.954-.889-1.99.003-.63.068-1.068.296-2.003.259-1.06.128-1.401-.77-2.019-.32-.22-.465-.402-.465-.584 0-.185.243-.58.523-.853.362-.35.61-.528 1.069-.766.837-.434 1.769-.619 2.24-.445Zm-1.16 1.702a1.046 1.046 0 0 0-.411.843c0 .888 1.087 1.304 1.667.639a1.005 1.005 0 0 0-.312-1.564 1.002 1.002 0 0 0-.943.082Z" clip-rule="evenodd"/>
</svg>