<svg width="26" height="27" viewBox="0 0 26 27" fill="none" xmlns="http://www.w3.org/2000/svg">
<path d="M22.5063 6.83447L14.2188 13.172L21.6125 20.5657C23.3188 18.5345 24.375 15.9345 24.375 13.0907C24.375 10.7345 23.6438 8.62197 22.5063 6.83447Z" fill="white"/>
<path d="M13.8125 11.4658L21.45 5.53457C19.5 3.42207 16.8188 1.95957 13.8125 1.71582V11.4658Z" fill="white"/>
<path d="M12.4313 13.6594C12.35 13.5781 12.35 13.5781 12.4313 13.6594C12.35 13.5781 12.35 13.4969 12.35 13.4969C12.35 13.4156 12.2688 13.4156 12.2688 13.3344C12.2688 13.2531 12.2688 13.2531 12.2688 13.1719V13.0906V1.79688C6.25625 2.20312 1.625 7.07812 1.625 13.0906C1.625 19.3469 6.74375 24.4656 13 24.4656C15.8438 24.4656 18.4438 23.4094 20.475 21.7031L12.4313 13.6594Z" fill="white"/>
</svg>
