<svg width="30" height="30" viewBox="0 0 30 30" fill="none" xmlns="http://www.w3.org/2000/svg">
<path d="M15 15C17.7614 15 20 12.7614 20 10C20 7.23858 17.7614 5 15 5C12.2386 5 10 7.23858 10 10C10 12.7614 12.2386 15 15 15Z" fill="white"/>
<path d="M25 23.75V25C25 25.3315 24.8683 25.6495 24.6339 25.8839C24.3995 26.1183 24.0815 26.25 23.75 26.25H6.25C5.91848 26.25 5.60054 26.1183 5.36612 25.8839C5.1317 25.6495 5 25.3315 5 25V23.75C5 21.7609 5.79018 19.8532 7.1967 18.4467C8.60322 17.0402 10.5109 16.25 12.5 16.25H17.5C19.4891 16.25 21.3968 17.0402 22.8033 18.4467C24.2098 19.8532 25 21.7609 25 23.75Z" fill="white"/>
</svg>
