<svg xmlns="http://www.w3.org/2000/svg" width="21" height="25" fill="#fff" viewBox="0 0 21 25">
  <path d="M15.273 3.638v-.96a2.605 2.605 0 0 0-.842-1.89A2.979 2.979 0 0 0 12.409 0H8.591a2.979 2.979 0 0 0-2.022.788 2.605 2.605 0 0 0-.842 1.89v.96c-1.59.215-3.043.958-4.095 2.094C.58 6.867 0 8.319 0 9.822v13.392c0 .474.201.928.56 1.263.357.335.843.523 1.35.523h17.18c.507 0 .993-.188 1.35-.523.359-.335.56-.79.56-1.263V9.821c0-1.502-.58-2.954-1.632-4.09-1.052-1.135-2.505-1.878-4.095-2.093Zm-7.637-.96c0-.236.1-.463.28-.63a.989.989 0 0 1 .675-.262h3.818a.99.99 0 0 1 .675.261c.18.168.28.395.28.632v.892H7.636V2.68Zm.955 4.465h3.818a.99.99 0 0 1 .675.261c.18.168.28.395.28.632s-.1.464-.28.631a.99.99 0 0 1-.675.262H8.591a.99.99 0 0 1-.675-.262.865.865 0 0 1-.28-.631c0-.237.1-.464.28-.632a.99.99 0 0 1 .675-.261Zm7.636 16.071H4.773V18.75h6.681v.893c0 .237.101.464.28.631a.99.99 0 0 0 .675.262.99.99 0 0 0 .675-.262.864.864 0 0 0 .28-.631v-.893h2.863v4.464Zm0-6.25H4.773v-.893c0-.473.2-.927.559-1.262a1.978 1.978 0 0 1 1.35-.523h7.636c.507 0 .992.188 1.35.523.358.335.56.789.56 1.262v.893Z"/>
</svg>