<svg width="17" height="17" viewBox="0 0 17 17" fill="none" xmlns="http://www.w3.org/2000/svg">
<path d="M13.9614 12.9554L12.9768 11.9708C13.6269 11.1332 14.0289 10.13 14.1372 9.0752C14.2454 8.02044 14.0556 6.95646 13.5893 6.00422C13.1229 5.05197 12.3987 4.24967 11.4991 3.68853C10.5995 3.12738 9.56042 2.8299 8.50012 2.8299C7.43981 2.8299 6.40078 3.12738 5.50113 3.68853C4.60149 4.24967 3.87733 5.05197 3.41098 6.00422C2.94463 6.95646 2.7548 8.02044 2.86307 9.0752C2.97134 10.13 3.37337 11.1332 4.02345 11.9708L3.03887 12.9554C2.97248 13.0213 2.91978 13.0996 2.88382 13.1859C2.84786 13.2722 2.82935 13.3648 2.82935 13.4583C2.82935 13.5518 2.84786 13.6444 2.88382 13.7307C2.91978 13.8171 2.97248 13.8954 3.03887 13.9612C3.10472 14.0276 3.18306 14.0803 3.26938 14.1163C3.35569 14.1523 3.44828 14.1708 3.54179 14.1708C3.63529 14.1708 3.72788 14.1523 3.81419 14.1163C3.90051 14.0803 3.97885 14.0276 4.0447 13.9612L5.02929 12.9767C6.02258 13.7463 7.24353 14.164 8.50012 14.164C9.75671 14.164 10.9777 13.7463 11.971 12.9767L12.9555 13.9612C13.0214 14.0276 13.0997 14.0803 13.186 14.1163C13.2724 14.1523 13.3649 14.1708 13.4585 14.1708C13.552 14.1708 13.6445 14.1523 13.7309 14.1163C13.8172 14.0803 13.8955 14.0276 13.9614 13.9612C14.0278 13.8954 14.0805 13.8171 14.1164 13.7307C14.1524 13.6444 14.1709 13.5518 14.1709 13.4583C14.1709 13.3648 14.1524 13.2722 14.1164 13.1859C14.0805 13.0996 14.0278 13.0213 13.9614 12.9554ZM10.6251 9.20833H8.50012C8.31226 9.20833 8.13209 9.13371 7.99925 9.00087C7.86641 8.86803 7.79179 8.68786 7.79179 8.5V6.375C7.79179 6.18714 7.86641 6.00697 7.99925 5.87413C8.13209 5.74129 8.31226 5.66667 8.50012 5.66667C8.68798 5.66667 8.86815 5.74129 9.00099 5.87413C9.13383 6.00697 9.20845 6.18714 9.20845 6.375V7.79167H10.6251C10.813 7.79167 10.9931 7.86629 11.126 7.99913C11.2588 8.13197 11.3335 8.31214 11.3335 8.5C11.3335 8.68786 11.2588 8.86803 11.126 9.00087C10.9931 9.13371 10.813 9.20833 10.6251 9.20833Z" fill="white"/>
<path d="M2.83329 4.25003C2.74007 4.25057 2.64766 4.2327 2.56136 4.19745C2.47505 4.1622 2.39656 4.11026 2.33037 4.04461C2.26398 3.97876 2.21129 3.90042 2.17533 3.8141C2.13936 3.72779 2.12085 3.6352 2.12085 3.5417C2.12085 3.44819 2.13936 3.3556 2.17533 3.26929C2.21129 3.18297 2.26398 3.10463 2.33037 3.03878L3.03871 2.33045C3.10475 2.2644 3.18316 2.21201 3.26945 2.17627C3.35574 2.14053 3.44822 2.12213 3.54162 2.12213C3.63502 2.12213 3.72751 2.14053 3.8138 2.17627C3.90009 2.21201 3.9785 2.2644 4.04454 2.33045C4.11058 2.39649 4.16297 2.4749 4.19872 2.56119C4.23446 2.64748 4.25286 2.73996 4.25286 2.83336C4.25286 2.92676 4.23446 3.01925 4.19872 3.10554C4.16297 3.19183 4.11058 3.27024 4.04454 3.33628L3.33621 4.04461C3.27002 4.11026 3.19153 4.1622 3.10522 4.19745C3.01892 4.2327 2.92651 4.25057 2.83329 4.25003Z" fill="white"/>
<path d="M14.1666 4.25003C14.0734 4.25057 13.981 4.2327 13.8947 4.19745C13.8084 4.1622 13.7299 4.11026 13.6637 4.04461L12.9554 3.33628C12.822 3.2029 12.7471 3.02199 12.7471 2.83336C12.7471 2.64473 12.822 2.46383 12.9554 2.33045C13.0888 2.19706 13.2697 2.12213 13.4583 2.12213C13.6469 2.12213 13.8278 2.19706 13.9612 2.33045L14.6696 3.03878C14.7359 3.10463 14.7886 3.18297 14.8246 3.26929C14.8606 3.3556 14.8791 3.44819 14.8791 3.5417C14.8791 3.6352 14.8606 3.72779 14.8246 3.8141C14.7886 3.90042 14.7359 3.97876 14.6696 4.04461C14.6034 4.11026 14.5249 4.1622 14.4386 4.19745C14.3523 4.2327 14.2599 4.25057 14.1666 4.25003Z" fill="white"/>
</svg>
