<svg width="96" height="96" viewBox="0 0 96 96" fill="none" xmlns="http://www.w3.org/2000/svg">
  <rect width="96" height="96" rx="22" fill="url(#finderBg)"/>
  <path d="M55.4 11.6C69.9 18.7 82 33.6 85.4 51.4C90 75.4 71.8 89.6 49.9 89.6C27.9 89.6 11.2 76.2 11.2 55.9C11.2 40.4 19.7 27.1 32.1 20.2C34.6 18.8 37.6 20.6 37.5 23.5C37.2 31.2 38.8 37.8 43.4 42.5C48.3 39.9 52.1 35.8 54.2 30.3C56.3 24.9 56.4 19.6 54.3 14.5C53.5 12.5 53.5 10.7 55.4 11.6Z" fill="white" fill-opacity=".18"/>
  <path d="M24.5 54.8C24.5 35.9 35.7 25.8 47.3 20.7C49.4 19.8 51.7 21.5 51.3 23.8C50.1 31.3 51.1 38 56.2 43.9C64.7 37.2 67.2 27.7 65.6 16.8C65.3 14.8 67.4 13.3 69.1 14.4C82.3 23.2 90.1 38 90.1 55.2C90.1 78.6 72.4 94 48.6 94C26.6 94 8.9 79.6 8.9 57.4C8.9 43 16 30.9 26.1 23.5C28.4 21.8 31.3 24.3 30.3 27C27 35.4 24.5 43 24.5 54.8Z" fill="url(#flame)"/>
  <path fill-rule="evenodd" clip-rule="evenodd" d="M42 44.2C42 37.1 47.4 31.6 54.5 31.6H68.7C72.3 31.6 75.1 34.4 75.1 38C75.1 41.5 72.3 44.4 68.7 44.4H56.5C54.7 44.4 53.2 45.8 53.2 47.7V52.3H68.7C72.3 52.3 75.1 55.2 75.1 58.7C75.1 62.3 72.3 65.1 68.7 65.1H53.2V76.4C53.2 80 50.3 82.9 46.7 82.9H48.4C44.9 82.9 42 80 42 76.4V44.2Z" fill="white"/>
  <defs>
    <linearGradient id="finderBg" x1="13" y1="86" x2="84" y2="10" gradientUnits="userSpaceOnUse">
      <stop stop-color="#1D1019"/>
      <stop offset=".52" stop-color="#3A1724"/>
      <stop offset="1" stop-color="#26141C"/>
    </linearGradient>
    <linearGradient id="flame" x1="11" y1="86" x2="83" y2="12" gradientUnits="userSpaceOnUse">
      <stop stop-color="#FF0F78"/>
      <stop offset=".48" stop-color="#FF315F"/>
      <stop offset="1" stop-color="#FF7A3D"/>
    </linearGradient>
  </defs>
</svg>
