<svg width="38" height="35" viewBox="0 0 38 35" fill="none" xmlns="http://www.w3.org/2000/svg">
<path d="M37.0696 4.03307C37.5779 4.03307 37.9914 3.61222 37.9914 3.09494V0.938126C37.9914 0.420841 37.5779 0 37.0696 0H0.921786C0.413512 0 0 0.420841 0 0.938126V3.10371C0 3.62099 0.413512 4.04183 0.921786 4.04183H3.31671V30.9582H0.921786C0.413512 30.9582 0 31.379 0 31.8963V34.0619C0 34.5792 0.413512 35 0.921786 35H37.0782C37.5865 35 38 34.5792 38 34.0619V31.8963C38 31.379 37.5865 30.9582 37.0782 30.9582H35.5362V4.04183H37.0696V4.03307ZM12.7069 4.03307V13.6335H7.36568V4.03307H12.7069ZM10.7255 16.5794V18.4031C10.7255 18.7888 10.4153 19.1045 10.0363 19.1045C9.65722 19.1045 9.34709 18.7888 9.34709 18.4031V16.5794C9.34709 16.1936 9.65722 15.878 10.0363 15.878C10.4153 15.878 10.7255 16.1936 10.7255 16.5794ZM7.36568 30.9494V21.3489H12.7069V30.9494H7.36568ZM16.7558 30.9494V4.03307H22.097V30.9494H16.7558ZM31.4872 30.9494H26.146V4.03307H31.4872V30.9494Z" fill="white" fill-opacity="0.03"/>
</svg>
