<svg width="11" height="11" viewBox="0 0 11 11" fill="none" xmlns="http://www.w3.org/2000/svg">
<path d="M8.3 2H2.7C2.31395 2 2 2.3129 2 2.6972V6.90315C2 7.2871 2.31395 7.6 2.7 7.6H3.75V9L5.97285 7.6H8.3C8.68605 7.6 9 7.2871 9 6.9028V2.6972C8.99944 2.51198 8.92543 2.33454 8.79419 2.20383C8.66296 2.07312 8.48522 1.99981 8.3 2ZM5.15 4.8C5.15 4.93845 5.10895 5.07379 5.03203 5.1889C4.95511 5.30401 4.84579 5.39373 4.71788 5.44672C4.58997 5.4997 4.44922 5.51356 4.31344 5.48655C4.17765 5.45954 4.05292 5.39287 3.95503 5.29498C3.85713 5.19708 3.79046 5.07235 3.76345 4.93656C3.73644 4.80078 3.7503 4.66003 3.80328 4.53212C3.85627 4.40421 3.94599 4.29489 4.0611 4.21797C4.17622 4.14105 4.31155 4.1 4.45 4.1C4.4801 4.1 4.50845 4.10525 4.5375 4.10875C4.5662 4.10385 4.5949 4.1 4.625 4.1C4.76424 4.1 4.89777 4.15531 4.99623 4.25377C5.09469 4.35223 5.15 4.48576 5.15 4.625C5.15 4.6551 5.1458 4.6838 5.14125 4.7125C5.14475 4.74155 5.15 4.77025 5.15 4.8ZM6.55 5.5C6.36435 5.5 6.1863 5.42625 6.05503 5.29498C5.92375 5.1637 5.85 4.98565 5.85 4.8C5.85 4.7699 5.85525 4.74155 5.85875 4.7125C5.85353 4.68361 5.85061 4.65435 5.85 4.625C5.85 4.48576 5.90531 4.35223 6.00377 4.25377C6.10223 4.15531 6.23576 4.1 6.375 4.1C6.4051 4.1 6.4338 4.10385 6.4625 4.10875C6.49155 4.10525 6.5199 4.1 6.55 4.1C6.73565 4.1 6.9137 4.17375 7.04497 4.30503C7.17625 4.4363 7.25 4.61435 7.25 4.8C7.25 4.98565 7.17625 5.1637 7.04497 5.29498C6.9137 5.42625 6.73565 5.5 6.55 5.5Z" fill="#FFA248"/>
</svg>
