<svg width="16" height="21" viewBox="0 0 16 21" fill="none" xmlns="http://www.w3.org/2000/svg">
<path d="M7.99996 21C6.55646 19.7433 5.21847 18.3656 3.99998 16.8814C2.17142 14.6523 1.00989e-06 11.3327 1.00989e-06 8.16931C-0.00161974 4.86547 1.9477 1.88623 4.93834 0.621833C7.92898 -0.642565 11.3714 0.0570998 13.6594 2.39434C15.1639 3.92306 16.0067 6.00255 16 8.16931C16 11.3327 13.8285 14.6523 11.9999 16.8814C10.7814 18.3656 9.44346 19.7433 7.99996 21ZM7.99996 4.67003C6.77506 4.67003 5.6432 5.33699 5.03075 6.41967C4.41829 7.50235 4.41829 8.83627 5.03075 9.91895C5.6432 11.0016 6.77506 11.6686 7.99996 11.6686C9.8935 11.6686 11.4285 10.1019 11.4285 8.16931C11.4285 6.23671 9.8935 4.67003 7.99996 4.67003Z" fill="white"/>
</svg>
