<svg width="27" height="30" viewBox="0 0 27 30" fill="none" xmlns="http://www.w3.org/2000/svg">
<path fill-rule="evenodd" clip-rule="evenodd" d="M25.5 26.2475H24.25C24.25 26.2475 23 26.2475 23 24.9975V21.875C23 21.5287 22.72 21.25 22.375 21.25C22.03 21.25 21.75 21.5287 21.75 21.875L21.74 27.2437C21.74 28.005 19.2275 30 13.625 30C8.0225 30 5.51 28.005 5.51 27.2437L5.5 21.875C5.5 21.5287 5.22 21.25 4.875 21.25C4.53 21.25 4.25 21.5287 4.25 21.875V24.9975C4.25 26.2475 3 26.2475 3 26.2475H1.75C1.75 26.2475 0.5 26.2475 0.5 24.9975V19.6875C0.5 16.035 4.115 12.9363 9.1625 11.7613C9.1625 11.7613 10.705 13.145 13.625 13.145C16.545 13.145 18.0875 11.7613 18.0875 11.7613C23.135 12.9363 26.75 16.035 26.75 19.6875V24.9975C26.75 26.2475 25.5 26.2475 25.5 26.2475ZM13.5963 11.25C10.49 11.25 7.97125 8.73125 7.97125 5.625C7.97125 2.51875 10.4888 0 13.5963 0C16.7038 0 19.2212 2.51875 19.2212 5.625C19.2212 8.73125 16.7025 11.25 13.5963 11.25Z" fill="white"/>
</svg>
