<svg width="35" height="35" viewBox="0 0 35 35" fill="none" xmlns="http://www.w3.org/2000/svg">
<path d="M17.5 2.91666C25.5544 2.91666 32.0833 9.44562 32.0833 17.5C32.0833 25.5544 25.5544 32.0833 17.5 32.0833C14.0998 32.0883 10.8057 30.9003 8.19144 28.7262L7.8356 28.4214L9.15102 25.6477C11.0293 27.5728 13.5151 28.7899 16.1876 29.0928C18.8602 29.3957 21.5553 28.7659 23.8168 27.31C26.0783 25.854 27.7673 23.6614 28.598 21.1032C29.4286 18.5451 29.3498 15.7785 28.3749 13.2717C27.4 10.7649 25.589 8.67202 23.2483 7.34717C20.9075 6.02232 18.1809 5.54693 15.53 6.00146C12.879 6.45599 10.4665 7.81253 8.70084 9.84145C6.93515 11.8704 5.92473 14.4471 5.8406 17.1354L5.83331 17.5H9.47914L5.53289 25.8358C3.82549 23.3918 2.91203 20.4813 2.91664 17.5C2.91664 9.44562 9.4456 2.91666 17.5 2.91666ZM18.9583 8.74999V11.6667H22.6041V14.5833H14.5833C14.4011 14.583 14.2254 14.6509 14.0907 14.7736C13.9561 14.8964 13.8722 15.0651 13.8558 15.2466C13.8393 15.4281 13.8914 15.6091 14.0018 15.7541C14.1121 15.8991 14.2728 15.9975 14.4521 16.03L14.5833 16.0417H20.4166C21.3836 16.0417 22.3109 16.4258 22.9946 17.1095C23.6784 17.7932 24.0625 18.7206 24.0625 19.6875C24.0625 20.6544 23.6784 21.5818 22.9946 22.2655C22.3109 22.9492 21.3836 23.3333 20.4166 23.3333H18.9583V26.25H16.0416V23.3333H12.3958V20.4167H20.4166C20.5989 20.417 20.7746 20.3491 20.9092 20.2263C21.0439 20.1036 21.1277 19.9348 21.1442 19.7534C21.1606 19.5719 21.1086 19.3909 20.9982 19.2459C20.8878 19.1009 20.7272 19.0025 20.5479 18.97L20.4166 18.9583H14.5833C13.6164 18.9583 12.689 18.5742 12.0053 17.8905C11.3216 17.2068 10.9375 16.2794 10.9375 15.3125C10.9375 14.3456 11.3216 13.4182 12.0053 12.7345C12.689 12.0508 13.6164 11.6667 14.5833 11.6667H16.0416V8.74999H18.9583Z" fill="white"/>
</svg>
