<svg width="18" height="15" viewBox="0 0 18 15" fill="none" xmlns="http://www.w3.org/2000/svg">
<path d="M2.7 3.4817C2.7 2.5151 3.50719 1.7317 4.5 1.7317H16.2C17.1928 1.7317 18 2.5151 18 3.4817V9.6067C18 10.5719 17.1928 11.3567 16.2 11.3567H4.5C3.50719 11.3567 2.7 10.5719 2.7 9.6067V3.4817ZM4.5 9.6067H6.3C6.3 8.64147 5.49281 7.8567 4.5 7.8567V9.6067ZM4.5 3.4817V5.2317C5.49281 5.2317 6.3 4.44694 6.3 3.4817H4.5ZM16.2 7.8567C15.2072 7.8567 14.4 8.64147 14.4 9.6067H16.2V7.8567ZM14.4 3.4817C14.4 4.44694 15.2072 5.2317 16.2 5.2317V3.4817H14.4ZM10.35 4.3567C9.10687 4.3567 8.1 5.33561 8.1 6.5442C8.1 7.7528 9.10687 8.7317 10.35 8.7317C11.5931 8.7317 12.6 7.7528 12.6 6.5442C12.6 5.33561 11.5931 4.3567 10.35 4.3567ZM1.35 10.7005C1.35 11.7887 2.25675 12.6692 3.375 12.6692H14.625C14.9991 12.6692 15.3 12.9618 15.3 13.3255C15.3 13.6891 14.9991 13.9817 14.625 13.9817H3.375C1.51116 13.9817 0 12.5133 0 10.7005V4.13795C0 3.77428 0.302344 3.4817 0.675 3.4817C1.04766 3.4817 1.35 3.77428 1.35 4.13795V10.7005Z" fill="white"/>
</svg>
