<svg width="35" height="35" viewBox="0 0 35 35" fill="none" xmlns="http://www.w3.org/2000/svg">
<path d="M30.9156 17.5L32.1179 12.344C32.393 11.1657 31.0712 10.2625 30.0723 10.9444L26.0168 13.7318C26.4718 14.1617 26.8955 14.6235 27.285 15.1135C27.8307 15.7892 28.1283 16.6315 28.1283 17.5001C28.1283 18.3686 27.8307 19.211 27.285 19.8867C26.8955 20.3767 26.4717 20.8384 26.0168 21.2684L30.0723 24.0558C31.0711 24.7376 32.393 23.8344 32.1179 22.6561L30.9156 17.5Z" fill="white"/>
<path d="M12.3672 25.7963C13.0475 26.7353 13.9863 27.4561 15.0691 27.871C16.1519 28.2858 17.3321 28.3768 18.4656 28.1327C19.5992 27.8886 20.6373 27.32 21.4535 26.4963C22.2696 25.6726 22.8285 24.6292 23.0621 23.4934C20.4362 25.0246 17.3019 25.874 14.042 25.874C13.4798 25.874 12.9176 25.8501 12.3672 25.7963Z" fill="white"/>
<path d="M23.0621 11.5067C22.8285 10.3709 22.2696 9.3275 21.4535 8.50375C20.6374 7.68 19.5993 7.11143 18.4657 6.86733C17.3321 6.62323 16.152 6.71415 15.0691 7.129C13.9863 7.54385 13.0475 8.26472 12.3672 9.20376C12.9176 9.14995 13.4798 9.12598 14.042 9.12598C17.3019 9.12598 20.4362 9.9754 23.0621 11.5067Z" fill="white"/>
<path d="M25.8854 16.2345C23.3199 13.0313 18.9768 10.9209 14.0399 10.9209C9.49806 10.9209 5.46046 12.7081 2.84546 15.4882L5.17247 17.5005L2.84546 19.5129C5.46031 22.2929 9.49806 24.0801 14.0399 24.0801C18.9769 24.0801 23.3199 21.9698 25.8854 18.7666C26.1741 18.4077 26.3314 17.9611 26.3314 17.5006C26.3314 17.0401 26.1741 16.5934 25.8854 16.2345ZM8.8269 16.9023C8.5903 16.9023 8.35901 16.8322 8.16228 16.7007C7.96555 16.5693 7.81222 16.3824 7.72168 16.1639C7.63113 15.9453 7.60744 15.7047 7.6536 15.4727C7.69976 15.2406 7.8137 15.0275 7.981 14.8602C8.1483 14.6928 8.36146 14.5789 8.59352 14.5328C8.82558 14.4866 9.06611 14.5103 9.2847 14.6008C9.5033 14.6914 9.69013 14.8447 9.82158 15.0414C9.95303 15.2382 10.0232 15.4695 10.0232 15.7061C10.0232 15.8632 9.99226 16.0187 9.93215 16.1639C9.87203 16.309 9.78391 16.4409 9.67283 16.552C9.56174 16.6631 9.42986 16.7512 9.28471 16.8113C9.13957 16.8714 8.98401 16.9024 8.8269 16.9023ZM13.2306 20.6961C13.0967 20.8924 12.8903 21.0275 12.6569 21.0719C12.4234 21.1162 12.1819 21.0662 11.9853 20.9327C11.7887 20.7992 11.653 20.5932 11.6081 20.3598C11.5632 20.1264 11.6127 19.8848 11.7458 19.6879C12.1715 19.0377 12.3982 18.2774 12.3982 17.5002C12.3982 16.723 12.1715 15.9627 11.7458 15.3125C11.6796 15.215 11.6333 15.1054 11.6095 14.99C11.5857 14.8746 11.5848 14.7557 11.607 14.64C11.6291 14.5242 11.6739 14.414 11.7386 14.3156C11.8034 14.2171 11.8869 14.1324 11.9844 14.0663C12.0819 14.0001 12.1915 13.9538 12.3068 13.93C12.4222 13.9062 12.5412 13.9053 12.6569 13.9275C12.7726 13.9496 12.8829 13.9944 12.9813 14.0591C13.0797 14.1239 13.1645 14.2074 13.2306 14.3049C13.8581 15.2525 14.1927 16.3639 14.1927 17.5005C14.1927 18.637 13.8581 19.7484 13.2306 20.6961V20.6961Z" fill="white"/>
</svg>
