<svg width="17" height="17" viewBox="0 0 17 17" fill="none" xmlns="http://www.w3.org/2000/svg">
<path d="M14.1667 2.83334H2.83332C2.05203 2.83334 1.41666 3.46871 1.41666 4.25V12.75C1.41666 13.5313 2.05203 14.1667 2.83332 14.1667H14.1667C14.9479 14.1667 15.5833 13.5313 15.5833 12.75V4.25C15.5833 3.46871 14.9479 2.83334 14.1667 2.83334ZM6.17312 5.66667C6.98841 5.66667 7.58978 6.26804 7.58978 7.08334C7.58978 7.89863 6.98841 8.5 6.17312 8.5C5.35782 8.5 4.75645 7.89863 4.75645 7.08334C4.75645 6.26804 5.35712 5.66667 6.17312 5.66667ZM8.80457 11.3333H3.54166V11.004C3.54166 10.0314 4.72882 9.03125 6.17312 9.03125C7.61741 9.03125 8.80457 10.0314 8.80457 11.004V11.3333ZM13.4583 10.625H10.625V9.20834H13.4583V10.625ZM13.4583 7.79167H9.91666V6.375H13.4583V7.79167Z" fill="white"/>
</svg>
