<svg width="15" height="15" viewBox="0 0 15 15" fill="none" xmlns="http://www.w3.org/2000/svg">
<path fill-rule="evenodd" clip-rule="evenodd" d="M9.76747 7.31026C11.141 6.23431 11.6808 4.40552 11.1117 2.75615C10.5426 1.10678 8.98991 0 7.24512 0C5.50033 0 3.94763 1.10678 3.37853 2.75615C2.80943 4.40552 3.34924 6.23431 4.72278 7.31026C2.13197 8.34209 0.430856 10.8479 0.427979 13.6366V14.3183C0.427979 14.6948 0.733192 15 1.10969 15C1.48619 15 1.79141 14.6948 1.79141 14.3183V13.6366C1.79141 10.6246 4.23312 8.18286 7.24512 8.18286C10.2571 8.18286 12.6988 10.6246 12.6988 13.6366V14.3183C12.6988 14.6948 13.0041 15 13.3806 15C13.7571 15 14.0623 14.6948 14.0623 14.3183V13.6366C14.0594 10.8479 12.3583 8.34209 9.76747 7.31026ZM4.51672 4.0926C4.51672 2.58659 5.73758 1.36574 7.24358 1.36574C8.74958 1.36574 9.97044 2.58659 9.97044 4.0926C9.97044 5.5986 8.74958 6.81945 7.24358 6.81945C6.52037 6.81945 5.82679 6.53216 5.3154 6.02078C4.80402 5.50939 4.51672 4.8158 4.51672 4.0926Z" fill="white"/>
</svg>
