<svg width="20" height="20" viewBox="0 0 20 20" fill="none" xmlns="http://www.w3.org/2000/svg">
<path d="M13.6875 2.98558L15.694 1.65334C16.1956 1.32028 16.2513 0.654161 15.8054 0.265591C15.5825 0.0435509 15.3038 -0.0674657 14.9694 0.0435543L11.4024 0.765177L8.95012 5.26149C8.78292 5.53904 8.89439 5.92761 9.11733 6.14965L9.50747 6.53823L6.77649 9.25822L0.367057 15.6974L0.311319 15.7529C-0.914834 18.2508 1.70468 20.9153 4.26845 19.6941L4.32418 19.6386L10.7894 13.1994L13.5203 10.4794L13.9105 10.868C14.1891 11.1456 14.5235 11.2011 14.8022 11.0345L19.3167 8.59209L19.9855 5.03945C20.0412 4.7619 19.9298 4.42884 19.7626 4.2068C19.3724 3.81823 18.7036 3.87374 18.3692 4.37333L17.0873 6.37169L14.4121 7.5374L12.5171 5.65007L13.6875 2.98558Z" fill="white"/>
</svg>
